<svg xmlns="http://www.w3.org/2000/svg" width="390" height="220" viewBox="0 0 390 220"><path d="M112.495 11.804L89.84 85.402l3.7 45.88h58.96l63.567-46.647z" fill="#bd2026" fill-rule="evenodd" stroke="#000" stroke-width="3.612" stroke-linejoin="round"/><path d="M89.85 85.506l3.69 45.775h58.833l-15.728-45.775z" fill="#fff" fill-rule="evenodd" stroke="#000" stroke-width="3.612" stroke-linejoin="round"/><path d="M11.808 85.4l40.113 120.27 62.348-46.124z" fill="#f6b419" fill-rule="evenodd" stroke="#000" stroke-width="3.612" stroke-linejoin="round" stroke-opacity=".829"/><path d="M52.11 205.01L88.192 91.634" fill="none" stroke="#000" stroke-width="3.612"/><path d="M11.808 85.4h124.943l-22.482 74.146z" fill="#fced27" fill-rule="evenodd" stroke="#000" stroke-width="3.612" stroke-linejoin="round"/><path style="line-height:112.99999952%;-inkscape-font-specification:'Heiti SC, Normal';text-align:start" d="M198.706 143.662v7.136h-3.278v2.506h3.278v17.094h2.897v-17.094h3.768v-2.506h-3.768v-7.136zm19.957 0v7.136h-3.28v2.506h3.28v17.094h2.895v-17.094h3.768v-2.506h-3.768v-7.136zm33.202 0v7.136h-3.28v2.506h3.28v17.094h2.896v-17.094h3.767v-2.506h-3.767v-7.136zm61.23 0v10.025c-1.884-2.251-4.221-3.376-7.012-3.376-2.768 0-5.118.985-7.049 2.958-1.93 1.95-2.895 4.306-2.895 7.068 0 2.762.953 5.129 2.86 7.102 1.908 1.972 4.211 2.96 6.91 2.96 2.72 0 5.116-1.138 7.186-3.413v2.784h2.825v-26.108zm-162.045.626v25.482h3.001v-25.482zm57.707.034v4.25h2.896v-4.25zm-39.434 5.989c-2.582 0-4.815 1.113-6.699 3.34v-2.853h-2.895v18.972h2.895v-7.031c0-2.507.105-4.178.314-5.014a6.766 6.766 0 011.221-2.366 6.28 6.28 0 012.094-1.742c.814-.418 1.64-.626 2.477-.626.86 0 1.582.127 2.164.383.604.255 1.092.65 1.464 1.184.396.51.686 1.149.872 1.914.21.743.314 2.16.314 4.248v9.05h2.862v-9.746c0-2.576-.28-4.48-.839-5.71-.558-1.253-1.394-2.228-2.51-2.924-1.117-.72-2.362-1.08-3.734-1.08zm16.59 0c-1.704 0-3.037.512-4 1.537-.964 1.024-1.446 2.356-1.446 3.995 0 .952.178 1.802.532 2.55a4.455 4.455 0 001.494 1.79c.642.446 1.916.988 3.82 1.627 1.317.434 2.147.795 2.49 1.085.499.421.748 1.012.748 1.772 0 .88-.293 1.608-.88 2.187-.576.566-1.396.85-2.459.85-1.062 0-1.915-.325-2.557-.975-.642-.663-1.035-1.67-1.179-3.02l-2.423.505c.553 4.123 2.562 6.184 6.027 6.184 1.849 0 3.304-.566 4.367-1.7 1.074-1.133 1.611-2.615 1.611-4.447 0-.989-.166-1.838-.498-2.55-.332-.723-.797-1.29-1.395-1.7-.598-.421-1.91-.987-3.936-1.698-1.472-.53-2.357-.917-2.656-1.158-.498-.41-.748-.97-.748-1.68 0-.724.261-1.315.781-1.773.52-.47 1.312-.706 2.375-.706 1.87 0 2.916 1.05 3.138 3.147l2.39-.435c-.165-1.325-.464-2.343-.896-3.054-.432-.711-1.057-1.278-1.877-1.7-.808-.422-1.748-.633-2.822-.633zm85.599 0c-2.768 0-5.117.985-7.047 2.958-1.907 1.973-2.862 4.341-2.862 7.103 0 2.762.955 5.129 2.862 7.101 1.907 1.95 4.256 2.925 7.047 2.925 2.79 0 5.128-.975 7.012-2.925 1.907-1.972 2.861-4.34 2.861-7.101 0-2.762-.966-5.13-2.896-7.103-1.907-1.973-4.233-2.958-6.977-2.958zm58.794 0c-2.768 0-5.094.985-6.978 2.958-1.86 1.973-2.79 4.341-2.79 7.103 0 2.762.93 5.129 2.79 7.101 1.86 1.95 4.221 2.925 7.082 2.925 2.07 0 3.85-.476 5.338-1.428 1.489-.975 2.78-2.472 3.873-4.491l-2.443-1.253c-1.605 2.994-3.93 4.491-6.977 4.491-1.791 0-3.338-.626-4.64-1.88-1.28-1.276-1.977-2.959-2.093-5.047h16.676c-.07-3.25-1.034-5.803-2.895-7.66-1.86-1.88-4.176-2.82-6.943-2.82zm-121.549.487v18.972h2.896v-18.972zm19.29 0v9.748c0 2.576.28 4.49.838 5.744a6.69 6.69 0 002.511 2.924c1.117.696 2.362 1.044 3.734 1.044 2.582 0 4.814-1.113 6.698-3.341v2.853h2.895v-18.972h-2.895v7.032c0 2.506-.116 4.178-.349 5.013-.21.836-.604 1.625-1.186 2.368a6.276 6.276 0 01-2.094 1.74 5.437 5.437 0 01-2.511.627c-.837 0-1.56-.128-2.164-.383a3.717 3.717 0 01-1.465-1.149c-.372-.533-.662-1.173-.872-1.915-.186-.766-.279-2.192-.279-4.281v-9.052zm78.105 2.297c2.047 0 3.734.709 5.06 2.125 1.348 1.392 2.022 3.144 2.022 5.256 0 2.09-.72 3.818-2.162 5.188-1.442 1.369-3.082 2.053-4.92 2.053-1.953 0-3.628-.73-5.024-2.193-1.395-1.462-2.094-3.168-2.094-5.117 0-1.973.676-3.679 2.025-5.118 1.372-1.462 3.07-2.194 5.093-2.194zm24.154 0c1.604 0 3.024.454 4.256 1.359 1.233.905 2.023 2.169 2.372 3.793h-13.117c1.07-3.434 3.232-5.152 6.489-5.152zm-58.83.035c1.908 0 3.548.732 4.92 2.194 1.396 1.439 2.093 3.156 2.093 5.152 0 1.973-.686 3.667-2.058 5.083-1.349 1.393-2.989 2.088-4.92 2.088-2 0-3.663-.695-4.988-2.088-1.326-1.392-1.989-3.087-1.989-5.083s.686-3.713 2.058-5.152c1.373-1.462 3-2.194 4.885-2.194zm14.43 28.218l-3.632 6.668h3.036l4.92-6.668zm-77.954 1.914v7.136h-3.28v2.508h3.28v17.093h2.895v-17.093h3.768v-2.508h-3.768v-7.136zm94.64 0v7.136h-3.279v2.508h3.279v17.093h2.896v-17.093h3.767v-2.508h-3.767v-7.136zm-151.984.628v25.482h2.895v-20.614l9.204 20.614h1.792l8.923-20.614v20.614h2.895V183.89h-4.139l-8.67 20.225-8.731-20.225zm162.156.66v4.25h2.895v-4.25zm61.092 5.361c-1.705 0-3.038.512-4.002 1.537-.963 1.024-1.444 2.356-1.444 3.995 0 .953.176 1.804.53 2.55a4.453 4.453 0 001.496 1.79c.642.446 1.915.988 3.819 1.627 1.317.434 2.147.797 2.49 1.086.498.422.748 1.012.748 1.771 0 .88-.294 1.61-.88 2.188-.576.567-1.395.85-2.457.85-1.063 0-1.916-.325-2.558-.976-.642-.663-1.035-1.67-1.179-3.02l-2.424.507c.553 4.122 2.562 6.183 6.027 6.183 1.848 0 3.305-.567 4.368-1.7 1.074-1.133 1.61-2.615 1.61-4.447 0-.988-.166-1.84-.498-2.55-.332-.724-.797-1.289-1.395-1.699-.598-.422-1.91-.988-3.936-1.7-1.472-.53-2.357-.915-2.656-1.156-.498-.41-.747-.971-.747-1.682 0-.723.26-1.314.78-1.772.52-.47 1.312-.705 2.375-.705 1.87 0 2.916 1.048 3.137 3.145l2.392-.433c-.166-1.326-.464-2.345-.896-3.056-.432-.71-1.057-1.278-1.876-1.7-.809-.421-1.75-.633-2.824-.633zm-183.192.001c-2.767 0-5.117.986-7.048 2.958-1.93 1.95-2.895 4.307-2.895 7.068 0 2.739.953 5.106 2.86 7.102 1.93 1.973 4.246 2.958 6.944 2.958 2.698 0 5.082-1.136 7.152-3.41v2.784h2.825v-18.973h-2.825v2.889c-1.884-2.251-4.221-3.376-7.013-3.376zm36.688 0c-2.768 0-5.095.986-6.979 2.958-1.86 1.973-2.79 4.341-2.79 7.103 0 2.762.93 5.129 2.79 7.102 1.86 1.95 4.223 2.923 7.083 2.923 2.07 0 3.85-.475 5.338-1.427 1.489-.975 2.779-2.472 3.872-4.49l-2.442-1.254c-1.604 2.994-3.93 4.491-6.977 4.491-1.79 0-3.338-.626-4.64-1.88-1.28-1.276-1.978-2.958-2.094-5.047h16.676c-.07-3.25-1.034-5.803-2.895-7.66-1.86-1.88-4.174-2.819-6.942-2.819zm23.694 0c-2.442 0-4.477 1.055-6.105 3.167v-2.68h-2.862v18.973h2.862v-8.076c0-2.39.22-4.097.662-5.118a5.658 5.658 0 012.023-2.507c.93-.65 1.908-.975 2.932-.975 1.023 0 1.871.267 2.546.8a3.525 3.525 0 011.29 2.056c.21.835.314 2.205.314 4.108v9.712h2.827v-7.485c0-2.344.186-4.108.558-5.291.372-1.207 1.035-2.16 1.988-2.856.954-.696 1.966-1.044 3.036-1.044 1.093 0 1.965.267 2.616.8.674.511 1.106 1.15 1.292 1.916.21.766.314 1.972.314 3.62v10.34h2.93v-10.34c0-3.528-.64-5.93-1.919-7.206-1.279-1.276-2.826-1.914-4.64-1.914-1.326 0-2.582.348-3.768 1.044-1.187.696-2.174 1.707-2.965 3.03-.465-1.3-1.245-2.299-2.339-2.995-1.07-.72-2.266-1.08-3.592-1.08zm34.267 0c-2.768 0-5.117.986-7.047 2.958-1.93 1.95-2.897 4.307-2.897 7.068 0 2.739.955 5.106 2.862 7.102 1.93 1.973 4.244 2.958 6.942 2.958 2.698 0 5.082-1.136 7.152-3.41v2.784h2.826v-18.973h-2.826v2.889c-1.884-2.251-4.221-3.376-7.012-3.376zm44.71 0c-2.767 0-5.117.986-7.048 2.958-1.907 1.973-2.86 4.341-2.86 7.103 0 2.762.953 5.13 2.86 7.103 1.908 1.95 4.258 2.924 7.049 2.924 2.79 0 5.128-.974 7.012-2.924 1.333-1.38 2.188-2.959 2.59-4.724h-2.977a7.136 7.136 0 01-1.707 2.808c-1.35 1.393-2.988 2.087-4.918 2.087-2 0-3.664-.694-4.99-2.087-1.325-1.392-1.989-3.086-1.989-5.082s.687-3.714 2.06-5.153c1.372-1.462 3-2.194 4.884-2.194 1.907 0 3.546.732 4.918 2.194a7.442 7.442 0 011.438 2.087h3.138c-.454-1.534-1.28-2.914-2.482-4.142-1.907-1.972-4.233-2.958-6.977-2.958zm23.262 0c-2.767 0-5.118.986-7.048 2.958-1.93 1.95-2.895 4.307-2.895 7.068 0 2.739.953 5.106 2.86 7.102 1.93 1.973 4.246 2.958 6.944 2.958 2.698 0 5.081-1.136 7.151-3.41v2.784h2.826v-18.973h-2.826v2.889c-1.884-2.251-4.22-3.376-7.012-3.376zm-40.521 1.114v18.972h2.896v-18.972zm-122.065 1.67c2 0 3.687.709 5.06 2.125 1.371 1.392 2.057 3.133 2.057 5.222 0 2.065-.697 3.794-2.093 5.187-1.395 1.393-3.058 2.088-4.989 2.088-1.954 0-3.628-.719-5.024-2.158-1.395-1.462-2.094-3.18-2.094-5.152 0-1.973.687-3.679 2.06-5.118 1.372-1.462 3.046-2.194 5.023-2.194zm36.653 0c1.605 0 3.022.454 4.255 1.36 1.233.904 2.024 2.168 2.373 3.793h-13.118c1.07-3.435 3.234-5.153 6.49-5.153zm57.996 0c2 0 3.686.709 5.059 2.125 1.372 1.392 2.057 3.133 2.057 5.222 0 2.065-.697 3.794-2.092 5.187-1.396 1.393-3.06 2.088-4.99 2.088-1.953 0-3.628-.719-5.023-2.158-1.396-1.462-2.093-3.18-2.093-5.152 0-1.973.685-3.679 2.058-5.118 1.372-1.462 3.047-2.194 5.024-2.194zm67.972 0c2 0 3.687.709 5.059 2.125 1.372 1.392 2.058 3.133 2.058 5.222 0 2.065-.699 3.794-2.094 5.187-1.396 1.393-3.057 2.088-4.988 2.088-1.954 0-3.628-.719-5.024-2.158-1.395-1.462-2.094-3.18-2.094-5.152 0-1.973.687-3.679 2.06-5.118 1.372-1.462 3.046-2.194 5.023-2.194z" font-weight="400" font-size="25.35" font-family="Heiti SC" letter-spacing=".4" word-spacing="1.27"/></svg>