<?xml version="1.0" encoding="UTF-8" standalone="no"?>

<svg xmlns="http://www.w3.org/2000/svg" xmlns:xlink= "http://www.w3.org/1999/xlink" width="200" height="200" viewBox="0 0 200 200">

<defs>
	<clipPath id="clipPath_E1">
		<rect x="0" y="0" width="200" height="200" />
	</clipPath>
</defs>

<g style="clip-path: url(#clipPath_E1);" stroke-linecap="round">
	<rect x="0" y="0" width="200" height="200" fill="#ecf0f1" fill-opacity="1"/>
	<path fill="none" stroke="#000000" stroke-opacity="1" stroke-width="1.2" d="M 0 100.5 L 200 100.5 " />
	<path fill="none" stroke="#000000" stroke-opacity="1" stroke-width="1.2" d="M 100.5 0 L 100.5 200 " />
	<path fill="none" stroke="#000000" stroke-opacity="1" stroke-width="1" d="M 100.5 96.5 L 100.5 104.5 " />
	<path fill="none" stroke="#000000" stroke-opacity="1" stroke-width="1" d="M 96.5 100.5 L 104.5 100.5 " />
	<path fill="none" stroke="#000000" stroke-opacity="1" stroke-width="1" d="M -19.5 98.5 L -19.5 102.5 " />
	<path fill="none" stroke="#000000" stroke-opacity="1" stroke-width="1" d="M 100.5 98.5 L 100.5 102.5 " />
	<path fill="none" stroke="#000000" stroke-opacity="1" stroke-width="1" d="M 98.5 -19.5 L 102.5 -19.5 " />
	<path fill="none" stroke="#000000" stroke-opacity="1" stroke-width="1" d="M 98.5 100.5 L 102.5 100.5 " />
	<path fill="none" stroke="#000000" stroke-opacity="1" stroke-width="1" d="M 4.5 99.5 L 4.5 101.5 " />
	<path fill="none" stroke="#000000" stroke-opacity="1" stroke-width="1" d="M 28.5 99.5 L 28.5 101.5 " />
	<path fill="none" stroke="#000000" stroke-opacity="1" stroke-width="1" d="M 52.5 99.5 L 52.5 101.5 " />
	<path fill="none" stroke="#000000" stroke-opacity="1" stroke-width="1" d="M 76.5 99.5 L 76.5 101.5 " />
	<path fill="none" stroke="#000000" stroke-opacity="1" stroke-width="1" d="M 100.5 99.5 L 100.5 101.5 " />
	<path fill="none" stroke="#000000" stroke-opacity="1" stroke-width="1" d="M 124.5 99.5 L 124.5 101.5 " />
	<path fill="none" stroke="#000000" stroke-opacity="1" stroke-width="1" d="M 148.5 99.5 L 148.5 101.5 " />
	<path fill="none" stroke="#000000" stroke-opacity="1" stroke-width="1" d="M 172.5 99.5 L 172.5 101.5 " />
	<path fill="none" stroke="#000000" stroke-opacity="1" stroke-width="1" d="M 196.5 99.5 L 196.5 101.5 " />
	<path fill="none" stroke="#000000" stroke-opacity="1" stroke-width="1" d="M 99.5 4.5 L 101.5 4.5 " />
	<path fill="none" stroke="#000000" stroke-opacity="1" stroke-width="1" d="M 99.5 28.5 L 101.5 28.5 " />
	<path fill="none" stroke="#000000" stroke-opacity="1" stroke-width="1" d="M 99.5 52.5 L 101.5 52.5 " />
	<path fill="none" stroke="#000000" stroke-opacity="1" stroke-width="1" d="M 99.5 76.5 L 101.5 76.5 " />
	<path fill="none" stroke="#000000" stroke-opacity="1" stroke-width="1" d="M 99.5 100.5 L 101.5 100.5 " />
	<path fill="none" stroke="#000000" stroke-opacity="1" stroke-width="1" d="M 99.5 124.5 L 101.5 124.5 " />
	<path fill="none" stroke="#000000" stroke-opacity="1" stroke-width="1" d="M 99.5 148.5 L 101.5 148.5 " />
	<path fill="none" stroke="#000000" stroke-opacity="1" stroke-width="1" d="M 99.5 172.5 L 101.5 172.5 " />
	<path fill="none" stroke="#000000" stroke-opacity="1" stroke-width="1" d="M 99.5 196.5 L 101.5 196.5 " />
	<path fill="none" stroke="#e74c3c" stroke-opacity="1" stroke-width="4" d="M 47 5 L 47 5 " />
	<path fill="none" stroke="#e74c3c" stroke-opacity="1" stroke-width="4" d="M 47 5 L 51 11 " />
	<path fill="none" stroke="#e74c3c" stroke-opacity="1" stroke-width="4" d="M 51 11 L 56 18 " />
	<path fill="none" stroke="#e74c3c" stroke-opacity="1" stroke-width="4" d="M 56 18 L 60 24 " />
	<path fill="none" stroke="#e74c3c" stroke-opacity="1" stroke-width="4" d="M 60 24 L 65 31 " />
	<path fill="none" stroke="#e74c3c" stroke-opacity="1" stroke-width="4" d="M 65 31 L 70 37 " />
	<path fill="none" stroke="#e74c3c" stroke-opacity="1" stroke-width="4" d="M 70 37 L 75 43 " />
	<path fill="none" stroke="#e74c3c" stroke-opacity="1" stroke-width="4" d="M 75 43 L 80 49 " />
	<path fill="none" stroke="#e74c3c" stroke-opacity="1" stroke-width="4" d="M 80 49 L 86 55 " />
	<path fill="none" stroke="#e74c3c" stroke-opacity="1" stroke-width="4" d="M 86 55 L 92 61 " />
	<path fill="none" stroke="#e74c3c" stroke-opacity="1" stroke-width="4" d="M 92 61 L 98 65 " />
	<path fill="none" stroke="#e74c3c" stroke-opacity="1" stroke-width="4" d="M 98 65 L 105 68 " />
	<path fill="none" stroke="#e74c3c" stroke-opacity="1" stroke-width="4" d="M 105 68 L 112 70 " />
	<path fill="none" stroke="#e74c3c" stroke-opacity="1" stroke-width="4" d="M 112 70 L 120 69 " />
	<path fill="none" stroke="#e74c3c" stroke-opacity="1" stroke-width="4" d="M 120 69 L 128 68 " />
	<path fill="none" stroke="#e74c3c" stroke-opacity="1" stroke-width="4" d="M 128 68 L 135 66 " />
	<path fill="none" stroke="#e74c3c" stroke-opacity="1" stroke-width="4" d="M 135 66 L 143 63 " />
	<path fill="none" stroke="#e74c3c" stroke-opacity="1" stroke-width="4" d="M 143 63 L 150 60 " />
	<path fill="none" stroke="#e74c3c" stroke-opacity="1" stroke-width="4" d="M 150 60 L 157 56 " />
	<path fill="none" stroke="#e74c3c" stroke-opacity="1" stroke-width="4" d="M 157 56 L 164 53 " />
	<path fill="none" stroke="#e74c3c" stroke-opacity="1" stroke-width="4" d="M 164 53 L 171 49 " />
	<path fill="none" stroke="#e74c3c" stroke-opacity="1" stroke-width="4" d="M 171 49 L 179 45 " />
	<path fill="none" stroke="#e74c3c" stroke-opacity="1" stroke-width="4" d="M 179 45 L 186 41 " />
	<path fill="none" stroke="#e74c3c" stroke-opacity="1" stroke-width="4" d="M 186 41 L 193 37 " />
	<path fill="none" stroke="#e74c3c" stroke-opacity="1" stroke-width="4" d="M 193 37 L 200 33 " />
	<path fill="none" stroke="#e74c3c" stroke-opacity="1" stroke-width="4" d="M 200 33 L 206 29 " />
	<path fill="none" stroke="#e74c3c" stroke-opacity="1" stroke-width="4" d="M 206 29 L 213 25 " />
	<path fill="none" stroke="#e74c3c" stroke-opacity="1" stroke-width="4" d="M 213 25 L 220 21 " />
	<path fill="none" stroke="#e74c3c" stroke-opacity="1" stroke-width="4" d="M 220 21 L 227 17 " />
	<path fill="none" stroke="#e74c3c" stroke-opacity="1" stroke-width="4" d="M 227 17 L 234 13 " />
	<path fill="none" stroke="#e74c3c" stroke-opacity="1" stroke-width="4" d="M 234 13 L 241 9 " />
	<path fill="none" stroke="#e74c3c" stroke-opacity="1" stroke-width="4" d="M 47 5 L 42 -2 " />
	<path fill="none" stroke="#e74c3c" stroke-opacity="1" stroke-width="4" d="M 42 -2 L 38 -9 " />
	<path fill="none" stroke="#e74c3c" stroke-opacity="1" stroke-width="4" d="M 136 65 L 136 65 " />
	<path fill="none" stroke="#e74c3c" stroke-opacity="1" stroke-width="4" d="M 136 65 L 143 62 " />
	<path fill="none" stroke="#e74c3c" stroke-opacity="1" stroke-width="4" d="M 143 62 L 151 59 " />
	<path fill="none" stroke="#e74c3c" stroke-opacity="1" stroke-width="4" d="M 151 59 L 158 56 " />
	<path fill="none" stroke="#e74c3c" stroke-opacity="1" stroke-width="4" d="M 73 42 L 73 42 " />
	<path fill="none" stroke="#e74c3c" stroke-opacity="1" stroke-width="4" d="M 73 42 L 79 48 " />
	<path fill="none" stroke="#e74c3c" stroke-opacity="1" stroke-width="4" d="M 82 52 L 82 52 " />
	<path fill="none" stroke="#e74c3c" stroke-opacity="1" stroke-width="4" d="M 82 52 L 88 58 " />
	<path fill="none" stroke="#e74c3c" stroke-opacity="1" stroke-width="4" d="M 88 58 L 94 63 " />
	<path fill="none" stroke="#e74c3c" stroke-opacity="1" stroke-width="4" d="M 119 149 L 119 149 " />
	<path fill="none" stroke="#e74c3c" stroke-opacity="1" stroke-width="4" d="M 119 149 L 113 143 " />
	<path fill="none" stroke="#e74c3c" stroke-opacity="1" stroke-width="4" d="M 113 143 L 107 138 " />
	<path fill="none" stroke="#e74c3c" stroke-opacity="1" stroke-width="4" d="M 107 138 L 100 134 " />
	<path fill="none" stroke="#e74c3c" stroke-opacity="1" stroke-width="4" d="M 100 134 L 93 131 " />
	<path fill="none" stroke="#e74c3c" stroke-opacity="1" stroke-width="4" d="M 93 131 L 86 130 " />
	<path fill="none" stroke="#e74c3c" stroke-opacity="1" stroke-width="4" d="M 86 130 L 78 131 " />
	<path fill="none" stroke="#e74c3c" stroke-opacity="1" stroke-width="4" d="M 78 131 L 70 133 " />
	<path fill="none" stroke="#e74c3c" stroke-opacity="1" stroke-width="4" d="M 70 133 L 63 135 " />
	<path fill="none" stroke="#e74c3c" stroke-opacity="1" stroke-width="4" d="M 63 135 L 55 138 " />
	<path fill="none" stroke="#e74c3c" stroke-opacity="1" stroke-width="4" d="M 55 138 L 48 141 " />
	<path fill="none" stroke="#e74c3c" stroke-opacity="1" stroke-width="4" d="M 48 141 L 41 145 " />
	<path fill="none" stroke="#e74c3c" stroke-opacity="1" stroke-width="4" d="M 41 145 L 34 148 " />
	<path fill="none" stroke="#e74c3c" stroke-opacity="1" stroke-width="4" d="M 34 148 L 27 152 " />
	<path fill="none" stroke="#e74c3c" stroke-opacity="1" stroke-width="4" d="M 27 152 L 20 156 " />
	<path fill="none" stroke="#e74c3c" stroke-opacity="1" stroke-width="4" d="M 20 156 L 13 160 " />
	<path fill="none" stroke="#e74c3c" stroke-opacity="1" stroke-width="4" d="M 13 160 L 6 164 " />
	<path fill="none" stroke="#e74c3c" stroke-opacity="1" stroke-width="4" d="M 6 164 L -1 168 " />
	<path fill="none" stroke="#e74c3c" stroke-opacity="1" stroke-width="4" d="M -1 168 L -8 172 " />
	<path fill="none" stroke="#e74c3c" stroke-opacity="1" stroke-width="4" d="M 119 149 L 124 155 " />
	<path fill="none" stroke="#e74c3c" stroke-opacity="1" stroke-width="4" d="M 124 155 L 129 161 " />
	<path fill="none" stroke="#e74c3c" stroke-opacity="1" stroke-width="4" d="M 129 161 L 134 168 " />
	<path fill="none" stroke="#e74c3c" stroke-opacity="1" stroke-width="4" d="M 134 168 L 138 174 " />
	<path fill="none" stroke="#e74c3c" stroke-opacity="1" stroke-width="4" d="M 138 174 L 143 181 " />
	<path fill="none" stroke="#e74c3c" stroke-opacity="1" stroke-width="4" d="M 143 181 L 148 187 " />
	<path fill="none" stroke="#e74c3c" stroke-opacity="1" stroke-width="4" d="M 148 187 L 152 194 " />
	<path fill="none" stroke="#e74c3c" stroke-opacity="1" stroke-width="4" d="M 152 194 L 157 200 " />
	<path fill="none" stroke="#e74c3c" stroke-opacity="1" stroke-width="4" d="M 157 200 L 161 207 " />
	<path fill="none" stroke="#e74c3c" stroke-opacity="1" stroke-width="4" d="M 161 207 L 166 214 " />
	<path fill="none" stroke="#e74c3c" stroke-opacity="1" stroke-width="4" d="M 166 214 L 170 220 " />
	<path fill="none" stroke="#e74c3c" stroke-opacity="1" stroke-width="4" d="M 170 220 L 174 227 " />
	<path fill="none" stroke="#e74c3c" stroke-opacity="1" stroke-width="4" d="M 174 227 L 179 234 " />
	<path fill="none" stroke="#e74c3c" stroke-opacity="1" stroke-width="4" d="M 179 234 L 183 240 " />
	<path fill="none" stroke="#e74c3c" stroke-opacity="1" stroke-width="4" d="M 183 240 L 187 247 " />
	<path fill="none" stroke="#e74c3c" stroke-opacity="1" stroke-width="4" d="M 110 69 L 110 69 " />
	<path fill="none" stroke="#e74c3c" stroke-opacity="1" stroke-width="4" d="M 110 69 L 118 70 " />
	<path fill="none" stroke="#e74c3c" stroke-opacity="1" stroke-width="4" d="M 118 70 L 126 68 " />
	<path fill="none" stroke="#e74c3c" stroke-opacity="1" stroke-width="4" d="M 97 132 L 97 132 " />
	<path fill="none" stroke="#e74c3c" stroke-opacity="1" stroke-width="4" d="M 97 132 L 89 131 " />
	<path fill="none" stroke="#e74c3c" stroke-opacity="1" stroke-width="4" d="M 89 131 L 82 130 " />
	<path fill="none" stroke="#e74c3c" stroke-opacity="1" stroke-width="4" d="M 82 130 L 74 132 " />
	<path fill="none" stroke="#e74c3c" stroke-opacity="1" stroke-width="4" d="M 21 155 L 21 155 " />
	<path fill="none" stroke="#e74c3c" stroke-opacity="1" stroke-width="4" d="M 21 155 L 28 152 " />
	<path fill="none" stroke="#e74c3c" stroke-opacity="1" stroke-width="4" d="M 37 146 L 37 146 " />
	<path fill="none" stroke="#e74c3c" stroke-opacity="1" stroke-width="4" d="M 37 146 L 30 150 " />
	<path fill="none" stroke="#e74c3c" stroke-opacity="1" stroke-width="4" d="M 30 150 L 23 154 " />
	<path fill="none" stroke="#e74c3c" stroke-opacity="1" stroke-width="4" d="M 112 143 L 112 143 " />
	<path fill="none" stroke="#e74c3c" stroke-opacity="1" stroke-width="4" d="M 112 143 L 106 138 " />
	<path fill="none" stroke="#e74c3c" stroke-opacity="1" stroke-width="4" d="M 121 152 L 121 152 " />
	<path fill="none" stroke="#e74c3c" stroke-opacity="1" stroke-width="4" d="M 121 152 L 116 146 " />
	<path fill="none" stroke="#e74c3c" stroke-opacity="1" stroke-width="4" d="M 7 163 L 7 163 " />
	<path fill="none" stroke="#e74c3c" stroke-opacity="1" stroke-width="4" d="M 7 163 L 0 167 " />
	<path fill="none" stroke="#e74c3c" stroke-opacity="1" stroke-width="4" d="M 0 167 L -7 171 " />
	<path fill="none" stroke="#e74c3c" stroke-opacity="1" stroke-width="4" d="M 7 163 L 14 159 " />
	<path fill="none" stroke="#e74c3c" stroke-opacity="1" stroke-width="4" d="M 14 159 L 21 155 " />
	<path fill="none" stroke="#e74c3c" stroke-opacity="1" stroke-width="4" d="M 65 134 L 65 134 " />
	<path fill="none" stroke="#e74c3c" stroke-opacity="1" stroke-width="4" d="M 65 134 L 57 137 " />
	<path fill="none" stroke="#e74c3c" stroke-opacity="1" stroke-width="4" d="M 137 171 L 137 171 " />
	<path fill="none" stroke="#e74c3c" stroke-opacity="1" stroke-width="4" d="M 137 171 L 132 165 " />
</g>


</svg>
