<svg height="200" viewBox="0 0 200 200" width="200" xmlns="http://www.w3.org/2000/svg" xmlns:xlink="http://www.w3.org/1999/xlink"><clipPath id="a"><path d="m0 0h200v200h-200z"/></clipPath><g clip-path="url(#a)" stroke-linecap="round"><path d="m0 0h200v200h-200z" fill="#ecf0f1"/><g fill="none"><path d="m0 100.5h200" stroke="#000" stroke-width="1.2"/><path d="m100.5 0v200" stroke="#000" stroke-width="1.2"/><path d="m100.5 96.5v8" stroke="#000"/><path d="m96.5 100.5h8" stroke="#000"/><path d="m-19.5 98.5v4" stroke="#000"/><path d="m100.5 98.5v4" stroke="#000"/><path d="m98.5-19.5h4" stroke="#000"/><path d="m98.5 100.5h4" stroke="#000"/><path d="m4.5 99.5v2" stroke="#000"/><path d="m28.5 99.5v2" stroke="#000"/><path d="m52.5 99.5v2" stroke="#000"/><path d="m76.5 99.5v2" stroke="#000"/><path d="m100.5 99.5v2" stroke="#000"/><path d="m124.5 99.5v2" stroke="#000"/><path d="m148.5 99.5v2" stroke="#000"/><path d="m172.5 99.5v2" stroke="#000"/><path d="m196.5 99.5v2" stroke="#000"/><path d="m99.5 4.5h2" stroke="#000"/><path d="m99.5 28.5h2" stroke="#000"/><path d="m99.5 52.5h2" stroke="#000"/><path d="m99.5 76.5h2" stroke="#000"/><path d="m99.5 100.5h2" stroke="#000"/><path d="m99.5 124.5h2" stroke="#000"/><path d="m99.5 148.5h2" stroke="#000"/><path d="m99.5 172.5h2" stroke="#000"/><path d="m99.5 196.5h2" stroke="#000"/><path d="m47 5 4 6" stroke="#e74c3c" stroke-width="4"/><path d="m51 11 5 7" stroke="#e74c3c" stroke-width="4"/><path d="m56 18 4 6" stroke="#e74c3c" stroke-width="4"/><path d="m60 24 5 7" stroke="#e74c3c" stroke-width="4"/><path d="m65 31 5 6" stroke="#e74c3c" stroke-width="4"/><path d="m70 37 5 6" stroke="#e74c3c" stroke-width="4"/><path d="m75 43 5 6" stroke="#e74c3c" stroke-width="4"/><path d="m80 49 6 6" stroke="#e74c3c" stroke-width="4"/><path d="m86 55 6 6" stroke="#e74c3c" stroke-width="4"/><path d="m92 61 6 4" stroke="#e74c3c" stroke-width="4"/><path d="m98 65 7 3" stroke="#e74c3c" stroke-width="4"/><path d="m105 68 7 2" stroke="#e74c3c" stroke-width="4"/><path d="m112 70 8-1" stroke="#e74c3c" stroke-width="4"/><path d="m120 69 8-1" stroke="#e74c3c" stroke-width="4"/><path d="m128 68 7-2" stroke="#e74c3c" stroke-width="4"/><path d="m135 66 8-3" stroke="#e74c3c" stroke-width="4"/><path d="m143 63 7-3" stroke="#e74c3c" stroke-width="4"/><path d="m150 60 7-4" stroke="#e74c3c" stroke-width="4"/><path d="m157 56 7-3" stroke="#e74c3c" stroke-width="4"/><path d="m164 53 7-4" stroke="#e74c3c" stroke-width="4"/><path d="m171 49 8-4" stroke="#e74c3c" stroke-width="4"/><path d="m179 45 7-4" stroke="#e74c3c" stroke-width="4"/><path d="m186 41 7-4" stroke="#e74c3c" stroke-width="4"/><path d="m193 37 7-4" stroke="#e74c3c" stroke-width="4"/><path d="m200 33 6-4" stroke="#e74c3c" stroke-width="4"/><path d="m206 29 7-4" stroke="#e74c3c" stroke-width="4"/><path d="m213 25 7-4" stroke="#e74c3c" stroke-width="4"/><path d="m220 21 7-4" stroke="#e74c3c" stroke-width="4"/><path d="m227 17 7-4" stroke="#e74c3c" stroke-width="4"/><path d="m234 13 7-4" stroke="#e74c3c" stroke-width="4"/><path d="m47 5-5-7" stroke="#e74c3c" stroke-width="4"/><path d="m42-2-4-7" stroke="#e74c3c" stroke-width="4"/><path d="m136 65 7-3" stroke="#e74c3c" stroke-width="4"/><path d="m143 62 8-3" stroke="#e74c3c" stroke-width="4"/><path d="m151 59 7-3" stroke="#e74c3c" stroke-width="4"/><path d="m73 42 6 6" stroke="#e74c3c" stroke-width="4"/><path d="m82 52 6 6" stroke="#e74c3c" stroke-width="4"/><path d="m88 58 6 5" stroke="#e74c3c" stroke-width="4"/><path d="m119 149-6-6" stroke="#e74c3c" stroke-width="4"/><path d="m113 143-6-5" stroke="#e74c3c" stroke-width="4"/><path d="m107 138-7-4" stroke="#e74c3c" stroke-width="4"/><path d="m100 134-7-3" stroke="#e74c3c" stroke-width="4"/><path d="m93 131-7-1" stroke="#e74c3c" stroke-width="4"/><path d="m86 130-8 1" stroke="#e74c3c" stroke-width="4"/><path d="m78 131-8 2" stroke="#e74c3c" stroke-width="4"/><path d="m70 133-7 2" stroke="#e74c3c" stroke-width="4"/><path d="m63 135-8 3" stroke="#e74c3c" stroke-width="4"/><path d="m55 138-7 3" stroke="#e74c3c" stroke-width="4"/><path d="m48 141-7 4" stroke="#e74c3c" stroke-width="4"/><path d="m41 145-7 3" stroke="#e74c3c" stroke-width="4"/><path d="m34 148-7 4" stroke="#e74c3c" stroke-width="4"/><path d="m27 152-7 4" stroke="#e74c3c" stroke-width="4"/><path d="m20 156-7 4" stroke="#e74c3c" stroke-width="4"/><path d="m13 160-7 4" stroke="#e74c3c" stroke-width="4"/><path d="m6 164-7 4" stroke="#e74c3c" stroke-width="4"/><path d="m-1 168-7 4" stroke="#e74c3c" stroke-width="4"/><path d="m119 149 5 6" stroke="#e74c3c" stroke-width="4"/><path d="m124 155 5 6" stroke="#e74c3c" stroke-width="4"/><path d="m129 161 5 7" stroke="#e74c3c" stroke-width="4"/><path d="m134 168 4 6" stroke="#e74c3c" stroke-width="4"/><path d="m138 174 5 7" stroke="#e74c3c" stroke-width="4"/><path d="m143 181 5 6" stroke="#e74c3c" stroke-width="4"/><path d="m148 187 4 7" stroke="#e74c3c" stroke-width="4"/><path d="m152 194 5 6" stroke="#e74c3c" stroke-width="4"/><path d="m157 200 4 7" stroke="#e74c3c" stroke-width="4"/><path d="m161 207 5 7" stroke="#e74c3c" stroke-width="4"/><path d="m166 214 4 6" stroke="#e74c3c" stroke-width="4"/><path d="m170 220 4 7" stroke="#e74c3c" stroke-width="4"/><path d="m174 227 5 7" stroke="#e74c3c" stroke-width="4"/><path d="m179 234 4 6" stroke="#e74c3c" stroke-width="4"/><path d="m183 240 4 7" stroke="#e74c3c" stroke-width="4"/><path d="m110 69 8 1" stroke="#e74c3c" stroke-width="4"/><path d="m118 70 8-2" stroke="#e74c3c" stroke-width="4"/><path d="m97 132-8-1" stroke="#e74c3c" stroke-width="4"/><path d="m89 131-7-1" stroke="#e74c3c" stroke-width="4"/><path d="m82 130-8 2" stroke="#e74c3c" stroke-width="4"/><path d="m21 155 7-3" stroke="#e74c3c" stroke-width="4"/><path d="m37 146-7 4" stroke="#e74c3c" stroke-width="4"/><path d="m30 150-7 4" stroke="#e74c3c" stroke-width="4"/><path d="m112 143-6-5" stroke="#e74c3c" stroke-width="4"/><path d="m121 152-5-6" stroke="#e74c3c" stroke-width="4"/><path d="m7 163-7 4" stroke="#e74c3c" stroke-width="4"/><path d="m0 167-7 4" stroke="#e74c3c" stroke-width="4"/><path d="m7 163 7-4" stroke="#e74c3c" stroke-width="4"/><path d="m14 159 7-4" stroke="#e74c3c" stroke-width="4"/><path d="m65 134-8 3" stroke="#e74c3c" stroke-width="4"/><path d="m137 171-5-6" stroke="#e74c3c" stroke-width="4"/></g></g></svg>