<svg xmlns="http://www.w3.org/2000/svg" width="35" height="35" viewBox="0 0 35 35"><path fill="#e39d22" d="M0 0h35v35H0z"/><path d="M19.5 5a2.5 2.5 0 100 5 2.5 2.5 0 000-5zm-.527 7.79L13 15.11c.042.478.338.726.652.726.125 0 .295-.04.514-.11l1.586-.507c.254-.082.436-.145.56-.145.28 0 .42.144.42.434 0 .048-.025.208-.093.472l-2.94 11.314c-.07.272-.118.478-.139.762-.029.41.156.665.467.762.311.12.637.182.979.182 1.634 0 3.114-.826 4.525-1.452a16.273 16.273 0 001.727-.906c-.125-.483-.364-.84-.653-.724l-1.82.724c-.213.085-.435.11-.652.11-.373 0-.56-.146-.56-.436 0-.073.009-.183.046-.326l3.172-12.295a2.25 2.25 0 00.094-.545c0-.411-.246-.615-.622-.615-.358 0-.745.042-1.29.254z" fill="#fff"/></svg>