<svg xmlns="http://www.w3.org/2000/svg" width="40" height="40"><defs><filter id="a" width="1" x="0" height="1.5" color-interpolation-filters="sRGB"><feFlood flood-opacity=".2"/><feComposite in2="SourceGraphic" operator="in"/><feOffset dy="2" result="result1"/><feComposite in="SourceGraphic" in2="result1"/></filter></defs><path d="M9.823 4C6 4 6 4 6 8.002v22.656C6 34.66 9.179 36 12.358 36H34V9.342l-2.535-2.654v26.658H11.078c-1.288 0-2.543-.674-2.543-2.662H28.93V4zm1.353 3.66H23.86c.847-.008 1.548.71 1.548 1.605 0 .896-.7 1.613-1.548 1.596H11.176c-.856.017-1.557-.7-1.557-1.596 0-.896.701-1.613 1.557-1.604zm0 5.547H23.86c.847-.009 1.548.709 1.548 1.605 0 .887-.7 1.613-1.548 1.595H11.176c-.856.018-1.557-.708-1.557-1.595 0-.896.701-1.613 1.557-1.605zm0 5.334H23.86c.847-.01 1.548.708 1.548 1.604 0 .896-.7 1.613-1.548 1.596H11.176c-.856.017-1.557-.7-1.557-1.596 0-.896.701-1.613 1.557-1.604zm0 5.546H23.86c.847-.009 1.548.709 1.548 1.605 0 .887-.7 1.613-1.548 1.595H11.176c-.856.018-1.557-.708-1.557-1.595 0-.896.701-1.613 1.557-1.605z" fill="#fff" filter="url(#a)"/></svg>