<svg xmlns="http://www.w3.org/2000/svg" width="40" height="40"><defs><filter id="a" width="1" x="0" height="1.5" color-interpolation-filters="sRGB"><feFlood flood-opacity=".2"/><feComposite in2="SourceGraphic" operator="in"/><feOffset dy="2" result="result1"/><feComposite in="SourceGraphic" in2="result1"/></filter></defs><path d="M27.168 5a9.76 9.76 0 00-6.58 2.502c-2.054 1.878-3.251 4.497-3.251 7.287 0 5.921 3.991 6.946 5.417 9.85.285.569.456 1.195.57 1.821h7.688c.114-.626.285-1.252.57-1.822C33.008 21.735 37 20.71 37 14.79c0-2.79-1.198-5.409-3.25-7.287A9.76 9.76 0 0027.167 5zM3.628 6.42c-.343 0-.628.279-.628.57v24.594c0 .29.285.57.627.57H21.25a2.281 2.281 0 01-.171-.855c0-.569.285-1.081.627-1.423-.4-.341-.627-.854-.627-1.423 0-.797.456-1.424 1.083-1.765a8.11 8.11 0 00-.513-1.537c-1.312-2.619-5.532-3.929-5.532-10.362 0-3.131 1.37-6.263 3.935-8.37zm24.646.433c3.915 0 7.114 3.117 7.114 6.963a.627.627 0 11-1.254 0c0-3.154-2.609-5.71-5.86-5.71-.856.02-.856-1.274 0-1.253zm0 2.462c2.527 0 4.603 2.015 4.603 4.501a.627.627 0 11-1.254 0c0-1.793-1.484-3.248-3.349-3.248-.837 0-.837-1.253 0-1.253zm-5.257 18.284a.876.876 0 00-.856.854c0 .455.4.854.856.854H31a.876.876 0 00.856-.854c0-.456-.4-.854-.856-.854zm0 2.846a.876.876 0 00-.856.854c0 .456.4.854.856.854H31a.876.876 0 00.856-.854c0-.455-.4-.854-.856-.854zm.57 2.346v1.64c0 .284.228.569.57.569h5.817c.285 0 .57-.285.57-.57v-1.639z" fill="#fff" filter="url(#a)"/></svg>