<svg xmlns="http://www.w3.org/2000/svg" width="40" height="40"><defs><filter id="a" width="1" x="0" height="1.5" color-interpolation-filters="sRGB"><feFlood flood-opacity=".2"/><feComposite in2="SourceGraphic" operator="in"/><feOffset dy="2" result="result1"/><feComposite in="SourceGraphic" in2="result1"/></filter></defs><path style="line-height:normal;text-indent:0;text-align:start;text-decoration-line:none;text-decoration-style:solid;text-decoration-color:#000;text-transform:none;white-space:normal;isolation:auto;mix-blend-mode:normal;solid-color:#000;solid-opacity:1" d="M36.011 4c-3.303.177-5.765.612-8.501 1.88-6.598 3.057-11.12 9.744-15.458 17.213l.773.773c1.559-2.216 6.332-8.18 8.918-5.593 2.587 2.586-3.377 7.36-5.593 8.918l.774.773C24.392 23.627 31 19.067 34.137 12.506 35.43 9.8 35.924 6.537 36.01 4zm-6.086 6.091c1.114 1.115 1.13 2.994-.006 4.13a2.925 2.925 0 01-4.127.003 2.925 2.925 0 01.003-4.127c1.137-1.136 3.016-1.12 4.13-.006zm-.84.833c-.68-.671-1.748-.674-2.463 0-.715.674-.682 1.777.002 2.46a1.73 1.73 0 002.46 0c.683-.683.683-1.789.001-2.46zm-8.338 8.34c-1.212-1.212-3.285.835-4.969 2.704-1.51 1.676-3.113 4.204-4.844 7.107 2.902-1.732 5.428-3.337 7.105-4.846 1.87-1.683 3.92-3.754 2.708-4.965zm-5.412-4.235c-1.837-.58-3.972-.22-6.156 1.31-1.929 1.35-3.695 3.625-5.19 6.282 1.504-.969 2.881-1.698 4.042-1.896 1.341-.228 2.421.311 3.265 1.198 1.182-2.409 2.423-4.666 4.039-6.894zm9.624 9.625c-2.228 1.616-4.485 2.856-6.894 4.038.887.844 1.427 1.924 1.198 3.265-.198 1.161-.927 2.538-1.895 4.043 2.656-1.496 4.932-3.262 6.282-5.19 1.529-2.184 1.89-4.32 1.31-6.156z" color="#000" font-weight="400" font-family="sans-serif" overflow="visible" fill="#fff" fill-rule="evenodd" filter="url(#a)" enable-background="accumulate"/></svg>