<svg width="22" height="22" version="1.1" viewBox="0 0 22 22" xmlns="http://www.w3.org/2000/svg">
 <path d="m5 1.5c-0.55 0-1 0.45-1 1v1c0 0.55 0.45 1 1 1h1.5v2h-4c-0.55 0-1 0.45-1 1v12c0 0.55 0.45 1 1 1h17c0.55 0 1-0.45 1-1v-12c0-0.55-0.45-1-1-1h-4v-2h1.5c0.55 0 1-0.45 1-1v-1c0-0.55-0.45-1-1-1z" fill="#cd7f32"/>
 <rect x="7" y="4.5" width="9" height="2" fill-opacity=".38999999"/>
 <rect x="1.5" y="6.5" width="19" height="14" rx="1" ry="1" fill="none" stroke="#481d32" stroke-linecap="round"/>
 <rect x="4" y="1.5" width="14" height="3" rx="1" ry="1" fill="none" stroke="#481d32" stroke-linecap="round"/>
 <path d="m16 4.5v2m-9 0v-2" fill="#6098ff" stroke="#481d32"/>
 <path d="m11 18v-7.3c-1.4 1.066667-2.3333333 1.6-2.8 1.6-0.2333333 0-0.44-0.086667-0.62-0.26-0.18-0.18-0.27-0.386667-0.27-0.62 0-0.273333 0.09-0.473333 0.27-0.6s0.4933333-0.293333 0.94-0.5c0.6666667-0.306667 1.2-0.6266667 1.6-0.96 0.406667-0.3333333 0.773333-0.7 1.1-1.1 0.313333-0.4133333 0.516667-0.67 0.61-0.77 0.09333-0.1 0.27-0.1466667 0.53-0.14 0.293333 0 0.53 0.11 0.71 0.33s0.27 0.52 0.27 0.9v9.42c0 1.072476-0.445867 1.38-1.2 1.38s-1.14-0.307524-1.14-1.38z" fill="#fff"/>
</svg>
