<svg width="37" height="37" version="1.1" viewBox="0 0 37 37" xmlns="http://www.w3.org/2000/svg">
 <path d="m7 1.5c-0.55 0-1 0.45-1 1v2c0 0.55 0.45 1 1 1h3v3h-7.5c-0.55 0-1 0.48-1 1.1v25c0 0.6 0.45 1.1 1 1.1h32c0.55 0 1-0.48 1-1.1v-25c0-0.6-0.45-1.1-1-1.1h-7.5v-3h3c0.55 0 1-0.45 1-1v-2c0-0.55-0.45-1-1-1z" fill="#cd7f32"/>
 <rect x="10" y="5.5" width="17" height="3" fill-opacity=".39"/>
 <rect x="1.5" y="8.5" width="34" height="27" rx="1" ry="1" fill="none" stroke="#481d32" stroke-linecap="round"/>
 <path d="m22 31-3.9-5.8-4 5.8q-0.87 1.2-1.5 1.7-0.6 0.52-1.5 0.52-1 0-1.8-0.64-0.72-0.66-0.72-1.5 0-0.86 1.1-2.4l4.9-7-4.4-5.9q-1.1-1.5-1.1-2.5 0-0.84 0.68-1.5 0.68-0.62 1.8-0.62 0.95 0 1.6 0.54 0.64 0.54 1.5 1.7l3.5 4.8 3.4-4.8q0.86-1.2 1.5-1.7 0.64-0.52 1.6-0.52 1.1 0 1.8 0.62 0.72 0.6 0.72 1.5 0 0.62-0.3 1.2-0.28 0.56-0.87 1.3l-4.4 5.9 4.9 7q1.2 1.7 1.2 2.5 0 0.86-0.72 1.5-0.72 0.62-1.8 0.62-0.93 0-1.6-0.54-0.64-0.54-1.5-1.7z" fill="#fff"/>
 <rect x="10" y="5.5" width="17" height="3" fill="none" stroke="#481d32" stroke-linecap="round"/>
 <rect x="6" y="1.5" width="25" height="4" rx="1" ry="1" fill="none" stroke="#481d32" stroke-linecap="round"/>
</svg>
