<svg xmlns="http://www.w3.org/2000/svg" width="40" height="40"><defs><filter id="a" width="1" x="0" height="1.5" color-interpolation-filters="sRGB"><feFlood flood-opacity=".2"/><feComposite in2="SourceGraphic" operator="in"/><feOffset dy="2" result="result1"/><feComposite in="SourceGraphic" in2="result1"/></filter></defs><path d="M18.529 3.994c-8.64 0-12.16 5.44-12.16 12.24 0 3.52 1.36 7.36 4.4 8.96v8.08c0 .48.4.96.88 1.04l12.24 1.68c.48.08.88-.24.88-.72v-3.52l3.68.32c1.44.16 2.8-1.12 2.8-2.56l-.4-4.24c1.68 0 3.52-.32 2.48-2.24l-2.48-4.96c1.12-8-3.68-14.08-12.32-14.08zm-2.16 4.08h3.52c.24 0 .48.24.48.48v4.8h4.72c.32 0 .56.16.56.48v3.44c0 .32-.24.56-.56.56h-4.72v4.72c0 .24-.24.48-.48.48h-3.52c-.24 0-.48-.24-.48-.48v-4.72h-4.8c-.24 0-.48-.24-.48-.56v-3.44c0-.32.24-.48.48-.48h4.8v-4.8c0-.24.16-.48.48-.48z" filter="url(#a)" fill="#fff"/></svg>