<svg width="46" height="46" xmlns="http://www.w3.org/2000/svg"><defs><filter id="a" x="0" width="1" height="1.5" color-interpolation-filters="sRGB"><feFlood flood-opacity=".2"/><feComposite in2="SourceGraphic" operator="in"/><feOffset dy="2" result="result1"/><feComposite in="SourceGraphic" in2="result1"/></filter></defs><path d="M34.139 24.17q0 .506-.307 1.08-.297.575-.922 1.1-.614.516-1.556.833-.941.317-2.12.317-2.508 0-3.915-1.457-1.407-1.467-1.407-3.924 0-1.665.644-2.943.644-1.279 1.863-1.972 1.22-.704 2.914-.704 1.05 0 1.922.307.882.307 1.487.793.614.485.931 1.04.327.545.327 1.021 0 .486-.366.823-.357.337-.872.337-.337 0-.565-.169-.218-.178-.496-.565-.495-.753-1.04-1.13-.536-.376-1.368-.376-1.199 0-1.932.941-.734.932-.734 2.557 0 .763.189 1.407.188.635.545 1.09.356.446.862.684.505.228 1.11.228.812 0 1.387-.376.585-.377 1.03-1.15.248-.456.536-.713.287-.258.703-.258.496 0 .823.376.327.377.327.803zm-12.05 0q0 .506-.308 1.08-.297.575-.921 1.1-.615.516-1.556.833-.942.317-2.12.317-2.508 0-3.915-1.457-1.407-1.467-1.407-3.924 0-1.665.644-2.943.644-1.279 1.863-1.972 1.219-.704 2.913-.704 1.05 0 1.923.307.882.307 1.486.793.615.485.932 1.04.327.545.327 1.021 0 .486-.367.823-.357.337-.872.337-.337 0-.565-.169-.218-.178-.495-.565-.496-.753-1.04-1.13-.536-.376-1.368-.376-1.2 0-1.933.941-.733.932-.733 2.557 0 .763.188 1.407.188.635.545 1.09.357.446.862.684.506.228 1.11.228.813 0 1.388-.376.584-.377 1.03-1.15.248-.456.535-.713.288-.258.704-.258.496 0 .823.376.327.377.327.803zM23 4C13.083 4 5 12.083 5 22s8.083 18 18 18 18-8.083 18-18S32.917 4 23 4zm0 4c7.756 0 14 6.244 14 14s-6.244 14-14 14S9 29.756 9 22 15.244 8 23 8z" fill="#fff" filter="url(#a)"/></svg>