<svg width="46" height="46" xmlns="http://www.w3.org/2000/svg"><defs><filter id="a" x="0" width="1" height="1.5" color-interpolation-filters="sRGB"><feFlood flood-opacity=".2"/><feComposite in2="SourceGraphic" operator="in"/><feOffset dy="2" result="result1"/><feComposite in="SourceGraphic" in2="result1"/></filter></defs><path d="M33 4H12.2C9.8 4 8 5.6 8 8v27.3c0 2.4 1.8 4.7 4.2 4.7H33c2.4 0 5-2.3 5-4.7V8c0-2.4-2.5-4-5-4zM13 8h20v7H13V8zm1.7 25.8c-1.5 0-2.7-1.2-2.7-2.7s1.2-2.7 2.7-2.7 2.7 1.2 2.7 2.7-1.2 2.7-2.7 2.7zm0-9.4c-1.5 0-2.7-1.2-2.7-2.7s1.2-2.7 2.7-2.7 2.7 1.2 2.7 2.7-1.2 2.7-2.7 2.7zm7.9 9.4c-1.5 0-2.7-1.2-2.7-2.7s1.2-2.7 2.7-2.7 2.7 1.2 2.7 2.7-1.2 2.7-2.7 2.7zm0-9.4c-1.5 0-2.7-1.2-2.7-2.7s1.2-2.7 2.7-2.7 2.7 1.2 2.7 2.7-1.2 2.7-2.7 2.7zm7.8 9.4c-1.5 0-2.7-1.2-2.7-2.7s1.2-2.7 2.7-2.7 2.7 1.2 2.7 2.7c.1 1.5-1.2 2.7-2.7 2.7zm0-9.4c-1.5 0-2.7-1.2-2.7-2.7s1.2-2.7 2.7-2.7 2.7 1.2 2.7 2.7c.1 1.5-1.2 2.7-2.7 2.7z" fill="#fff" filter="url(#a)"/></svg>