<svg width="46" height="46" xmlns="http://www.w3.org/2000/svg"><defs><filter id="a" x="0" width="1" height="1.5" color-interpolation-filters="sRGB"><feFlood flood-opacity=".2"/><feComposite in2="SourceGraphic" operator="in"/><feOffset dy="2" result="result1"/><feComposite in="SourceGraphic" in2="result1"/></filter></defs><path d="M35.21 9h-2.176a.678.678 0 0 0-.692.697v3.188h-8.106v-.2a1.779 1.779 0 1 0-3.56 0v.2h-1.58v-.2a1.779 1.779 0 1 0-3.56 0v.2H13.56V9.697A.678.678 0 0 0 12.867 9h-2.175a.678.678 0 0 0-.692.697v24.606c0 .398.297.697.692.697h2.175a.678.678 0 0 0 .692-.697v-3.188h1.384v.299a1.779 1.779 0 1 0 3.559 0v-.3h1.68v.3a1.779 1.779 0 1 0 3.56 0v-.3h8.7v3.189c0 .398.296.697.691.697h2.175a.678.678 0 0 0 .692-.697V9.697C35.901 9.3 35.605 9 35.21 9zm-19.674 5.18v.399a1.779 1.779 0 1 0 3.56 0v-.399h1.68v.399a1.779 1.779 0 1 0 3.559 0v-.399h8.106v7.172h-2.373v-.498a1.779 1.779 0 1 0-3.558 0v.498h-1.681v-.498a1.779 1.779 0 1 0-3.559 0v.498h-7.711V14.18zm8.205 15.54v-.299a1.779 1.779 0 1 0-3.558 0v.3h-1.681v-.3a1.779 1.779 0 1 0-3.559 0v.3h-1.384v-7.173h7.711v.1a1.779 1.779 0 1 0 3.559 0v-.1h1.68v.1a1.779 1.779 0 1 0 3.56 0v-.1h2.372v7.172z" fill="#fff" filter="url(#a)"/></svg>