<svg width="37" height="37" xmlns="http://www.w3.org/2000/svg"><path d="M7 1.5c-.55 0-1 .45-1 1v2c0 .55.45 1 1 1h3v3H2.5c-.55 0-1 .48-1 1.1v25c0 .6.45 1.1 1 1.1h32c.55 0 1-.48 1-1.1v-25c0-.6-.45-1.1-1-1.1H27v-3h3c.55 0 1-.45 1-1v-2c0-.55-.45-1-1-1z" fill="#cd7f32"/><path fill-opacity=".39" d="M10 5.5h17v3H10z"/><rect x="1.5" y="8.5" width="34" height="27" rx="1" ry="1" fill="none" stroke="#481d32" stroke-linecap="round"/><path d="M22 31l-3.9-5.8-4 5.8q-.87 1.2-1.5 1.7-.6.52-1.5.52-1 0-1.8-.64-.72-.66-.72-1.5 0-.86 1.1-2.4l4.9-7-4.4-5.9q-1.1-1.5-1.1-2.5 0-.84.68-1.5.68-.62 1.8-.62.95 0 1.6.54.64.54 1.5 1.7l3.5 4.8 3.4-4.8q.86-1.2 1.5-1.7.64-.52 1.6-.52 1.1 0 1.8.62.72.6.72 1.5 0 .62-.3 1.2-.28.56-.87 1.3l-4.4 5.9 4.9 7q1.2 1.7 1.2 2.5 0 .86-.72 1.5-.72.62-1.8.62-.93 0-1.6-.54-.64-.54-1.5-1.7z" fill="#fff"/><path fill="none" stroke="#481d32" stroke-linecap="round" d="M10 5.5h17v3H10z"/><rect x="6" y="1.5" width="25" height="4" rx="1" ry="1" fill="none" stroke="#481d32" stroke-linecap="round"/></svg>