<svg width="22" height="22" xmlns="http://www.w3.org/2000/svg"><path d="M5 1.5c-.55 0-1 .45-1 1v1c0 .55.45 1 1 1h1.5v2h-4c-.55 0-1 .45-1 1v12c0 .55.45 1 1 1h17c.55 0 1-.45 1-1v-12c0-.55-.45-1-1-1h-4v-2H17c.55 0 1-.45 1-1v-1c0-.55-.45-1-1-1z" fill="#cd7f32"/><path fill-opacity=".39" d="M7 4.5h9v2H7z"/><rect x="1.5" y="6.5" width="19" height="14" rx="1" ry="1" fill="none" stroke="#481d32" stroke-linecap="round"/><rect x="4" y="1.5" width="14" height="3" rx="1" ry="1" fill="none" stroke="#481d32" stroke-linecap="round"/><path d="M16 4.5v2m-9 0v-2" fill="#6098ff" stroke="#481d32"/><path d="M11 18v-7.3c-1.4 1.067-2.333 1.6-2.8 1.6a.868.868 0 0 1-.62-.26.853.853 0 0 1-.27-.62c0-.273.09-.473.27-.6s.493-.293.94-.5c.667-.307 1.2-.627 1.6-.96.407-.333.773-.7 1.1-1.1.313-.413.517-.67.61-.77.093-.1.27-.147.53-.14.293 0 .53.11.71.33s.27.52.27.9V18c0 1.072-.446 1.38-1.2 1.38S11 19.072 11 18z" fill="#fff"/></svg>