<svg height="200" viewBox="0 0 52.916665 52.916668" width="200" xmlns="http://www.w3.org/2000/svg" xmlns:xlink="http://www.w3.org/1999/xlink"><marker id="a" orient="auto" overflow="visible" refX="0.0" refY="0.0"><path d="m0 0 5-5-17.5 5 17.5 5z" fill="#c0392b" fill-rule="evenodd" stroke="#c0392b" stroke-width="1pt" transform="matrix(.2 0 0 .2 1.2 0)"/></marker><marker id="b" orient="auto" overflow="visible" refX="0.0" refY="0.0"><path d="m0 0 5-5-17.5 5 17.5 5z" fill="#c0392b" fill-rule="evenodd" stroke="#c0392b" stroke-width="1pt" transform="matrix(-.2 0 0 -.2 -1.2 0)"/></marker><g transform="translate(0 -244.08332)"><path d="m0 244.08334h52.916668v52.916668h-52.916668z" fill="#ecf0f1" fill-rule="evenodd"/><path d="m35.71875 250.6979-23.8125 33.07292h30.427083z" fill="none" stroke="#2c3e50" stroke-width=".529167"/><path d="m35.71875 250.6979v33.07292" fill="none" stroke="#27ae60" stroke-width=".529167"/><path d="m11.90625 285.34753h30.427083" fill="none" marker-end="url(#b)" marker-start="url(#a)" stroke="#c0392b" stroke-width=".529167"/><g stroke-width=".264583"><text style="font-size:6.35;font-family:sans-serif;letter-spacing:0;word-spacing:0;fill:#2c3e50;writing-mode:lr" x="7.9375" y="262.60416"><tspan fill="#2c3e50" font-family="sans-serif" font-size="6.35" stroke-width=".264583" writing-mode="lr" x="7.9375" y="262.60416">A=</tspan></text><text fill="#c0392b" font-family="sans-serif" font-size="6.35" letter-spacing="0" word-spacing="0" x="17.960108" y="260.06522"><tspan fill="#c0392b" font-family="sans-serif" font-size="6.35" stroke-width=".264583" x="17.960108" y="260.06522">b<tspan fill="#27ae60">h</tspan></tspan></text><path d="m17.4625 260.75207h8.73125" fill="none" stroke="#2c3e50"/><text fill="#2c3e50" font-family="sans-serif" font-size="6.35" letter-spacing="0" word-spacing="0" x="19.594854" y="266.11288"><tspan fill="#2c3e50" font-family="sans-serif" font-size="6.35" stroke-width=".264583" x="19.594854" y="266.11288">2</tspan></text><text fill="#c0392b" font-family="sans-serif" font-size="6.35" letter-spacing="0" word-spacing="0" x="25.57729" y="291.33575"><tspan fill="#c0392b" font-family="sans-serif" font-size="6.35" stroke-width=".264583" x="25.57729" y="291.33575">b<tspan fill="#27ae60"/></tspan></text><text fill="#27ae60" font-family="sans-serif" font-size="6.35" letter-spacing="0" word-spacing="0" x="31.341427" y="272.05896"><tspan fill="#27ae60" font-family="sans-serif" font-size="6.35" stroke-width=".264583" x="31.341427" y="272.05896">h</tspan></text></g></g></svg>