<svg xmlns="http://www.w3.org/2000/svg" width="40" height="40"><defs><filter id="a" width="1" x="0" height="1.5" color-interpolation-filters="sRGB"><feFlood flood-opacity=".2"/><feComposite in2="SourceGraphic" operator="in"/><feOffset dy="2" result="result1"/><feComposite in="SourceGraphic" in2="result1"/></filter></defs><path d="M20 4A16 16 0 004 20a16 16 0 0016 16 16 16 0 0016-16A16 16 0 0020 4zm.008 4.916c.322 0 .62.06.894.184.275.113.51.274.71.482.207.209.368.45.482.725.113.274.172.568.172.88 0 .313-.059.605-.172.88a2.21 2.21 0 01-.483.724 2.358 2.358 0 01-.709.482 2.32 2.32 0 01-.894.172c-.322 0-.626-.058-.91-.172a2.55 2.55 0 01-.723-.482 2.33 2.33 0 01-.469-.725 2.271 2.271 0 01-.17-.879c0-.312.057-.606.17-.88.114-.275.27-.516.469-.725.208-.208.448-.369.723-.482.284-.123.588-.184.91-.184zm-5.65 6.219h7.622V26.86h4.16v2.698H13.86V26.86h4.572v-9.029h-4.075z" fill="#fff" filter="url(#a)"/></svg>