<svg width="46" height="46" xmlns="http://www.w3.org/2000/svg"><defs><filter id="a" x="0" width="1" height="1.5" color-interpolation-filters="sRGB"><feFlood flood-opacity=".2"/><feComposite in2="SourceGraphic" operator="in"/><feOffset dy="2" result="result1"/><feComposite in="SourceGraphic" in2="result1"/></filter></defs><path d="M11.8 7C10.244 7 9 8.325 9 9.856v20c0 1.531 1.14 2.757 2.8 2.757h.52v1.53c0 .205.104.307.208.41.104.102.311.102.519 0l2.281-1.328 2.284 1.327c.104.103.31.103.413 0 .104-.102.21-.204.21-.408v-1.327c-1.453-1.021-2.802-2.244-3.735-3.877h-1.247a.921.921 0 0 0-.934.917v.715h-.413a.923.923 0 0 1-.934-.919v-1.02c0-.51.311-1.02.934-1.02h2.075c-.519-1.123-.728-2.449-.728-3.775 0-5.613 4.67-10.205 10.375-10.205 1.66 0 3.32.408 4.67 1.122V9.856c0-1.53-1.141-2.856-2.801-2.856zm11.622 7.958c-2.283 0-4.462.919-6.122 2.552-1.66 1.632-2.594 3.776-2.594 6.02 0 2.246.934 4.39 2.594 6.022s3.84 2.551 6.122 2.551c1.867 0 3.631-.612 5.084-1.632l.932.916c-.311.307-.414.818-.31 1.226l.31.612 3.425 3.368c.31.307.622.407 1.037.407.415 0 .726-.1 1.038-.407l1.762-1.736a1.667 1.667 0 0 0-.103-2.04l-3.422-3.367c-.208-.204-.417-.307-.625-.307h-.31c-.31 0-.726.103-.934.409l-.934-.919c2.49-3.368 2.18-8.062-.829-11.123-1.66-1.633-3.839-2.552-6.121-2.552zm-.104 2.653c1.557 0 3.112.614 4.254 1.736a5.968 5.968 0 0 1 0 8.367c-1.142 1.123-2.594 1.736-4.254 1.736a6.11 6.11 0 0 1-4.255-1.736c-1.141-1.122-1.763-2.55-1.763-4.183 0-1.531.622-3.061 1.763-4.184 1.141-1.122 2.595-1.736 4.255-1.736zm-4.046 3.47c-.415 0-.831.307-.831.817 0 .409.312.816.83.816.416 0 .83-.305.83-.816s-.414-.919-.83-.817zm-.094 2.533a.908.908 0 0 0-.322.018c-.518.102-.83.613-.622 1.02 0 .103.83 3.47 4.357 4.083h.209c.415 0 .828-.306.828-.714s-.31-.918-.828-1.02c-2.283-.409-2.906-2.655-2.906-2.757-.078-.382-.39-.591-.716-.63z" fill="#fff" filter="url(#a)"/></svg>