<svg width="46" height="46" xmlns="http://www.w3.org/2000/svg"><defs><filter id="a" x="0" width="1" height="1.5" color-interpolation-filters="sRGB"><feFlood flood-opacity=".2"/><feComposite in2="SourceGraphic" operator="in"/><feOffset dy="2" result="result1"/><feComposite in="SourceGraphic" in2="result1"/></filter></defs><path d="M32.882 20.4c-.52 0-1.04.178-1.473.444-.26-1.51-1.473-2.666-2.945-2.666-.606 0-1.126.178-1.646.533-.433-1.244-1.732-2.133-3.032-2.133-.606 0-.866.178-1.732.444V9.29C22.054 7.51 20.668 6 19.022 6S15.99 7.511 15.99 9.289v14.844l-.866-1.333c-1.126-1.333-2.945-1.511-4.158-.267-1.212 1.245-1.299 3.29-.173 4.623l6.67 8.088c1.3 1.423 3.638 2.756 5.544 2.756h6.496C33.141 38 36 35.156 36 31.689V23.6c-.087-1.689-1.386-3.2-3.118-3.2z" fill="#fff" filter="url(#a)"/></svg>