<svg width="46" height="46" xmlns="http://www.w3.org/2000/svg"><defs><filter id="a" x="0" width="1" height="1.5" color-interpolation-filters="sRGB"><feFlood flood-opacity=".2"/><feComposite in2="SourceGraphic" operator="in"/><feOffset dy="2" result="result1"/><feComposite in="SourceGraphic" in2="result1"/></filter></defs><path d="M24.102 4A19.102 19.094 0 0 0 5 23.094a19.102 19.094 0 0 0 5.463 13.363l-.01.01L13.985 40l3.022-3.02-3.784-3.785 1.422-1.421 3.784 3.784 1.696-1.696-2.277-2.275 1.421-1.42 2.278 2.274 1.508-1.507-2.278-2.275 1.422-1.421 2.278 2.275 1.78-1.78-3.785-3.783 1.421-1.421 3.786 3.782 1.508-1.507-2.278-2.275 1.422-1.421 2.278 2.275 1.594-1.594-2.278-2.275 1.422-1.421 2.278 2.275 1.68-1.68-3.785-3.783 1.421-1.42 3.786 3.782L41 12.996l-3.112-3.11a19.102 19.094 0 0 0-.252-.25l-.17-.171-.006.005A19.102 19.094 0 0 0 24.102 4zm0 8.913a10.186 10.182 0 0 1 4.066.85l-13.395 13.39a10.186 10.182 0 0 1-.858-4.059 10.186 10.182 0 0 1 10.187-10.18z" fill="#fff" filter="url(#a)"/></svg>