<svg width="46" height="46" xmlns="http://www.w3.org/2000/svg"><defs><filter id="a" x="0" width="1" height="1.5" color-interpolation-filters="sRGB"><feFlood flood-opacity=".2"/><feComposite in2="SourceGraphic" operator="in"/><feOffset dy="2" result="result1"/><feComposite in="SourceGraphic" in2="result1"/></filter></defs><path d="M31.841 4c-.51 0-1.02.196-1.412.587l-.858.858 3.663 3.662a.996.996 0 0 1 0 1.412.996.996 0 0 1-1.412 0L28.16 6.857l-2.225 2.225 1.83 1.83a.996.996 0 0 1 0 1.412.996.996 0 0 1-1.411 0l-1.831-1.83-2.229 2.228 1.831 1.831a.996.996 0 0 1 0 1.412.996.996 0 0 1-1.412 0l-1.83-1.831-2.107 2.106 3.662 3.662a.996.996 0 0 1 0 1.412.996.996 0 0 1-1.411 0l-3.662-3.662-2.307 2.308 1.829 1.83a.998.998 0 1 1-1.412 1.413l-1.831-1.83-2.229 2.226 1.831 1.831a.996.996 0 0 1 0 1.412.996.996 0 0 1-1.412 0l-1.83-1.831-2.272 2.274 3.662 3.662a.996.996 0 0 1 0 1.411.996.996 0 0 1-1.412 0L6.32 28.696l-.733.734a1.992 1.992 0 0 0 0 2.823l7.158 7.16a1.994 1.994 0 0 0 2.826 0l24.842-24.842a1.992 1.992 0 0 0 0-2.824l-7.16-7.16A1.99 1.99 0 0 0 31.841 4z" fill="#fff" filter="url(#a)"/></svg>