<svg width="46" height="46" xmlns="http://www.w3.org/2000/svg"><defs><filter id="a" x="0" width="1" height="1.5" color-interpolation-filters="sRGB"><feFlood flood-opacity=".2"/><feComposite in2="SourceGraphic" operator="in"/><feOffset dy="2" result="result1"/><feComposite in="SourceGraphic" in2="result1"/></filter></defs><path d="M21.088 5c-1.384.002-2.77.347-3.976 1.047-.34.198-.897.608-1.236.912-.545.49-.72.57-1.528.702-2.668.436-4.928 2.085-6.057 4.421-.633 1.31-.811 2.103-.811 3.605v1.236l-.524.485c-.665.617-1.283 1.559-1.648 2.513-.378.99-.414 2.896-.074 3.915.632 1.89 2.137 3.461 3.927 4.098l.661.236-.043.82c-.037.689.008.926.283 1.49.666 1.371 2.255 2.258 4.57 2.553.537.068.989.138 1.002.156.02.026-.331 3.011-.615 5.22l-.076.591 1.95-.001 1.951-.001.29-.962c.369-1.228 1.182-2.925 2.01-4.194.808-1.237 3.32-3.779 4.498-4.55.806-.527.95-.576 2.101-.708 3.213-.367 5.441-1.418 7.375-3.48a7.355 7.355 0 0 0 1.295-1.863c.455-.947.508-1.006 1.214-1.347 1.654-.8 3.002-2.62 3.306-4.46.464-2.82-1.53-5.895-4.302-6.636-.33-.088-.551-.237-.637-.426-.273-.603-1.394-1.799-2.214-2.362-1.282-.881-2.405-1.24-4.06-1.294-1.079-.037-1.535.005-2.212.198l-.852.244-.623-.496C24.646 5.56 22.869 4.997 21.088 5zm6.379 4.815c.654 0 2.04.495 2.22.794.095.155.093.204-.022.596-.128.436-.112.477.353.914.203.19.487.503.63.696.335.447.389.47.882.372.335-.066.351-.066.471 0 .155.083.275.301.422.767.218.69.318 1.482.219 1.722-.076.181-.169.237-.545.325-.416.097-.484.17-.572.622-.076.39-.24.908-.373 1.17a.834.834 0 0 0-.094.353c0 .151.023.194.24.45.13.155.248.315.26.355.068.211-.174.57-.76 1.13-.422.404-.863.72-1.057.756-.188.035-.307-.03-.548-.301-.302-.34-.378-.355-.899-.185-.409.133-.924.24-1.153.24a.633.633 0 0 0-.435.181c-.038.043-.115.218-.17.388-.081.253-.121.323-.222.392-.19.13-.56.104-1.2-.083-.789-.23-1.216-.454-1.336-.702-.068-.14-.068-.143.031-.464.149-.479.138-.509-.343-.979a7.738 7.738 0 0 1-.631-.697 2.67 2.67 0 0 0-.313-.364c-.105-.074-.271-.073-.626.003-.274.06-.29.059-.41-.01-.299-.17-.661-1.351-.661-2.157 0-.257.014-.327.084-.431.074-.111.121-.134.435-.214.459-.115.555-.205.61-.568.047-.306.169-.71.34-1.128.212-.517.206-.562-.117-.924-.214-.24-.24-.286-.24-.425 0-.108.034-.208.11-.33.251-.398 1.108-1.19 1.501-1.389.313-.157.388-.136.744.206.367.354.396.36.933.187a6.794 6.794 0 0 1 1.212-.245c.264-.032.4-.178.525-.57.117-.362.218-.453.505-.453zm-.714 3.19a2.704 2.72 0 0 0-2.705 2.719 2.704 2.72 0 0 0 2.705 2.72 2.704 2.72 0 0 0 2.704-2.72 2.704 2.72 0 0 0-2.704-2.72zm-8.67 2.473c.653 0 2.039.495 2.22.793.094.156.092.205-.022.596-.128.437-.112.478.353.914.202.19.486.504.63.697.334.447.388.47.881.372.335-.066.352-.066.472 0 .154.083.274.301.422.767.217.69.318 1.482.218 1.722-.075.18-.168.237-.545.325-.416.097-.483.17-.571.622-.076.39-.241.908-.374 1.17a.834.834 0 0 0-.093.353c0 .151.022.193.239.45.13.155.249.315.261.355.067.211-.174.57-.76 1.13-.422.404-.863.72-1.058.756-.188.035-.307-.03-.548-.301-.301-.34-.377-.355-.898-.185-.41.133-.924.24-1.154.24a.633.633 0 0 0-.434.181c-.039.043-.115.218-.17.387-.082.253-.122.324-.223.393-.19.13-.56.104-1.2-.083-.788-.23-1.215-.454-1.335-.702-.069-.14-.069-.143.031-.464.148-.479.138-.509-.344-.979a7.74 7.74 0 0 1-.631-.697 2.67 2.67 0 0 0-.312-.364c-.106-.074-.272-.073-.627.003-.273.06-.29.059-.409-.01-.3-.17-.662-1.351-.662-2.157 0-.257.014-.327.084-.431.074-.111.122-.135.436-.214.458-.115.554-.205.61-.568.046-.306.168-.71.34-1.128.211-.517.205-.562-.117-.924-.215-.24-.24-.286-.24-.425 0-.109.033-.209.11-.33.25-.398 1.107-1.19 1.5-1.389.313-.157.389-.136.744.206.367.354.397.36.933.187a6.794 6.794 0 0 1 1.212-.245c.265-.032.4-.178.526-.57.116-.362.217-.453.505-.453zm-.715 3.189a2.704 2.72 0 0 0-2.704 2.72 2.704 2.72 0 0 0 2.704 2.72 2.704 2.72 0 0 0 2.704-2.72 2.704 2.72 0 0 0-2.704-2.72z" fill="#fff" filter="url(#a)"/></svg>