<svg width="120" height="120" version="1.1" viewBox="0 0 120 120" xmlns="http://www.w3.org/2000/svg">
 <g transform="translate(666.06957)">
  <g transform="matrix(-1.3471472,0,0,1.3471472,-684.69071,-122.39406)">
   <g>
    <path d="m-49.452955 151.4691c6.590834 11.55142 5.98598 20.99179 2.410223 27.52673h-3.030237c0-9.05959-0.793099-13.95428-1.451324-20.58397" fill="#bebee6" fill-rule="evenodd"/>
    <path d="m-49.452955 151.4691c6.590834 11.55142 6.386884 22.53444 2.410223 27.46577" fill="none" stroke="#481d32" stroke-linecap="round" stroke-linejoin="round" stroke-width="1.3229166"/>
   </g>
  </g>
  <g transform="matrix(1.3471472,0,0,1.3471472,-619.71296,-891.69224)">
   <path d="m-11.588201 738.47649c7.234469-4.43519 10.525122-12.58138 5.953127-29.57664l-11.339286-7.37053c-9.106652 9.65526-3.576659 17.44937-0.566966 20.78869 5.516778 6.12099 6.532535 9.64425 5.953125 16.15848z" fill="#704241" fill-rule="evenodd"/>
   <path d="m-16.044815 704.59726-1.00226-2.67269c-0.15954-0.26591-5.168947 4.24998-5.011297 10.82441s6.056547 10.66521 9.087154 15.23436c-0.67912-3.39556-5.816167-8.66492-6.280824-14.76664-0.46466-6.10172 3.167277-8.69933 3.207227-8.61944z" fill="#fff" fill-rule="evenodd"/>
   <path d="m-16.97436 701.52932c-9.106652 9.65526-3.576659 17.44937-0.566966 20.78869 5.516778 6.12099 6.532535 9.64425 5.953125 16.15848m2.69308-2.03162c4.588636-4.90766 7.54856-11.21122 3.260047-27.54502" fill="none" stroke="#481d32" stroke-linecap="round" stroke-width="1.3229166"/>
   <path d="m-8.4099701 709.93929c-23.743909-11.03668 0.063455-48.93745 25.985863-38.36459 21.970888 3.43376 29.533859 32.88475 11.906248 40.82143" fill="#704241" fill-rule="evenodd"/>
   <path d="m15.051482 671.33233c-6.3898263-0.57605-17.822324 1.8491-24.780361 10.14804 0.64193 1.30735 2.9941364 3.04476 6.0409031 2.63437-1.74187 1.09775-3.3930931 2.1072-8.7096599 0.31115-3.75781 5.08969-5.125977 11.09737-4.768581 16.09839-2.856106-5.70743 0.4336-16.22029 6.070537-22.13454 7.2534075-7.61024 19.495376-10.88792 26.147162-7.05741z" fill="#fff" fill-rule="evenodd"/>
   <path d="m-8.4099701 709.93929c-23.743909-11.03668 0.063455-48.93745 25.985863-38.36459m11.906248 40.82143c17.627611-7.93668 10.070961-37.42836-11.906248-40.82143-1.414359-0.21837-3.645161 0.44024-4.509033 1.20819" fill="none" stroke="#481d32" stroke-linecap="round" stroke-width="1.3229166"/>
  </g>
  <g transform="matrix(1.3471472,0,0,1.3471472,-619.71296,-421.20086)">
   <path d="m2.8964745 374.22949c-2.66216 7.70093-4.1861141 15.02793-1.5875001 27.28107h17.792715c2.598613-12.25314 1.07466-19.58014-1.587501-27.28107z" fill="#bebee6"/>
   <path d="m4.90889 380.28754c1.294979 3.83426 2.76914 7.64292 5.296392 11.30114 2.546572-3.76705 3.977053-7.53409 5.296392-11.30114" fill="#fff" fill-rule="evenodd" stroke="#481d32" stroke-linecap="round" stroke-linejoin="round" stroke-width="1.3229166"/>
   <path d="m6.8324108 373.8445c-1.9096895 1e-4 -3.4577411 2.06432-3.4576702 4.61057-7.09e-5 2.54626 1.5479807 4.61048 3.4576702 4.61057 1.6212338-2e-3 3.0240245-1.50459 3.3739542-3.61528 0.349762 2.10969 1.751428 3.61253 3.371887 3.61528 1.909689-9e-5 3.457741-2.06431 3.45767-4.61057 7.1e-5 -2.54625-1.547981-4.61047-3.45767-4.61057z" fill="#fff" stroke="#481d32" stroke-linecap="round" stroke-linejoin="round" stroke-width="1.3229166"/>
   <path d="m6.9117581 375.52706c0.952272 1.80559 1.312661 3.69573 3.4017879 5.33891 2.137222-1.83937 2.358993-3.67874 3.185887-5.51811" fill="#f4cbaf" fill-rule="evenodd" stroke="#481d32" stroke-linecap="round" stroke-linejoin="round" stroke-width="1.3229166"/>
   <path d="m3.1927244 376.1389-1.81901 8.00837 2.5479811 0.23955-0.3273721 3.32756 3.6521963 3.77975m9.9714153-15.35523 1.819013 8.00837-2.547982 0.23959 0.327371 3.32755-3.652194 3.77975" fill="none" stroke="#481d32" stroke-linecap="round" stroke-linejoin="round" stroke-width="1.3229166"/>
   <path d="m19.111936 401.44385c1.270305-5.98981 0.876485-10.77623 0.912942-15.01454m-19.620109 0c0.0082 4.30882-0.3846443 8.88896 0.91445266 15.01454" fill="none" stroke="#481d32" stroke-linecap="round" stroke-linejoin="round" stroke-width="1.3229166"/>
  </g>
  <g transform="matrix(1.3471472,0,0,1.3471472,-619.16009,-479.4158)">
   <ellipse transform="rotate(-14.854576)" cx="-114.53056" cy="384.11917" rx="3.2127974" ry="3.8282521" fill="#f4cbaf" stroke="#481d32" stroke-width="1.3229166"/>
   <ellipse transform="matrix(-.96657963 -.25636657 -.25636657 .96657963 0 0)" cx="-133.46574" cy="379.09689" rx="3.2127974" ry="3.8282521" fill="#f4cbaf" stroke="#481d32" stroke-width="1.3229166"/>
   <ellipse cx="9.7949543" cy="397.19336" rx="21.298958" ry="23.8125" fill="#f4cbaf"/>
   <path d="m9.5587455 399.23463 0.4724705 0.8032" fill="none" stroke="#481d32" stroke-linecap="round" stroke-width="1.3229166"/>
   <ellipse cx="-6.0420694" cy="404.39377" rx="4.6786079" ry="4.9148431" fill="#ff69b4" fill-opacity=".39215686"/>
   <ellipse cx="25.632029" cy="404.39377" rx="4.6786079" ry="4.9148431" fill="#ff69b4" fill-opacity=".39215686"/>
   <ellipse cx="9.7949543" cy="397.19336" rx="21.298958" ry="23.8125" fill="none" stroke="#481d32" stroke-linecap="round" stroke-linejoin="round" stroke-width="1.3229166"/>
  </g>
  <g transform="matrix(1.3471472,0,0,1.3471472,-619.71296,-421.20083)">
   <path d="m4.3075853 329.71801c-4.8405659 4.81898-1.1454793 12.73364 3.3302198 15.85207 3.3072919 0.76559 6.3473139 0.87089 9.6546049-1e-5 3.989245 0.61346 7.558508 0.73057 10.811464-0.0945-3.507207-3.53145-2.674703-7.80606-2.150437-12.42457-9.493971-5.58699-15.358869-6.08218-21.645852-3.33299z" fill="#704241" fill-rule="evenodd"/>
   <path d="m4.3075853 329.71801c-4.840566 4.81898-1.1454793 12.73364 3.3302199 15.85207m9.9380868 0.0472c-2.12599-1.68463-5.141734-8.87648-3.060262-13.22917m13.588244 13.08742c-3.507207-3.53145-2.674703-7.80606-2.150437-12.42457" fill="none" stroke="#481d32" stroke-linecap="round" stroke-linejoin="round" stroke-width="1.3229166"/>
  </g>
  <g transform="matrix(1.3471472,0,0,1.3471472,-619.71296,-319.62877)" fill="#481d32" fill-rule="evenodd" shape-rendering="auto">
   <path d="m-1.4298259 275.1537a0.52921953 0.52921953 0 0 0 -0.5312299 0.52916c-0.0104 0.60249 0.24409 1.17507 0.6056399 1.65831 0.0131 0.0174 0.0275 0.0339 0.0408 0.0511a1.679152 2.4952483 0 0 0 -0.7425899 2.06809 1.679152 2.4952483 0 0 0 1.6789704 2.49547 1.679152 2.4952483 0 0 0 1.67949 -2.49547 1.679152 2.4952483 0 0 0 -1.56735 -2.48666c-0.0846-0.0795-0.16771-0.16653-0.24185-0.26562-0.2498805-0.33395-0.3987605-0.74945-0.3942905-1.00769a0.52921953 0.52921953 0 0 0 -0.52761002 -0.54673z" color="#000000" color-rendering="auto" dominant-baseline="auto" image-rendering="auto" solid-color="#000000" style="font-feature-settings:normal;font-variant-alternates:normal;font-variant-caps:normal;font-variant-ligatures:normal;font-variant-numeric:normal;font-variant-position:normal;isolation:auto;mix-blend-mode:normal;shape-padding:0;text-decoration-color:#000000;text-decoration-line:none;text-decoration-style:solid;text-indent:0;text-orientation:mixed;text-transform:none;white-space:normal"/>
   <path d="m21.840542 275.1537a0.52921953 0.52921953 0 0 1 0.53123 0.52916c0.0104 0.60249-0.24409 1.17507-0.60564 1.65831-0.0131 0.0174-0.0275 0.0339-0.0408 0.0511a1.679152 2.4952483 0 0 1 0.74259 2.06809 1.679152 2.4952483 0 0 1 -1.67897 2.49547 1.679152 2.4952483 0 0 1 -1.679491 -2.49547 1.679152 2.4952483 0 0 1 1.567351 -2.48666c0.0846-0.0795 0.16771-0.16653 0.24185-0.26562 0.24988-0.33395 0.39876-0.74945 0.39429-1.00769a0.52921953 0.52921953 0 0 1 0.52761 -0.54673z" color="#000000" color-rendering="auto" dominant-baseline="auto" image-rendering="auto" solid-color="#000000" style="font-feature-settings:normal;font-variant-alternates:normal;font-variant-caps:normal;font-variant-ligatures:normal;font-variant-numeric:normal;font-variant-position:normal;isolation:auto;mix-blend-mode:normal;shape-padding:0;text-decoration-color:#000000;text-decoration-line:none;text-decoration-style:solid;text-indent:0;text-orientation:mixed;text-transform:none;white-space:normal"/>
  </g>
  <g transform="matrix(-1.3448922 -.0779137 -.0779137 1.3448922 -336.27653 -108.87331)" stroke="#481d32" stroke-linecap="round" stroke-width="1.3229166">
   <path d="m183.21008 159.62346c0.43109-1.23297 0.56718-2.22873 0.4009-4.40994s-2.38312-3.46127-4.30972-1.97112c2.35377-3.26968-0.45032-3.74982-2.3386-1.80407 3.04146-4.50932-0.86615-3.00263-2.17157-1.23612 1.75465-1.89267-0.4101-9.24035-3.04019-0.96885-0.47504 1.49399 0.22581 3.27483 0.86862 3.80859 0 0 2.3615 1.83681 3.71647 2.72693 2.13953 1.40552 6.87409 3.85458 6.87409 3.85458z" fill="#f4cbaf" fill-rule="evenodd" stroke-linejoin="round"/>
   <path d="m176.41261 155.77573c-1.46374 2.93903-1.93721 4.61415-2.6646 7.25472-1.91553 6.95376 3.79058 12.79524 7.78995 3.98542 1.12667-2.48182 2.09856-4.09023 2.94166-7.02491z" fill="#bebee6" fill-rule="evenodd"/>
   <path d="m179.14351 157.38841-2.50073 6.99255" fill="none"/>
  </g>
  <g transform="matrix(-1.3448922 -.0779137 -.0779137 1.3448922 -241.4654 -108.87328)" fill="none" stroke="#a0c3d5" stroke-linecap="round" stroke-width="1.0583334">
   <path d="m238.88954 160.19705c-3.44695 4.74131 0.87363 7.17436 1.2698 2.82104"/>
   <path d="m236.93889 150.57147c-3.44695 4.74131 0.87363 7.17436 1.2698 2.82104"/>
  </g>
  <path transform="scale(1,-1)" d="m-602.76512-76.154754a3.3127251 3.3179572 0 0 1 -3.19985 2.459207 3.3127251 3.3179572 0 0 1 -3.19984 -2.459207" fill="none" stroke="#481d32" stroke-linecap="round" stroke-linejoin="round" stroke-width="1.7821635"/>
  <path d="m-623.04364 39.459424c1.22402 0.627474 3.2779-0.0617 3.99618-1.405682" fill="none" stroke="#481d32" stroke-linecap="round" stroke-width="1.7821635"/>
 </g>
</svg>
