<svg width="120" height="120" version="1.1" viewBox="0 0 120 120" xmlns="http://www.w3.org/2000/svg">
 <g transform="translate(554.06172)">
  <g transform="matrix(-1.3066071,0,0,1.3066071,-568.32902,-114.60401)">
   <g fill="#36619e" fill-rule="evenodd">
    <path d="m-49.452955 151.4691c6.590834 11.55142 5.98598 20.99179 2.410223 27.52673h-3.030237c0-9.05959-0.793099-13.95428-1.451324-20.58397"/>
    <path d="m-49.452955 151.4691c6.590834 11.55142 6.386884 22.53444 2.410223 27.46577" stroke="#481d32" stroke-linecap="round" stroke-linejoin="round" stroke-width="1.3229166"/>
   </g>
  </g>
  <g transform="matrix(1.3066071,0,0,1.3066071,-506.05982,-412.71595)">
   <g transform="translate(-.20037212)">
    <path d="m2.2489583 380.74062c-1.0179323 2.28936-1.5875 8.94269-1.5875 13.46068s0.7294061 11.03954 1.5875 13.46068h16.408035c0.858094-2.42114 1.5875-8.94269 1.5875-13.46068s-0.569567-11.17132-1.5875-13.46068z" fill="#36619e" fill-rule="evenodd"/>
    <path d="m0.6614583 392.05001c0 5.23982 0.7294061 12.80332 1.5875 15.61128m16.408035 0c0.858094-2.80796 1.5875-10.37146 1.5875-15.61128" fill="none" stroke="#481d32" stroke-linecap="round" stroke-linejoin="round" stroke-width="1.3229166"/>
   </g>
   <path d="m3.6380202 380.34375 6.6145838 25.39999 6.614583-25.39999" fill="#fff" fill-rule="evenodd"/>
   <path d="m7.6677555 385.76223 1.683798 3.51925-1.262848 5.79975 2.1638985 7.95128 2.163898-7.95128-1.262849-5.79975 1.683799-3.51925z" fill="#ff5952" fill-rule="evenodd"/>
   <path d="m12.852125 395.51686-1.698472-6.23538 1.683799-3.51925h-5.1696965l1.683798 3.51925-1.6984703 6.23538" fill="#ff5952" fill-rule="evenodd" stroke="#481d32" stroke-linecap="round" stroke-linejoin="round" stroke-width="1.3229166"/>
   <path d="m3.6380201 380.34375 3.7413316 14.36671 2.8732523 11.03328 6.614583-25.39999" fill="none" stroke="#481d32" stroke-linecap="round" stroke-linejoin="round" stroke-width="1.3229166"/>
   <rect x="5.8208327" y="380.21149" width="8.8635416" height="5.6885414" fill="#f4cbaf" stroke="#481d32" stroke-linecap="round" stroke-linejoin="round" stroke-width="1.3229166"/>
   <path d="m3.5718744 380.87286 1.8520833 8.40053 4.8286453-3.4003 4.828646 3.4003 1.852084-8.40053-6.68073 4.91236z" fill="#fff" fill-rule="evenodd" stroke="#481d32" stroke-linecap="round" stroke-linejoin="round" stroke-width="1.3229166"/>
  </g>
  <g transform="matrix(1.3066071,0,0,1.3066071,-505.99812,-412.71595)">
   <path d="m-8.41899 363.97774h36.856467c10.902538-7.09443 7.355259-23.05725 0.65481-30.86962-6.491281-7.5685-21.253044-10.76389-29.653553-3.92888-5.8251944 0.7289-13.254381 1.91002-18.241145 12.6285 3.274052-0.28563 6.454559-1.5006 9.7286106-3.27405-3.9912116 2.87198-13.423715 12.51109 0.6548104 25.44405z" fill="#ad8c7a" fill-rule="evenodd"/>
   <path d="m24.227982 336.75634c2.854754 1.64104 4.778362 0.52627 5.893293-2.05797 0.935441 1.12253 1.621439 2.24505 2.057977 3.36758-3.187076 1.38808-6.006561 1.52635-7.95127-1.30961zm-42.656215 4.95786 2.712785-0.65487c2.769248-7.14478 7.1332794-8.27553 10.102788-10.66406-3.1181443 1.03233-8.7619861 2.89135-12.815573 11.31893zm8.418989 16.37023-2.057975 1.68381c-8.141309-9.61708-0.948098-18.99861 4.6772166-21.04747-8.6101556 8.44776-6.4828546 15.11372-2.6192416 19.36366z" fill="#fff" fill-opacity=".94835678" fill-rule="evenodd"/>
   <path d="m31.701514 361.13601c6.760996-7.89282 3.303609-21.13383-2.609227-28.02789-6.491285-7.5685-21.253043-10.76389-29.653553-3.92888-5.825194 0.7289-13.254381 1.91002-18.241145 12.6285 3.274052-0.28563 6.454559-1.5006 9.7286108-3.27405-3.7133788 2.67206-12.136868 11.2019-1.9532388 22.79227" fill="none" stroke="#481d32" stroke-linecap="round" stroke-linejoin="round" stroke-width="1.3229166"/>
  </g>
  <g transform="matrix(1.3066071,0,0,1.3066071,-505.46192,-462.26505)">
   <ellipse transform="rotate(-14.854576)" cx="-114.53056" cy="384.11917" rx="3.2127974" ry="3.8282521" fill="#f4cbaf" stroke="#481d32" stroke-width="1.3229166"/>
   <ellipse transform="matrix(-.96657963 -.25636657 -.25636657 .96657963 0 0)" cx="-133.46574" cy="379.09689" rx="3.2127974" ry="3.8282521" fill="#f4cbaf" stroke="#481d32" stroke-width="1.3229166"/>
   <ellipse cx="9.7949543" cy="397.19336" rx="21.298958" ry="23.8125" fill="#f4cbaf"/>
   <path d="m9.5587455 399.23463 0.4724705 0.8032" fill="none" stroke="#481d32" stroke-linecap="round" stroke-width="1.3229166"/>
   <ellipse cx="9.7949543" cy="397.19336" rx="21.298958" ry="23.8125" fill="none" stroke="#481d32" stroke-linecap="round" stroke-linejoin="round" stroke-width="1.3229166"/>
  </g>
  <g transform="matrix(1.3066071,0,0,1.3066071,-505.99812,-412.71595)">
   <path d="m5.0270832 334.3724c1.3920686 6.20388 3.916063 11.79772 12.303125 16.6026-0.566248-2.07524-0.689875-3.8554-0.198438-5.22552 2.792538 4.14091 6.183164 5.89408 9.194271 6.87916-0.388588-1.69499-0.294739-3.48646 0.198438-5.35781 1.316004 2.51881 3.890104 4.99608 6.35 5.42396-2.121049-4.75797-2.79638-8.49555-8.118747-13.75168-7.09843-7.01009-13.093361-5.32704-19.728649-4.57071z" fill="#ad8c7a" fill-rule="evenodd"/>
   <path d="m5.0270832 334.3724c1.3920686 6.20388 3.916063 11.79772 12.303125 16.6026-0.566248-2.07524-0.689875-3.8554-0.198438-5.22552 2.792538 4.14091 6.183164 5.89408 9.194271 6.87916-0.388588-1.69499-0.294739-3.48646 0.198438-5.35781 1.316004 2.51881 3.890104 4.99608 6.35 5.42396" fill="none" stroke="#481d32" stroke-linecap="round" stroke-linejoin="round" stroke-width="1.3229166"/>
  </g>
  <g transform="matrix(1.3066071,0,0,1.3066071,-506.34382,-611.84294)" fill="#481d32">
   <ellipse cx="2.2678556" cy="510.61313" rx="1.6762543" ry="2.4846785"/>
   <ellipse cx="18.672022" cy="510.61313" rx="1.6762543" ry="2.4846785"/>
  </g>
  <path d="m-505.24872 39.28499c1.1872 0.6086 3.1792-0.0598 3.876-1.36338" fill="none" stroke="#481d32" stroke-linecap="round" stroke-width="1.7285323"/>
  <path transform="scale(1,-1)" d="m-489.56011-75.42151a3.2130344 3.2181089 0 0 1 -3.10356 2.385201 3.2130344 3.2181089 0 0 1 -3.10355 -2.385201" fill="none" stroke="#481d32" stroke-linecap="round" stroke-linejoin="round" stroke-width="1.7285323"/>
  <g transform="matrix(-1.30442 -.07556902 -.07556902 1.30442 -230.39992 -101.49011)" stroke="#481d32" stroke-linecap="round" stroke-width="1.3229166">
   <path d="m183.21008 159.62346c0.43109-1.23297 0.56718-2.22873 0.4009-4.40994s-2.38312-3.46127-4.30972-1.97112c2.35377-3.26968-0.45032-3.74982-2.3386-1.80407 3.04146-4.50932-0.86615-3.00263-2.17157-1.23612 1.75465-1.89267-0.4101-9.24035-3.04019-0.96885-0.47504 1.49399 0.22581 3.27483 0.86862 3.80859 0 0 2.3615 1.83681 3.71647 2.72693 2.13953 1.40552 6.87409 3.85458 6.87409 3.85458z" fill="#f4cbaf" fill-rule="evenodd" stroke-linejoin="round"/>
   <path d="m176.41261 155.77573c-1.46374 2.93903-1.93721 4.61415-2.6646 7.25472-1.91553 6.95376 3.79058 12.79524 7.78995 3.98542 1.12667-2.48182 2.09856-4.09023 2.94166-7.02491z" fill="#36619e" fill-rule="evenodd"/>
   <path d="m179.14351 157.38841-2.50073 6.99255" fill="none"/>
  </g>
  <g transform="matrix(-1.30442 -.07556902 -.07556902 1.30442 -138.44192 -101.4901)" fill="none" stroke="#a0c3d5" stroke-linecap="round" stroke-width="1.0583334">
   <path d="m238.88954 160.19705c-3.44695 4.74131 0.87363 7.17436 1.2698 2.82104"/>
   <path d="m236.93889 150.57147c-3.44695 4.74131 0.87363 7.17436 1.2698 2.82104"/>
  </g>
 </g>
</svg>
