<svg width="120" height="120" version="1.1" viewBox="0 0 120 120" xmlns="http://www.w3.org/2000/svg">
 <g transform="translate(1378.4234)">
  <ellipse transform="matrix(-.58547794 .81068834 .87667672 .48107996 0 0)" cx="748.45898" cy="-1018.2686" rx="6.2692995" ry="3.8350348" fill="#f4cbaf" stroke="#481d32" stroke-linecap="round" stroke-linejoin="round" stroke-width="1.7889986"/>
  <path d="m-1322.3671 92.646105-12.9559 12.187245 6.2803 4.54459-6.0883 7.69883s-7.2096-4.24033-9.322-8.85621c-0.8681-1.89686-1.5649-4.47608-0.8638-6.44081 1.6715-4.683786 14.814-17.191401 14.814-17.191401" fill="#bebee6" fill-rule="evenodd" stroke="#481d32" stroke-linecap="round" stroke-linejoin="round" stroke-width="1.7821635"/>
  <path d="m-1308.298 83.8042 10.3254 17.8544 2.0973-6.555807 6.7431 4.870528s-1.929 9.404439-4.5547 11.805399c-1.079 0.98672-2.3913 1.4026-3.6949 0.82746-3.1076-1.37109-7.5833-8.66213-7.5833-8.66213" fill="#bebee6" fill-rule="evenodd" stroke="#481d32" stroke-linecap="round" stroke-linejoin="round" stroke-width="1.7821635"/>
  <g transform="matrix(1.3471472,0,0,1.3471472,-1332.5786,-421.20086)">
   <path d="m2.8964745 374.22949c-2.66216 7.70093-4.1861141 15.02793-1.5875001 27.28107h17.792715c2.598613-12.25314 1.07466-19.58014-1.587501-27.28107z" fill="#bebee6"/>
   <path d="m4.90889 380.28754c1.294979 3.83426 2.76914 7.64292 5.296392 11.30114 2.546572-3.76705 3.977053-7.53409 5.296392-11.30114" fill="#fff" fill-rule="evenodd" stroke="#481d32" stroke-linecap="round" stroke-linejoin="round" stroke-width="1.3229166"/>
   <path d="m6.8324108 373.8445c-1.9096895 1e-4 -3.4577411 2.06432-3.4576702 4.61057-7.09e-5 2.54626 1.5479807 4.61048 3.4576702 4.61057 1.6212338-2e-3 3.0240245-1.50459 3.3739542-3.61528 0.349762 2.10969 1.751428 3.61253 3.371887 3.61528 1.909689-9e-5 3.457741-2.06431 3.45767-4.61057 7.1e-5 -2.54625-1.547981-4.61047-3.45767-4.61057z" fill="#fff" stroke="#481d32" stroke-linecap="round" stroke-linejoin="round" stroke-width="1.3229166"/>
   <path d="m6.9117581 375.52706c0.952272 1.80559 1.312661 3.69573 3.4017879 5.33891 2.137222-1.83937 2.358993-3.67874 3.185887-5.51811" fill="#f4cbaf" fill-rule="evenodd" stroke="#481d32" stroke-linecap="round" stroke-linejoin="round" stroke-width="1.3229166"/>
   <path d="m3.1927244 376.1389-1.81901 8.00837 2.5479811 0.23955-0.3273721 3.32756 3.6521963 3.77975m9.9714153-15.35523 1.819013 8.00837-2.547982 0.23959 0.327371 3.32755-3.652194 3.77975" fill="none" stroke="#481d32" stroke-linecap="round" stroke-linejoin="round" stroke-width="1.3229166"/>
   <path d="m19.111936 401.44385c1.270305-5.98981 0.876485-10.77623 0.912942-15.01454m-19.620109 0c0.0082 4.30882-0.3846443 8.88896 0.91445266 15.01454" fill="none" stroke="#481d32" stroke-linecap="round" stroke-linejoin="round" stroke-width="1.3229166"/>
  </g>
  <g transform="matrix(1.3471472,0,0,1.3471472,-1332.5786,-891.69224)">
   <path d="m-11.588201 738.47649c7.234469-4.43519 10.525122-12.58138 5.953127-29.57664l-11.339286-7.37053c-9.106652 9.65526-3.576659 17.44937-0.566966 20.78869 5.516778 6.12099 6.532535 9.64425 5.953125 16.15848z" fill="#704241" fill-rule="evenodd"/>
   <path d="m-16.044815 704.59726-1.00226-2.67269c-0.15954-0.26591-5.168947 4.24998-5.011297 10.82441s6.056547 10.66521 9.087154 15.23436c-0.67912-3.39556-5.816167-8.66492-6.280824-14.76664-0.46466-6.10172 3.167277-8.69933 3.207227-8.61944z" fill="#fff" fill-rule="evenodd"/>
   <path d="m-16.97436 701.52932c-9.106652 9.65526-3.576659 17.44937-0.566966 20.78869 5.516778 6.12099 6.532535 9.64425 5.953125 16.15848m2.69308-2.03162c4.588636-4.90766 7.54856-11.21122 3.260047-27.54502" fill="none" stroke="#481d32" stroke-linecap="round" stroke-width="1.3229166"/>
   <path d="m-8.4099701 709.93929c-23.743909-11.03668 0.063455-48.93745 25.985863-38.36459 21.970888 3.43376 29.533859 32.88475 11.906248 40.82143" fill="#704241" fill-rule="evenodd"/>
   <path d="m15.051482 671.33233c-6.3898263-0.57605-17.822324 1.8491-24.780361 10.14804 0.64193 1.30735 2.9941364 3.04476 6.0409031 2.63437-1.74187 1.09775-3.3930931 2.1072-8.7096599 0.31115-3.75781 5.08969-5.125977 11.09737-4.768581 16.09839-2.856106-5.70743 0.4336-16.22029 6.070537-22.13454 7.2534075-7.61024 19.495376-10.88792 26.147162-7.05741z" fill="#fff" fill-rule="evenodd"/>
   <path d="m-8.4099701 709.93929c-23.743909-11.03668 0.063455-48.93745 25.985863-38.36459m11.906248 40.82143c17.627611-7.93668 10.070961-37.42836-11.906248-40.82143-1.414359-0.21837-3.645161 0.44024-4.509033 1.20819" fill="none" stroke="#481d32" stroke-linecap="round" stroke-width="1.3229166"/>
  </g>
  <g transform="matrix(1.3471472,0,0,1.3471472,-1332.0258,-479.4158)">
   <ellipse transform="rotate(-14.854576)" cx="-114.53056" cy="384.11917" rx="3.2127974" ry="3.8282521" fill="#f4cbaf" stroke="#481d32" stroke-width="1.3229166"/>
   <ellipse transform="matrix(-.96657963 -.25636657 -.25636657 .96657963 0 0)" cx="-133.46574" cy="379.09689" rx="3.2127974" ry="3.8282521" fill="#f4cbaf" stroke="#481d32" stroke-width="1.3229166"/>
   <ellipse cx="9.7949543" cy="397.19336" rx="21.298958" ry="23.8125" fill="#f4cbaf"/>
   <path d="m9.5587455 399.23463 0.4724705 0.8032" fill="none" stroke="#481d32" stroke-linecap="round" stroke-width="1.3229166"/>
   <ellipse cx="-6.0420694" cy="404.39377" rx="4.6786079" ry="4.9148431" fill="#ff69b4" fill-opacity=".39215686"/>
   <ellipse cx="25.632029" cy="404.39377" rx="4.6786079" ry="4.9148431" fill="#ff69b4" fill-opacity=".39215686"/>
   <ellipse cx="9.7949543" cy="397.19336" rx="21.298958" ry="23.8125" fill="none" stroke="#481d32" stroke-linecap="round" stroke-linejoin="round" stroke-width="1.3229166"/>
  </g>
  <g transform="matrix(1.3471472,0,0,1.3471472,-1332.5786,-421.20083)">
   <path d="m4.3075853 329.71801c-4.8405659 4.81898-1.1454793 12.73364 3.3302198 15.85207 3.3072919 0.76559 6.3473139 0.87089 9.6546049-1e-5 3.989245 0.61346 7.558508 0.73057 10.811464-0.0945-3.507207-3.53145-2.674703-7.80606-2.150437-12.42457-9.493971-5.58699-15.358869-6.08218-21.645852-3.33299z" fill="#704241" fill-rule="evenodd"/>
   <path d="m4.3075853 329.71801c-4.840566 4.81898-1.1454793 12.73364 3.3302199 15.85207m9.9380868 0.0472c-2.12599-1.68463-5.141734-8.87648-3.060262-13.22917m13.588244 13.08742c-3.507207-3.53145-2.674703-7.80606-2.150437-12.42457" fill="none" stroke="#481d32" stroke-linecap="round" stroke-linejoin="round" stroke-width="1.3229166"/>
  </g>
  <g transform="matrix(1.3471472,0,0,1.3471472,-1332.5786,-319.62873)" fill="#481d32" fill-rule="evenodd" shape-rendering="auto">
   <path d="m-1.4298259 275.1537a0.52921953 0.52921953 0 0 0 -0.5312299 0.52916c-0.0104 0.60249 0.24409 1.17507 0.6056399 1.65831 0.0131 0.0174 0.0275 0.0339 0.0408 0.0511a1.679152 2.4952483 0 0 0 -0.7425899 2.06809 1.679152 2.4952483 0 0 0 1.6789704 2.49547 1.679152 2.4952483 0 0 0 1.67949 -2.49547 1.679152 2.4952483 0 0 0 -1.56735 -2.48666c-0.0846-0.0795-0.16771-0.16653-0.24185-0.26562-0.2498805-0.33395-0.3987605-0.74945-0.3942905-1.00769a0.52921953 0.52921953 0 0 0 -0.52761002 -0.54673z" color="#000000" color-rendering="auto" dominant-baseline="auto" image-rendering="auto" solid-color="#000000" style="font-feature-settings:normal;font-variant-alternates:normal;font-variant-caps:normal;font-variant-ligatures:normal;font-variant-numeric:normal;font-variant-position:normal;isolation:auto;mix-blend-mode:normal;shape-padding:0;text-decoration-color:#000000;text-decoration-line:none;text-decoration-style:solid;text-indent:0;text-orientation:mixed;text-transform:none;white-space:normal"/>
   <path d="m21.840542 275.1537a0.52921953 0.52921953 0 0 1 0.53123 0.52916c0.0104 0.60249-0.24409 1.17507-0.60564 1.65831-0.0131 0.0174-0.0275 0.0339-0.0408 0.0511a1.679152 2.4952483 0 0 1 0.74259 2.06809 1.679152 2.4952483 0 0 1 -1.67897 2.49547 1.679152 2.4952483 0 0 1 -1.679491 -2.49547 1.679152 2.4952483 0 0 1 1.567351 -2.48666c0.0846-0.0795 0.16771-0.16653 0.24185-0.26562 0.24988-0.33395 0.39876-0.74945 0.39429-1.00769a0.52921953 0.52921953 0 0 1 0.52761 -0.54673z" color="#000000" color-rendering="auto" dominant-baseline="auto" image-rendering="auto" solid-color="#000000" style="font-feature-settings:normal;font-variant-alternates:normal;font-variant-caps:normal;font-variant-ligatures:normal;font-variant-numeric:normal;font-variant-position:normal;isolation:auto;mix-blend-mode:normal;shape-padding:0;text-decoration-color:#000000;text-decoration-line:none;text-decoration-style:solid;text-indent:0;text-orientation:mixed;text-transform:none;white-space:normal"/>
  </g>
  <path d="m-1312.3096 71.379058a6.7509642 6.7003989 0 0 1 -6.521 4.966208 6.7509642 6.7003989 0 0 1 -6.5209 -4.966208" fill="none" stroke="#481d32" stroke-linecap="round" stroke-linejoin="round" stroke-width="1.7821635"/>
  <path d="m-1336.0156 39.393673c0.8096-1.111802 2.9536-1.422305 4.2008-0.546472" fill="none" stroke="#481d32" stroke-linecap="round" stroke-width="1.7821635"/>
  <g transform="matrix(-1.3471472,0,0,1.3471472,-1133.3044,-891.69224)" stroke="#481d32" stroke-linecap="round" stroke-linejoin="round" stroke-width="1.3229166">
   <g>
    <rect x="118.75127" y="715.91589" width="2.8482776" height="5.6965551" fill="#fff"/>
    <path d="m120.17567 686.22788a15.555977 15.555977 0 0 0 -15.55616 15.55615 15.555977 15.555977 0 0 0 15.55616 15.55615 15.555977 15.555977 0 0 0 15.55564 -15.55615 15.555977 15.555977 0 0 0 -15.55564 -15.55615zm0 3.83439a11.721757 11.721757 0 0 1 11.72176 11.72176 11.721757 11.721757 0 0 1 -11.72176 11.72175 11.721757 11.721757 0 0 1 -11.72177 -11.72175 11.721757 11.721757 0 0 1 11.72177 -11.72176z" fill="#fff"/>
    <rect x="117.65578" y="720.18817" width="5.0392604" height="19.499744" rx=".79374999" ry=".79374999" fill="#57a2ff"/>
   </g>
   <ellipse cx="120.10629" cy="731.02484" rx="5.8484516" ry="6.6618123" fill="#f4cbaf"/>
   <ellipse transform="rotate(-14.833016)" cx="-65.430649" cy="735.29138" rx="2.1302307" ry="2.6337399" fill="#f4cbaf"/>
   <path d="m118.30344 732.49728 2.49852-0.20793m-2.50254-2.51463 2.50656-0.0545m-2.50128-2.73675 2.496 0.23629" fill="none"/>
  </g>
  <path d="m-1277.9069 80.123794s0.3288-4.990061 2.1386-4.990061c1.8096 0 2.1386 4.990061 2.1386 4.990061s4.2771 0.544583 4.2771 2.138596c0 1.59401-4.2771 2.138596-4.2771 2.138596s-0.329 4.990062-2.1386 4.990062c-1.8098 0-2.1386-4.990062-2.1386-4.990062s-4.2772-0.544586-4.2772-2.138596c0-1.594013 4.2772-2.138596 4.2772-2.138596z" fill="#ffc800"/>
  <path d="m-1363.217 19.389776s0.3289-4.990062 2.1386-4.990062 2.1386 4.990062 2.1386 4.990062 4.2771 0.544582 4.2771 2.138596c0 1.594013-4.2771 2.138596-4.2771 2.138596s-0.3289 4.990061-2.1386 4.990061-2.1386-4.990061-2.1386-4.990061-4.2772-0.544583-4.2772-2.138596c0-1.594014 4.2772-2.138596 4.2772-2.138596z" fill="#ffc800"/>
 </g>
</svg>
