<svg width="120" height="120" version="1.1" viewBox="0 0 120 120" xmlns="http://www.w3.org/2000/svg">
 <g transform="translate(276.10874)">
  <g transform="matrix(1.3066071,0,0,1.3066071,-229.49453,-412.71595)">
   <g transform="translate(-.20037212)">
    <path d="m2.2489583 380.74062c-1.0179323 2.28936-1.5875 8.94269-1.5875 13.46068s0.7294061 11.03954 1.5875 13.46068h16.408035c0.858094-2.42114 1.5875-8.94269 1.5875-13.46068s-0.569567-11.17132-1.5875-13.46068z" fill="#36619e" fill-rule="evenodd"/>
    <path d="m0.6614583 392.05001c0 5.23982 0.7294061 12.80332 1.5875 15.61128m16.408035 0c0.858094-2.80796 1.5875-10.37146 1.5875-15.61128" fill="none" stroke="#481d32" stroke-linecap="round" stroke-linejoin="round" stroke-width="1.3229166"/>
   </g>
   <path d="m3.6380202 380.34375 6.6145838 25.39999 6.614583-25.39999" fill="#fff" fill-rule="evenodd"/>
   <path d="m7.6677555 385.76223 1.683798 3.51925-1.262848 5.79975 2.1638985 7.95128 2.163898-7.95128-1.262849-5.79975 1.683799-3.51925z" fill="#ff5952" fill-rule="evenodd"/>
   <path d="m12.852125 395.51686-1.698472-6.23538 1.683799-3.51925h-5.1696965l1.683798 3.51925-1.6984703 6.23538" fill="#ff5952" fill-rule="evenodd" stroke="#481d32" stroke-linecap="round" stroke-linejoin="round" stroke-width="1.3229166"/>
   <path d="m3.6380201 380.34375 3.7413316 14.36671 2.8732523 11.03328 6.614583-25.39999" fill="none" stroke="#481d32" stroke-linecap="round" stroke-linejoin="round" stroke-width="1.3229166"/>
   <rect x="5.8208327" y="380.21149" width="8.8635416" height="5.6885414" fill="#f4cbaf" stroke="#481d32" stroke-linecap="round" stroke-linejoin="round" stroke-width="1.3229166"/>
   <path d="m3.5718744 380.87286 1.8520833 8.40053 4.8286453-3.4003 4.828646 3.4003 1.852084-8.40053-6.68073 4.91236z" fill="#fff" fill-rule="evenodd" stroke="#481d32" stroke-linecap="round" stroke-linejoin="round" stroke-width="1.3229166"/>
  </g>
  <g transform="matrix(-1.3066071,0,0,1.3066071,765.02111,-613.2258)">
   <path d="m779.78559 501.30082 8.79317 4.86431-27.87621 39.19507-1.79891-12.12042z" fill="#36619e" fill-rule="evenodd"/>
   <path d="m758.90362 533.23978 20.88195-31.93896 8.79317 4.86431-27.87621 39.19507" fill="none" stroke="#481d32" stroke-linecap="round" stroke-linejoin="round" stroke-width="1.3229166"/>
   <path d="m785.27903 490.80183c1.94419 0.66246-1.00687 9.8154 0.32605 5.45746 0.69475-2.27146 2.82443-5.23545 4.07033-4.63353 1.03803 0.50148 1.39628 2.29324-0.59426 5.79587-1.71473 4.19235 1.90644-5.00781 4.45438-3.34756s-4.88908 8.75027-1.30972 5.27652c0.77438-0.75153 2.15044-1.85584 2.82534-1.2961 1.31752 1.0927-1.11337 5.12016-3.62565 7.44859-4.63664 4.29732-7.93855 1.10515-11.71046-1.23482-3.18092-1.97333-4.5441-5.29266-3.41531-6.48803 0.79488-0.84177 3.10728 0.41212 4.51092 1.80416 0.38937-3.05914 2.01241-9.6194 4.46838-8.78256z" fill="#f4cbaf" fill-rule="evenodd" stroke="#481d32" stroke-linecap="round" stroke-linejoin="round" stroke-width="1.3229166"/>
  </g>
  <g transform="matrix(1.3066071,0,0,1.3066071,-1197.2386,-613.2258)">
   <path d="m779.78559 501.30082 8.79317 4.86431-27.87621 39.19507-1.79891-12.12042z" fill="#36619e" fill-rule="evenodd"/>
   <path d="m758.90362 533.23978 20.88195-31.93896 8.79317 4.86431-27.87621 39.19507" fill="none" stroke="#481d32" stroke-linecap="round" stroke-linejoin="round" stroke-width="1.3229166"/>
   <path d="m785.27903 490.80183c1.94419 0.66246-1.00687 9.8154 0.32605 5.45746 0.69475-2.27146 2.82443-5.23545 4.07033-4.63353 1.03803 0.50148 1.39628 2.29324-0.59426 5.79587-1.71473 4.19235 1.90644-5.00781 4.45438-3.34756s-4.88908 8.75027-1.30972 5.27652c0.77438-0.75153 2.15044-1.85584 2.82534-1.2961 1.31752 1.0927-1.11337 5.12016-3.62565 7.44859-4.63664 4.29732-7.93855 1.10515-11.71046-1.23482-3.18092-1.97333-4.5441-5.29266-3.41531-6.48803 0.79488-0.84177 3.10728 0.41212 4.51092 1.80416 0.38937-3.05914 2.01241-9.6194 4.46838-8.78256z" fill="#f4cbaf" fill-rule="evenodd" stroke="#481d32" stroke-linecap="round" stroke-linejoin="round" stroke-width="1.3229166"/>
  </g>
  <g transform="matrix(1.3066071,0,0,1.3066071,-229.43283,-412.71595)">
   <path d="m-8.41899 363.97774h36.856467c10.902538-7.09443 7.355259-23.05725 0.65481-30.86962-6.491281-7.5685-21.253044-10.76389-29.653553-3.92888-5.8251944 0.7289-13.254381 1.91002-18.241145 12.6285 3.274052-0.28563 6.454559-1.5006 9.7286106-3.27405-3.9912116 2.87198-13.423715 12.51109 0.6548104 25.44405z" fill="#ad8c7a" fill-rule="evenodd"/>
   <path d="m24.227982 336.75634c2.854754 1.64104 4.778362 0.52627 5.893293-2.05797 0.935441 1.12253 1.621439 2.24505 2.057977 3.36758-3.187076 1.38808-6.006561 1.52635-7.95127-1.30961zm-42.656215 4.95786 2.712785-0.65487c2.769248-7.14478 7.1332794-8.27553 10.102788-10.66406-3.1181443 1.03233-8.7619861 2.89135-12.815573 11.31893zm8.418989 16.37023-2.057975 1.68381c-8.141309-9.61708-0.948098-18.99861 4.6772166-21.04747-8.6101556 8.44776-6.4828546 15.11372-2.6192416 19.36366z" fill="#fff" fill-opacity=".94835678" fill-rule="evenodd"/>
   <path d="m31.701514 361.13601c6.760996-7.89282 3.303609-21.13383-2.609227-28.02789-6.491285-7.5685-21.253043-10.76389-29.653553-3.92888-5.825194 0.7289-13.254381 1.91002-18.241145 12.6285 3.274052-0.28563 6.454559-1.5006 9.7286108-3.27405-3.7133788 2.67206-12.136868 11.2019-1.9532388 22.79227" fill="none" stroke="#481d32" stroke-linecap="round" stroke-linejoin="round" stroke-width="1.3229166"/>
  </g>
  <g transform="matrix(1.3066071,0,0,1.3066071,-228.89653,-462.26505)">
   <ellipse transform="rotate(-14.854576)" cx="-114.53056" cy="384.11917" rx="3.2127974" ry="3.8282521" fill="#f4cbaf" stroke="#481d32" stroke-width="1.3229166"/>
   <ellipse transform="matrix(-.96657963 -.25636657 -.25636657 .96657963 0 0)" cx="-133.46574" cy="379.09689" rx="3.2127974" ry="3.8282521" fill="#f4cbaf" stroke="#481d32" stroke-width="1.3229166"/>
   <ellipse cx="9.7949543" cy="397.19336" rx="21.298958" ry="23.8125" fill="#f4cbaf"/>
   <path d="m9.5587455 399.23463 0.4724705 0.8032" fill="none" stroke="#481d32" stroke-linecap="round" stroke-width="1.3229166"/>
   <ellipse cx="9.7949543" cy="397.19336" rx="21.298958" ry="23.8125" fill="none" stroke="#481d32" stroke-linecap="round" stroke-linejoin="round" stroke-width="1.3229166"/>
  </g>
  <g transform="matrix(1.3066071,0,0,1.3066071,-229.43283,-412.71595)">
   <path d="m5.0270832 334.3724c1.3920686 6.20388 3.916063 11.79772 12.303125 16.6026-0.566248-2.07524-0.689875-3.8554-0.198438-5.22552 2.792538 4.14091 6.183164 5.89408 9.194271 6.87916-0.388588-1.69499-0.294739-3.48646 0.198438-5.35781 1.316004 2.51881 3.890104 4.99608 6.35 5.42396-2.121049-4.75797-2.79638-8.49555-8.118747-13.75168-7.09843-7.01009-13.093361-5.32704-19.728649-4.57071z" fill="#ad8c7a" fill-rule="evenodd"/>
   <path d="m5.0270832 334.3724c1.3920686 6.20388 3.916063 11.79772 12.303125 16.6026-0.566248-2.07524-0.689875-3.8554-0.198438-5.22552 2.792538 4.14091 6.183164 5.89408 9.194271 6.87916-0.388588-1.69499-0.294739-3.48646 0.198438-5.35781 1.316004 2.51881 3.890104 4.99608 6.35 5.42396" fill="none" stroke="#481d32" stroke-linecap="round" stroke-linejoin="round" stroke-width="1.3229166"/>
  </g>
  <path d="m-228.67393 40.016058c1.3838-1.97602 3.1667-1.8323 4.0744-0.53003" fill="none" stroke="#481d32" stroke-linecap="round" stroke-width="1.7285323"/>
  <path d="m-223.12713 71.335778c5.0785 0.98905 9.8991 1.38007 14.0695 0.26385 0 4.07209-1.7489 9.78387-6.0883 9.74845-3.8882-0.0317-6.3456-4.15732-6.3456-9.39899" fill="#fff" fill-rule="evenodd" stroke="#481d32" stroke-linecap="round" stroke-linejoin="round" stroke-width="1.7285323"/>
  <g transform="matrix(1.3066071,0,0,1.3066071,-1336.0315,-613.2258)" fill="#481d32" fill-rule="evenodd" shape-rendering="auto">
   <path d="m866.79724 510.00952a0.66152446 0.66152446 0 0 0 -0.41211 0.13867l-3.50586 2.64648a0.66152446 0.66152446 0 0 0 0.41993 1.18945l4.0996-0.13281a0.66152446 0.66152446 0 1 0 -0.041 -1.32226l-2.01758 0.0644 1.8418-1.38867a0.66152446 0.66152446 0 0 0 -0.38476 -1.19531z" color="#000000" color-rendering="auto" dominant-baseline="auto" image-rendering="auto" solid-color="#000000" style="font-feature-settings:normal;font-variant-alternates:normal;font-variant-caps:normal;font-variant-ligatures:normal;font-variant-numeric:normal;font-variant-position:normal;isolation:auto;mix-blend-mode:normal;shape-padding:0;text-decoration-color:#000000;text-decoration-line:none;text-decoration-style:solid;text-indent:0;text-orientation:mixed;text-transform:none;white-space:normal"/>
   <path d="m847.46415 510.00952a0.66152446 0.66152446 0 0 1 0.41211 0.13867l3.50586 2.64648a0.66152446 0.66152446 0 0 1 -0.41993 1.18945l-4.0996-0.13281a0.66152446 0.66152446 0 1 1 0.041 -1.32226l2.01758 0.0644-1.8418-1.38867a0.66152446 0.66152446 0 0 1 0.38476 -1.19531z" color="#000000" color-rendering="auto" dominant-baseline="auto" image-rendering="auto" solid-color="#000000" style="font-feature-settings:normal;font-variant-alternates:normal;font-variant-caps:normal;font-variant-ligatures:normal;font-variant-numeric:normal;font-variant-position:normal;isolation:auto;mix-blend-mode:normal;shape-padding:0;text-decoration-color:#000000;text-decoration-line:none;text-decoration-style:solid;text-indent:0;text-orientation:mixed;text-transform:none;white-space:normal"/>
  </g>
  <path d="m-270.29543 64.906028 8.7333 7.6821m-9.2519-17.88044 10.5099 11.78507m98.38199-1.58673-8.7333 7.6821m9.2519-17.88044-10.51 11.78507" fill="none" stroke="#ff5851" stroke-linecap="round" stroke-linejoin="round" stroke-width="1.7285323"/>
 </g>
</svg>
