<svg width="120" height="120" version="1.1" viewBox="0 0 120 120" xmlns="http://www.w3.org/2000/svg">
 <g transform="translate(1093.9076)">
  <g transform="matrix(1.3471472,0,0,1.3471472,-1047.4324,-891.69224)">
   <path d="m-11.588201 738.47649c7.234469-4.43519 10.525122-12.58138 5.953127-29.57664l-11.339286-7.37053c-9.106652 9.65526-3.576659 17.44937-0.566966 20.78869 5.516778 6.12099 6.532535 9.64425 5.953125 16.15848z" fill="#704241" fill-rule="evenodd"/>
   <path d="m-16.044815 704.59726-1.00226-2.67269c-0.15954-0.26591-5.168947 4.24998-5.011297 10.82441s6.056547 10.66521 9.087154 15.23436c-0.67912-3.39556-5.816167-8.66492-6.280824-14.76664-0.46466-6.10172 3.167277-8.69933 3.207227-8.61944z" fill="#fff" fill-rule="evenodd"/>
   <path d="m-16.97436 701.52932c-9.106652 9.65526-3.576659 17.44937-0.566966 20.78869 5.516778 6.12099 6.532535 9.64425 5.953125 16.15848m2.69308-2.03162c4.588636-4.90766 7.54856-11.21122 3.260047-27.54502" fill="none" stroke="#481d32" stroke-linecap="round" stroke-width="1.3229166"/>
   <path d="m-8.4099701 709.93929c-23.743909-11.03668 0.063455-48.93745 25.985863-38.36459 21.970888 3.43376 29.533859 32.88475 11.906248 40.82143" fill="#704241" fill-rule="evenodd"/>
   <path d="m15.051482 671.33233c-6.3898263-0.57605-17.822324 1.8491-24.780361 10.14804 0.64193 1.30735 2.9941364 3.04476 6.0409031 2.63437-1.74187 1.09775-3.3930931 2.1072-8.7096599 0.31115-3.75781 5.08969-5.125977 11.09737-4.768581 16.09839-2.856106-5.70743 0.4336-16.22029 6.070537-22.13454 7.2534075-7.61024 19.495376-10.88792 26.147162-7.05741z" fill="#fff" fill-rule="evenodd"/>
   <path d="m-8.4099701 709.93929c-23.743909-11.03668 0.063455-48.93745 25.985863-38.36459m11.906248 40.82143c17.627611-7.93668 10.070961-37.42836-11.906248-40.82143-1.414359-0.21837-3.645161 0.44024-4.509033 1.20819" fill="none" stroke="#481d32" stroke-linecap="round" stroke-width="1.3229166"/>
  </g>
  <g transform="matrix(1.3471472,0,0,1.3471472,-1332.584,-706.34724)" fill-rule="evenodd" stroke="#481d32" stroke-linecap="round" stroke-linejoin="round" stroke-width="1.3229166">
   <path d="m229.95033 586.64425c1.99289 3.37777 4.19213 8.3504 5.41462 12.01127l2.22599-4.44264 5.04598 4.44122c-2.69224 4.89352-4.29154 9.47004-8.45722 8.684-3.54851-1.01777-4.34063-9.0438-4.34063-9.0438" fill="#bebee6"/>
   <path d="m247.54883 591.50557c3.62729-3.10591 0.20248-4.78834-1.8511-1.39966 3.31443-3.81617 0.0588-6.64334-1.88892-1.03466 2.12488-5.37834-3.23951-3.30926-3.78919 2.75273-0.18889-2.59607-3.3759-6.35868-3.59439 0.35927-0.0643 1.97766 0.242 3.86962 2.26601 5.85624 1.94538 1.90944 3.98293 1.13588 5.76468 0.40384 2.29965-0.94483 3.69675-3.11683 4.92474-5.6015 1.22799-2.48466 0.12906-3.26142-1.83183-1.33626z" fill="#f4cbaf"/>
   <path d="m213.80173 586.64425c-1.99289 3.37777-4.19213 8.3504-5.41462 12.01127l-2.22599-4.44264-5.04598 4.44122c2.69224 4.89352 4.29154 9.47004 8.45722 8.684 3.54851-1.01777 4.34063-9.0438 4.34063-9.0438" fill="#bebee6"/>
   <path d="m196.20323 591.50557c-3.62729-3.10591-0.20248-4.78834 1.8511-1.39966-3.31443-3.81617-0.0588-6.64334 1.88892-1.03466-2.12488-5.37834 3.23951-3.30926 3.78919 2.75273 0.18889-2.59607 3.3759-6.35868 3.59439 0.35927 0.0643 1.97766-0.242 3.86962-2.26601 5.85624-1.94538 1.90944-3.98293 1.13588-5.76468 0.40384-2.29965-0.94483-3.69675-3.11683-4.92474-5.6015-1.22799-2.48466-0.12906-3.26142 1.83183-1.33626z" fill="#f4cbaf"/>
  </g>
  <g transform="matrix(1.3471472,0,0,1.3471472,-1047.4324,-421.2009)">
   <path d="m2.8964745 374.22949c-2.66216 7.70093-4.1861141 15.02793-1.5875001 27.28107h17.792715c2.598613-12.25314 1.07466-19.58014-1.587501-27.28107z" fill="#bebee6"/>
   <path d="m4.90889 380.28754c1.294979 3.83426 2.76914 7.64292 5.296392 11.30114 2.546572-3.76705 3.977053-7.53409 5.296392-11.30114" fill="#fff" fill-rule="evenodd" stroke="#481d32" stroke-linecap="round" stroke-linejoin="round" stroke-width="1.3229166"/>
   <path d="m6.8324108 373.8445c-1.9096895 1e-4 -3.4577411 2.06432-3.4576702 4.61057-7.09e-5 2.54626 1.5479807 4.61048 3.4576702 4.61057 1.6212338-2e-3 3.0240245-1.50459 3.3739542-3.61528 0.349762 2.10969 1.751428 3.61253 3.371887 3.61528 1.909689-9e-5 3.457741-2.06431 3.45767-4.61057 7.1e-5 -2.54625-1.547981-4.61047-3.45767-4.61057z" fill="#fff" stroke="#481d32" stroke-linecap="round" stroke-linejoin="round" stroke-width="1.3229166"/>
   <path d="m6.9117581 375.52706c0.952272 1.80559 1.312661 3.69573 3.4017879 5.33891 2.137222-1.83937 2.358993-3.67874 3.185887-5.51811" fill="#f4cbaf" fill-rule="evenodd" stroke="#481d32" stroke-linecap="round" stroke-linejoin="round" stroke-width="1.3229166"/>
   <path d="m3.1927244 376.1389-1.81901 8.00837 2.5479811 0.23955-0.3273721 3.32756 3.6521963 3.77975m9.9714153-15.35523 1.819013 8.00837-2.547982 0.23959 0.327371 3.32755-3.652194 3.77975" fill="none" stroke="#481d32" stroke-linecap="round" stroke-linejoin="round" stroke-width="1.3229166"/>
   <path d="m19.111936 401.44385c1.270305-5.98981 0.876485-10.77623 0.912942-15.01454m-19.620109 0c0.0082 4.30882-0.3846443 8.88896 0.91445266 15.01454" fill="none" stroke="#481d32" stroke-linecap="round" stroke-linejoin="round" stroke-width="1.3229166"/>
  </g>
  <g transform="matrix(1.3471472,0,0,1.3471472,-1046.8795,-479.4158)">
   <ellipse transform="rotate(-14.854576)" cx="-114.53056" cy="384.11917" rx="3.2127974" ry="3.8282521" fill="#f4cbaf" stroke="#481d32" stroke-width="1.3229166"/>
   <ellipse transform="matrix(-.96657963 -.25636657 -.25636657 .96657963 0 0)" cx="-133.46574" cy="379.09689" rx="3.2127974" ry="3.8282521" fill="#f4cbaf" stroke="#481d32" stroke-width="1.3229166"/>
   <ellipse cx="9.7949543" cy="397.19336" rx="21.298958" ry="23.8125" fill="#f4cbaf"/>
   <path d="m9.5587455 399.23463 0.4724705 0.8032" fill="none" stroke="#481d32" stroke-linecap="round" stroke-width="1.3229166"/>
   <ellipse cx="-6.0420694" cy="404.39377" rx="4.6786079" ry="4.9148431" fill="#ff69b4" fill-opacity=".39215686"/>
   <ellipse cx="25.632029" cy="404.39377" rx="4.6786079" ry="4.9148431" fill="#ff69b4" fill-opacity=".39215686"/>
   <ellipse cx="9.7949543" cy="397.19336" rx="21.298958" ry="23.8125" fill="none" stroke="#481d32" stroke-linecap="round" stroke-linejoin="round" stroke-width="1.3229166"/>
  </g>
  <g transform="matrix(1.3471472,0,0,1.3471472,-1047.4324,-421.20083)">
   <path d="m4.3075853 329.71801c-4.8405659 4.81898-1.1454793 12.73364 3.3302198 15.85207 3.3072919 0.76559 6.3473139 0.87089 9.6546049-1e-5 3.989245 0.61346 7.558508 0.73057 10.811464-0.0945-3.507207-3.53145-2.674703-7.80606-2.150437-12.42457-9.493971-5.58699-15.358869-6.08218-21.645852-3.33299z" fill="#704241" fill-rule="evenodd"/>
   <path d="m4.3075853 329.71801c-4.840566 4.81898-1.1454793 12.73364 3.3302199 15.85207m9.9380868 0.0472c-2.12599-1.68463-5.141734-8.87648-3.060262-13.22917m13.588244 13.08742c-3.507207-3.53145-2.674703-7.80606-2.150437-12.42457" fill="none" stroke="#481d32" stroke-linecap="round" stroke-linejoin="round" stroke-width="1.3229166"/>
  </g>
  <path d="m-1050.8693 38.349317c0.8096 1.111799 2.9536 1.422305 4.2008 0.546472" fill="none" stroke="#481d32" stroke-linecap="round" stroke-width="1.7821635"/>
  <g transform="matrix(1.3471472,0,0,1.3471472,-904.85942,-475.42436)" fill="#481d32" fill-rule="evenodd" shape-rendering="auto">
   <path d="m-109.62661 392.33851a0.52921955 0.52921955 0 0 0 -0.5297 0.52764c-0.0104 0.60248 0.24202 1.17663 0.6036 1.65983 0.24355 0.32549 0.54157 0.61503 0.89244 0.80979-0.21744 0.47376-0.32745 1.03193-0.28681 1.64949a0.66163449 0.66163449 0 1 0 1.32035 -0.0878c-0.0756-1.14819 0.4545-1.66664 1.10328-1.83814 0.64879-0.17148 1.44992 0.0557 1.95699 0.92398a0.66152444 0.66152444 0 1 0 1.14255 -0.66609c-0.77795-1.33221-2.21474-1.8601-3.43751-1.53686-0.43794 0.11575-0.84223 0.34906-1.17769 0.67487-0.20839-0.0955-0.46596-0.29628-0.66612-0.56377-0.24987-0.33396-0.39875-0.7474-0.39431-1.00563a0.52921955 0.52921955 0 0 0 -0.52707 -0.54727z" color="#000000" color-rendering="auto" dominant-baseline="auto" image-rendering="auto" solid-color="#000000" style="font-feature-settings:normal;font-variant-alternates:normal;font-variant-caps:normal;font-variant-ligatures:normal;font-variant-numeric:normal;font-variant-position:normal;isolation:auto;mix-blend-mode:normal;shape-padding:0;text-decoration-color:#000000;text-decoration-line:none;text-decoration-style:solid;text-indent:0;text-orientation:mixed;text-transform:none;white-space:normal"/>
   <path d="m-81.629366 392.33851a0.52921955 0.52921955 0 0 1 0.5297 0.52764c0.0104 0.60248-0.24202 1.17663-0.6036 1.65983-0.24355 0.32549-0.54157 0.61503-0.89244 0.80979 0.21744 0.47376 0.32745 1.03193 0.28681 1.64949a0.66163449 0.66163449 0 1 1 -1.32035 -0.0878c0.0756-1.14819-0.4545-1.66664-1.10328-1.83814-0.64879-0.17148-1.44992 0.0557-1.95699 0.92398a0.66152444 0.66152444 0 1 1 -1.14255 -0.66609c0.77795-1.33221 2.21474-1.8601 3.43751-1.53686 0.43794 0.11575 0.84223 0.34906 1.17769 0.67487 0.20839-0.0955 0.46596-0.29628 0.66612-0.56377 0.24987-0.33396 0.39875-0.7474 0.39431-1.00563a0.52921955 0.52921955 0 0 1 0.52707 -0.54727z" color="#000000" color-rendering="auto" dominant-baseline="auto" image-rendering="auto" solid-color="#000000" style="font-feature-settings:normal;font-variant-alternates:normal;font-variant-caps:normal;font-variant-ligatures:normal;font-variant-numeric:normal;font-variant-position:normal;isolation:auto;mix-blend-mode:normal;shape-padding:0;text-decoration-color:#000000;text-decoration-line:none;text-decoration-style:solid;text-indent:0;text-orientation:mixed;text-transform:none;white-space:normal"/>
  </g>
  <path d="m-1038.7684 69.978124h10.181c0 3.194154-1.8899 6.390058-4.81 6.366915-2.6167-0.02074-4.9832-2.715148-4.9832-6.138505" fill="#fff" fill-rule="evenodd" stroke="#481d32" stroke-linecap="round" stroke-linejoin="round" stroke-width="1.7821635"/>
  <g transform="matrix(1.3471472,0,0,1.3471472,-1639.8892,-121.77441)" fill="none" stroke="#a0c3d5" stroke-linecap="round" stroke-width="1.0583334">
   <path d="m481.80109 113.05613c7.07487-2.75209 1.30164-7.27809-1.87497-1.83359"/>
   <path d="m484.27557 117.72461c5.35129 0.41521 4.35577-5.56062-0.15066-2.09174"/>
  </g>
  <path d="m-1011.6695 53.008178c-3.7809 9.390088 9.0628 7.602425 1.9534-2.457343" fill="#fff" fill-rule="evenodd" stroke="#481d32" stroke-linecap="round" stroke-linejoin="round" stroke-width="1.7821635"/>
 </g>
</svg>
