<svg width="120" height="120" version="1.1" viewBox="0 0 120 120" xmlns="http://www.w3.org/2000/svg">
 <g transform="translate(238.10298)">
  <g transform="matrix(.3564327 0 0 .3564327 -1332.5786 -121.79754)" fill-rule="evenodd" stroke="#481d32" stroke-linecap="round" stroke-linejoin="round" stroke-width="5">
   <path d="m3267.8435 579.56266c26.0319 11.17541 47.5083 21.85553 60.1041 46.46702l-16.6676 15.65736c-12.0409-21.0154-33.6832-23.40765-59.1551-26.96267z" fill="#bebee6"/>
   <path d="m3311.6968 653.12159c5.4013 1.36939 5.3671-12.5593 6.9814-7.5348 1.8085 5.62774 2.5289 12.80953 7.0566 17.00412 1.6561 1.5343 4.5851 1.60925 6.0384-0.40144 1.7384-2.40519-0.1654-7.97007-1.9811-12.40385-1.7436-4.25778 6.3013 7.65029 10.6939 8.13995 3.3427 0.37262 5.2314-1.81004 4.2372-5.32306-1.0544-3.72595-4.3072-6.9461-7.4081-8.89254-5.8848-3.69396 5.4865 1.16879 7.1019 1.15329 2.638 0.90529 5.9652-0.58284 5.6974-3.70891 0.1977-2.99712-8.6896-5.23639-11.2904-5.79305-3.3574-0.71863 8.8823 1.297 8.3514-4.02342-0.3442-3.45066-4.2197-3.74563-6.7182-4.47995-6.6473-1.95364-16.2947-0.50799-22.5853 3.57753-9.5128 6.17824-10.9694 21.47062-6.1751 22.68613z" fill="#f4cbaf"/>
  </g>
  <g transform="matrix(1.3471472,0,0,1.3471472,-1190.0055,-663.57531)">
   <path d="m729.24551 569.14315c7.23447-4.43519 10.52512-12.58138 5.95313-29.57664l-11.33929-7.37053c-9.10665 9.65526-3.57666 17.44937-0.56697 20.78869 5.51678 6.12099 6.53254 9.64425 5.95313 16.15848z" fill="#704241" fill-rule="evenodd"/>
   <path d="m724.7889 535.26392-1.00226-2.67269c-0.15954-0.26591-5.16895 4.24998-5.0113 10.82441s6.05655 10.66521 9.08715 15.23436c-0.67912-3.39556-5.81616-8.66492-6.28082-14.76664s3.16728-8.69933 3.20723-8.61944z" fill="#fff" fill-rule="evenodd"/>
   <path d="m723.85935 532.19598c-9.10665 9.65526-3.57666 17.44937-0.56697 20.78869 5.51678 6.12099 6.53254 9.64425 5.95313 16.15848m2.69308-2.03162c4.58864-4.90766 7.54856-11.21122 3.26005-27.54502" fill="none" stroke="#481d32" stroke-linecap="round" stroke-width="1.3229166"/>
  </g>
  <g transform="matrix(1.3471472,0,0,1.3471472,-1190.0055,-663.57531)">
   <path d="m732.42374 540.60595c-23.74391-11.03668 0.0635-48.93745 25.98586-38.36459 21.97089 3.43376 29.53386 32.88475 11.90625 40.82143" fill="#704241" fill-rule="evenodd"/>
   <path d="m755.88519 501.99899c-6.38982-0.57605-17.82232 1.8491-24.78036 10.14804 0.64193 1.30735 2.99414 3.04476 6.0409 2.63437-1.74187 1.09775-3.39309 2.1072-8.70966 0.31115-3.75781 5.08969-5.12597 11.09737-4.76858 16.09839-2.8561-5.70743 0.4336-16.22029 6.07054-22.13454 7.25341-7.61024 19.49538-10.88792 26.14716-7.05741z" fill="#fff" fill-rule="evenodd"/>
   <path d="m732.42374 540.60595c-23.74391-11.03668 0.0635-48.93745 25.98586-38.36459m11.90625 40.82143c17.62761-7.93668 10.07096-37.42836-11.90625-40.82143-1.41436-0.21837-3.64516 0.44024-4.50903 1.20819" fill="none" stroke="#481d32" stroke-linecap="round" stroke-width="1.3229166"/>
  </g>
  <g transform="matrix(.3564327 0 0 .3564327 -1332.5786 -121.79754)">
   <path d="m3214.54 577.73596c-4.8722 6.16396-35.3557 0.16252-14.3394 18.62355l-25.3756-11.00413c-4.5388 9.89699-5.3119 15.61345-7.8753 24.24994-15.1824 51.1519 15.393 41.43617 46.3276 1.71821" fill="#bebee6" fill-rule="evenodd"/>
   <path d="m3187.0134 621.93013 10.4093-28.34853-24.3042-9.16766s-7.2294 18.52546-9.1992 28.22184c-10.441 51.39625 20.2909 37.44522 49.358-1.31225" fill="none" stroke="#481d32" stroke-linecap="round" stroke-width="5"/>
  </g>
  <g transform="matrix(1.3471472,0,0,1.3471472,-191.99347,-421.20086)">
   <path d="m2.8964745 374.22949c-2.66216 7.70093-4.1861141 15.02793-1.5875001 27.28107h17.792715c2.598613-12.25314 1.07466-19.58014-1.587501-27.28107z" fill="#bebee6"/>
   <path d="m4.90889 380.28754c1.294979 3.83426 2.76914 7.64292 5.296392 11.30114 2.546572-3.76705 3.977053-7.53409 5.296392-11.30114" fill="#fff" fill-rule="evenodd" stroke="#481d32" stroke-linecap="round" stroke-linejoin="round" stroke-width="1.3229166"/>
   <path d="m6.8324108 373.8445c-1.9096895 1e-4 -3.4577411 2.06432-3.4576702 4.61057-7.09e-5 2.54626 1.5479807 4.61048 3.4576702 4.61057 1.6212338-2e-3 3.0240245-1.50459 3.3739542-3.61528 0.349762 2.10969 1.751428 3.61253 3.371887 3.61528 1.909689-9e-5 3.457741-2.06431 3.45767-4.61057 7.1e-5 -2.54625-1.547981-4.61047-3.45767-4.61057z" fill="#fff" stroke="#481d32" stroke-linecap="round" stroke-linejoin="round" stroke-width="1.3229166"/>
   <path d="m6.9117581 375.52706c0.952272 1.80559 1.312661 3.69573 3.4017879 5.33891 2.137222-1.83937 2.358993-3.67874 3.185887-5.51811" fill="#f4cbaf" fill-rule="evenodd" stroke="#481d32" stroke-linecap="round" stroke-linejoin="round" stroke-width="1.3229166"/>
   <path d="m3.1927244 376.1389-1.81901 8.00837 2.5479811 0.23955-0.3273721 3.32756 3.6521963 3.77975m9.9714153-15.35523 1.819013 8.00837-2.547982 0.23959 0.327371 3.32755-3.652194 3.77975" fill="none" stroke="#481d32" stroke-linecap="round" stroke-linejoin="round" stroke-width="1.3229166"/>
   <path d="m19.111936 401.44385c1.270305-5.98981 0.876485-11.36017 0.912942-15.59848m-19.620109 0c0.0082 4.30882-0.3846443 9.4729 0.91445266 15.59848" fill="none" stroke="#481d32" stroke-linecap="round" stroke-linejoin="round" stroke-width="1.3229166"/>
  </g>
  <g transform="matrix(1.3471472,0,0,1.3471472,-191.44057,-479.4158)">
   <ellipse transform="rotate(-14.854576)" cx="-114.53056" cy="384.11917" rx="3.2127974" ry="3.8282521" fill="#f4cbaf" stroke="#481d32" stroke-width="1.3229166"/>
   <ellipse transform="matrix(-.96657963 -.25636657 -.25636657 .96657963 0 0)" cx="-133.46574" cy="379.09689" rx="3.2127974" ry="3.8282521" fill="#f4cbaf" stroke="#481d32" stroke-width="1.3229166"/>
   <ellipse cx="9.7949543" cy="397.19336" rx="21.298958" ry="23.8125" fill="#f4cbaf"/>
   <path d="m9.5587455 399.23463 0.4724705 0.8032" fill="none" stroke="#481d32" stroke-linecap="round" stroke-width="1.3229166"/>
   <ellipse cx="-6.0420694" cy="404.39377" rx="4.6786079" ry="4.9148431" fill="#ff69b4" fill-opacity=".39215686"/>
   <ellipse cx="25.632029" cy="404.39377" rx="4.6786079" ry="4.9148431" fill="#ff69b4" fill-opacity=".39215686"/>
   <g transform="matrix(.26458333 0 0 .26458333 -847.0775 265.46339)">
    <path d="m3238.5723 407.87696a80.499999 90.000001 0 0 0 -80.5 90 80.499999 90.000001 0 0 0 0.025 0.77539h160.9394a80.499999 90.000001 0 0 0 0.035 -0.77539 80.499999 90.000001 0 0 0 -80.5 -90z" fill="#00f" fill-opacity=".23529412"/>
    <path d="m3175.0714 474.66251v-28.21429" fill="none" stroke="#819da5" stroke-linecap="round" stroke-linejoin="round" stroke-width="5"/>
    <path d="m3199.0714 474.66251v-54.21429" fill="none" stroke="#819da5" stroke-linecap="round" stroke-linejoin="round" stroke-width="5"/>
    <path d="m3211.0714 474.66251v-62.21429" fill="none" stroke="#819da5" stroke-linecap="round" stroke-linejoin="round" stroke-width="5"/>
    <path d="m3187.0714 474.66251v-44.21429" fill="none" stroke="#819da5" stroke-linecap="round" stroke-linejoin="round" stroke-width="5"/>
    <path d="m3223.0714 474.66251v-62.21429" fill="none" stroke="#819da5" stroke-linecap="round" stroke-linejoin="round" stroke-width="5"/>
   </g>
   <ellipse cx="9.7949543" cy="397.19336" rx="21.298958" ry="23.8125" fill="none" stroke="#481d32" stroke-linecap="round" stroke-linejoin="round" stroke-width="1.3229166"/>
  </g>
  <g transform="matrix(1.3471472,0,0,1.3471472,-191.99347,-421.20083)">
   <path d="m4.3075853 329.71801c-4.8405659 4.81898-1.1454793 12.73364 3.3302198 15.85207 3.3072919 0.76559 6.3473139 0.87089 9.6546049-1e-5 3.989245 0.61346 7.558508 0.73057 10.811464-0.0945-3.507207-3.53145-2.674703-7.80606-2.150437-12.42457-9.493971-5.58699-15.358869-6.08218-21.645852-3.33299z" fill="#704241" fill-rule="evenodd"/>
   <path d="m4.3075853 329.71801c-4.840566 4.81898-1.1454793 12.73364 3.3302199 15.85207m9.9380868 0.0472c-2.12599-1.68463-5.141734-8.87648-3.060262-13.22917m13.588244 13.08742c-3.507207-3.53145-2.674703-7.80606-2.150437-12.42457" fill="none" stroke="#481d32" stroke-linecap="round" stroke-linejoin="round" stroke-width="1.3229166"/>
  </g>
  <path d="m-195.52057 38.037005 4.2908 2.616765" fill="none" stroke="#481d32" stroke-linecap="round" stroke-width="1.7821635"/>
  <path d="m-202.73627 80.097839c1.8673-1.146006 3.4844 4.091327 3.5025 2.014761 0.02-2.325913-0.5497-5.108508 0.6591-7.213874 0.4421-0.770094 1.5329-1.140709 2.3137-0.555155 0.934 0.700437 0.8706 3.013885 0.7078 4.892032-0.1562 1.803596 1.4702-3.611116 3.0618-4.308655 1.2112-0.530817 2.1756 0.06844 2.2135 1.504603 0.04 1.5232-0.804 3.113382-1.7403 4.20726-1.7767 2.075925 1.9229-1.080611 2.531-1.263647 0.8844-0.648568 2.3075-0.47845 2.5728 0.727394 0.4249 1.102977-2.6492 2.983402-3.5603 3.496608-1.1763 0.662555 3.1824-1.525785 3.6058 0.535284 0.2745 1.336744-1.1457 1.900677-1.9977 2.468692-2.2667 1.51121-6.0574 2.095981-8.8969 1.296428-4.2939-1.209113-6.6303-6.784501-4.9728-7.801731z" fill="#f4cbaf" fill-rule="evenodd" stroke="#481d32" stroke-linecap="round" stroke-linejoin="round" stroke-width="1.7821635"/>
  <path d="m-184.84137 69.890708-2.1722 8.473036 17.5365-0.295198-2.293-8.177838z" fill="#fff" fill-rule="evenodd" stroke="#481d32" stroke-linecap="round" stroke-linejoin="round" stroke-width="1.7821635"/>
  <g transform="matrix(.3564327 0 0 .3564327 -28.034432 -378.42894)">
   <g transform="translate(154.5602,293.28167)">
    <ellipse cx="-614.93628" cy="925.72552" rx="6.7857141" ry="9.4642859" fill="#fff"/>
    <path d="m-624.32422 911.29492c-1.10306-1e-3 -1.99866 0.89108-2.00195 1.99414-0.0393 2.27709 0.91465 4.44717 2.28125 6.27344 0.23565 0.31493 0.48747 0.62067 0.75 0.91406-0.60117 1.60118-0.92773 3.3777-0.92774 5.24805 0 3.09785 0.87817 5.94831 2.45704 8.15039 1.57884 2.20208 4.01404 3.81445 6.83007 3.81445 2.81604 0 5.25123-1.61237 6.83008-3.81445s2.45508-5.05254 2.45508-8.15039-0.87623-5.94636-2.45508-8.14844-4.01404-3.81445-6.83008-3.81445c-2.45013 0-4.61153 1.22068-6.17187 2.98828-0.77186-1.17757-1.23963-2.51302-1.22461-3.38672 0.0385-1.12803-0.86351-2.06443-1.99219-2.06836zm9.38867 7.4668c0.93161 0 1.88854 0.5052 2.76563 1.72851 0.87709 1.22332 1.51953 3.10525 1.51953 5.23438s-0.64244 4.01301-1.51953 5.23633c-0.87709 1.22331-1.83402 1.72851-2.76563 1.72851s-1.89049-0.5052-2.76757-1.72851c-0.87711-1.22332-1.51954-3.1072-1.51954-5.23633s0.64243-4.01106 1.51954-5.23438c0.87708-1.22331 1.83597-1.72851 2.76757-1.72851z" color="#000000" color-rendering="auto" dominant-baseline="auto" fill="#481d32" image-rendering="auto" shape-rendering="auto" solid-color="#000000" style="font-feature-settings:normal;font-variant-alternates:normal;font-variant-caps:normal;font-variant-ligatures:normal;font-variant-numeric:normal;font-variant-position:normal;isolation:auto;mix-blend-mode:normal;shape-padding:0;text-decoration-color:#000000;text-decoration-line:none;text-decoration-style:solid;text-indent:0;text-orientation:mixed;text-transform:none;white-space:normal"/>
   </g>
   <g transform="matrix(-1,0,0,1,-997.41753,293.28167)">
    <ellipse cx="-614.93628" cy="925.72552" rx="6.7857141" ry="9.4642859" fill="#fff"/>
    <path d="m-624.32422 911.29492c-1.10306-1e-3 -1.99866 0.89108-2.00195 1.99414-0.0393 2.27709 0.91465 4.44717 2.28125 6.27344 0.23565 0.31493 0.48747 0.62067 0.75 0.91406-0.60117 1.60118-0.92773 3.3777-0.92774 5.24805 0 3.09785 0.87817 5.94831 2.45704 8.15039 1.57884 2.20208 4.01404 3.81445 6.83007 3.81445 2.81604 0 5.25123-1.61237 6.83008-3.81445s2.45508-5.05254 2.45508-8.15039-0.87623-5.94636-2.45508-8.14844-4.01404-3.81445-6.83008-3.81445c-2.45013 0-4.61153 1.22068-6.17187 2.98828-0.77186-1.17757-1.23963-2.51302-1.22461-3.38672 0.0385-1.12803-0.86351-2.06443-1.99219-2.06836zm9.38867 7.4668c0.93161 0 1.88854 0.5052 2.76563 1.72851 0.87709 1.22332 1.51953 3.10525 1.51953 5.23438s-0.64244 4.01301-1.51953 5.23633c-0.87709 1.22331-1.83402 1.72851-2.76563 1.72851s-1.89049-0.5052-2.76757-1.72851c-0.87711-1.22332-1.51954-3.1072-1.51954-5.23633s0.64243-4.01106 1.51954-5.23438c0.87708-1.22331 1.83597-1.72851 2.76757-1.72851z" color="#000000" color-rendering="auto" dominant-baseline="auto" fill="#481d32" image-rendering="auto" shape-rendering="auto" solid-color="#000000" style="font-feature-settings:normal;font-variant-alternates:normal;font-variant-caps:normal;font-variant-ligatures:normal;font-variant-numeric:normal;font-variant-position:normal;isolation:auto;mix-blend-mode:normal;shape-padding:0;text-decoration-color:#000000;text-decoration-line:none;text-decoration-style:solid;text-indent:0;text-orientation:mixed;text-transform:none;white-space:normal"/>
   </g>
  </g>
  <path d="m-144.23207 19.127608c3.9128 3.564039 6.9594 3.085635 9.8019 1.654871-2.3702 5.363614-2.5222 9.967573 3.8189 12.347849-3.2394 3.017545-2.6301 4.752213-2.8005 6.746761" fill="none" stroke="#481d32" stroke-linecap="round" stroke-linejoin="round" stroke-width="1.7821635"/>
 </g>
</svg>
