<svg width="120" height="120" version="1.1" viewBox="0 0 120 120" xmlns="http://www.w3.org/2000/svg">
 <g transform="translate(950.35804)">
  <g transform="matrix(1.3453173 .07019282 -.07019282 1.3453173 -1376.3256 -743.74113)">
   <path d="m383.95828 593.94391c-6.59084 11.55142-7.94081 23.82195 0.43404 26.53454l2.1042 0.39688c0-9.05959-1.12513-13.35897-0.46691-19.98866" fill="#bebee6" fill-rule="evenodd"/>
   <path d="m383.95828 593.94391c-6.59084 11.55142-8.86698 25.74537 1.75683 26.60587" fill="none" stroke="#481d32" stroke-linecap="round" stroke-linejoin="round" stroke-width="1.3229166"/>
  </g>
  <path d="m-879.75061 83.709159c6.71619 7.526821 9.61727 6.694633 16.6479 7.857558 0 0 0.53886 15.988023-3.9338 18.389013-6.94534 3.22419-14.05924-10.709114-15.62152-12.906083" fill="#bebee6" fill-rule="evenodd" stroke="#481d32" stroke-linecap="round" stroke-linejoin="round" stroke-width="1.7821635"/>
  <g transform="matrix(1.3471472,0,0,1.3471472,-904.85928,-421.2009)">
   <path d="m2.8964745 374.22949c-2.66216 7.70093-4.1861141 15.02793-1.5875001 27.28107h17.792715c2.598613-12.25314 1.07466-19.58014-1.587501-27.28107z" fill="#bebee6"/>
   <path d="m4.90889 380.28754c1.294979 3.83426 2.76914 7.64292 5.296392 11.30114 2.546572-3.76705 3.977053-7.53409 5.296392-11.30114" fill="#fff" fill-rule="evenodd" stroke="#481d32" stroke-linecap="round" stroke-linejoin="round" stroke-width="1.3229166"/>
   <path d="m6.8324108 373.8445c-1.9096895 1e-4 -3.4577411 2.06432-3.4576702 4.61057-7.09e-5 2.54626 1.5479807 4.61048 3.4576702 4.61057 1.6212338-2e-3 3.0240245-1.50459 3.3739542-3.61528 0.349762 2.10969 1.751428 3.61253 3.371887 3.61528 1.909689-9e-5 3.457741-2.06431 3.45767-4.61057 7.1e-5 -2.54625-1.547981-4.61047-3.45767-4.61057z" fill="#fff" stroke="#481d32" stroke-linecap="round" stroke-linejoin="round" stroke-width="1.3229166"/>
   <path d="m6.9117581 375.52706c0.952272 1.80559 1.312661 3.69573 3.4017879 5.33891 2.137222-1.83937 2.358993-3.67874 3.185887-5.51811" fill="#f4cbaf" fill-rule="evenodd" stroke="#481d32" stroke-linecap="round" stroke-linejoin="round" stroke-width="1.3229166"/>
   <path d="m3.1927244 376.1389-1.81901 8.00837 2.5479811 0.23955-0.3273721 3.32756 3.6521963 3.77975m9.9714153-15.35523 1.819013 8.00837-2.547982 0.23959 0.327371 3.32755-3.652194 3.77975" fill="none" stroke="#481d32" stroke-linecap="round" stroke-linejoin="round" stroke-width="1.3229166"/>
   <path d="m19.111936 401.44385c1.270305-5.98981 0.876485-10.77623 0.912942-15.01454m-19.620109 0c0.0082 4.30882-0.3846443 8.88896 0.91445266 15.01454" fill="none" stroke="#481d32" stroke-linecap="round" stroke-linejoin="round" stroke-width="1.3229166"/>
  </g>
  <g transform="matrix(1.3012443 -.34866735 .34866735 1.3012443 -1567.3851 -745.65602)">
   <g transform="translate(317.50012)">
    <path d="m-11.588201 738.47649c7.234469-4.43519 10.525122-12.58138 5.953127-29.57664l-11.339286-7.37053c-9.106652 9.65526-3.576659 17.44937-0.566966 20.78869 5.516778 6.12099 6.532535 9.64425 5.953125 16.15848z" fill="#704241" fill-rule="evenodd"/>
    <path d="m-16.044815 704.59726-1.00226-2.67269c-0.15954-0.26591-5.168947 4.24998-5.011297 10.82441s6.056547 10.66521 9.087154 15.23436c-0.67912-3.39556-5.816167-8.66492-6.280824-14.76664-0.46466-6.10172 3.167277-8.69933 3.207227-8.61944z" fill="#fff" fill-rule="evenodd"/>
    <path d="m-16.97436 701.52932c-9.106652 9.65526-3.576659 17.44937-0.566966 20.78869 5.516778 6.12099 6.532535 9.64425 5.953125 16.15848m2.69308-2.03162c4.588636-4.90766 7.54856-11.21122 3.260047-27.54502" fill="none" stroke="#481d32" stroke-linecap="round" stroke-width="1.3229166"/>
    <path d="m-8.4099701 709.93929c-23.743909-11.03668 0.063455-48.93745 25.985863-38.36459 21.970888 3.43376 29.533859 32.88475 11.906248 40.82143" fill="#704241" fill-rule="evenodd"/>
    <path d="m15.051482 671.33233c-6.3898263-0.57605-17.822324 1.8491-24.780361 10.14804 0.64193 1.30735 2.9941364 3.04476 6.0409031 2.63437-1.74187 1.09775-3.3930931 2.1072-8.7096599 0.31115-3.75781 5.08969-5.125977 11.09737-4.768581 16.09839-2.856106-5.70743 0.4336-16.22029 6.070537-22.13454 7.2534075-7.61024 19.495376-10.88792 26.147162-7.05741z" fill="#fff" fill-rule="evenodd"/>
    <path d="m-8.4099701 709.93929c-23.743909-11.03668 0.063455-48.93745 25.985863-38.36459m11.906248 40.82143c17.627611-7.93668 10.070961-37.42836-11.906248-40.82143-1.414359-0.21837-3.645161 0.44024-4.509033 1.20819" fill="none" stroke="#481d32" stroke-linecap="round" stroke-width="1.3229166"/>
   </g>
   <g transform="translate(317.9105,306.03665)">
    <ellipse transform="rotate(-14.854576)" cx="-114.53056" cy="384.11917" rx="3.2127974" ry="3.8282521" fill="#f4cbaf" stroke="#481d32" stroke-width="1.3229166"/>
    <ellipse transform="matrix(-.96657963 -.25636657 -.25636657 .96657963 0 0)" cx="-133.46574" cy="379.09689" rx="3.2127974" ry="3.8282521" fill="#f4cbaf" stroke="#481d32" stroke-width="1.3229166"/>
    <ellipse cx="9.7949543" cy="397.19336" rx="21.298958" ry="23.8125" fill="#f4cbaf"/>
    <path d="m9.5587455 399.23463 0.4724705 0.8032" fill="none" stroke="#481d32" stroke-linecap="round" stroke-width="1.3229166"/>
    <ellipse cx="-6.0420694" cy="404.39377" rx="4.6786079" ry="4.9148431" fill="#ff69b4" fill-opacity=".39215686"/>
    <ellipse cx="25.632029" cy="404.39377" rx="4.6786079" ry="4.9148431" fill="#ff69b4" fill-opacity=".39215686"/>
    <ellipse cx="9.7949543" cy="397.19336" rx="21.298958" ry="23.8125" fill="none" stroke="#481d32" stroke-linecap="round" stroke-linejoin="round" stroke-width="1.3229166"/>
   </g>
   <g transform="translate(317.50012,349.25016)">
    <path d="m4.3075853 329.71801c-4.8405659 4.81898-1.1454793 12.73364 3.3302198 15.85207 3.3072919 0.76559 6.3473139 0.87089 9.6546049-1e-5 3.989245 0.61346 7.558508 0.73057 10.811464-0.0945-3.507207-3.53145-2.674703-7.80606-2.150437-12.42457-9.493971-5.58699-15.358869-6.08218-21.645852-3.33299z" fill="#704241" fill-rule="evenodd"/>
    <path d="m4.3075853 329.71801c-4.840566 4.81898-1.1454793 12.73364 3.3302199 15.85207m9.9380868 0.0472c-2.12599-1.68463-5.141734-8.87648-3.060262-13.22917m13.588244 13.08742c-3.507207-3.53145-2.674703-7.80606-2.150437-12.42457" fill="none" stroke="#481d32" stroke-linecap="round" stroke-linejoin="round" stroke-width="1.3229166"/>
   </g>
   <g transform="translate(317.50012,137.58336)">
    <path d="m-2.5513376 553.57045c0.601061-0.8253 2.19259-1.05579 3.118303-0.40565" fill="none" stroke="#481d32" stroke-linecap="round" stroke-width="1.3229166"/>
    <path transform="scale(-1)" d="m-7.9038344-580.99359a2.3826854 0.96473938 0 0 1 -2.3014976 0.71504 2.3826854 0.96473938 0 0 1 -2.301497 -0.71504" fill="none" stroke="#481d32" stroke-linecap="round" stroke-linejoin="round" stroke-width="1.3229166"/>
    <g transform="translate(-1.0169903e-4,287.06473)" fill="#481d32" fill-rule="evenodd" shape-rendering="auto">
     <path d="m-1.4298259 275.1537a0.52921953 0.52921953 0 0 0 -0.5312299 0.52916c-0.0104 0.60249 0.24409 1.17507 0.6056399 1.65831 0.0131 0.0174 0.0275 0.0339 0.0408 0.0511a1.679152 2.4952483 0 0 0 -0.7425899 2.06809 1.679152 2.4952483 0 0 0 1.6789704 2.49547 1.679152 2.4952483 0 0 0 1.67949 -2.49547 1.679152 2.4952483 0 0 0 -1.56735 -2.48666c-0.0846-0.0795-0.16771-0.16653-0.24185-0.26562-0.2498805-0.33395-0.3987605-0.74945-0.3942905-1.00769a0.52921953 0.52921953 0 0 0 -0.52761002 -0.54673z" color="#000000" color-rendering="auto" dominant-baseline="auto" image-rendering="auto" solid-color="#000000" style="font-feature-settings:normal;font-variant-alternates:normal;font-variant-caps:normal;font-variant-ligatures:normal;font-variant-numeric:normal;font-variant-position:normal;isolation:auto;mix-blend-mode:normal;shape-padding:0;text-decoration-color:#000000;text-decoration-line:none;text-decoration-style:solid;text-indent:0;text-orientation:mixed;text-transform:none;white-space:normal"/>
     <path d="m21.840542 275.1537a0.52921953 0.52921953 0 0 1 0.53123 0.52916c0.0104 0.60249-0.24409 1.17507-0.60564 1.65831-0.0131 0.0174-0.0275 0.0339-0.0408 0.0511a1.679152 2.4952483 0 0 1 0.74259 2.06809 1.679152 2.4952483 0 0 1 -1.67897 2.49547 1.679152 2.4952483 0 0 1 -1.679491 -2.49547 1.679152 2.4952483 0 0 1 1.567351 -2.48666c0.0846-0.0795 0.16771-0.16653 0.24185-0.26562 0.24988-0.33395 0.39876-0.74945 0.39429-1.00769a0.52921953 0.52921953 0 0 1 0.52761 -0.54673z" color="#000000" color-rendering="auto" dominant-baseline="auto" image-rendering="auto" solid-color="#000000" style="font-feature-settings:normal;font-variant-alternates:normal;font-variant-caps:normal;font-variant-ligatures:normal;font-variant-numeric:normal;font-variant-position:normal;isolation:auto;mix-blend-mode:normal;shape-padding:0;text-decoration-color:#000000;text-decoration-line:none;text-decoration-style:solid;text-indent:0;text-orientation:mixed;text-transform:none;white-space:normal"/>
    </g>
   </g>
  </g>
  <path d="m-874.07534 76.930243c0.4486 1.593932 1.29285 3.004678 2.74898 4.136619-4.35653-1.353546-8.04098 2.265847-6.95182 5.445319 1.36909 3.982772 3.82872 5.502544 8.63454 5.325354 2.41612-0.08905 5.9412 0.0081 6.15727-1.405293 0.21596-1.412942-0.41963-4.08351-0.65416-5.170591-0.58776-2.724996-1.88278-9.494561-5.28796-11.577586-3.43915-2.103705-5.30964 0.891638-4.64685 3.246178z" fill="#f4cbaf" stroke="#481d32" stroke-linecap="round" stroke-linejoin="round" stroke-width="1.7821635"/>
  <path d="m-872.68429 91.65183 0.69297 9.70339" fill="none" stroke="#481d32" stroke-linecap="round" stroke-linejoin="round" stroke-width="1.4257307"/>
  <g transform="matrix(1.2461473 .51178375 -.51178375 1.2461473 -1496.902 -107.2376)" fill="#f44c8a" aria-label="?">
   <path d="m482.21094-89.568932q0-1.371379 0.88058-2.77163 0.88057-1.414687 2.56953-2.338563 1.68896-0.923877 3.94091-0.923877 2.09316 0 3.69551 0.779521 1.60235 0.765085 2.46848 2.093158 0.88057 1.328073 0.88057 2.887115 0 1.227024-0.50524 2.150901-0.49081 0.923877-1.18372 1.602349-0.67847 0.664036-2.45405 2.25195-0.49081 0.447503-0.79396 0.793956-0.28871 0.332019-0.43306 0.62073-0.14436 0.274276-0.23097 0.562988-0.0722 0.274275-0.23097 0.981619-0.27428 1.5013-1.71784 1.5013-0.75065 0-1.27033-0.49081-0.50524-0.49081-0.50524-1.457993 0-1.212588 0.37532-2.093159 0.37533-0.895005 0.99606-1.559042 0.62073-0.678472 1.67453-1.602349 0.92387-0.808392 1.32807-1.212588 0.41863-0.418632 0.69291-0.923877 0.28871-0.505245 0.28871-1.097103 0-1.154846-0.86614-1.948803-0.8517-0.793957-2.20864-0.793957-1.58791 0-2.33856 0.808392-0.75065 0.793957-1.27033 2.352999-0.49081 1.63122-1.86219 1.63122-0.8084 0-1.37138-0.562987-0.54856-0.577423-0.54856-1.24146zm7.04457 15.821391q-0.88057 0-1.54461-0.562988-0.6496-0.577423-0.6496-1.602348 0-0.909442 0.63516-1.530171 0.63517-0.62073 1.55905-0.62073 0.90944 0 1.53017 0.62073 0.62073 0.620729 0.62073 1.530171 0 1.01049-0.6496 1.587913-0.64961 0.577423-1.5013 0.577423z" fill="#f44c8a" stroke-width=".26458332px"/>
  </g>
 </g>
</svg>
