<svg width="120" height="120" version="1.1" viewBox="0 0 120 120" xmlns="http://www.w3.org/2000/svg">
 <g transform="translate(1244.4828)">
  <ellipse transform="matrix(-.58547794 .81068834 .87667672 .48107997 0 0)" cx="683.44885" cy="-908.32611" rx="6.080636" ry="3.7196259" fill="#f4cbaf" stroke="#481d32" stroke-linecap="round" stroke-linejoin="round" stroke-width="1.7351618"/>
  <path d="m-1188.1772 93.564044-12.566 11.820476 6.0913 4.40784-5.9052 7.46715s-6.9925-4.11273-9.0414-8.58969c-0.842-1.83979-1.5179-4.34137-0.8378-6.24699 1.6212-4.542836 14.3682-16.674056 14.3682-16.674056" fill="#36619e" fill-rule="evenodd" stroke="#481d32" stroke-linecap="round" stroke-linejoin="round" stroke-width="1.7285323"/>
  <path d="m-1174.5315 84.988224 10.0147 17.317096 2.0341-6.358516 6.5402 4.723956s-1.8709 9.12142-4.4176 11.45015c-1.0466 0.957-2.3194 1.36037-3.5837 0.80254-3.0141-1.32982-7.3551-8.40147-7.3551-8.40147" fill="#36619e" fill-rule="evenodd" stroke="#481d32" stroke-linecap="round" stroke-linejoin="round" stroke-width="1.7285323"/>
  <g transform="matrix(1.3066071,0,0,1.3066071,-1197.4731,-412.71595)">
   <g transform="translate(-.20037212)">
    <path d="m2.2489583 380.74062c-1.0179323 2.28936-1.5875 8.94269-1.5875 13.46068s0.7294061 11.03954 1.5875 13.46068h16.408035c0.858094-2.42114 1.5875-8.94269 1.5875-13.46068s-0.569567-11.17132-1.5875-13.46068z" fill="#36619e" fill-rule="evenodd"/>
    <path d="m0.6614583 392.05001c0 5.23982 0.7294061 12.80332 1.5875 15.61128m16.408035 0c0.858094-2.80796 1.5875-10.37146 1.5875-15.61128" fill="none" stroke="#481d32" stroke-linecap="round" stroke-linejoin="round" stroke-width="1.3229166"/>
   </g>
   <path d="m3.6380202 380.34375 6.6145838 25.39999 6.614583-25.39999" fill="#fff" fill-rule="evenodd"/>
   <path d="m7.6677555 385.76223 1.683798 3.51925-1.262848 5.79975 2.1638985 7.95128 2.163898-7.95128-1.262849-5.79975 1.683799-3.51925z" fill="#ff5952" fill-rule="evenodd"/>
   <path d="m12.852125 395.51686-1.698472-6.23538 1.683799-3.51925h-5.1696965l1.683798 3.51925-1.6984703 6.23538" fill="#ff5952" fill-rule="evenodd" stroke="#481d32" stroke-linecap="round" stroke-linejoin="round" stroke-width="1.3229166"/>
   <path d="m3.6380201 380.34375 3.7413316 14.36671 2.8732523 11.03328 6.614583-25.39999" fill="none" stroke="#481d32" stroke-linecap="round" stroke-linejoin="round" stroke-width="1.3229166"/>
   <rect x="5.8208327" y="380.21149" width="8.8635416" height="5.6885414" fill="#f4cbaf" stroke="#481d32" stroke-linecap="round" stroke-linejoin="round" stroke-width="1.3229166"/>
   <path d="m3.5718744 380.87286 1.8520833 8.40053 4.8286453-3.4003 4.828646 3.4003 1.852084-8.40053-6.68073 4.91236z" fill="#fff" fill-rule="evenodd" stroke="#481d32" stroke-linecap="round" stroke-linejoin="round" stroke-width="1.3229166"/>
  </g>
  <g transform="matrix(1.3066071,0,0,1.3066071,-1197.4114,-412.71595)">
   <path d="m-8.41899 363.97774h36.856467c10.902538-7.09443 7.355259-23.05725 0.65481-30.86962-6.491281-7.5685-21.253044-10.76389-29.653553-3.92888-5.8251944 0.7289-13.254381 1.91002-18.241145 12.6285 3.274052-0.28563 6.454559-1.5006 9.7286106-3.27405-3.9912116 2.87198-13.423715 12.51109 0.6548104 25.44405z" fill="#ad8c7a" fill-rule="evenodd"/>
   <path d="m24.227982 336.75634c2.854754 1.64104 4.778362 0.52627 5.893293-2.05797 0.935441 1.12253 1.621439 2.24505 2.057977 3.36758-3.187076 1.38808-6.006561 1.52635-7.95127-1.30961zm-42.656215 4.95786 2.712785-0.65487c2.769248-7.14478 7.1332794-8.27553 10.102788-10.66406-3.1181443 1.03233-8.7619861 2.89135-12.815573 11.31893zm8.418989 16.37023-2.057975 1.68381c-8.141309-9.61708-0.948098-18.99861 4.6772166-21.04747-8.6101556 8.44776-6.4828546 15.11372-2.6192416 19.36366z" fill="#fff" fill-opacity=".94835678" fill-rule="evenodd"/>
   <path d="m31.701514 361.13601c6.760996-7.89282 3.303609-21.13383-2.609227-28.02789-6.491285-7.5685-21.253043-10.76389-29.653553-3.92888-5.825194 0.7289-13.254381 1.91002-18.241145 12.6285 3.274052-0.28563 6.454559-1.5006 9.7286108-3.27405-3.7133788 2.67206-12.136868 11.2019-1.9532388 22.79227" fill="none" stroke="#481d32" stroke-linecap="round" stroke-linejoin="round" stroke-width="1.3229166"/>
  </g>
  <g transform="matrix(1.3066071,0,0,1.3066071,-1196.8751,-462.26505)">
   <ellipse transform="rotate(-14.854576)" cx="-114.53056" cy="384.11917" rx="3.2127974" ry="3.8282521" fill="#f4cbaf" stroke="#481d32" stroke-width="1.3229166"/>
   <ellipse transform="matrix(-.96657963 -.25636657 -.25636657 .96657963 0 0)" cx="-133.46574" cy="379.09689" rx="3.2127974" ry="3.8282521" fill="#f4cbaf" stroke="#481d32" stroke-width="1.3229166"/>
   <ellipse cx="9.7949543" cy="397.19336" rx="21.298958" ry="23.8125" fill="#f4cbaf"/>
   <path d="m9.5587455 399.23463 0.4724705 0.8032" fill="none" stroke="#481d32" stroke-linecap="round" stroke-width="1.3229166"/>
   <ellipse cx="9.7949543" cy="397.19336" rx="21.298958" ry="23.8125" fill="none" stroke="#481d32" stroke-linecap="round" stroke-linejoin="round" stroke-width="1.3229166"/>
  </g>
  <g transform="matrix(1.3066071,0,0,1.3066071,-1197.4114,-412.71595)">
   <path d="m5.0270832 334.3724c1.3920686 6.20388 3.916063 11.79772 12.303125 16.6026-0.566248-2.07524-0.689875-3.8554-0.198438-5.22552 2.792538 4.14091 6.183164 5.89408 9.194271 6.87916-0.388588-1.69499-0.294739-3.48646 0.198438-5.35781 1.316004 2.51881 3.890104 4.99608 6.35 5.42396-2.121049-4.75797-2.79638-8.49555-8.118747-13.75168-7.09843-7.01009-13.093361-5.32704-19.728649-4.57071z" fill="#ad8c7a" fill-rule="evenodd"/>
   <path d="m5.0270832 334.3724c1.3920686 6.20388 3.916063 11.79772 12.303125 16.6026-0.566248-2.07524-0.689875-3.8554-0.198438-5.22552 2.792538 4.14091 6.183164 5.89408 9.194271 6.87916-0.388588-1.69499-0.294739-3.48646 0.198438-5.35781 1.316004 2.51881 3.890104 4.99608 6.35 5.42396" fill="none" stroke="#481d32" stroke-linecap="round" stroke-linejoin="round" stroke-width="1.3229166"/>
  </g>
  <path d="m-1177.7525 72.42918a6.5478053 6.4987617 0 0 1 -6.3246 4.816759 6.5478053 6.4987617 0 0 1 -6.3247 -4.816759" fill="none" stroke="#481d32" stroke-linecap="round" stroke-linejoin="round" stroke-width="1.7285323"/>
  <g transform="matrix(-1.3066071,0,0,1.3066071,-1004.8041,-861.15219)" stroke="#481d32" stroke-linecap="round" stroke-linejoin="round" stroke-width="1.3229166">
   <g>
    <rect x="118.75127" y="715.91589" width="2.8482776" height="5.6965551" fill="#fff"/>
    <path d="m120.17567 686.22788a15.555977 15.555977 0 0 0 -15.55616 15.55615 15.555977 15.555977 0 0 0 15.55616 15.55615 15.555977 15.555977 0 0 0 15.55564 -15.55615 15.555977 15.555977 0 0 0 -15.55564 -15.55615zm0 3.83439a11.721757 11.721757 0 0 1 11.72176 11.72176 11.721757 11.721757 0 0 1 -11.72176 11.72175 11.721757 11.721757 0 0 1 -11.72177 -11.72175 11.721757 11.721757 0 0 1 11.72177 -11.72176z" fill="#fff"/>
    <rect x="117.65578" y="720.18817" width="5.0392604" height="19.499744" rx=".79374999" ry=".79374999" fill="#57a2ff"/>
   </g>
   <ellipse cx="120.10629" cy="731.02484" rx="5.8484516" ry="6.6618123" fill="#f4cbaf"/>
   <ellipse transform="rotate(-14.833016)" cx="-65.430649" cy="735.29138" rx="2.1302307" ry="2.6337399" fill="#f4cbaf"/>
   <path d="m118.30344 732.49728 2.49852-0.20793m-2.50254-2.51463 2.50656-0.0545m-2.50128-2.73675 2.496 0.23629" fill="none"/>
  </g>
  <g transform="matrix(1.3066071,0,0,1.3066071,-1197.7571,-611.84294)" fill="#481d32">
   <ellipse cx="2.2678556" cy="510.61313" rx="1.6762543" ry="2.4846785"/>
   <ellipse cx="18.672022" cy="510.61313" rx="1.6762543" ry="2.4846785"/>
  </g>
  <path d="m-1196.6525 39.324644c0.7854-1.07834 2.8649-1.3795 4.0744-0.53003" fill="none" stroke="#481d32" stroke-linecap="round" stroke-width="1.7285323"/>
  <path d="m-1143.1857 75.280424s0.319-4.8399 2.0742-4.8399 2.0743 4.8399 2.0743 4.8399 4.1484 0.52819 4.1484 2.07423c0 1.54605-4.1484 2.07424-4.1484 2.07424s-0.3191 4.8399-2.0743 4.8399-2.0742-4.8399-2.0742-4.8399-4.1485-0.52819-4.1485-2.07424c0-1.54604 4.1485-2.07423 4.1485-2.07423z" fill="#ffc800"/>
  <path d="m-1225.9284 16.374084s0.319-4.83989 2.0742-4.83989 2.0742 4.83989 2.0742 4.83989 4.1485 0.5282 4.1485 2.07424c0 1.54605-4.1485 2.07424-4.1485 2.07424s-0.319 4.8399-2.0742 4.8399-2.0742-4.8399-2.0742-4.8399-4.1485-0.52819-4.1485-2.07424c0-1.54604 4.1485-2.07424 4.1485-2.07424z" fill="#ffc800"/>
 </g>
</svg>
