<svg width="120" height="120" version="1.1" viewBox="0 0 120 120" xmlns="http://www.w3.org/2000/svg">
 <g transform="translate(832.43939)">
  <g transform="matrix(1.3048322 .06808049 -.06808049 1.3048322 -1241.0682 -718.40222)">
   <path d="m383.95828 593.94391c-6.59084 11.55142-7.94081 23.82195 0.43404 26.53454l2.1042 0.39688c0-9.05959-1.12513-13.35897-0.46691-19.98866" fill="#36619e" fill-rule="evenodd"/>
   <path d="m383.95828 593.94391c-6.59084 11.55142-8.86698 25.74537 1.75683 26.60587" fill="none" stroke="#481d32" stroke-linecap="round" stroke-linejoin="round" stroke-width="1.3229166"/>
  </g>
  <path d="m-757.59672 83.455722c6.514 7.30031 9.3278 6.49317 16.1468 7.6211 0 0 0.5226 15.506908-3.8154 17.835628-6.7364 3.12712-13.636-10.386848-15.1514-12.517698" fill="#36619e" fill-rule="evenodd" stroke="#481d32" stroke-linecap="round" stroke-linejoin="round" stroke-width="1.7285323"/>
  <g transform="matrix(1.3066071,0,0,1.3066071,-782.62512,-412.71595)">
   <g transform="translate(-.20037212)">
    <path d="m2.2489583 379.12658c-1.0179323 2.42662-1.5875 9.47884-1.5875 14.2677 0 4.78887 0.7294061 11.70141 1.5875 14.26771h16.408035c0.858094-2.5663 1.5875-9.47884 1.5875-14.26771 0-4.78886 0.327127-14.08282-2.753201-14.62638z" fill="#36619e" fill-rule="evenodd"/>
    <path d="m0.6614583 392.05001c0 5.23982 0.7294061 12.80332 1.5875 15.61128m16.408035 0c0.858094-2.80796 1.5875-10.37146 1.5875-15.61128" fill="none" stroke="#481d32" stroke-linecap="round" stroke-linejoin="round" stroke-width="1.3229166"/>
   </g>
   <path d="m3.6380202 380.34375 6.6145838 25.39999 6.614583-25.39999" fill="#fff" fill-rule="evenodd"/>
   <path d="m7.6677555 385.76223 1.683798 3.51925-1.262848 5.79975 2.1638985 7.95128 2.163898-7.95128-1.262849-5.79975 1.683799-3.51925z" fill="#ff5952" fill-rule="evenodd"/>
   <path d="m12.852125 395.51686-1.698472-6.23538 1.683799-3.51925h-5.1696965l1.683798 3.51925-1.6984703 6.23538" fill="#ff5952" fill-rule="evenodd" stroke="#481d32" stroke-linecap="round" stroke-linejoin="round" stroke-width="1.3229166"/>
   <path d="m3.6380201 380.34375 3.7413316 14.36671 2.8732523 11.03328 6.614583-25.39999" fill="none" stroke="#481d32" stroke-linecap="round" stroke-linejoin="round" stroke-width="1.3229166"/>
   <rect x="5.8208327" y="380.21149" width="8.8635416" height="5.6885414" fill="#f4cbaf" stroke="#481d32" stroke-linecap="round" stroke-linejoin="round" stroke-width="1.3229166"/>
   <path d="m3.5718744 380.87286 1.8520833 8.40053 4.8286453-3.4003 4.828646 3.4003 1.852084-8.40053-6.68073 4.91236z" fill="#fff" fill-rule="evenodd" stroke="#481d32" stroke-linecap="round" stroke-linejoin="round" stroke-width="1.3229166"/>
  </g>
  <path d="m-750.50882 90.467952 0.6722 9.41139" fill="none" stroke="#481d32" stroke-linecap="round" stroke-linejoin="round" stroke-width="1.3828257"/>
  <g transform="matrix(1.2086466 .49638249 -.49638249 1.2086466 -1361.4732 -93.201657)" fill="#f44c8a" aria-label="?">
   <path d="m482.21094-89.568932q0-1.371379 0.88058-2.77163 0.88057-1.414687 2.56953-2.338563 1.68896-0.923877 3.94091-0.923877 2.09316 0 3.69551 0.779521 1.60235 0.765085 2.46848 2.093158 0.88057 1.328073 0.88057 2.887115 0 1.227024-0.50524 2.150901-0.49081 0.923877-1.18372 1.602349-0.67847 0.664036-2.45405 2.25195-0.49081 0.447503-0.79396 0.793956-0.28871 0.332019-0.43306 0.62073-0.14436 0.274276-0.23097 0.562988-0.0722 0.274275-0.23097 0.981619-0.27428 1.5013-1.71784 1.5013-0.75065 0-1.27033-0.49081-0.50524-0.49081-0.50524-1.457993 0-1.212588 0.37532-2.093159 0.37533-0.895005 0.99606-1.559042 0.62073-0.678472 1.67453-1.602349 0.92387-0.808392 1.32807-1.212588 0.41863-0.418632 0.69291-0.923877 0.28871-0.505245 0.28871-1.097103 0-1.154846-0.86614-1.948803-0.8517-0.793957-2.20864-0.793957-1.58791 0-2.33856 0.808392-0.75065 0.793957-1.27033 2.352999-0.49081 1.63122-1.86219 1.63122-0.8084 0-1.37138-0.562987-0.54856-0.577423-0.54856-1.24146zm7.04457 15.821391q-0.88057 0-1.54461-0.562988-0.6496-0.577423-0.6496-1.602348 0-0.909442 0.63516-1.530171 0.63517-0.62073 1.55905-0.62073 0.90944 0 1.53017 0.62073 0.62073 0.620729 0.62073 1.530171 0 1.01049-0.6496 1.587913-0.64961 0.577423-1.5013 0.577423z" fill="#f44c8a" stroke-width=".26458332px"/>
  </g>
  <g transform="matrix(1.2620856 -.3381748 .3381748 1.2620856 -1354.8308 -481.92331)">
   <g transform="translate(313.07253,153.55937)">
    <path d="m-8.41899 363.97774h36.856467c10.902538-7.09443 7.355259-23.05725 0.65481-30.86962-6.491281-7.5685-21.253044-10.76389-29.653553-3.92888-5.8251944 0.7289-13.254381 1.91002-18.241145 12.6285 3.274052-0.28563 6.454559-1.5006 9.7286106-3.27405-3.9912116 2.87198-13.423715 12.51109 0.6548104 25.44405z" fill="#ad8c7a" fill-rule="evenodd"/>
    <path d="m24.227982 336.75634c2.854754 1.64104 4.778362 0.52627 5.893293-2.05797 0.935441 1.12253 1.621439 2.24505 2.057977 3.36758-3.187076 1.38808-6.006561 1.52635-7.95127-1.30961zm-42.656215 4.95786 2.712785-0.65487c2.769248-7.14478 7.1332794-8.27553 10.102788-10.66406-3.1181443 1.03233-8.7619861 2.89135-12.815573 11.31893zm8.418989 16.37023-2.057975 1.68381c-8.141309-9.61708-0.948098-18.99861 4.6772166-21.04747-8.6101556 8.44776-6.4828546 15.11372-2.6192416 19.36366z" fill="#fff" fill-opacity=".94835678" fill-rule="evenodd"/>
    <path d="m31.701514 361.13601c6.760996-7.89282 3.303609-21.13383-2.609227-28.02789-6.491285-7.5685-21.253043-10.76389-29.653553-3.92888-5.825194 0.7289-13.254381 1.91002-18.241145 12.6285 3.274052-0.28563 6.454559-1.5006 9.7286108-3.27405-3.7133788 2.67206-12.136868 11.2019-1.9532388 22.79227" fill="none" stroke="#481d32" stroke-linecap="round" stroke-linejoin="round" stroke-width="1.3229166"/>
   </g>
   <g transform="translate(313.48294,115.63743)">
    <ellipse transform="rotate(-14.854576)" cx="-114.53056" cy="384.11917" rx="3.2127974" ry="3.8282521" fill="#f4cbaf" stroke="#481d32" stroke-width="1.3229166"/>
    <ellipse transform="matrix(-.96657963 -.25636657 -.25636657 .96657963 0 0)" cx="-133.46574" cy="379.09689" rx="3.2127974" ry="3.8282521" fill="#f4cbaf" stroke="#481d32" stroke-width="1.3229166"/>
    <ellipse cx="9.7949543" cy="397.19336" rx="21.298958" ry="23.8125" fill="#f4cbaf"/>
    <path d="m9.5587455 399.23463 0.4724705 0.8032" fill="none" stroke="#481d32" stroke-linecap="round" stroke-width="1.3229166"/>
    <ellipse cx="9.7949543" cy="397.19336" rx="21.298958" ry="23.8125" fill="none" stroke="#481d32" stroke-linecap="round" stroke-linejoin="round" stroke-width="1.3229166"/>
   </g>
   <g transform="translate(313.07253,153.55937)">
    <path d="m5.0270832 334.3724c1.3920686 6.20388 3.916063 11.79772 12.303125 16.6026-0.566248-2.07524-0.689875-3.8554-0.198438-5.22552 2.792538 4.14091 6.183164 5.89408 9.194271 6.87916-0.388588-1.69499-0.294739-3.48646 0.198438-5.35781 1.316004 2.51881 3.890104 4.99608 6.35 5.42396-2.121049-4.75797-2.79638-8.49555-8.118747-13.75168-7.09843-7.01009-13.093361-5.32704-19.728649-4.57071z" fill="#ad8c7a" fill-rule="evenodd"/>
    <path d="m5.0270832 334.3724c1.3920686 6.20388 3.916063 11.79772 12.303125 16.6026-0.566248-2.07524-0.689875-3.8554-0.198438-5.22552 2.792538 4.14091 6.183164 5.89408 9.194271 6.87916-0.388588-1.69499-0.294739-3.48646 0.198438-5.35781 1.316004 2.51881 3.890104 4.99608 6.35 5.42396" fill="none" stroke="#481d32" stroke-linecap="round" stroke-linejoin="round" stroke-width="1.3229166"/>
   </g>
   <path d="m313.51558 499.4236c0.60106-0.8253 2.19259-1.05579 3.1183-0.40565" fill="none" stroke="#481d32" stroke-linecap="round" stroke-width="1.3229166"/>
   <path transform="scale(-1)" d="m-320.9764-528.01019a2.3826854 0.96473938 0 0 1 -2.30149 0.71504 2.3826854 0.96473938 0 0 1 -2.3015 -0.71504" fill="none" stroke="#481d32" stroke-linecap="round" stroke-linejoin="round" stroke-width="1.3229166"/>
   <g fill="#481d32">
    <ellipse cx="315.07581" cy="511.67145" rx="1.6762543" ry="2.4846785"/>
    <ellipse cx="331.47998" cy="511.67145" rx="1.6762543" ry="2.4846785"/>
   </g>
  </g>
  <path d="m-751.85802 76.189392c0.4351 1.54597 1.254 2.91426 2.6663 4.01213-4.2255-1.31281-7.799 2.19766-6.7426 5.28145 1.3279 3.86292 3.7134 5.33696 8.3747 5.1651 2.3433-0.0864 5.7623 8e-3 5.9719-1.363 0.2095-1.37042-0.407-3.96063-0.6344-5.01499-0.5701-2.643-1.8261-9.20884-5.1289-11.22918-3.3356-2.0404-5.1498 0.8648-4.507 3.14849z" fill="#f4cbaf" stroke="#481d32" stroke-linecap="round" stroke-linejoin="round" stroke-width="1.7285323"/>
 </g>
</svg>
