<svg width="120" height="120" version="1.1" viewBox="0 0 120 120" xmlns="http://www.w3.org/2000/svg">
 <g transform="translate(808.4749)">
  <g transform="matrix(1.3471472,0,0,1.3471472,-762.28611,-706.05175)">
   <path d="m1.3635659 585.38595c-6.590834 11.55142-5.162682 19.58862-4.5268911 27.52673h5.1469048c0-9.05959 0.7930992-13.95428 1.451324-20.58397" fill="#bebee6" fill-rule="evenodd"/>
   <path d="m1.3635659 585.38595c-6.590834 11.55142-5.162682 19.52766-4.5268911 27.46577" fill="none" stroke="#481d32" stroke-linecap="round" stroke-linejoin="round" stroke-width="1.3229166"/>
  </g>
  <path d="m-737.82663 84.411929 12.98435 12.156886 4.13708-6.55581 9.29277 5.091891s-4.50189 9.183054-8.97459 11.584054c-1.83791 0.98668-3.97771 1.40256-5.98293 0.82742-4.78034-1.37109-11.90678-8.440757-11.90678-8.440757" fill="#bebee6" fill-rule="evenodd" stroke="#481d32" stroke-linecap="round" stroke-linejoin="round" stroke-width="1.7821635"/>
  <g transform="matrix(1.3471472,0,0,1.3471472,-762.28611,-891.69224)">
   <path d="m-11.588201 738.47649c7.234469-4.43519 10.525122-12.58138 5.953127-29.57664l-11.339286-7.37053c-9.106652 9.65526-3.576659 17.44937-0.566966 20.78869 5.516778 6.12099 6.532535 9.64425 5.953125 16.15848z" fill="#704241" fill-rule="evenodd"/>
   <path d="m-16.044815 704.59726-1.00226-2.67269c-0.15954-0.26591-5.168947 4.24998-5.011297 10.82441s6.056547 10.66521 9.087154 15.23436c-0.67912-3.39556-5.816167-8.66492-6.280824-14.76664-0.46466-6.10172 3.167277-8.69933 3.207227-8.61944z" fill="#fff" fill-rule="evenodd"/>
   <path d="m-16.97436 701.52932c-9.106652 9.65526-3.576659 17.44937-0.566966 20.78869 5.516778 6.12099 6.532535 9.64425 5.953125 16.15848m2.69308-2.03162c4.588636-4.90766 7.54856-11.21122 3.260047-27.54502" fill="none" stroke="#481d32" stroke-linecap="round" stroke-width="1.3229166"/>
   <path d="m-8.4099701 709.93929c-23.743909-11.03668 0.063455-48.93745 25.985863-38.36459 21.970888 3.43376 29.533859 32.88475 11.906248 40.82143" fill="#704241" fill-rule="evenodd"/>
   <path d="m15.051482 671.33233c-6.3898263-0.57605-17.822324 1.8491-24.780361 10.14804 0.64193 1.30735 2.9941364 3.04476 6.0409031 2.63437-1.74187 1.09775-3.3930931 2.1072-8.7096599 0.31115-3.75781 5.08969-5.125977 11.09737-4.768581 16.09839-2.856106-5.70743 0.4336-16.22029 6.070537-22.13454 7.2534075-7.61024 19.495376-10.88792 26.147162-7.05741z" fill="#fff" fill-rule="evenodd"/>
   <path d="m-8.4099701 709.93929c-23.743909-11.03668 0.063455-48.93745 25.985863-38.36459m11.906248 40.82143c17.627611-7.93668 10.070961-37.42836-11.906248-40.82143-1.414359-0.21837-3.645161 0.44024-4.509033 1.20819" fill="none" stroke="#481d32" stroke-linecap="round" stroke-width="1.3229166"/>
  </g>
  <g transform="matrix(1.3471472,0,0,1.3471472,-762.28611,-421.20086)">
   <path d="m2.8964745 374.22949c-2.66216 7.70093-4.1861141 15.02793-1.5875001 27.28107h17.792715c2.598613-12.25314 1.07466-19.58014-1.587501-27.28107z" fill="#bebee6"/>
   <path d="m4.90889 380.28754c1.294979 3.83426 2.76914 7.64292 5.296392 11.30114 2.546572-3.76705 3.977053-7.53409 5.296392-11.30114" fill="#fff" fill-rule="evenodd" stroke="#481d32" stroke-linecap="round" stroke-linejoin="round" stroke-width="1.3229166"/>
   <path d="m6.8324108 373.8445c-1.9096895 1e-4 -3.4577411 2.06432-3.4576702 4.61057-7.09e-5 2.54626 1.5479807 4.61048 3.4576702 4.61057 1.6212338-2e-3 3.0240245-1.50459 3.3739542-3.61528 0.349762 2.10969 1.751428 3.61253 3.371887 3.61528 1.909689-9e-5 3.457741-2.06431 3.45767-4.61057 7.1e-5 -2.54625-1.547981-4.61047-3.45767-4.61057z" fill="#fff" stroke="#481d32" stroke-linecap="round" stroke-linejoin="round" stroke-width="1.3229166"/>
   <path d="m6.9117581 375.52706c0.952272 1.80559 1.312661 3.69573 3.4017879 5.33891 2.137222-1.83937 2.358993-3.67874 3.185887-5.51811" fill="#f4cbaf" fill-rule="evenodd" stroke="#481d32" stroke-linecap="round" stroke-linejoin="round" stroke-width="1.3229166"/>
   <path d="m3.1927244 376.1389-1.81901 8.00837 2.5479811 0.23955-0.3273721 3.32756 3.6521963 3.77975m9.9714153-15.35523 1.819013 8.00837-2.547982 0.23959 0.327371 3.32755-3.652194 3.77975" fill="none" stroke="#481d32" stroke-linecap="round" stroke-linejoin="round" stroke-width="1.3229166"/>
   <path d="m19.111936 401.44385c1.270305-5.98981 0.876485-10.77623 0.912942-15.01454m-19.620109 0c0.0082 4.30882-0.3846443 8.88896 0.91445266 15.01454" fill="none" stroke="#481d32" stroke-linecap="round" stroke-linejoin="round" stroke-width="1.3229166"/>
  </g>
  <g transform="matrix(1.3471472,0,0,1.3471472,-761.73325,-479.4158)">
   <ellipse transform="rotate(-14.854576)" cx="-114.53056" cy="384.11917" rx="3.2127974" ry="3.8282521" fill="#f4cbaf" stroke="#481d32" stroke-width="1.3229166"/>
   <ellipse transform="matrix(-.96657963 -.25636657 -.25636657 .96657963 0 0)" cx="-133.46574" cy="379.09689" rx="3.2127974" ry="3.8282521" fill="#f4cbaf" stroke="#481d32" stroke-width="1.3229166"/>
   <ellipse cx="9.7949543" cy="397.19336" rx="21.298958" ry="23.8125" fill="#f4cbaf"/>
   <path d="m9.5587455 399.23463 0.4724705 0.8032" fill="none" stroke="#481d32" stroke-linecap="round" stroke-width="1.3229166"/>
   <ellipse cx="-6.0420694" cy="404.39377" rx="4.6786079" ry="4.9148431" fill="#ff69b4" fill-opacity=".39215686"/>
   <ellipse cx="25.632029" cy="404.39377" rx="4.6786079" ry="4.9148431" fill="#ff69b4" fill-opacity=".39215686"/>
   <ellipse cx="9.7949543" cy="397.19336" rx="21.298958" ry="23.8125" fill="none" stroke="#481d32" stroke-linecap="round" stroke-linejoin="round" stroke-width="1.3229166"/>
  </g>
  <g transform="matrix(1.3471472,0,0,1.3471472,-762.28611,-421.20083)">
   <path d="m4.3075853 329.71801c-4.8405659 4.81898-1.1454793 12.73364 3.3302198 15.85207 3.3072919 0.76559 6.3473139 0.87089 9.6546049-1e-5 3.989245 0.61346 7.558508 0.73057 10.811464-0.0945-3.507207-3.53145-2.674703-7.80606-2.150437-12.42457-9.493971-5.58699-15.358869-6.08218-21.645852-3.33299z" fill="#704241" fill-rule="evenodd"/>
   <path d="m4.3075853 329.71801c-4.840566 4.81898-1.1454793 12.73364 3.3302199 15.85207m9.9380868 0.0472c-2.12599-1.68463-5.141734-8.87648-3.060262-13.22917m13.588244 13.08742c-3.507207-3.53145-2.674703-7.80606-2.150437-12.42457" fill="none" stroke="#481d32" stroke-linecap="round" stroke-linejoin="round" stroke-width="1.3229166"/>
  </g>
  <g transform="matrix(1.3471472,0,0,1.3471472,-762.28611,-319.62877)" fill="#481d32" fill-rule="evenodd" shape-rendering="auto">
   <path d="m-1.4298259 275.1537a0.52921953 0.52921953 0 0 0 -0.5312299 0.52916c-0.0104 0.60249 0.24409 1.17507 0.6056399 1.65831 0.0131 0.0174 0.0275 0.0339 0.0408 0.0511a1.679152 2.4952483 0 0 0 -0.7425899 2.06809 1.679152 2.4952483 0 0 0 1.6789704 2.49547 1.679152 2.4952483 0 0 0 1.67949 -2.49547 1.679152 2.4952483 0 0 0 -1.56735 -2.48666c-0.0846-0.0795-0.16771-0.16653-0.24185-0.26562-0.2498805-0.33395-0.3987605-0.74945-0.3942905-1.00769a0.52921953 0.52921953 0 0 0 -0.52761002 -0.54673z" color="#000000" color-rendering="auto" dominant-baseline="auto" image-rendering="auto" solid-color="#000000" style="font-feature-settings:normal;font-variant-alternates:normal;font-variant-caps:normal;font-variant-ligatures:normal;font-variant-numeric:normal;font-variant-position:normal;isolation:auto;mix-blend-mode:normal;shape-padding:0;text-decoration-color:#000000;text-decoration-line:none;text-decoration-style:solid;text-indent:0;text-orientation:mixed;text-transform:none;white-space:normal"/>
   <path d="m21.840542 275.1537a0.52921953 0.52921953 0 0 1 0.53123 0.52916c0.0104 0.60249-0.24409 1.17507-0.60564 1.65831-0.0131 0.0174-0.0275 0.0339-0.0408 0.0511a1.679152 2.4952483 0 0 1 0.74259 2.06809 1.679152 2.4952483 0 0 1 -1.67897 2.49547 1.679152 2.4952483 0 0 1 -1.679491 -2.49547 1.679152 2.4952483 0 0 1 1.567351 -2.48666c0.0846-0.0795 0.16771-0.16653 0.24185-0.26562 0.24988-0.33395 0.39876-0.74945 0.39429-1.00769a0.52921953 0.52921953 0 0 1 0.52761 -0.54673z" color="#000000" color-rendering="auto" dominant-baseline="auto" image-rendering="auto" solid-color="#000000" style="font-feature-settings:normal;font-variant-alternates:normal;font-variant-caps:normal;font-variant-ligatures:normal;font-variant-numeric:normal;font-variant-position:normal;isolation:auto;mix-blend-mode:normal;shape-padding:0;text-decoration-color:#000000;text-decoration-line:none;text-decoration-style:solid;text-indent:0;text-orientation:mixed;text-transform:none;white-space:normal"/>
  </g>
  <path d="m-765.72308 39.393624c0.80964-1.111803 2.95376-1.422306 4.20081-0.546472" fill="none" stroke="#481d32" stroke-linecap="round" stroke-width="1.7821635"/>
  <path d="m-707.12191 96.806922c3.98474-1.591236 3.58946-3.328047-0.0444-3.166819 6.31877 0.150059 4.43399-4.535709-0.58508-3.015427 6.63874-0.826005 5.93296-6.489275-0.94515-2.68947 6.84889-3.416326-0.26351-6.123717-6.1659-0.641016 2.10991-2.723271 2.29892-9.246927-3.85742-2.82541-1.81232 1.890398-2.49977 4.299851-2.26349 8.046158 0.22715 3.600751 2.46773 4.374456 4.63569 5.220748 2.87912 1.123897 6.39694 0.20074 9.22541-0.928764z" fill="#f4cbaf" fill-rule="evenodd" stroke="#481d32" stroke-linecap="round" stroke-linejoin="round" stroke-width="1.7821635"/>
  <path d="m-691.63605 86.237488-4.2217 1.764239m0.81919-10.522489-4.22166 4.095572m-3.7805-9.325316-1.89034 4.788662" fill="none" stroke="#ff5851" stroke-linecap="round" stroke-linejoin="round" stroke-width="1.7821635"/>
  <path d="m-745.33818 73.707803a3.3127251 3.3179572 0 0 1 -3.19984 2.459207 3.3127251 3.3179572 0 0 1 -3.19985 -2.459207" fill="none" stroke="#481d32" stroke-linecap="round" stroke-linejoin="round" stroke-width="1.7821635"/>
 </g>
</svg>
