<svg width="120" height="120" version="1.1" viewBox="0 0 120 120" xmlns="http://www.w3.org/2000/svg">
 <g transform="translate(967.39485)">
  <g transform="matrix(1.3066071,0,0,1.3066071,-920.90782,-412.71595)">
   <g transform="translate(-.20037212)">
    <path d="m2.2489583 380.74062c-1.0179323 2.28936-1.5875 8.94269-1.5875 13.46068s0.7294061 11.03954 1.5875 13.46068h16.408035c0.858094-2.42114 1.5875-8.94269 1.5875-13.46068s-0.569567-11.17132-1.5875-13.46068z" fill="#36619e" fill-rule="evenodd"/>
    <path d="m0.6614583 392.05001c0 5.23982 0.7294061 12.80332 1.5875 15.61128m16.408035 0c0.858094-2.80796 1.5875-10.37146 1.5875-15.61128" fill="none" stroke="#481d32" stroke-linecap="round" stroke-linejoin="round" stroke-width="1.3229166"/>
   </g>
   <path d="m3.6380202 380.34375 6.6145838 25.39999 6.614583-25.39999" fill="#fff" fill-rule="evenodd"/>
   <path d="m7.6677555 385.76223 1.683798 3.51925-1.262848 5.79975 2.1638985 7.95128 2.163898-7.95128-1.262849-5.79975 1.683799-3.51925z" fill="#ff5952" fill-rule="evenodd"/>
   <path d="m12.852125 395.51686-1.698472-6.23538 1.683799-3.51925h-5.1696965l1.683798 3.51925-1.6984703 6.23538" fill="#ff5952" fill-rule="evenodd" stroke="#481d32" stroke-linecap="round" stroke-linejoin="round" stroke-width="1.3229166"/>
   <path d="m3.6380201 380.34375 3.7413316 14.36671 2.8732523 11.03328 6.614583-25.39999" fill="none" stroke="#481d32" stroke-linecap="round" stroke-linejoin="round" stroke-width="1.3229166"/>
   <rect x="5.8208327" y="380.21149" width="8.8635416" height="5.6885414" fill="#f4cbaf" stroke="#481d32" stroke-linecap="round" stroke-linejoin="round" stroke-width="1.3229166"/>
   <path d="m3.5718744 380.87286 1.8520833 8.40053 4.8286453-3.4003 4.828646 3.4003 1.852084-8.40053-6.68073 4.91236z" fill="#fff" fill-rule="evenodd" stroke="#481d32" stroke-linecap="round" stroke-linejoin="round" stroke-width="1.3229166"/>
  </g>
  <g transform="matrix(1.3066071,0,0,1.3066071,-920.84612,-412.71595)">
   <path d="m-8.41899 363.97774h36.856467c10.902538-7.09443 7.355259-23.05725 0.65481-30.86962-6.491281-7.5685-21.253044-10.76389-29.653553-3.92888-5.8251944 0.7289-13.254381 1.91002-18.241145 12.6285 3.274052-0.28563 6.454559-1.5006 9.7286106-3.27405-3.9912116 2.87198-13.423715 12.51109 0.6548104 25.44405z" fill="#ad8c7a" fill-rule="evenodd"/>
   <path d="m24.227982 336.75634c2.854754 1.64104 4.778362 0.52627 5.893293-2.05797 0.935441 1.12253 1.621439 2.24505 2.057977 3.36758-3.187076 1.38808-6.006561 1.52635-7.95127-1.30961zm-42.656215 4.95786 2.712785-0.65487c2.769248-7.14478 7.1332794-8.27553 10.102788-10.66406-3.1181443 1.03233-8.7619861 2.89135-12.815573 11.31893zm8.418989 16.37023-2.057975 1.68381c-8.141309-9.61708-0.948098-18.99861 4.6772166-21.04747-8.6101556 8.44776-6.4828546 15.11372-2.6192416 19.36366z" fill="#fff" fill-opacity=".94835678" fill-rule="evenodd"/>
   <path d="m31.701514 361.13601c6.760996-7.89282 3.303609-21.13383-2.609227-28.02789-6.491285-7.5685-21.253043-10.76389-29.653553-3.92888-5.825194 0.7289-13.254381 1.91002-18.241145 12.6285 3.274052-0.28563 6.454559-1.5006 9.7286108-3.27405-3.7133788 2.67206-12.136868 11.2019-1.9532388 22.79227" fill="none" stroke="#481d32" stroke-linecap="round" stroke-linejoin="round" stroke-width="1.3229166"/>
  </g>
  <g transform="matrix(1.3066071,0,0,1.3066071,-920.30992,-462.26505)">
   <ellipse transform="rotate(-14.854576)" cx="-114.53056" cy="384.11917" rx="3.2127974" ry="3.8282521" fill="#f4cbaf" stroke="#481d32" stroke-width="1.3229166"/>
   <ellipse transform="matrix(-.96657963 -.25636657 -.25636657 .96657963 0 0)" cx="-133.46574" cy="379.09689" rx="3.2127974" ry="3.8282521" fill="#f4cbaf" stroke="#481d32" stroke-width="1.3229166"/>
   <ellipse cx="9.7949543" cy="397.19336" rx="21.298958" ry="23.8125" fill="#f4cbaf"/>
   <path d="m9.5587455 399.23463 0.4724705 0.8032" fill="none" stroke="#481d32" stroke-linecap="round" stroke-width="1.3229166"/>
   <ellipse cx="9.7949543" cy="397.19336" rx="21.298958" ry="23.8125" fill="none" stroke="#481d32" stroke-linecap="round" stroke-linejoin="round" stroke-width="1.3229166"/>
  </g>
  <g transform="matrix(1.3066071,0,0,1.3066071,-920.84612,-412.71595)">
   <path d="m5.0270832 334.3724c1.3920686 6.20388 3.916063 11.79772 12.303125 16.6026-0.566248-2.07524-0.689875-3.8554-0.198438-5.22552 2.792538 4.14091 6.183164 5.89408 9.194271 6.87916-0.388588-1.69499-0.294739-3.48646 0.198438-5.35781 1.316004 2.51881 3.890104 4.99608 6.35 5.42396-2.121049-4.75797-2.79638-8.49555-8.118747-13.75168-7.09843-7.01009-13.093361-5.32704-19.728649-4.57071z" fill="#ad8c7a" fill-rule="evenodd"/>
   <path d="m5.0270832 334.3724c1.3920686 6.20388 3.916063 11.79772 12.303125 16.6026-0.566248-2.07524-0.689875-3.8554-0.198438-5.22552 2.792538 4.14091 6.183164 5.89408 9.194271 6.87916-0.388588-1.69499-0.294739-3.48646 0.198438-5.35781 1.316004 2.51881 3.890104 4.99608 6.35 5.42396" fill="none" stroke="#481d32" stroke-linecap="round" stroke-linejoin="round" stroke-width="1.3229166"/>
  </g>
  <g transform="matrix(1.3066071,0,0,1.3066071,-1197.4165,-681.13852)" fill-rule="evenodd" stroke="#481d32" stroke-linecap="round" stroke-linejoin="round" stroke-width="1.3229166">
   <path d="m229.95033 586.64425c1.99289 3.37777 4.19213 8.3504 5.41462 12.01127l2.22599-4.44264 5.04598 4.44122c-2.69224 4.89352-4.29154 9.47004-8.45722 8.684-3.54851-1.01777-4.34063-9.0438-4.34063-9.0438" fill="#36619e"/>
   <path d="m247.54883 591.50557c3.62729-3.10591 0.20248-4.78834-1.8511-1.39966 3.31443-3.81617 0.0588-6.64334-1.88892-1.03466 2.12488-5.37834-3.23951-3.30926-3.78919 2.75273-0.18889-2.59607-3.3759-6.35868-3.59439 0.35927-0.0643 1.97766 0.242 3.86962 2.26601 5.85624 1.94538 1.90944 3.98293 1.13588 5.76468 0.40384 2.29965-0.94483 3.69675-3.11683 4.92474-5.6015 1.22799-2.48466 0.12906-3.26142-1.83183-1.33626z" fill="#f4cbaf"/>
   <path d="m213.80173 586.64425c-1.99289 3.37777-4.19213 8.3504-5.41462 12.01127l-2.22599-4.44264-5.04598 4.44122c2.69224 4.89352 4.29154 9.47004 8.45722 8.684 3.54851-1.01777 4.34063-9.0438 4.34063-9.0438" fill="#36619e"/>
   <path d="m196.20323 591.50557c-3.62729-3.10591-0.20248-4.78834 1.8511-1.39966-3.31443-3.81617-0.0588-6.64334 1.88892-1.03466-2.12488-5.37834 3.23951-3.30926 3.78919 2.75273 0.18889-2.59607 3.3759-6.35868 3.59439 0.35927 0.0643 1.97766-0.242 3.86962-2.26601 5.85624-1.94538 1.90944-3.98293 1.13588-5.76468 0.40384-2.29965-0.94483-3.69675-3.11683-4.92474-5.6015-1.22799-2.48466-0.12906-3.26142 1.83183-1.33626z" fill="#f4cbaf"/>
  </g>
  <path d="m-901.18702 70.983576c-0.767 3.35394-3.3611 6.50233-6.3247 6.50233s-5.5577-3.14839-6.3247-6.50233z" fill="#fff" stroke="#481d32" stroke-linecap="round" stroke-linejoin="round" stroke-width="1.7285323"/>
  <g transform="matrix(1.3066071,0,0,1.3066071,-656.98402,-517.16497)" fill="none" stroke="#481d32" stroke-linecap="round" stroke-linejoin="round" stroke-width="1.3229166">
   <path d="m-202.17205 439.11821c1.1463-3.13837 4.13617-1.96443 4.46331-0.0658"/>
   <path d="m-181.3062 439.11821c-1.1463-3.13837-4.13617-1.96443-4.46331-0.0658"/>
  </g>
  <path d="m-919.98402 39.388486c1.1871 0.60859 3.1791-0.0599 3.8759-1.36338" fill="none" stroke="#481d32" stroke-linecap="round" stroke-width="1.7285323"/>
  <path d="m-887.11442 53.544666c-3.6671 9.10751 8.79 7.37365 1.8945-2.38339" fill="#fff" fill-rule="evenodd" stroke="#481d32" stroke-linecap="round" stroke-linejoin="round" stroke-width="1.7285323"/>
  <g transform="matrix(1.3066071,0,0,1.3066071,-1499.2039,-113.44627)" fill="none" stroke="#a0c3d5" stroke-linecap="round" stroke-width="1.0583334">
   <path d="m481.80109 113.05613c7.07487-2.75209 1.30164-7.27809-1.87497-1.83359"/>
   <path d="m484.27557 117.72461c5.35129 0.41521 4.35577-5.56062-0.15066-2.09174"/>
  </g>
 </g>
</svg>
