<svg width="120" height="120" version="1.1" viewBox="0 0 120 120" xmlns="http://www.w3.org/2000/svg">
 <g transform="translate(137.66632)">
  <g transform="matrix(1.3066071,0,0,1.3066071,-1378.806,-294.68689)">
   <path d="m988.09712 290.44273c-1.2891 1.63088-10.66415-1.9682-5.10359 2.91628l-5.93351-0.90031c-1.20089 2.61858-1.40544 4.13106-2.08367 6.41613-4.01701 13.53394 4.6019 10.96332 12.78668 0.45461" fill="#36619e" fill-rule="evenodd"/>
   <path d="m980.81404 302.13577 2.75413-7.50055-6.95966-2.42561s-1.91278 4.90153-2.43395 7.46703c-2.56747 12.63846 4.88139 10.20681 11.76978 2.05035" fill="none" stroke="#481d32" stroke-linecap="round" stroke-width="1.3229166"/>
  </g>
  <g transform="matrix(1.3066071,0,0,1.3066071,-1245.8103,-295.17579)" fill-rule="evenodd" stroke="#481d32" stroke-linecap="round" stroke-linejoin="round" stroke-width="1.3229166">
   <path d="m901.52628 290.46303c6.88767 2.95682 12.70223 6.24562 16.0349 12.75741l-4.40997 4.14268c-3.18587-5.56032-8.91204-5.13494-15.65148-6.07554z" fill="#36619e"/>
   <path d="m913.26141 310.38851c1.4291 0.36232 1.4201-3.32298 1.8472-1.99358 0.47847 1.48901 0.66907 3.38919 1.86707 4.49901 0.4382 0.40595 1.2131 0.42578 1.5977-0.10622 0.4599-0.63637-0.044-2.10875-0.5242-3.28185-0.4613-1.12654 1.6672 2.02414 2.82937 2.1537 0.8845 0.0986 1.3842-0.47891 1.1211-1.4084-0.2789-0.98582-1.1396-1.83782-1.95997-2.35282-1.5571-0.97736 1.45157 0.30925 1.87897 0.30515 0.698 0.23952 1.5783-0.15421 1.5075-0.98132 0.052-0.79299-2.2992-1.38546-2.98727-1.53274-0.8883-0.19014 2.35007 0.34316 2.20967-1.06453-0.091-0.91299-1.1165-0.99104-1.7776-1.18532-1.75877-0.5169-4.31127-0.13441-5.97564 0.94655-2.517 1.63466-2.9023 5.68077-1.6339 6.00237z" fill="#f4cbaf"/>
  </g>
  <path d="m-44.826115 21.275992c3.7951 3.45678 6.75 2.99277 9.5069 1.60507-2.2988 5.2022-2.4463 9.66761 3.7041 11.97625-3.142 2.92674-2.551 4.6092-2.7163 6.54374" fill="none" stroke="#481d32" stroke-linecap="round" stroke-linejoin="round" stroke-width="1.7285323"/>
  <g transform="matrix(1.3066071,0,0,1.3066071,-91.211835,-412.71595)">
   <g transform="translate(-.20037212)">
    <path d="m2.2489583 380.74062c-1.0179323 2.28936-1.5875 8.94269-1.5875 13.46068s0.7294061 11.03954 1.5875 13.46068h16.408035c0.858094-2.42114 1.5875-8.94269 1.5875-13.46068s-0.569567-11.17132-1.5875-13.46068z" fill="#36619e" fill-rule="evenodd"/>
    <path d="m0.6614583 392.05001c0 5.23982 0.7294061 12.80332 1.5875 15.61128m16.408035 0c0.858094-2.80796 1.5875-10.37146 1.5875-15.61128" fill="none" stroke="#481d32" stroke-linecap="round" stroke-linejoin="round" stroke-width="1.3229166"/>
   </g>
   <path d="m3.6380202 380.34375 6.6145838 25.39999 6.614583-25.39999" fill="#fff" fill-rule="evenodd"/>
   <path d="m7.6677555 385.76223 1.683798 3.51925-1.262848 5.79975 2.1638985 7.95128 2.163898-7.95128-1.262849-5.79975 1.683799-3.51925z" fill="#ff5952" fill-rule="evenodd"/>
   <path d="m12.852125 395.51686-1.698472-6.23538 1.683799-3.51925h-5.1696965l1.683798 3.51925-1.6984703 6.23538" fill="#ff5952" fill-rule="evenodd" stroke="#481d32" stroke-linecap="round" stroke-linejoin="round" stroke-width="1.3229166"/>
   <path d="m3.6380201 380.34375 3.7413316 14.36671 2.8732523 11.03328 6.614583-25.39999" fill="none" stroke="#481d32" stroke-linecap="round" stroke-linejoin="round" stroke-width="1.3229166"/>
   <rect x="5.8208327" y="380.21149" width="8.8635416" height="5.6885414" fill="#f4cbaf" stroke="#481d32" stroke-linecap="round" stroke-linejoin="round" stroke-width="1.3229166"/>
   <path d="m3.5718744 380.87286 1.8520833 8.40053 4.8286453-3.4003 4.828646 3.4003 1.852084-8.40053-6.68073 4.91236z" fill="#fff" fill-rule="evenodd" stroke="#481d32" stroke-linecap="round" stroke-linejoin="round" stroke-width="1.3229166"/>
  </g>
  <g transform="matrix(1.3066071,0,0,1.3066071,-91.150135,-412.71595)">
   <path d="m-8.41899 363.97774h36.856467c10.902538-7.09443 7.355259-23.05725 0.65481-30.86962-6.491281-7.5685-21.253044-10.76389-29.653553-3.92888-5.8251944 0.7289-13.254381 1.91002-18.241145 12.6285 3.274052-0.28563 6.454559-1.5006 9.7286106-3.27405-3.9912116 2.87198-13.423715 12.51109 0.6548104 25.44405z" fill="#ad8c7a" fill-rule="evenodd"/>
   <path d="m24.227982 336.75634c2.854754 1.64104 4.778362 0.52627 5.893293-2.05797 0.935441 1.12253 1.621439 2.24505 2.057977 3.36758-3.187076 1.38808-6.006561 1.52635-7.95127-1.30961zm-42.656215 4.95786 2.712785-0.65487c2.769248-7.14478 7.1332794-8.27553 10.102788-10.66406-3.1181443 1.03233-8.7619861 2.89135-12.815573 11.31893zm8.418989 16.37023-2.057975 1.68381c-8.141309-9.61708-0.948098-18.99861 4.6772166-21.04747-8.6101556 8.44776-6.4828546 15.11372-2.6192416 19.36366z" fill="#fff" fill-opacity=".94835678" fill-rule="evenodd"/>
   <path d="m31.701514 361.13601c6.760996-7.89282 3.303609-21.13383-2.609227-28.02789-6.491285-7.5685-21.253043-10.76389-29.653553-3.92888-5.825194 0.7289-13.254381 1.91002-18.241145 12.6285 3.274052-0.28563 6.454559-1.5006 9.7286108-3.27405-3.7133788 2.67206-12.136868 11.2019-1.9532388 22.79227" fill="none" stroke="#481d32" stroke-linecap="round" stroke-linejoin="round" stroke-width="1.3229166"/>
  </g>
  <g transform="matrix(1.3066071,0,0,1.3066071,-90.613835,-462.26505)">
   <ellipse transform="rotate(-14.854576)" cx="-114.53056" cy="384.11917" rx="3.2127974" ry="3.8282521" fill="#f4cbaf" stroke="#481d32" stroke-width="1.3229166"/>
   <ellipse transform="matrix(-.96657963 -.25636657 -.25636657 .96657963 0 0)" cx="-133.46574" cy="379.09689" rx="3.2127974" ry="3.8282521" fill="#f4cbaf" stroke="#481d32" stroke-width="1.3229166"/>
   <ellipse cx="9.7949543" cy="397.19336" rx="21.298958" ry="23.8125" fill="#f4cbaf"/>
   <path d="m9.5587455 399.23463 0.4724705 0.8032" fill="none" stroke="#481d32" stroke-linecap="round" stroke-width="1.3229166"/>
   <g transform="matrix(.26458333 0 0 .26458333 -847.07752 265.46369)">
    <path d="m3238.5723 407.87696a80.499999 90.000001 0 0 0 -80.5 90 80.499999 90.000001 0 0 0 0.025 0.77539h160.9394a80.499999 90.000001 0 0 0 0.035 -0.77539 80.499999 90.000001 0 0 0 -80.5 -90z" fill="#00f" fill-opacity=".23529412"/>
    <path d="m3175.0714 474.66251v-28.21429" fill="none" stroke="#819da5" stroke-linecap="round" stroke-linejoin="round" stroke-width="5"/>
    <path d="m3199.0714 474.66251v-54.21429" fill="none" stroke="#819da5" stroke-linecap="round" stroke-linejoin="round" stroke-width="5"/>
    <path d="m3211.0714 474.66251v-62.21429" fill="none" stroke="#819da5" stroke-linecap="round" stroke-linejoin="round" stroke-width="5"/>
    <path d="m3187.0714 474.66251v-44.21429" fill="none" stroke="#819da5" stroke-linecap="round" stroke-linejoin="round" stroke-width="5"/>
    <path d="m3223.0714 474.66251v-62.21429" fill="none" stroke="#819da5" stroke-linecap="round" stroke-linejoin="round" stroke-width="5"/>
   </g>
   <ellipse cx="9.7949543" cy="397.19336" rx="21.298958" ry="23.8125" fill="none" stroke="#481d32" stroke-linecap="round" stroke-linejoin="round" stroke-width="1.3229166"/>
  </g>
  <g transform="matrix(1.3066071,0,0,1.3066071,-91.150135,-412.71595)">
   <path d="m5.0270832 334.3724c1.3920686 6.20388 3.916063 11.79772 12.303125 16.6026-0.566248-2.07524-0.689875-3.8554-0.198438-5.22552 2.792538 4.14091 6.183164 5.89408 9.194271 6.87916-0.388588-1.69499-0.294739-3.48646 0.198438-5.35781 1.316004 2.51881 3.890104 4.99608 6.35 5.42396-2.121049-4.75797-2.79638-8.49555-8.118747-13.75168-7.09843-7.01009-13.093361-5.32704-19.728649-4.57071z" fill="#ad8c7a" fill-rule="evenodd"/>
   <path d="m5.0270832 334.3724c1.3920686 6.20388 3.916063 11.79772 12.303125 16.6026-0.566248-2.07524-0.689875-3.8554-0.198438-5.22552 2.792538 4.14091 6.183164 5.89408 9.194271 6.87916-0.388588-1.69499-0.294739-3.48646 0.198438-5.35781 1.316004 2.51881 3.890104 4.99608 6.35 5.42396" fill="none" stroke="#481d32" stroke-linecap="round" stroke-linejoin="round" stroke-width="1.3229166"/>
  </g>
  <path d="m-90.434835 39.616332 4.16165 2.53802" fill="none" stroke="#481d32" stroke-linecap="round" stroke-width="1.7285323"/>
  <path d="m-84.213315 70.511462-2.10686 8.21805 17.00886-0.28632-2.2241-7.93173z" fill="#fff" fill-rule="evenodd" stroke="#481d32" stroke-linecap="round" stroke-linejoin="round" stroke-width="1.7285323"/>
  <g transform="matrix(1.3066071,0,0,1.3066071,-1245.8103,-295.17579)" fill="#fff" stroke="#481d32" stroke-linecap="round" stroke-linejoin="round" stroke-width="1.3229166">
   <ellipse cx="885.99042" cy="269.61249" rx="1.7953868" ry="2.5040922"/>
   <ellipse transform="scale(-1,1)" cx="-901.83777" cy="269.61249" rx="1.7953868" ry="2.5040922"/>
  </g>
  <path d="m-103.56364 81.022542c1.8112-1.11152 3.3796 3.9682 3.3971 1.95413 0.02-2.25592-0.5331-4.95477 0.639305-6.99679 0.4288-0.74691 1.4867-1.10636 2.2441-0.53843 0.9059 0.67935 0.8443 2.92318 0.6865 4.74481-0.1516 1.74931 1.4259-3.50245 2.9696-4.179 1.1748-0.51484 2.1102 0.0664 2.1469 1.45932 0.039 1.47737-0.7798 3.0197-1.6879 4.08065-1.7233 2.01346 1.865-1.04808 2.4548-1.22561 0.8578-0.62905 2.2381-0.46405 2.4954 0.70551 0.4121 1.06978-2.5695 2.89361-3.4532 3.39137-1.1409 0.64262 3.0867-1.47986 3.4973 0.51918 0.2663 1.29652-1.1112 1.84348-1.9376 2.3944-2.1985 1.46574-5.8751 2.03291-8.6291 1.25741-4.164705-1.17272-6.430805-6.58033-4.823205-7.56695z" fill="#f4cbaf" fill-rule="evenodd" stroke="#481d32" stroke-linecap="round" stroke-linejoin="round" stroke-width="1.7285323"/>
 </g>
</svg>
