<svg width="120" height="120" version="1.1" viewBox="0 0 120 120" xmlns="http://www.w3.org/2000/svg">
 <g transform="translate(380.75471)">
  <path d="m-281.88943 40.265226 11.8457 6.552942-37.55336 52.801528c-0.83189-5.434634-3.77581-10.165263-2.4234-16.327989z" fill="#bebee6" fill-rule="evenodd"/>
  <path d="m-310.02051 83.291707 28.13106-43.026481 11.84569 6.552942-37.55336 52.801528" fill="none" stroke="#481d32" stroke-linecap="round" stroke-linejoin="round" stroke-width="1.7821634"/>
  <path d="m-359.62 40.265226-11.8457 6.552942 37.55336 52.801528c1.23617-5.197886 3.70909-9.689046 2.4234-16.327989z" fill="#bebee6" fill-rule="evenodd"/>
  <path d="m-331.48892 83.291707-28.13106-43.026481-11.84569 6.552942 37.55336 52.801528" fill="none" stroke="#481d32" stroke-linecap="round" stroke-linejoin="round" stroke-width="1.7821634"/>
  <g transform="matrix(1.3471472,0,0,1.3471472,-1332.5786,-663.57531)">
   <path d="m729.24551 569.14315c7.23447-4.43519 10.52512-12.58138 5.95313-29.57664l-11.33929-7.37053c-9.10665 9.65526-3.57666 17.44937-0.56697 20.78869 5.51678 6.12099 6.53254 9.64425 5.95313 16.15848z" fill="#704241" fill-rule="evenodd"/>
   <path d="m724.7889 535.26392-1.00226-2.67269c-0.15954-0.26591-5.16895 4.24998-5.0113 10.82441s6.05655 10.66521 9.08715 15.23436c-0.67912-3.39556-5.81616-8.66492-6.28082-14.76664s3.16728-8.69933 3.20723-8.61944z" fill="#fff" fill-rule="evenodd"/>
   <path d="m723.85935 532.19598c-9.10665 9.65526-3.57666 17.44937-0.56697 20.78869 5.51678 6.12099 6.53254 9.64425 5.95313 16.15848m2.69308-2.03162c4.58864-4.90766 7.54856-11.21122 3.26005-27.54502" fill="none" stroke="#481d32" stroke-linecap="round" stroke-width="1.3229166"/>
  </g>
  <g transform="matrix(1.3471472,0,0,1.3471472,-1332.5786,-663.57531)">
   <path d="m732.42374 540.60595c-23.74391-11.03668 0.0635-48.93745 25.98586-38.36459 21.97089 3.43376 29.53386 32.88475 11.90625 40.82143" fill="#704241" fill-rule="evenodd"/>
   <path d="m755.88519 501.99899c-6.38982-0.57605-17.82232 1.8491-24.78036 10.14804 0.64193 1.30735 2.99414 3.04476 6.0409 2.63437-1.74187 1.09775-3.39309 2.1072-8.70966 0.31115-3.75781 5.08969-5.12597 11.09737-4.76858 16.09839-2.8561-5.70743 0.4336-16.22029 6.07054-22.13454 7.25341-7.61024 19.49538-10.88792 26.14716-7.05741z" fill="#fff" fill-rule="evenodd"/>
   <path d="m732.42374 540.60595c-23.74391-11.03668 0.0635-48.93745 25.98586-38.36459m11.90625 40.82143c17.62761-7.93668 10.07096-37.42836-11.90625-40.82143-1.41436-0.21837-3.64516 0.44024-4.50903 1.20819" fill="none" stroke="#481d32" stroke-linecap="round" stroke-width="1.3229166"/>
  </g>
  <g fill="#f4cbaf" fill-rule="evenodd" stroke="#481d32" stroke-linecap="round" stroke-linejoin="round" stroke-width="1.7821634">
   <path d="m-274.48895 26.121541c2.61911 0.892431-1.35641 13.222789 0.43923 7.352002 0.93593-3.059991 3.80493-7.052922 5.48334-6.242047 1.39838 0.675567 1.88099 3.089332-0.80056 7.80789-2.30999 5.647713 2.56826-6.746257 6.00071-4.509656s-6.58631 11.787902-1.76439 7.108249c1.04321-1.012421 2.89696-2.50009 3.80615-1.746037 1.77489 1.472027-1.49987 6.897609-4.88428 10.034347-6.24624 5.789122-10.6944 1.4888-15.77572-1.663484-4.28516-2.658366-6.12157-7.129993-4.60092-8.740332 1.07082-1.133988 4.18596 0.555186 6.07687 2.430469 0.52454-4.121112 2.71101-12.958748 6.01957-11.831401z"/>
   <path d="m-367.02048 26.121541c-2.61911 0.892431 1.35641 13.222789-0.43923 7.352002-0.93593-3.059991-3.80493-7.052922-5.48334-6.242047-1.39838 0.675567-1.88099 3.089332 0.80056 7.80789 2.30999 5.647713-2.56826-6.746257-6.00071-4.509656s6.58631 11.787902 1.76439 7.108249c-1.04321-1.012421-2.89696-2.50009-3.80615-1.746037-1.77489 1.472027 1.49987 6.897609 4.88428 10.034347 6.24624 5.789122 10.6944 1.4888 15.77572-1.663484 4.28516-2.658366 6.12157-7.129993 4.60092-8.740332-1.07082-1.133988-4.18596 0.555186-6.07687 2.430469-0.52454-4.121112-2.71101-12.958748-6.01957-11.831401z"/>
  </g>
  <g transform="matrix(1.3471472,0,0,1.3471472,-334.56665,-421.20086)">
   <path d="m2.8964745 374.22949c-2.66216 7.70093-4.1861141 15.02793-1.5875001 27.28107h17.792715c2.598613-12.25314 1.07466-19.58014-1.587501-27.28107z" fill="#bebee6"/>
   <path d="m4.90889 380.28754c1.294979 3.83426 2.76914 7.64292 5.296392 11.30114 2.546572-3.76705 3.977053-7.53409 5.296392-11.30114" fill="#fff" fill-rule="evenodd" stroke="#481d32" stroke-linecap="round" stroke-linejoin="round" stroke-width="1.3229166"/>
   <path d="m6.8324108 373.8445c-1.9096895 1e-4 -3.4577411 2.06432-3.4576702 4.61057-7.09e-5 2.54626 1.5479807 4.61048 3.4576702 4.61057 1.6212338-2e-3 3.0240245-1.50459 3.3739542-3.61528 0.349762 2.10969 1.751428 3.61253 3.371887 3.61528 1.909689-9e-5 3.457741-2.06431 3.45767-4.61057 7.1e-5 -2.54625-1.547981-4.61047-3.45767-4.61057z" fill="#fff" stroke="#481d32" stroke-linecap="round" stroke-linejoin="round" stroke-width="1.3229166"/>
   <path d="m6.9117581 375.52706c0.952272 1.80559 1.312661 3.69573 3.4017879 5.33891 2.137222-1.83937 2.358993-3.67874 3.185887-5.51811" fill="#f4cbaf" fill-rule="evenodd" stroke="#481d32" stroke-linecap="round" stroke-linejoin="round" stroke-width="1.3229166"/>
   <path d="m3.1927244 376.1389-1.81901 8.00837 2.5479811 0.23955-0.3273721 3.32756 3.6521963 3.77975m9.9714153-15.35523 1.819013 8.00837-2.547982 0.23959 0.327371 3.32755-3.652194 3.77975" fill="none" stroke="#481d32" stroke-linecap="round" stroke-linejoin="round" stroke-width="1.3229166"/>
   <path d="m19.111936 401.44385c1.270305-5.98981 0.876485-11.36017 0.912942-15.59848m-19.620109 0c0.0082 4.30882-0.3846443 9.4729 0.91445266 15.59848" fill="none" stroke="#481d32" stroke-linecap="round" stroke-linejoin="round" stroke-width="1.3229166"/>
  </g>
  <g transform="matrix(1.3471472,0,0,1.3471472,-334.01379,-479.4158)">
   <ellipse transform="rotate(-14.854576)" cx="-114.53056" cy="384.11917" rx="3.2127974" ry="3.8282521" fill="#f4cbaf" stroke="#481d32" stroke-width="1.3229166"/>
   <ellipse transform="matrix(-.96657963 -.25636657 -.25636657 .96657963 0 0)" cx="-133.46574" cy="379.09689" rx="3.2127974" ry="3.8282521" fill="#f4cbaf" stroke="#481d32" stroke-width="1.3229166"/>
   <ellipse cx="9.7949543" cy="397.19336" rx="21.298958" ry="23.8125" fill="#f4cbaf"/>
   <path d="m9.5587455 399.23463 0.4724705 0.8032" fill="none" stroke="#481d32" stroke-linecap="round" stroke-width="1.3229166"/>
   <ellipse cx="-6.0420694" cy="404.39377" rx="4.6786079" ry="4.9148431" fill="#ff69b4" fill-opacity=".39215686"/>
   <ellipse cx="25.632029" cy="404.39377" rx="4.6786079" ry="4.9148431" fill="#ff69b4" fill-opacity=".39215686"/>
   <ellipse cx="9.7949543" cy="397.19336" rx="21.298958" ry="23.8125" fill="none" stroke="#481d32" stroke-linecap="round" stroke-linejoin="round" stroke-width="1.3229166"/>
  </g>
  <g transform="matrix(1.3471472,0,0,1.3471472,-334.56665,-421.20083)">
   <path d="m4.3075853 329.71801c-4.8405659 4.81898-1.1454793 12.73364 3.3302198 15.85207 3.3072919 0.76559 6.3473139 0.87089 9.6546049-1e-5 3.989245 0.61346 7.558508 0.73057 10.811464-0.0945-3.507207-3.53145-2.674703-7.80606-2.150437-12.42457-9.493971-5.58699-15.358869-6.08218-21.645852-3.33299z" fill="#704241" fill-rule="evenodd"/>
   <path d="m4.3075853 329.71801c-4.840566 4.81898-1.1454793 12.73364 3.3302199 15.85207m9.9380868 0.0472c-2.12599-1.68463-5.141734-8.87648-3.060262-13.22917m13.588244 13.08742c-3.507207-3.53145-2.674703-7.80606-2.150437-12.42457" fill="none" stroke="#481d32" stroke-linecap="round" stroke-linejoin="round" stroke-width="1.3229166"/>
  </g>
  <path d="m-338.00373 39.3936c0.80978-1.111803 2.95376-1.422306 4.20081-0.546472" fill="none" stroke="#481d32" stroke-linecap="round" stroke-width="1.7821635"/>
  <g transform="matrix(1.3471472,0,0,1.3471472,-170.60777,-476.45973)" fill="#481d32" fill-rule="evenodd" shape-rendering="auto">
   <path d="m-99.455078 392.98438a0.66152446 0.66152446 0 0 0 -0.41211 0.13867l-3.505862 2.64648a0.66152446 0.66152446 0 0 0 0.41993 1.18945l4.099604-0.13281a0.66152446 0.66152446 0 1 0 -0.04102 -1.32226l-2.017584 0.0644 1.841803-1.38867a0.66152446 0.66152446 0 0 0 -0.384766 -1.19531z" color="#000000" color-rendering="auto" dominant-baseline="auto" image-rendering="auto" solid-color="#000000" style="font-feature-settings:normal;font-variant-alternates:normal;font-variant-caps:normal;font-variant-ligatures:normal;font-variant-numeric:normal;font-variant-position:normal;isolation:auto;mix-blend-mode:normal;shape-padding:0;text-decoration-color:#000000;text-decoration-line:none;text-decoration-style:solid;text-indent:0;text-orientation:mixed;text-transform:none;white-space:normal"/>
   <path d="m-123.55067 392.98438a0.66152446 0.66152446 0 0 1 0.41211 0.13867l3.50586 2.64648a0.66152446 0.66152446 0 0 1 -0.41993 1.18945l-4.0996-0.13281a0.66152446 0.66152446 0 1 1 0.041 -1.32226l2.01758 0.0644-1.8418-1.38867a0.66152446 0.66152446 0 0 1 0.38476 -1.19531z" color="#000000" color-rendering="auto" dominant-baseline="auto" image-rendering="auto" solid-color="#000000" style="font-feature-settings:normal;font-variant-alternates:normal;font-variant-caps:normal;font-variant-ligatures:normal;font-variant-numeric:normal;font-variant-position:normal;isolation:auto;mix-blend-mode:normal;shape-padding:0;text-decoration-color:#000000;text-decoration-line:none;text-decoration-style:solid;text-indent:0;text-orientation:mixed;text-transform:none;white-space:normal"/>
  </g>
  <path d="m-328.06528 69.77084c5.23621 1.019736 10.20638 1.422883 14.50606 0.27203 0 4.198438-1.80316 10.087437-6.27717 10.050917-4.00883-0.03272-6.54254-4.286299-6.54254-9.69061" fill="#fff" fill-rule="evenodd" stroke="#481d32" stroke-linecap="round" stroke-linejoin="round" stroke-width="1.7821635"/>
  <path d="m-376.68651 64.635311 9.00431 7.920445m-9.539-18.435209 10.83602 12.150726m101.43454-1.635962-9.00434 7.920445m9.53888-18.435209-10.83591 12.150726" fill="none" stroke="#ff5851" stroke-linecap="round" stroke-linejoin="round" stroke-width="1.7821635"/>
 </g>
</svg>
