<svg width="120" height="120" version="1.1" viewBox="0 0 120 120" xmlns="http://www.w3.org/2000/svg">
 <g transform="translate(414.41984)">
  <g transform="matrix(-1.3066071,0,0,1.3066071,489.67441,-648.35265)">
   <path d="m655.43097 558.41289c6.59084 11.55142 6.29858 10.40845 4.52689 16.9434h-5.1469c0-9.05959-0.7931-3.37095-1.45132-10.00064" fill="#36619e" fill-rule="evenodd"/>
   <path d="m655.43097 558.41289c5.45494 6.40648 6.23176 10.41431 4.52689 16.88244" fill="none" stroke="#481d32" stroke-linecap="round" stroke-linejoin="round" stroke-width="1.3229166"/>
  </g>
  <path d="m-343.09262 86.005234 12.5936 11.79104 4.0127-6.35852 9.013 4.93866s-4.3664 8.906716-8.7044 11.235446c-1.7827 0.957-3.858 1.36037-5.8029 0.80253-4.6365-1.32981-11.5485-8.18676-11.5485-8.18676" fill="#36619e" fill-rule="evenodd" stroke="#481d32" stroke-linecap="round" stroke-linejoin="round" stroke-width="1.7285323"/>
  <g transform="matrix(1.3066071,0,0,1.3066071,-367.77712,-412.71595)">
   <g transform="translate(-.20037212)">
    <path d="m2.2489583 380.74062c-1.0179323 2.28936-1.5875 8.94269-1.5875 13.46068s0.7294061 11.03954 1.5875 13.46068h16.408035c0.858094-2.42114 1.5875-8.94269 1.5875-13.46068s-0.569567-11.17132-1.5875-13.46068z" fill="#36619e" fill-rule="evenodd"/>
    <path d="m0.6614583 392.05001c0 5.23982 0.7294061 12.80332 1.5875 15.61128m16.408035 0c0.858094-2.80796 1.5875-10.37146 1.5875-15.61128" fill="none" stroke="#481d32" stroke-linecap="round" stroke-linejoin="round" stroke-width="1.3229166"/>
   </g>
   <path d="m3.6380202 380.34375 6.6145838 25.39999 6.614583-25.39999" fill="#fff" fill-rule="evenodd"/>
   <path d="m7.6677555 385.76223 1.683798 3.51925-1.262848 5.79975 2.1638985 7.95128 2.163898-7.95128-1.262849-5.79975 1.683799-3.51925z" fill="#ff5952" fill-rule="evenodd"/>
   <path d="m12.852125 395.51686-1.698472-6.23538 1.683799-3.51925h-5.1696965l1.683798 3.51925-1.6984703 6.23538" fill="#ff5952" fill-rule="evenodd" stroke="#481d32" stroke-linecap="round" stroke-linejoin="round" stroke-width="1.3229166"/>
   <path d="m3.6380201 380.34375 3.7413316 14.36671 2.8732523 11.03328 6.614583-25.39999" fill="none" stroke="#481d32" stroke-linecap="round" stroke-linejoin="round" stroke-width="1.3229166"/>
   <rect x="5.8208327" y="380.21149" width="8.8635416" height="5.6885414" fill="#f4cbaf" stroke="#481d32" stroke-linecap="round" stroke-linejoin="round" stroke-width="1.3229166"/>
   <path d="m3.5718744 380.87286 1.8520833 8.40053 4.8286453-3.4003 4.828646 3.4003 1.852084-8.40053-6.68073 4.91236z" fill="#fff" fill-rule="evenodd" stroke="#481d32" stroke-linecap="round" stroke-linejoin="round" stroke-width="1.3229166"/>
  </g>
  <g transform="matrix(1.3066071,0,0,1.3066071,-367.71542,-412.71595)">
   <path d="m-8.41899 363.97774h36.856467c10.902538-7.09443 7.355259-23.05725 0.65481-30.86962-6.491281-7.5685-21.253044-10.76389-29.653553-3.92888-5.8251944 0.7289-13.254381 1.91002-18.241145 12.6285 3.274052-0.28563 6.454559-1.5006 9.7286106-3.27405-3.9912116 2.87198-13.423715 12.51109 0.6548104 25.44405z" fill="#ad8c7a" fill-rule="evenodd"/>
   <path d="m24.227982 336.75634c2.854754 1.64104 4.778362 0.52627 5.893293-2.05797 0.935441 1.12253 1.621439 2.24505 2.057977 3.36758-3.187076 1.38808-6.006561 1.52635-7.95127-1.30961zm-42.656215 4.95786 2.712785-0.65487c2.769248-7.14478 7.1332794-8.27553 10.102788-10.66406-3.1181443 1.03233-8.7619861 2.89135-12.815573 11.31893zm8.418989 16.37023-2.057975 1.68381c-8.141309-9.61708-0.948098-18.99861 4.6772166-21.04747-8.6101556 8.44776-6.4828546 15.11372-2.6192416 19.36366z" fill="#fff" fill-opacity=".94835678" fill-rule="evenodd"/>
   <path d="m31.701514 361.13601c6.760996-7.89282 3.303609-21.13383-2.609227-28.02789-6.491285-7.5685-21.253043-10.76389-29.653553-3.92888-5.825194 0.7289-13.254381 1.91002-18.241145 12.6285 3.274052-0.28563 6.454559-1.5006 9.7286108-3.27405-3.7133788 2.67206-12.136868 11.2019-1.9532388 22.79227" fill="none" stroke="#481d32" stroke-linecap="round" stroke-linejoin="round" stroke-width="1.3229166"/>
  </g>
  <g transform="matrix(1.3066071,0,0,1.3066071,-367.17922,-462.26505)">
   <ellipse transform="rotate(-14.854576)" cx="-114.53056" cy="384.11917" rx="3.2127974" ry="3.8282521" fill="#f4cbaf" stroke="#481d32" stroke-width="1.3229166"/>
   <ellipse transform="matrix(-.96657963 -.25636657 -.25636657 .96657963 0 0)" cx="-133.46574" cy="379.09689" rx="3.2127974" ry="3.8282521" fill="#f4cbaf" stroke="#481d32" stroke-width="1.3229166"/>
   <ellipse cx="9.7949543" cy="397.19336" rx="21.298958" ry="23.8125" fill="#f4cbaf"/>
   <path d="m9.5587455 399.23463 0.4724705 0.8032" fill="none" stroke="#481d32" stroke-linecap="round" stroke-width="1.3229166"/>
   <ellipse cx="9.7949543" cy="397.19336" rx="21.298958" ry="23.8125" fill="none" stroke="#481d32" stroke-linecap="round" stroke-linejoin="round" stroke-width="1.3229166"/>
  </g>
  <g transform="matrix(1.3066071,0,0,1.3066071,-367.71542,-412.71595)">
   <path d="m5.0270832 334.3724c1.3920686 6.20388 3.916063 11.79772 12.303125 16.6026-0.566248-2.07524-0.689875-3.8554-0.198438-5.22552 2.792538 4.14091 6.183164 5.89408 9.194271 6.87916-0.388588-1.69499-0.294739-3.48646 0.198438-5.35781 1.316004 2.51881 3.890104 4.99608 6.35 5.42396-2.121049-4.75797-2.79638-8.49555-8.118747-13.75168-7.09843-7.01009-13.093361-5.32704-19.728649-4.57071z" fill="#ad8c7a" fill-rule="evenodd"/>
   <path d="m5.0270832 334.3724c1.3920686 6.20388 3.916063 11.79772 12.303125 16.6026-0.566248-2.07524-0.689875-3.8554-0.198438-5.22552 2.792538 4.14091 6.183164 5.89408 9.194271 6.87916-0.388588-1.69499-0.294739-3.48646 0.198438-5.35781 1.316004 2.51881 3.890104 4.99608 6.35 5.42396" fill="none" stroke="#481d32" stroke-linecap="round" stroke-linejoin="round" stroke-width="1.3229166"/>
  </g>
  <g transform="matrix(1.1768595 -.56764756 .56764756 1.1768595 -645.20452 -435.61001)" stroke="#481d32" stroke-linecap="round" stroke-linejoin="round" stroke-width="1.3229166">
   <path d="m52.88863 457.6468c1.186955 3e-3 2.032345 0.93506 1.697571 2.96416-0.300141 1.81919-1.521015 3.86743-2.41484 5.1754a6.4635139 5.6603154 18.970546 0 1 2.587956 6.61458 6.4635139 5.6603154 18.970546 0 1 -7.953003 3.25148 6.4635139 5.6603154 18.970546 0 1 -4.272091 -7.45381 6.4635139 5.6603154 18.970546 0 1 4.729427 -3.59306c0.767885-1.84349 2.441625-5.53406 3.873149-6.40426 0.602133-0.36602 1.212306-0.55608 1.751831-0.55449z" fill="#f4cbaf"/>
   <path d="m44.522437 467.14534c3.666644-1.02038 4.508427 4.00856 0.212612 3.1183m6.199632-3.71657c-3.426287 0.0538-4.523257 5.25996-0.01483 3.01556-2.701379 1.44527-1.259762 3.60885 0.887145 2.52306-1.31377 1.8855 0.811947 2.97513 2.300866 1.49108" fill="none"/>
  </g>
  <g transform="matrix(1.3066071,0,0,1.3066071,-368.06112,-611.84294)" fill="#481d32">
   <ellipse cx="2.2678556" cy="510.61313" rx="1.6762543" ry="2.4846785"/>
   <ellipse cx="18.672022" cy="510.61313" rx="1.6762543" ry="2.4846785"/>
  </g>
  <path d="m-366.95652 39.324644c0.7853-1.07834 2.8648-1.3795 4.0744-0.53003" fill="none" stroke="#481d32" stroke-linecap="round" stroke-width="1.7285323"/>
  <g transform="matrix(1.3066071,0,0,1.3066071,-1164.3668,-617.20651)" stroke="#481d32" stroke-linecap="round" stroke-linejoin="round">
   <g transform="matrix(-.98822302 .15302046 .15302046 .98822302 884.2061 323.64627)">
    <rect x="303.80087" y="170.57996" width="17.991667" height="22.754166" fill="#f6dbda" stroke-width="1.3229168"/>
    <path d="m307.71815 174.81338h10.15712" fill="none" stroke-width="1.3229166"/>
    <path d="m307.71815 179.04674h10.15712" fill="none" stroke-width="1.3229166"/>
   </g>
   <path d="m595.71554 557.71777c2.04484 0.12038 3.90713-2.78321-0.11691-2.33861 2.06061-0.93628 3.88499-3.92019-1.19269-2.43215 1.49051-0.50516 2.4911-6.18785-1.7306-2.45553-1.32788 1.17395-1.15416 2.49759-1.35637 3.78854-0.20347 1.2989 0.17424 3.11283 0.44433 4.5369 0.43886 2.31379 3.5981 3.7697 4.8134 3.44841 3.86908-1.14039 0.35852-1.96749-0.57715-2.40613 3.26154-0.58735 2.40589-2.07282-0.28401-2.14143z" fill="#f4cbaf" fill-rule="evenodd" stroke-width="1.3229166"/>
  </g>
  <ellipse cx="-354.38098" cy="74.23481" rx="2.8373823" ry="3.710423" fill="#fff" stroke="#481d32" stroke-linecap="round" stroke-linejoin="round" stroke-width="1.7285323"/>
 </g>
</svg>
