<svg width="120" height="42" version="1" xmlns="http://www.w3.org/2000/svg"><path d="M19.734 0A19.69 19.69 0 000 19.734v2.531A19.69 19.69 0 0019.734 42h100.267V0H19.733z" fill="#3c5c99" paint-order="stroke fill markers"/><g fill="#fffffd"><path d="M31.972 9.896c3.023 3.023 4.535 6.725 4.535 11.104 0 4.38-1.486 8.043-4.458 10.988-3.154 3.102-6.88 4.653-11.182 4.653-4.248 0-7.911-1.538-10.985-4.614C6.805 28.952 5.268 25.277 5.268 21c0-4.275 1.537-7.976 4.614-11.104 2.996-3.024 6.658-4.537 10.985-4.537 4.38 0 8.08 1.512 11.105 4.536zm-20.055 2.033c-2.557 2.581-3.835 5.605-3.835 9.074s1.266 6.467 3.795 8.996c2.53 2.53 5.542 3.795 9.037 3.795s6.532-1.278 9.115-3.833c2.451-2.374 3.677-5.359 3.677-8.958 0-3.571-1.246-6.603-3.737-9.094-2.49-2.49-5.509-3.735-9.055-3.735s-6.547 1.252-8.997 3.755zm6.726 7.549c-.39-.852-.974-1.278-1.755-1.278-1.378 0-2.067.928-2.067 2.784s.69 2.783 2.067 2.783c.91 0 1.56-.452 1.951-1.357l1.91 1.017c-.91 1.618-2.277 2.428-4.098 2.428-1.406 0-2.531-.43-3.377-1.292s-1.27-2.05-1.27-3.564c0-1.487.438-2.668 1.31-3.543.87-.875 1.958-1.312 3.259-1.312 1.926 0 3.304.759 4.14 2.275zm8.99 0c-.39-.852-.964-1.278-1.72-1.278-1.405 0-2.109.928-2.109 2.784s.704 2.783 2.11 2.783c.912 0 1.55-.452 1.915-1.357l1.953 1.017c-.91 1.618-2.274 2.428-4.092 2.428-1.404 0-2.526-.43-3.372-1.292-.843-.862-1.266-2.05-1.266-3.564 0-1.487.429-2.668 1.287-3.543.857-.875 1.947-1.312 3.273-1.312 1.923 0 3.3.759 4.13 2.275l-2.108 1.059z"/><g stroke-width=".994"><path d="M54.872 13.724a.75.75 0 00-.75-.75H49.38a.75.75 0 00-.749.75v4.743h1.324v5.616h3.594v-5.616h1.324z"/><circle cx="51.751" cy="10.729" r="1.622"/><path d="M51.735 5c-3.21 0-5.93 1.12-8.156 3.363-2.283 2.318-3.425 5.063-3.425 8.232s1.142 5.894 3.425 8.175c2.284 2.28 5.004 3.42 8.156 3.42 3.193 0 5.962-1.15 8.303-3.45 2.206-2.183 3.308-4.898 3.308-8.145s-1.122-5.992-3.367-8.232C57.735 6.12 54.988 5 51.735 5zm.03 2.087c2.633 0 4.866.928 6.705 2.783 1.858 1.835 2.787 4.078 2.787 6.725 0 2.666-.91 4.88-2.73 6.638-1.914 1.894-4.17 2.84-6.761 2.84-2.594 0-4.83-.936-6.706-2.811-1.877-1.874-2.816-4.096-2.816-6.668 0-2.57.948-4.811 2.845-6.724 1.82-1.855 4.044-2.783 6.677-2.783z" clip-rule="evenodd" fill-rule="evenodd"/></g><path d="M48.79 30.378c.316 0 .604.029.864.084s.483.146.67.274c.185.126.329.295.431.504.102.21.154.47.154.78 0 .333-.076.61-.228.833s-.377.405-.674.547c.41.118.715.323.917.617s.303.649.303 1.063c0 .334-.065.623-.195.867s-.306.444-.526.598c-.22.155-.47.27-.752.344a3.381 3.381 0 01-.87.111h-3.215v-6.622h3.122zm-.186 2.679c.26 0 .473-.062.64-.186.168-.123.252-.323.252-.6a.768.768 0 00-.084-.38.625.625 0 00-.223-.232.945.945 0 00-.32-.115 2.167 2.167 0 00-.377-.032h-1.363v1.545h1.476zm.085 2.81c.143 0 .279-.014.409-.042a1.04 1.04 0 00.344-.139.704.704 0 00.237-.265.913.913 0 00.088-.426c0-.34-.096-.582-.288-.727s-.446-.218-.762-.218h-1.59v1.817zm2.795-5.489h1.633l1.55 2.616 1.543-2.616h1.623l-2.459 4.08V37h-1.46v-2.578zM99.359 35.37c.081.155.187.28.32.376s.288.167.468.213c.178.047.363.07.555.07.129 0 .268-.01.416-.033.148-.021.286-.063.416-.125a.91.91 0 00.325-.255.644.644 0 00.129-.413.58.58 0 00-.172-.435 1.36 1.36 0 00-.448-.279 4.664 4.664 0 00-.63-.195 16.84 16.84 0 01-.714-.185 6.45 6.45 0 01-.723-.227 2.472 2.472 0 01-.63-.349 1.628 1.628 0 01-.448-.532 1.618 1.618 0 01-.172-.775c0-.34.073-.635.218-.886a2 2 0 01.57-.627c.234-.167.5-.29.797-.37a3.4 3.4 0 01.89-.12c.346 0 .677.038.996.116.317.077.6.203.847.375.248.174.444.395.59.664.144.27.217.596.217.98h-1.414a1.173 1.173 0 00-.124-.492.82.82 0 00-.282-.306 1.174 1.174 0 00-.401-.158 2.448 2.448 0 00-.494-.046 1.72 1.72 0 00-.35.037.933.933 0 00-.319.13.802.802 0 00-.235.232.63.63 0 00-.093.352c0 .13.025.236.074.315.05.08.147.156.292.223.146.068.346.136.602.204s.592.155 1.005.26c.124.025.295.07.514.135.22.065.437.168.653.31.216.143.403.334.56.571.158.238.237.543.237.914 0 .303-.06.585-.177.845s-.292.484-.524.672a2.48 2.48 0 01-.863.44c-.342.106-.74.159-1.192.159a4.21 4.21 0 01-1.061-.135 2.662 2.662 0 01-.909-.423 2.1 2.1 0 01-.627-.735c-.154-.297-.229-.649-.222-1.057h1.413c0 .222.04.411.12.565zm8.206-4.985l2.477 6.622h-1.512l-.501-1.475h-2.477l-.52 1.475h-1.465l2.504-6.622zm.084 4.06l-.835-2.427h-.02l-.861 2.427zM72.911 30.385l2.767 4.443h.015v-4.443h1.367v6.622h-1.457l-2.756-4.433h-.019v4.433h-1.365v-6.622h1.449zm9.678 1.765a1.492 1.492 0 00-.766-.612 1.505 1.505 0 00-.515-.089c-.328 0-.606.063-.835.19a1.56 1.56 0 00-.556.51 2.232 2.232 0 00-.312.727 3.613 3.613 0 000 1.655c.065.263.17.5.312.71.141.21.327.378.556.505s.507.19.835.19c.445 0 .793-.136 1.044-.409.25-.271.403-.63.459-1.076h1.41a3.37 3.37 0 01-.287 1.123 2.596 2.596 0 01-1.503 1.394c-.34.125-.715.187-1.123.187a3.39 3.39 0 01-1.369-.265 2.94 2.94 0 01-1.026-.728 3.232 3.232 0 01-.641-1.09 4.005 4.005 0 01-.223-1.351c0-.495.074-.954.223-1.378.148-.424.363-.794.641-1.11a2.938 2.938 0 011.026-.742c.406-.18.862-.269 1.37-.269.364 0 .709.053 1.033.159.325.104.616.258.873.46.257.2.468.45.635.747s.272.637.316 1.02h-1.41a1.198 1.198 0 00-.167-.458zM103.92 5c-3.212 0-5.932 1.12-8.156 3.363-2.284 2.319-3.426 5.063-3.426 8.233 0 3.169 1.142 5.893 3.426 8.174 2.283 2.28 5.002 3.42 8.156 3.42 3.193 0 5.96-1.15 8.301-3.448 2.206-2.185 3.31-4.9 3.31-8.146 0-3.247-1.122-5.991-3.368-8.233C109.919 6.122 107.171 5 103.92 5zm.029 2.088c2.632 0 4.866.927 6.705 2.783 1.858 1.835 2.786 4.076 2.786 6.725 0 2.666-.909 4.879-2.729 6.639-1.914 1.893-4.17 2.84-6.762 2.84-2.593 0-4.828-.938-6.705-2.812-1.877-1.875-2.815-4.097-2.815-6.667s.947-4.812 2.844-6.725c1.819-1.856 4.044-2.783 6.676-2.783z"/><path d="M98.78 14.96c.461-2.918 2.515-4.478 5.09-4.478 3.7 0 5.957 2.686 5.957 6.268 0 3.495-2.4 6.21-6.016 6.21-2.487 0-4.714-1.53-5.12-4.535h2.922c.087 1.56 1.1 2.109 2.546 2.109 1.648 0 2.718-1.53 2.718-3.87 0-2.456-.925-3.755-2.661-3.755-1.272 0-2.371.462-2.603 2.05l.85-.005-2.3 2.3-2.299-2.3.915.006zM77.827 5c3.251 0 5.999 1.12 8.244 3.362s3.367 4.986 3.367 8.233c0 3.246-1.103 5.961-3.308 8.146-2.343 2.3-5.11 3.45-8.303 3.45-3.154 0-5.873-1.14-8.156-3.42s-3.425-5.007-3.425-8.176c0-3.17 1.142-5.914 3.425-8.233C71.897 6.122 74.615 5 77.827 5zm-8.972 8.48a9.26 9.26 0 00-.519 3.115c0 2.57.938 4.792 2.815 6.667 1.877 1.874 4.112 2.811 6.705 2.811 2.594 0 4.848-.946 6.764-2.84a8.951 8.951 0 001.584-2.028l-4.371-1.947c-.296 1.471-1.608 2.464-3.192 2.58v1.79h-1.332v-1.789c-1.3-.015-2.558-.548-3.52-1.389l1.598-1.61c.77.724 1.538 1.05 2.588 1.05.681 0 1.435-.267 1.435-1.154a.867.867 0 00-.313-.696l-1.106-.493-1.377-.613-1.836-.817zm9.001-6.393c-2.632 0-4.856.927-6.676 2.783a10.7 10.7 0 00-1.291 1.566l4.433 1.973c.4-1.229 1.57-1.975 2.987-2.058V9.563h1.332v1.788c.917.044 1.922.296 2.914 1.063l-1.524 1.566c-.563-.398-1.272-.68-1.982-.68-.577 0-1.39.177-1.39.9 0 .112.037.21.104.295l1.483.66 1.003.448 1.862.83 5.943 2.644c.196-.778.294-1.606.294-2.482 0-2.649-.929-4.89-2.785-6.725-1.84-1.856-4.075-2.783-6.707-2.783z"/></g></svg>