<svg width="75" height="100" version="1.1" viewBox="0 0 75 100" xmlns="http://www.w3.org/2000/svg">
 <rect x="30.998573" y="48.001431" width="13.002856" height="49.997139" rx="2.9999998" ry="3" fill="#cdcdcd" stroke="#481d32" stroke-linecap="round" stroke-linejoin="round" stroke-width="2.0000002"/>
 <ellipse cx="37.5" cy="37.500004" rx="35.501427" ry="35.497124" fill="#fff" stroke="#481d32" stroke-linecap="round" stroke-linejoin="round" stroke-width="2.0000002"/>
 <path d="m62.78498 27.521126-4.619719-4.619718c-0.676056-0.676055-1.352112-0.901408-2.253521-0.901408-0.901408 0-1.690141 0.338028-2.253521 0.901408l-22.197183 22.197184-9.915493-9.915493c-0.676057-0.676057-1.352112-0.901408-2.253521-0.901408-0.901408 0-1.690141 0.338027-2.253521 0.901408l-4.732395 4.619718c-0.676055 0.676057-0.901408 1.352112-0.901408 2.253521 0 0.901408 0.338028 1.690141 0.901408 2.253521l12.169014 12.169015 4.619719 4.619718c0.676056 0.676055 1.352113 0.901408 2.253521 0.901408 0.901409 0 1.690141-0.338028 2.253521-0.901408l4.619718-4.619718 24.450704-24.450705c0.676057-0.676056 0.901409-1.352112 0.901409-2.253522 0.112677-0.788731-0.225352-1.577464-0.788732-2.253521z" fill-opacity=".2"/>
 <path d="m62.78498 25.521126-4.619719-4.619718c-0.676056-0.676055-1.352112-0.901408-2.253521-0.901408-0.901408 0-1.690141 0.338028-2.253521 0.901408l-22.197183 22.197184-9.915493-9.915493c-0.676057-0.676057-1.352112-0.901408-2.253521-0.901408-0.901408 0-1.690141 0.338027-2.253521 0.901408l-4.732395 4.619718c-0.676055 0.676057-0.901408 1.352112-0.901408 2.253521 0 0.901408 0.338028 1.690141 0.901408 2.253521l12.169014 12.169015 4.619719 4.619718c0.676056 0.676055 1.352113 0.901408 2.253521 0.901408 0.901409 0 1.690141-0.338028 2.253521-0.901408l4.619718-4.619718 24.450704-24.450705c0.676057-0.676056 0.901409-1.352112 0.901409-2.253522 0.112677-0.788731-0.225352-1.577464-0.788732-2.253521z" fill="#2ecd71"/>
</svg>
