<svg width="46" height="46" version="1.1" viewBox="0 0 46 46" xmlns="http://www.w3.org/2000/svg">
 <defs>
  <filter id="shadow" x="0" width="1" height="1.5" color-interpolation-filters="sRGB">
   <feFlood flood-opacity=".2"/>
   <feComposite in2="SourceGraphic" operator="in"/>
   <feOffset dx="0" dy="2" result="result1"/>
   <feComposite in="SourceGraphic" in2="result1"/>
  </filter>
 </defs>
 <path id="icon_30_" d="m45 19.6c0.6-0.6 1-1.4 1-2.3s-0.3-1.7-1-2.3l-4.3-4.2c-0.6-0.6-1.4-0.9-2.3-0.9-0.8 0-1.7 0.4-2.2 1l-8.1 8.3-8-8.4c-0.6-0.7-1.5-1-2.4-1.1-0.9 0-1.8 0.3-2.5 1l-4.2 4c-0.6 0.6-1 1.4-1 2.3s0.4 1.7 1 2.3l8.8 8.3-7.8 8c-1.2 1.2-1.2 3.1-0.1 4.4l3 3.3c0.6 0.6 1.4 1 2.2 1s1.7-0.3 2.3-0.9l8.5-8 8.3 7.9c0.6 0.6 1.4 0.9 2.3 0.9s1.7-0.4 2.2-1l3-3.3c1.2-1.2 1.1-3.2 0-4.4l-7.6-7.9z" fill="#e84c3d" filter="url(#shadow)"/>
</svg>
