<svg width="46" height="46" version="1.1" viewBox="0 0 46 46" xmlns="http://www.w3.org/2000/svg">
 <defs>
  <filter id="shadow" x="0" width="1" height="1.5" color-interpolation-filters="sRGB">
   <feFlood flood-opacity=".2"/>
   <feComposite in2="SourceGraphic" operator="in"/>
   <feOffset dx="0" dy="2" result="result1"/>
   <feComposite in="SourceGraphic" in2="result1"/>
  </filter>
 </defs>
 <path d="m25.028577 6.001058c-1.292897 0.01545-2.599326 0.1939203-3.891353 0.5449119-5.237339 1.422774-9.265095 5.4364211-10.899642 10.454885h-4.3922209c-0.7406763 0-1.0763232 0.40911-0.672318 1.091777l5.3862499 9.421702c0.336672 0.682665 1.00989 0.614399 1.346562 0l5.38625-9.421702c0.336669-0.682667 0.06836-1.091777-0.672319-1.091777h-2.157581c1.434404-3.173422 4.200632-5.64212 7.696017-6.591676 5.184407-1.4083921 10.631716 0.881068 13.315363 5.593647 2.683646 4.712579 1.913144 10.638256-1.882105 14.486061-3.795249 3.847806-9.639989 4.628978-14.288201 1.908168a1.9728436 2.0001632 0 1 0 -1.972646 3.462828c6.178131 3.61634 14.005869 2.571355 19.050292-2.542922 5.044424-5.114277 6.075135-13.050413 2.508189-19.314097-2.675209-4.6977641-7.447563-7.5971834-12.573694-7.9627439-0.427177-0.0304635-0.855878-0.0442112-1.286843-0.0390624z" fill="#fff" filter="url(#shadow)"/>
</svg>
