<svg width="46" height="46" version="1.1" viewBox="0 0 46 46" xmlns="http://www.w3.org/2000/svg">
 <defs>
  <filter id="shadow" x="0" width="1" height="1.5" color-interpolation-filters="sRGB">
   <feFlood flood-opacity=".2"/>
   <feComposite in2="SourceGraphic" operator="in"/>
   <feOffset dx="0" dy="2" result="result1"/>
   <feComposite in="SourceGraphic" in2="result1"/>
  </filter>
 </defs>
 <path d="m23 4c-1.662001 0-3 1.3422236-3 3.0094701v12.927398h-9c-1.6619997 0-3 1.342224-3 3.00947v14.044194c0 1.667245 1.3380001 3.00947 3 3.00947h24c1.661999 0 3-1.342225 3-3.00947v-29.981062c0-1.6672465-1.338001-3.0094701-3-3.0094701zm5.923829 5.8837491a2.0002 2.006514 0 0 1 2.029301 2.035703v18.184174a2.0002 2.006514 0 0 1 -2 2.006314h-6.914071v2.615652c0 0.621999-0.34258 0.846998-0.914059 0.564275l-7.888672-4.522042c-0.514324-0.282723-0.571472-0.849745 0-1.13247l7.888672-4.522042c0.571479-0.339268 0.914059-0.05771 0.914059 0.564276v2.419724h4.914071v-16.177861a2.0002 2.006514 0 0 1 1.970699 -2.035703z" fill="#fff" filter="url(#shadow)"/>
</svg>
