<svg enable-background="new 0 0 56 56" version="1.1" viewBox="0 0 56 56" xmlns="http://www.w3.org/2000/svg">
 <defs>
  <filter id="shadow" x="0" width="1" height="1.5" color-interpolation-filters="sRGB">
   <feFlood flood-opacity=".2"/>
   <feComposite in2="SourceGraphic" operator="in"/>
   <feOffset dx="0" dy="2" result="result1"/>
   <feComposite in="SourceGraphic" in2="result1"/>
  </filter>
 </defs>
 <path d="m50.285795 14.15-4.071749-4.1c-0.595866-0.6-1.191732-0.8-1.986219-0.8-0.794488 0-1.489664 0.3-1.986219 0.8l-19.564258 19.7-8.739364-8.8c-0.595866-0.6-1.191732-0.8-1.986219-0.8-0.794488 0-1.489665 0.3-1.9862192 0.8l-4.1710601 4.1c-0.5958657 0.6-0.7944876 1.2-0.7944876 2s0.2979328 1.5 0.7944876 2l10.725583 10.8 4.071749 4.1c0.595865 0.6 1.191731 0.8 1.986219 0.8 0.794487 0 1.489664-0.3 1.986219-0.8l4.071749-4.1 21.550477-21.7c0.595866-0.6 0.794488-1.2 0.794488-2 0.09931-0.7-0.198622-1.4-0.695177-2z" fill="#2ecd71" filter="url(#shadow)"/>
</svg>
