<svg width="75" height="100" version="1.1" viewBox="0 0 75 100" xmlns="http://www.w3.org/2000/svg">
 <defs>
  <filter id="shadow" x="0" width="1" height="1.5" color-interpolation-filters="sRGB">
   <feFlood flood-opacity=".2"/>
   <feComposite in2="SourceGraphic" operator="in"/>
   <feOffset dx="0" dy="2" result="result1"/>
   <feComposite in="SourceGraphic" in2="result1"/>
  </filter>
 </defs>
 <rect x="31" y="48" width="13" height="50" rx="3" ry="3" fill="#cdcdcd" stroke="#481d32" stroke-linecap="round" stroke-linejoin="round" stroke-width="2"/>
 <ellipse cx="37.5" cy="37.5" rx="35.5" ry="35.5" fill="#fff" stroke="#481d32" stroke-linecap="round" stroke-linejoin="round" stroke-width="2"/>
 <path d="m61.11111 26.194447c0.833331-0.833334 1.38889-1.944444 1.38889-3.194445 0-1.25-0.416666-2.361112-1.38889-3.194444l-5.972224-5.833334c-0.833332-0.833332-1.944444-1.25-3.194444-1.25-1.111112 0-2.361111 0.555555-3.055556 1.388889l-11.249999 11.527778-11.11111-11.666667c-0.833333-0.972221-2.083333-1.388888-3.333334-1.527777-1.249999 0-2.499999 0.416666-3.472221 1.388888l-5.833334 5.555556c-0.833332 0.833333-1.388888 1.944444-1.388888 3.194444s0.555556 2.361111 1.388888 3.194445l12.222223 11.527778-10.833333 11.11111c-1.666667 1.666666-1.666667 4.305555-0.138889 6.11111l4.166667 4.583334c0.833333 0.833332 1.944444 1.388888 3.055554 1.388888 1.111113 0 2.361111-0.416667 3.194445-1.249999l11.805555-11.111111 11.527776 10.972222c0.833335 0.833332 1.944444 1.249999 3.194445 1.249999 1.25 0 2.361112-0.555556 3.055555-1.388888l4.166668-4.583333c1.666664-1.666667 1.527771-4.444445 0-6.111112l-10.555557-10.97222z" fill="#e84c3d" filter="url(#shadow)"/>
</svg>
