<svg width="120" height="120" xmlns="http://www.w3.org/2000/svg"><path d="M48 81.657c-8.88 15.562-8.065 28.28-3.248 37.083h4.083c0-12.205 1.068-18.799 1.955-27.73" fill="#bebee6" fill-rule="evenodd"/><path d="M48 81.657c-8.88 15.562-8.605 30.357-3.248 37" fill="none" stroke="#481d32" stroke-linecap="round" stroke-linejoin="round" stroke-width="1.78227945"/><path d="M30.746 103.144c9.745-5.975 14.178-16.949 8.02-39.844L23.49 53.371c-12.268 13.007-4.819 23.507-.764 28.005 7.432 8.246 8.8 12.993 8.02 21.768z" fill="#704241" fill-rule="evenodd"/><path d="M24.742 57.504l-1.35-3.6c-.215-.359-6.964 5.725-6.751 14.582S24.8 82.853 28.882 89.008c-.914-4.574-7.835-11.672-8.46-19.892-.627-8.22 4.266-11.72 4.32-11.612z" fill="#fff" fill-rule="evenodd"/><path d="M23.49 53.371c-12.268 13.007-4.819 23.507-.764 28.005 7.432 8.246 8.8 12.993 8.02 21.768m3.628-2.737c6.181-6.61 10.169-15.103 4.391-37.107" fill="none" stroke="#481d32" stroke-linecap="round" stroke-width="1.78227945"/><path d="M35.027 64.7c-31.986-14.868.086-65.925 35.007-51.682 29.598 4.626 39.786 44.3 16.04 54.992" fill="#704241" fill-rule="evenodd"/><path d="M66.633 12.691c-8.608-.776-24.01 2.491-33.383 13.671.865 1.761 4.034 4.102 8.138 3.549-2.346 1.479-4.57 2.839-11.733.42-5.062 6.856-6.905 14.949-6.424 21.686-3.847-7.689.584-21.851 8.178-29.818C41.181 11.946 57.672 7.53 66.633 12.69z" fill="#fff" fill-rule="evenodd"/><path d="M35.027 64.7c-31.986-14.868.086-65.925 35.007-51.682m16.04 54.992C109.82 57.318 99.64 17.59 70.033 13.018c-1.905-.294-4.91.593-6.074 1.627" fill="none" stroke="#481d32" stroke-linecap="round" stroke-width="1.78227945"/><path d="M50.259 82.941c-3.587 10.375-5.64 20.245-2.139 36.752h23.97c3.5-16.507 1.447-26.377-2.14-36.752z" fill="#bebee6"/><path d="M52.97 91.102c1.744 5.166 3.73 10.297 7.135 15.225 3.43-5.075 5.357-10.15 7.135-15.225" fill="#fff" fill-rule="evenodd" stroke="#481d32" stroke-linecap="round" stroke-linejoin="round" stroke-width="1.78227945"/><path d="M55.56 82.423c-2.572 0-4.657 2.78-4.657 6.21 0 3.431 2.085 6.212 4.658 6.212 2.184-.003 4.074-2.027 4.545-4.87.471 2.842 2.36 4.866 4.543 4.87 2.572 0 4.658-2.781 4.658-6.211s-2.086-6.211-4.658-6.211z" fill="#fff" stroke="#481d32" stroke-linecap="round" stroke-linejoin="round" stroke-width="1.78227945"/><path d="M55.668 84.69c1.283 2.432 1.768 4.978 4.582 7.192 2.88-2.478 3.178-4.956 4.292-7.434" fill="#f4cbaf" fill-rule="evenodd" stroke="#481d32" stroke-linecap="round" stroke-linejoin="round" stroke-width="1.78227945"/><path d="M50.658 85.514l-2.45 10.788 3.432.323-.441 4.482 4.92 5.092m13.433-20.685l2.45 10.788-3.432.323.44 4.483-4.92 5.091M72.103 119.603c1.711-8.07 1.181-14.517 1.23-20.227m-26.431 0c.01 5.805-.518 11.975 1.232 20.227" fill="none" stroke="#481d32" stroke-linecap="round" stroke-linejoin="round" stroke-width="1.78227945"/><g transform="matrix(1.34715 0 0 1.34715 46.91 -479.416)"><ellipse transform="rotate(-14.855)" cx="-114.531" cy="384.119" rx="3.213" ry="3.828" fill="#f4cbaf" stroke="#481d32" stroke-width="1.323"/><ellipse transform="scale(-1 1) rotate(-14.855)" cx="-133.466" cy="379.097" rx="3.213" ry="3.828" fill="#f4cbaf" stroke="#481d32" stroke-width="1.323"/><ellipse cx="9.795" cy="397.193" rx="21.299" ry="23.813" fill="#f4cbaf"/><path d="M9.559 399.235l.472.803" fill="none" stroke="#481d32" stroke-linecap="round" stroke-width="1.323"/><ellipse cx="-6.042" cy="404.394" rx="4.679" ry="4.915" fill="#ff69b4" fill-opacity=".392"/><ellipse cx="25.632" cy="404.394" rx="4.679" ry="4.915" fill="#ff69b4" fill-opacity=".392"/><ellipse cx="9.795" cy="397.193" rx="21.299" ry="23.813" fill="none" stroke="#481d32" stroke-linecap="round" stroke-linejoin="round" stroke-width="1.323"/></g><g><path d="M52.16 22.978c-6.521 6.492-1.544 17.154 4.486 21.355 4.455 1.031 8.55 1.173 13.006 0 5.374.826 10.182.984 14.565-.127-4.725-4.758-3.604-10.516-2.897-16.738-12.79-7.527-20.69-8.194-29.16-4.49z" fill="#704241" fill-rule="evenodd"/><path d="M52.16 22.978c-6.521 6.492-1.544 17.154 4.486 21.355m13.388.064c-2.864-2.27-6.927-11.958-4.123-17.822m18.306 17.63c-4.725-4.757-3.604-10.515-2.897-16.737" fill="none" stroke="#481d32" stroke-linecap="round" stroke-linejoin="round" stroke-width="1.78227945"/></g><g fill="#481d32" fill-rule="evenodd" color="#000" white-space="normal"><path d="M44.43 51.044a.713.713 0 0 0-.715.713c-.014.811.329 1.583.816 2.234.017.023.037.045.055.068a2.262 3.361 0 0 0-1 2.786 2.262 3.361 0 0 0 2.261 3.362 2.262 3.361 0 0 0 2.263-3.362 2.262 3.361 0 0 0-2.112-3.35 2.774 2.774 0 0 1-.326-.357c-.336-.45-.537-1.01-.53-1.358a.713.713 0 0 0-.712-.736zM75.779 51.044a.713.713 0 0 1 .716.713c.014.811-.33 1.583-.816 2.234l-.055.068a2.262 3.361 0 0 1 1 2.786 2.262 3.361 0 0 1-2.262 3.362 2.262 3.361 0 0 1-2.262-3.362 2.262 3.361 0 0 1 2.111-3.35c.114-.107.226-.224.326-.357.337-.45.537-1.01.531-1.358a.713.713 0 0 1 .711-.736z" solid-color="#000000" style="font-feature-settings:normal;font-variant-alternates:normal;font-variant-caps:normal;font-variant-ligatures:normal;font-variant-numeric:normal;font-variant-position:normal;isolation:auto;mix-blend-mode:normal;shape-padding:0;text-decoration-color:#000;text-decoration-line:none;text-decoration-style:solid;text-indent:0;text-orientation:mixed;text-transform:none"/></g><g stroke="#481d32" stroke-linecap="round" stroke-width="1.323"><path d="M70.958 91.528c-.483-1.691-.589-3.041-.195-5.962s3.475-4.469 5.95-2.315c-2.911-4.58.897-5.008 3.285-2.244-3.739-6.301 1.399-3.97 3.017-1.493-2.212-2.682 1.272-12.395 4.164-1.066.523 2.046-.559 4.386-1.465 5.054 0 0-3.319 2.287-5.21 3.378-2.987 1.724-9.546 4.648-9.546 4.648z" fill="#f4cbaf" fill-rule="evenodd" stroke-linejoin="round" stroke-width="1.78227945"/><path d="M80.4 86.883c1.74 4.067 2.246 6.357 3.018 9.965 2.035 9.501-6.094 16.913-10.787 4.753-1.322-3.426-2.503-5.665-3.409-9.677z" fill="#bebee6" fill-rule="evenodd" stroke-width="1.78227945"/><path d="M76.602 88.84l2.818 9.598" fill="none" stroke-width="1.78227945"/></g><g fill="none" stroke="#a0c3d5" stroke-linecap="round" stroke-width="1.058"><path d="M90.842 87.962c4.266 6.645-1.734 9.58-1.928 3.695M94.215 75.168c4.267 6.645-1.734 9.581-1.927 3.695" stroke-width="1.4252847000000002"/></g><path d="M63.304 76.155a3.313 3.318 0 0 0-3.2-2.46 3.313 3.318 0 0 0-3.2 2.46" fill="none" stroke="#481d32" stroke-linecap="round" stroke-linejoin="round" stroke-width="1.782"/><path d="M43.026 39.46c1.224.627 3.278-.062 3.996-1.406" fill="none" stroke="#481d32" stroke-linecap="round" stroke-width="1.782"/></svg>