<svg width="120" height="120" xmlns="http://www.w3.org/2000/svg"><path d="M71.276 86.005L83.87 97.796l4.012-6.358 9.014 4.938s-4.367 8.907-8.705 11.236c-1.783.957-3.858 1.36-5.803.802-4.636-1.33-11.548-8.186-11.548-8.186" fill="#36619e" fill-rule="evenodd" stroke="#481d32" stroke-linecap="round" stroke-linejoin="round" stroke-width="1.729"/><g fill="#36619e" fill-rule="evenodd"><path d="M48.409 84.082c-8.612 15.093-6.746 25.594-5.915 35.966h6.725c0-11.837 1.036-18.233 1.896-26.895"/><path d="M48.409 84.082c-8.612 15.093-6.746 25.515-5.915 35.886" stroke="#481d32" stroke-linecap="round" stroke-linejoin="round" stroke-width="1.72864503"/></g><path d="M49.268 84.762c-1.33 2.992-2.074 11.685-2.074 17.588s.953 14.425 2.074 17.588h21.44c1.12-3.163 2.073-11.684 2.073-17.588s-.744-14.596-2.074-17.588z" fill="#36619e" fill-rule="evenodd"/><path d="M47.194 99.54c0 6.846.953 16.728 2.074 20.397m21.44 0c1.12-3.669 2.073-13.551 2.073-20.398" fill="none" stroke="#481d32" stroke-linecap="round" stroke-linejoin="round" stroke-width="1.72864503"/><path d="M51.345 84.244l8.643 33.188 8.642-33.188" fill="#fff" fill-rule="evenodd"/><path d="M56.61 91.324l2.2 4.598-1.65 7.578 2.828 10.39 2.827-10.39-1.65-7.578 2.2-4.598z" fill="#ff5952" fill-rule="evenodd"/><path d="M63.384 104.07l-2.219-8.148 2.2-4.598H56.61l2.2 4.598-2.219 8.147" fill="#ff5952" fill-rule="evenodd" stroke="#481d32" stroke-linecap="round" stroke-linejoin="round" stroke-width="1.72864503"/><path d="M51.345 84.244l4.889 18.772 3.754 14.416 8.642-33.188" fill="none" stroke="#481d32" stroke-linecap="round" stroke-linejoin="round" stroke-width="1.72864503"/><path fill="#f4cbaf" stroke="#481d32" stroke-linecap="round" stroke-linejoin="round" stroke-width="1.72864503" d="M54.197 84.07H65.78v7.434H54.197z"/><path d="M51.259 84.935l2.42 10.976 6.309-4.442 6.309 4.442 2.42-10.976-8.73 6.419z" fill="#fff" fill-rule="evenodd" stroke="#481d32" stroke-linecap="round" stroke-linejoin="round" stroke-width="1.72864503"/><path d="M35.653 62.86H83.81c14.245-9.27 9.61-30.127.856-40.335-8.482-9.889-27.77-14.064-38.746-5.133-7.611.952-17.318 2.496-23.834 16.5 4.278-.373 8.434-1.96 12.712-4.277-5.215 3.752-17.54 16.347.855 33.245z" fill="#ad8c7a" fill-rule="evenodd"/><path d="M78.31 27.292c3.73 2.144 6.243.688 7.7-2.689 1.222 1.467 2.119 2.934 2.69 4.4-4.165 1.814-7.85 1.995-10.39-1.71zM22.575 33.77l3.545-.855c3.618-9.336 9.32-10.813 13.2-13.934-4.074 1.349-11.449 3.778-16.745 14.79zm11 21.39l-2.689 2.2c-10.637-12.566-1.238-24.824 6.112-27.501-11.25 11.038-8.471 19.748-3.423 25.3z" fill="#fff" fill-opacity=".948" fill-rule="evenodd"/><path d="M88.075 59.147c8.834-10.313 4.316-27.614-3.41-36.622-8.481-9.889-27.769-14.064-38.745-5.133-7.611.952-17.318 2.496-23.834 16.5 4.278-.373 8.434-1.96 12.712-4.277-4.852 3.49-15.859 14.636-2.553 29.78" fill="none" stroke="#481d32" stroke-linecap="round" stroke-linejoin="round" stroke-width="1.72864503"/><g transform="matrix(1.3066 0 0 1.3066 47.19 -462.265)"><ellipse transform="rotate(-14.855)" cx="-114.531" cy="384.119" rx="3.213" ry="3.828" fill="#f4cbaf" stroke="#481d32" stroke-width="1.323"/><ellipse transform="scale(-1 1) rotate(-14.855)" cx="-133.466" cy="379.097" rx="3.213" ry="3.828" fill="#f4cbaf" stroke="#481d32" stroke-width="1.323"/><ellipse cx="9.795" cy="397.193" rx="21.299" ry="23.813" fill="#f4cbaf"/><path d="M9.559 399.235l.472.803" fill="none" stroke="#481d32" stroke-linecap="round" stroke-width="1.323"/><ellipse cx="9.795" cy="397.193" rx="21.299" ry="23.813" fill="none" stroke="#481d32" stroke-linecap="round" stroke-linejoin="round" stroke-width="1.323"/></g><g><path d="M53.222 24.177c1.819 8.106 5.117 15.415 16.075 21.693-.74-2.711-.901-5.037-.26-6.827 3.65 5.41 8.08 7.701 12.014 8.988-.508-2.215-.385-4.555.26-7 1.719 3.29 5.082 6.527 8.296 7.087C86.837 41.9 85.954 37.018 79 30.15c-9.274-9.16-17.107-6.96-25.777-5.973z" fill="#ad8c7a" fill-rule="evenodd"/><path d="M53.222 24.177c1.819 8.106 5.117 15.415 16.075 21.693-.74-2.711-.901-5.037-.26-6.827 3.65 5.41 8.08 7.701 12.014 8.988-.508-2.215-.385-4.555.26-7 1.719 3.29 5.082 6.527 8.296 7.087" fill="none" stroke="#481d32" stroke-linecap="round" stroke-linejoin="round" stroke-width="1.72864503"/></g><g transform="matrix(1.3066 0 0 1.3066 46.308 -611.843)" fill="#481d32"><ellipse cx="2.268" cy="510.613" rx="1.676" ry="2.485"/><ellipse cx="18.672" cy="510.613" rx="1.676" ry="2.485"/></g><path d="M47.412 39.325c.786-1.079 2.865-1.38 4.075-.53" fill="none" stroke="#481d32" stroke-linecap="round" stroke-width="1.729"/><path d="M100.849 98.692c3.865-1.543 3.481-3.228-.043-3.072 6.128.146 4.3-4.399-.568-2.924 6.44-.801 5.755-6.294-.916-2.609 6.642-3.313-.256-5.94-5.98-.621 2.046-2.642 2.229-8.97-3.742-2.74-1.758 1.833-2.425 4.17-2.195 7.803.22 3.493 2.393 4.243 4.496 5.064 2.792 1.09 6.204.194 8.948-.901z" fill="#f4cbaf" fill-rule="evenodd" stroke="#481d32" stroke-linecap="round" stroke-linejoin="round" stroke-width="1.729"/><path d="M63.091 73.048a3.213 3.218 0 0 1-3.103 2.385 3.213 3.218 0 0 1-3.104-2.385" fill="none" stroke="#481d32" stroke-linecap="round" stroke-linejoin="round" stroke-width="1.729"/><path d="M115.869 88.44l-4.095 1.712m.795-10.206l-4.095 3.972m-3.667-9.044l-1.833 4.644" fill="none" stroke="#ff5851" stroke-linecap="round" stroke-linejoin="round" stroke-width="1.729"/></svg>