<svg width="120" height="120" xmlns="http://www.w3.org/2000/svg"><path d="M30.864 103.144c9.746-5.975 14.18-16.949 8.02-39.844l-15.276-9.929c-12.268 13.007-4.818 23.507-.764 28.005 7.432 8.246 8.8 12.993 8.02 21.768z" fill="#704241" fill-rule="evenodd"/><path d="M24.86 57.504l-1.35-3.6c-.215-.359-6.963 5.725-6.75 14.582S24.917 82.853 29 89.008c-.915-4.574-7.835-11.672-8.461-19.892-.626-8.22 4.267-11.72 4.32-11.612z" fill="#fff" fill-rule="evenodd"/><path d="M23.608 53.371c-12.268 13.007-4.818 23.507-.764 28.005 7.432 8.246 8.8 12.993 8.02 21.768m3.628-2.737c6.182-6.61 10.17-15.103 4.392-37.107" fill="none" stroke="#481d32" stroke-linecap="round" stroke-width="1.78227945"/><path d="M35.146 64.7C3.159 49.832 35.23-1.225 70.153 13.018c29.598 4.626 39.786 44.3 16.039 54.992" fill="#704241" fill-rule="evenodd"/><path d="M66.752 12.691c-8.608-.776-24.01 2.491-33.383 13.671.865 1.761 4.034 4.102 8.138 3.549-2.347 1.479-4.571 2.839-11.733.42-5.063 6.856-6.906 14.949-6.424 21.686-3.848-7.689.584-21.851 8.178-29.818C41.299 11.946 57.79 7.53 66.752 12.69z" fill="#fff" fill-rule="evenodd"/><path d="M35.146 64.7C3.159 49.832 35.23-1.225 70.153 13.018M86.192 68.01c23.747-10.692 13.567-50.421-16.04-54.992-1.905-.294-4.91.593-6.074 1.627" fill="none" stroke="#481d32" stroke-linecap="round" stroke-width="1.78227945"/><g fill-rule="evenodd" stroke="#481d32" stroke-linecap="round" stroke-linejoin="round" stroke-width="1.323"><path d="M71.1 83.949c2.685 4.55 5.648 11.25 7.295 16.18l2.999-5.984 6.797 5.983c-3.627 6.592-5.781 12.757-11.393 11.699-4.78-1.372-5.847-12.184-5.847-12.184" fill="#bebee6" stroke-width="1.78227945"/><path d="M94.808 90.498c4.887-4.184.273-6.45-2.493-1.886 4.465-5.14.079-8.95-2.545-1.394 2.862-7.245-4.364-4.458-5.105 3.709-.254-3.498-4.547-8.566-4.842.484-.086 2.664.326 5.213 3.053 7.889 2.62 2.572 5.365 1.53 7.766.544 3.098-1.273 4.98-4.199 6.634-7.546 1.654-3.347.174-4.394-2.468-1.8z" fill="#f4cbaf" stroke-width="1.78227945"/><path d="M49.346 83.949c-2.685 4.55-5.647 11.25-7.294 16.18l-2.999-5.984-6.798 5.983c3.627 6.592 5.782 12.757 11.393 11.699 4.78-1.372 5.848-12.184 5.848-12.184" fill="#bebee6" stroke-width="1.78227945"/><path d="M25.638 90.498c-4.886-4.184-.273-6.45 2.494-1.886-4.465-5.14-.08-8.95 2.545-1.394-2.863-7.245 4.364-4.458 5.104 3.709.255-3.498 4.548-8.566 4.842.484.087 2.664-.326 5.213-3.052 7.889-2.621 2.572-5.366 1.53-7.766.544-3.098-1.273-4.98-4.199-6.635-7.546-1.654-3.347-.173-4.394 2.468-1.8z" fill="#f4cbaf" stroke-width="1.78227945"/></g><path d="M50.377 82.941c-3.586 10.375-5.64 20.245-2.138 36.752h23.969c3.5-16.507 1.448-26.377-2.139-36.752z" fill="#bebee6"/><path d="M53.088 91.102c1.745 5.166 3.73 10.297 7.135 15.225 3.43-5.075 5.358-10.15 7.135-15.225" fill="#fff" fill-rule="evenodd" stroke="#481d32" stroke-linecap="round" stroke-linejoin="round" stroke-width="1.78227945"/><path d="M55.68 82.423c-2.573 0-4.659 2.78-4.659 6.21 0 3.431 2.086 6.212 4.658 6.212 2.185-.003 4.074-2.027 4.546-4.87.47 2.842 2.36 4.866 4.542 4.87 2.573 0 4.658-2.781 4.658-6.211s-2.085-6.211-4.658-6.211z" fill="#fff" stroke="#481d32" stroke-linecap="round" stroke-linejoin="round" stroke-width="1.78227945"/><path d="M55.786 84.69c1.283 2.432 1.769 4.978 4.583 7.192 2.88-2.478 3.178-4.956 4.292-7.434" fill="#f4cbaf" fill-rule="evenodd" stroke="#481d32" stroke-linecap="round" stroke-linejoin="round" stroke-width="1.78227945"/><path d="M50.776 85.514l-2.45 10.788 3.432.323-.44 4.482 4.92 5.092M69.67 85.514l2.45 10.788-3.432.323.441 4.482-4.92 5.092M72.222 119.603c1.711-8.07 1.18-14.517 1.23-20.227m-26.432 0c.012 5.805-.518 11.975 1.232 20.227" fill="none" stroke="#481d32" stroke-linecap="round" stroke-linejoin="round" stroke-width="1.78227945"/><g transform="matrix(1.34715 0 0 1.34715 47.028 -479.416)"><ellipse transform="rotate(-14.855)" cx="-114.531" cy="384.119" rx="3.213" ry="3.828" fill="#f4cbaf" stroke="#481d32" stroke-width="1.323"/><ellipse transform="scale(-1 1) rotate(-14.855)" cx="-133.466" cy="379.097" rx="3.213" ry="3.828" fill="#f4cbaf" stroke="#481d32" stroke-width="1.323"/><ellipse cx="9.795" cy="397.193" rx="21.299" ry="23.813" fill="#f4cbaf"/><path d="M9.559 399.235l.472.803" fill="none" stroke="#481d32" stroke-linecap="round" stroke-width="1.323"/><ellipse cx="-6.042" cy="404.394" rx="4.679" ry="4.915" fill="#ff69b4" fill-opacity=".392"/><ellipse cx="25.632" cy="404.394" rx="4.679" ry="4.915" fill="#ff69b4" fill-opacity=".392"/><ellipse cx="9.795" cy="397.193" rx="21.299" ry="23.813" fill="none" stroke="#481d32" stroke-linecap="round" stroke-linejoin="round" stroke-width="1.323"/></g><g><path d="M52.278 22.978c-6.52 6.492-1.543 17.154 4.486 21.355 4.456 1.031 8.551 1.173 13.007 0 5.374.826 10.182.984 14.564-.127-4.724-4.758-3.603-10.516-2.897-16.738-12.79-7.527-20.69-8.194-29.16-4.49z" fill="#704241" fill-rule="evenodd"/><path d="M52.278 22.978c-6.52 6.492-1.543 17.154 4.486 21.355m13.389.064c-2.865-2.27-6.927-11.958-4.123-17.822m18.305 17.63c-4.724-4.757-3.603-10.515-2.897-16.737" fill="none" stroke="#481d32" stroke-linecap="round" stroke-linejoin="round" stroke-width="1.78227945"/></g><path d="M43.038 38.35c.81 1.111 2.954 1.422 4.201.546" fill="none" stroke="#481d32" stroke-linecap="round" stroke-width="1.782"/><g fill="#481d32" fill-rule="evenodd" color="#000" white-space="normal"><path d="M41.365 53.113a.713.713 0 0 0-.714.711c-.014.812.326 1.585.814 2.236.328.439.73.829 1.202 1.091a4.575 4.575 0 0 0-.387 2.222.891.891 0 1 0 1.78-.118c-.103-1.547.611-2.245 1.485-2.476.874-.231 1.954.075 2.637 1.244a.891.891 0 1 0 1.539-.897c-1.048-1.795-2.984-2.506-4.63-2.07-.59.156-1.135.47-1.587.909-.281-.129-.628-.4-.898-.76-.336-.45-.537-1.006-.531-1.354a.713.713 0 0 0-.71-.738zM79.081 53.113a.713.713 0 0 1 .714.711c.014.812-.326 1.585-.813 2.236-.328.439-.73.829-1.202 1.091.293.638.44 1.39.386 2.222a.891.891 0 1 1-1.779-.118c.102-1.547-.612-2.245-1.486-2.476-.874-.231-1.953.075-2.636 1.244a.891.891 0 1 1-1.54-.897c1.048-1.795 2.984-2.506 4.631-2.07.59.156 1.135.47 1.587.909.28-.129.628-.4.897-.76.337-.45.537-1.006.531-1.354a.713.713 0 0 1 .71-.738z" solid-color="#000000" style="font-feature-settings:normal;font-variant-alternates:normal;font-variant-caps:normal;font-variant-ligatures:normal;font-variant-numeric:normal;font-variant-position:normal;isolation:auto;mix-blend-mode:normal;shape-padding:0;text-decoration-color:#000;text-decoration-line:none;text-decoration-style:solid;text-indent:0;text-orientation:mixed;text-transform:none"/></g><path d="M55.14 69.978h10.18c0 3.194-1.89 6.39-4.81 6.367-2.616-.02-4.983-2.715-4.983-6.138" fill="#fff" fill-rule="evenodd" stroke="#481d32" stroke-linecap="round" stroke-linejoin="round" stroke-width="1.782"/><g fill="none" stroke="#a0c3d5" stroke-linecap="round" stroke-width="1.058"><path d="M103.075 30.529c9.531-3.708 1.754-9.805-2.525-2.47M106.409 36.818c7.209.56 5.868-7.491-.203-2.818" stroke-width="1.4252847000000002"/></g><path d="M82.238 53.008c-3.78 9.39 9.063 7.603 1.954-2.457" fill="#fff" fill-rule="evenodd" stroke="#481d32" stroke-linecap="round" stroke-linejoin="round" stroke-width="1.782"/></svg>