<svg width="120" height="120" xmlns="http://www.w3.org/2000/svg"><g transform="translate(523.632)"><path d="M-475.396 80.987c-8.879 15.561-8.485 14.022-6.098 22.825h6.934c0-12.204 1.068-4.541 1.955-13.472" fill="#bebee6" fill-rule="evenodd"/><path d="M-475.396 80.987c-7.348 8.63-8.395 14.03-6.098 22.743" fill="none" stroke="#481d32" stroke-linecap="round" stroke-linejoin="round" stroke-width="1.78227945"/><path d="M-452.466 85.152l12.985 12.157 4.137-6.556 9.293 5.092s-4.502 9.183-8.975 11.584c-1.838.987-3.978 1.403-5.983.828-4.78-1.371-11.907-8.441-11.907-8.441" fill="#bebee6" fill-rule="evenodd" stroke="#481d32" stroke-linecap="round" stroke-linejoin="round" stroke-width="1.782"/><g stroke="#481d32" stroke-linecap="round" stroke-linejoin="round" stroke-width="1.323"><path d="M-431.935 71.696c1.442-.69 3.013-.055 3.794 2.603.7 2.383.418 5.583.099 7.693a8.707 7.625-6.78 0 1 7.011 6.512 8.707 7.625-6.78 0 1-7.747 8.6 8.707 7.625-6.78 0 1-9.546-6.544 8.707 7.625-6.78 0 1 3.636-7.128c-.147-2.686-.276-8.144.951-10.038.517-.796 1.146-1.384 1.802-1.698z" fill="#f4cbaf" stroke-width="1.78227945"/><path d="M-436.528 88.118c3.852-3.384 7.817 2.225 2.083 3.66m5.348-8.139c-4.126 2.07-2.41 9.03 1.747 3.668-2.432 3.335.583 5.116 2.553 2.542-.491 3.057 2.726 3.135 3.664.463" fill="none" stroke-width="1.78227945"/></g><path d="M-492.75 103.144c9.745-5.975 14.178-16.949 8.019-39.844l-15.276-9.929c-12.268 13.007-4.818 23.507-.764 28.005 7.432 8.246 8.8 12.993 8.02 21.768z" fill="#704241" fill-rule="evenodd"/><path d="M-498.754 57.504l-1.35-3.6c-.216-.359-6.964 5.725-6.752 14.582s8.16 14.367 12.242 20.522c-.915-4.574-7.835-11.672-8.461-19.892-.626-8.22 4.267-11.72 4.32-11.612z" fill="#fff" fill-rule="evenodd"/><path d="M-500.007 53.371c-12.268 13.007-4.818 23.507-.764 28.005 7.432 8.246 8.8 12.993 8.02 21.768m3.628-2.737c6.182-6.61 10.17-15.103 4.392-37.107" fill="none" stroke="#481d32" stroke-linecap="round" stroke-width="1.78227945"/><path d="M-488.47 64.7c-31.986-14.868.086-65.925 35.008-51.682 29.598 4.626 39.786 44.3 16.039 54.992" fill="#704241" fill-rule="evenodd"/><path d="M-456.863 12.691c-8.608-.776-24.01 2.491-33.383 13.671.865 1.761 4.034 4.102 8.138 3.549-2.347 1.479-4.571 2.839-11.733.42-5.063 6.856-6.906 14.949-6.424 21.686-3.848-7.689.584-21.851 8.178-29.818 9.771-10.253 26.263-14.668 35.224-9.508z" fill="#fff" fill-rule="evenodd"/><path d="M-488.47 64.7c-31.986-14.868.086-65.925 35.008-51.682m16.039 54.992c23.747-10.692 13.567-50.421-16.04-54.992-1.905-.294-4.91.593-6.074 1.627" fill="none" stroke="#481d32" stroke-linecap="round" stroke-width="1.78227945"/><path d="M-473.238 82.941c-3.586 10.375-5.64 20.245-2.138 36.752h23.969c3.5-16.507 1.448-26.377-2.139-36.752z" fill="#bebee6"/><path d="M-470.527 91.102c1.745 5.166 3.73 10.297 7.135 15.225 3.43-5.075 5.358-10.15 7.135-15.225" fill="#fff" fill-rule="evenodd" stroke="#481d32" stroke-linecap="round" stroke-linejoin="round" stroke-width="1.78227945"/><path d="M-467.936 82.423c-2.572 0-4.658 2.78-4.657 6.21 0 3.431 2.085 6.212 4.657 6.212 2.185-.003 4.074-2.027 4.546-4.87.47 2.842 2.36 4.866 4.542 4.87 2.573 0 4.658-2.781 4.658-6.211s-2.085-6.211-4.658-6.211z" fill="#fff" stroke="#481d32" stroke-linecap="round" stroke-linejoin="round" stroke-width="1.78227945"/><path d="M-467.829 84.69c1.283 2.432 1.769 4.978 4.583 7.192 2.88-2.478 3.178-4.956 4.292-7.434" fill="#f4cbaf" fill-rule="evenodd" stroke="#481d32" stroke-linecap="round" stroke-linejoin="round" stroke-width="1.78227945"/><path d="M-472.839 85.514l-2.45 10.788 3.432.323-.44 4.482 4.92 5.092m13.432-20.685l2.45 10.788-3.432.323.441 4.483-4.92 5.091M-451.393 119.603c1.711-8.07 1.18-14.517 1.23-20.227m-26.431 0c.01 5.805-.519 11.975 1.231 20.227" fill="none" stroke="#481d32" stroke-linecap="round" stroke-linejoin="round" stroke-width="1.78227945"/><g transform="matrix(1.34715 0 0 1.34715 -476.587 -479.416)"><ellipse transform="rotate(-14.855)" cx="-114.531" cy="384.119" rx="3.213" ry="3.828" fill="#f4cbaf" stroke="#481d32" stroke-width="1.323"/><ellipse transform="scale(-1 1) rotate(-14.855)" cx="-133.466" cy="379.097" rx="3.213" ry="3.828" fill="#f4cbaf" stroke="#481d32" stroke-width="1.323"/><ellipse cx="9.795" cy="397.193" rx="21.299" ry="23.813" fill="#f4cbaf"/><path d="M9.559 399.235l.472.803" fill="none" stroke="#481d32" stroke-linecap="round" stroke-width="1.323"/><ellipse cx="-6.042" cy="404.394" rx="4.679" ry="4.915" fill="#ff69b4" fill-opacity=".392"/><ellipse cx="25.632" cy="404.394" rx="4.679" ry="4.915" fill="#ff69b4" fill-opacity=".392"/><ellipse cx="9.795" cy="397.193" rx="21.299" ry="23.813" fill="none" stroke="#481d32" stroke-linecap="round" stroke-linejoin="round" stroke-width="1.323"/></g><g><path d="M-471.337 22.978c-6.52 6.492-1.543 17.154 4.486 21.355 4.456 1.031 8.551 1.173 13.007 0 5.374.826 10.182.984 14.564-.127-4.724-4.758-3.603-10.516-2.897-16.738-12.79-7.527-20.69-8.194-29.16-4.49z" fill="#704241" fill-rule="evenodd"/><path d="M-471.337 22.978c-6.52 6.492-1.543 17.154 4.486 21.355m13.389.064c-2.864-2.27-6.927-11.958-4.123-17.822m18.305 17.63c-4.724-4.757-3.603-10.515-2.897-16.737" fill="none" stroke="#481d32" stroke-linecap="round" stroke-linejoin="round" stroke-width="1.78227945"/></g><g fill="#481d32" fill-rule="evenodd" color="#000" white-space="normal"><path d="M-479.066 51.044a.713.713 0 0 0-.716.713c-.014.811.33 1.583.816 2.234l.055.068a2.262 3.361 0 0 0-1 2.786 2.262 3.361 0 0 0 2.262 3.362 2.262 3.361 0 0 0 2.262-3.362 2.262 3.361 0 0 0-2.111-3.35 2.774 2.774 0 0 1-.326-.357c-.337-.45-.537-1.01-.531-1.358a.713.713 0 0 0-.711-.736zM-447.717 51.044a.713.713 0 0 1 .715.713c.014.811-.329 1.583-.816 2.234-.017.023-.037.045-.055.068a2.262 3.361 0 0 1 1 2.786 2.262 3.361 0 0 1-2.261 3.362 2.262 3.361 0 0 1-2.263-3.362 2.262 3.361 0 0 1 2.112-3.35c.114-.107.226-.224.326-.357.336-.45.537-1.01.53-1.358a.713.713 0 0 1 .712-.736z" solid-color="#000000" style="font-feature-settings:normal;font-variant-alternates:normal;font-variant-caps:normal;font-variant-ligatures:normal;font-variant-numeric:normal;font-variant-position:normal;isolation:auto;mix-blend-mode:normal;shape-padding:0;text-decoration-color:#000;text-decoration-line:none;text-decoration-style:solid;text-indent:0;text-orientation:mixed;text-transform:none"/></g><g stroke="#481d32" stroke-linecap="round" stroke-linejoin="round" stroke-width="1.323"><path fill="#f6dbda" d="M-476.634 86.55l-23.953 3.709 4.691 30.292 23.952-3.709z" stroke-width="1.78227945"/><path d="M-480.976 92.993l-13.522 2.094M-480.104 98.63l-13.522 2.093" fill="none" stroke-width="1.78227945"/><path d="M-495.992 112.163c2.755.162 5.263-3.75-.158-3.15 2.776-1.262 5.234-5.282-1.606-3.277 2.008-.68 3.355-8.336-2.332-3.308-1.789 1.582-1.555 3.365-1.827 5.104-.274 1.75.235 4.193.599 6.112.59 3.117 4.847 5.078 6.484 4.645 5.212-1.536.483-2.65-.778-3.241 4.394-.791 3.242-2.793-.382-2.885z" fill="#f4cbaf" fill-rule="evenodd" stroke-width="1.78227945"/></g><path d="M-480.577 39.394c.81-1.112 2.954-1.423 4.201-.547" fill="none" stroke="#481d32" stroke-linecap="round" stroke-width="1.782"/><ellipse cx="-463.392" cy="72.341" rx="2.925" ry="3.826" fill="#fff" stroke="#481d32" stroke-linecap="round" stroke-linejoin="round" stroke-width="1.782"/></g></svg>