<svg width="120" height="120" xmlns="http://www.w3.org/2000/svg"><path d="M48.888 82.253c-9.678 15.078-12.355 31.49-1.28 35.728l2.804.681c.636-12.188-.576-18.05.775-26.923" fill="#bebee6" fill-rule="evenodd"/><path d="M48.888 82.253c-9.678 15.078-13.736 34.013.496 35.917" fill="none" stroke="#481d32" stroke-linecap="round" stroke-linejoin="round" stroke-width="1.78227945"/><path d="M70.607 83.71c6.717 7.526 9.618 6.694 16.648 7.857 0 0 .54 15.988-3.933 18.389-6.946 3.224-14.06-10.71-15.622-12.906" fill="#bebee6" fill-rule="evenodd" stroke="#481d32" stroke-linecap="round" stroke-linejoin="round" stroke-width="1.782"/><path d="M49.4 82.941c-3.586 10.375-5.639 20.245-2.138 36.752h23.97c3.5-16.507 1.447-26.377-2.14-36.752z" fill="#bebee6"/><path d="M52.112 91.102c1.744 5.166 3.73 10.297 7.135 15.225 3.43-5.075 5.357-10.15 7.135-15.225" fill="#fff" fill-rule="evenodd" stroke="#481d32" stroke-linecap="round" stroke-linejoin="round" stroke-width="1.78227945"/><path d="M54.703 82.423c-2.573 0-4.658 2.78-4.658 6.21 0 3.431 2.085 6.212 4.658 6.212 2.184-.003 4.074-2.027 4.545-4.87.471 2.842 2.36 4.866 4.543 4.87 2.572 0 4.658-2.781 4.658-6.211s-2.086-6.211-4.658-6.211z" fill="#fff" stroke="#481d32" stroke-linecap="round" stroke-linejoin="round" stroke-width="1.78227945"/><path d="M54.81 84.69c1.283 2.432 1.768 4.978 4.583 7.192 2.879-2.478 3.178-4.956 4.291-7.434" fill="#f4cbaf" fill-rule="evenodd" stroke="#481d32" stroke-linecap="round" stroke-linejoin="round" stroke-width="1.78227945"/><path d="M49.8 85.514l-2.45 10.788 3.432.323-.441 4.482 4.92 5.092m13.433-20.685l2.45 10.788-3.432.323.44 4.482-4.92 5.092M71.245 119.603c1.712-8.07 1.181-14.517 1.23-20.227m-26.431 0c.011 5.805-.518 11.975 1.232 20.227" fill="none" stroke="#481d32" stroke-linecap="round" stroke-linejoin="round" stroke-width="1.78227945"/><g><path d="M38.522 108.62c7.867-8.293 9.309-20.04-2.566-40.561L18.63 62.42c-8.484 15.74 1.43 23.953 6.51 27.25 9.313 6.04 11.863 10.271 13.38 18.95z" fill="#704241" fill-rule="evenodd"/><path d="M20.91 66.09l-2.236-3.129c-.3-.29-5.244 7.333-2.747 15.833s11.6 11.766 17.136 16.655c-2.067-4.182-10.589-9.247-13.321-17.025-2.732-7.778 1.088-12.425 1.168-12.334z" fill="#fff" fill-rule="evenodd"/><path d="M18.63 62.421c-8.483 15.74 1.43 23.953 6.511 27.25 9.313 6.04 11.863 10.271 13.38 18.95m2.797-3.583c4.26-7.986 5.913-17.22-5.362-36.98" fill="none" stroke="#481d32" stroke-linecap="round" stroke-width="1.78227945"/><path d="M32.707 70.379c-34.744-6.083-16.98-63.702 20.438-58.982C82.932 8.204 103.04 43.89 82.87 60.364" fill="#704241" fill-rule="evenodd"/><path d="M49.775 11.961c-8.515 1.479-22.546 8.62-28.707 21.846 1.292 1.477 4.958 2.918 8.78 1.321-1.884 2.036-3.68 3.925-11.225 3.442-3.115 7.933-2.801 16.228-.592 22.61-5.707-6.43-5.092-21.257.181-30.918 6.785-12.432 21.572-20.966 31.563-18.3z" fill="#fff" fill-rule="evenodd"/><path d="M32.707 70.379c-34.744-6.083-16.98-63.702 20.438-58.982M82.87 60.364c20.17-16.474.055-52.215-29.726-48.967-1.917.209-4.59 1.843-5.446 3.144" fill="none" stroke="#481d32" stroke-linecap="round" stroke-width="1.78227945"/><g transform="scale(1.34715) rotate(-15 -1327.831 102.365)"><ellipse transform="rotate(-14.855)" cx="-114.531" cy="384.119" rx="3.213" ry="3.828" fill="#f4cbaf" stroke="#481d32" stroke-width="1.323"/><ellipse transform="scale(-1 1) rotate(-14.855)" cx="-133.466" cy="379.097" rx="3.213" ry="3.828" fill="#f4cbaf" stroke="#481d32" stroke-width="1.323"/><ellipse cx="9.795" cy="397.193" rx="21.299" ry="23.813" fill="#f4cbaf"/><path d="M9.559 399.235l.472.803" fill="none" stroke="#481d32" stroke-linecap="round" stroke-width="1.323"/><ellipse cx="-6.042" cy="404.394" rx="4.679" ry="4.915" fill="#ff69b4" fill-opacity=".392"/><ellipse cx="25.632" cy="404.394" rx="4.679" ry="4.915" fill="#ff69b4" fill-opacity=".392"/><ellipse cx="9.795" cy="397.193" rx="21.299" ry="23.813" fill="none" stroke="#481d32" stroke-linecap="round" stroke-linejoin="round" stroke-width="1.323"/></g><g><path d="M38.457 25.644c-4.618 7.958 2.95 16.969 9.86 19.466 4.571-.157 8.564-1.08 12.564-3.366 5.405-.593 10.09-1.685 14.035-3.893-5.795-3.372-6.202-9.225-7.13-15.418-14.302-3.96-22.106-2.559-29.329 3.21z" fill="#704241" fill-rule="evenodd"/><path d="M38.457 25.644c-4.618 7.958 2.95 16.969 9.86 19.466m12.95-3.404c-3.355-1.45-9.786-9.758-8.595-16.147M74.916 37.85c-5.795-3.372-6.202-9.225-7.13-15.418" fill="none" stroke="#481d32" stroke-linecap="round" stroke-linejoin="round" stroke-width="1.78227945"/></g><g><path d="M33.781 43.892c.494-1.284 2.485-2.139 3.916-1.616" fill="none" stroke="#481d32" stroke-linecap="round" stroke-width="1.78227945"/><path d="M56.947 75.93a1.3 3.21 75 0 1 2.746-1.732 1.3 3.21 75 0 1 3.244.127" fill="none" stroke="#481d32" stroke-linecap="round" stroke-linejoin="round" stroke-width="1.78227945"/><g fill="#481d32" fill-rule="evenodd" color="#000" white-space="normal"><path d="M38.256 54.754a.713.713 0 0 0-.507.874c.196.787.727 1.443 1.366 1.946l.07.052a3.361 2.262 75 0 0-.244 2.95 3.361 2.262 75 0 0 3.055 2.662 3.361 2.262 75 0 0 1.315-3.833 3.361 2.262 75 0 0-2.907-2.689 2.774 2.774 0 0 1-.407-.261c-.442-.348-.78-.836-.864-1.174a.713.713 0 0 0-.878-.527zM68.536 46.64a.713.713 0 0 1 .876.503c.223.78.092 1.615-.21 2.37l-.035.08a3.361 2.262 75 0 1 1.687 2.432 3.361 2.262 75 0 1-1.315 3.833 3.361 2.262 75 0 1-3.055-2.662 3.361 2.262 75 0 1 1.172-3.782c.083-.133.16-.275.222-.43.209-.522.258-1.114.162-1.449a.713.713 0 0 1 .496-.895z" solid-color="#000000" style="font-feature-settings:normal;font-variant-alternates:normal;font-variant-caps:normal;font-variant-ligatures:normal;font-variant-numeric:normal;font-variant-position:normal;isolation:auto;mix-blend-mode:normal;shape-padding:0;text-decoration-color:#000;text-decoration-line:none;text-decoration-style:solid;text-indent:0;text-orientation:mixed;text-transform:none"/></g></g></g><path d="M76.283 76.93c.448 1.594 1.293 3.005 2.749 4.137-4.357-1.354-8.041 2.266-6.952 5.445 1.369 3.983 3.829 5.503 8.634 5.326 2.417-.09 5.942.008 6.158-1.406.216-1.413-.42-4.083-.654-5.17-.588-2.725-1.883-9.495-5.288-11.578-3.44-2.104-5.31.892-4.647 3.246z" fill="#f4cbaf" stroke="#481d32" stroke-linecap="round" stroke-linejoin="round" stroke-width="1.782"/><path d="M77.674 91.652l.693 9.703" fill="none" stroke="#481d32" stroke-linecap="round" stroke-linejoin="round" stroke-width="1.426"/><g fill="#f44c8a" aria-label="?"><path d="M100.202 27.934q.702-1.709 2.516-3.003 1.821-1.312 4.398-1.6 2.578-.286 5.384.866 2.609 1.072 4.206 2.863 1.606 1.773 2.005 3.872.418 2.105-.38 4.048-.628 1.53-1.73 2.422-1.085.9-2.295 1.39-1.186.481-4.211 1.551-.84.307-1.396.583-.53.266-.857.552-.32.268-.576.583-.23.305-.79 1.106-1.11 1.73-2.91.991-.935-.384-1.331-1.262-.379-.87.116-2.075.621-1.511 1.54-2.416.925-.924 2.038-1.433 1.121-.528 2.907-1.14 1.565-.535 2.276-.831.736-.308 1.336-.797.618-.482.921-1.22.591-1.439-.082-2.871-.655-1.426-2.346-2.12-1.978-.813-3.327-.19-1.342.606-2.788 2.283-1.446 1.781-3.155 1.08-1.008-.414-1.42-1.404-.389-1-.05-1.828zm.681 23.321q-1.097-.45-1.636-1.492-.514-1.052.01-2.33.466-1.132 1.575-1.58 1.109-.45 2.26.023 1.134.466 1.59 1.557.455 1.091-.01 2.225-.517 1.259-1.622 1.646t-2.167-.049z"/></g></svg>