<svg width="120" height="120" xmlns="http://www.w3.org/2000/svg"><path d="M49.164 84.762c-1.33 2.992-2.075 11.685-2.075 17.588s.954 14.425 2.075 17.588h21.439c1.12-3.163 2.074-11.684 2.074-17.588s-.744-14.596-2.074-17.588z" fill="#36619e" fill-rule="evenodd"/><path d="M47.09 99.54c0 6.846.953 16.728 2.074 20.397m21.439 0c1.12-3.669 2.074-13.551 2.074-20.398" fill="none" stroke="#481d32" stroke-linecap="round" stroke-linejoin="round" stroke-width="1.72864503"/><path d="M51.24 84.244l8.643 33.188 8.643-33.188" fill="#fff" fill-rule="evenodd"/><path d="M56.506 91.324l2.2 4.598-1.65 7.578 2.827 10.39 2.828-10.39-1.65-7.578 2.2-4.598z" fill="#ff5952" fill-rule="evenodd"/><path d="M63.28 104.07l-2.22-8.148 2.2-4.598h-6.754l2.2 4.598-2.22 8.147" fill="#ff5952" fill-rule="evenodd" stroke="#481d32" stroke-linecap="round" stroke-linejoin="round" stroke-width="1.72864503"/><path d="M51.24 84.244l4.889 18.772 3.754 14.416 8.643-33.188" fill="none" stroke="#481d32" stroke-linecap="round" stroke-linejoin="round" stroke-width="1.72864503"/><path fill="#f4cbaf" stroke="#481d32" stroke-linecap="round" stroke-linejoin="round" stroke-width="1.72864503" d="M54.093 84.07h11.582v7.434H54.093z"/><path d="M51.154 84.935l2.42 10.976 6.31-4.442 6.308 4.442 2.42-10.976-8.729 6.419z" fill="#fff" fill-rule="evenodd" stroke="#481d32" stroke-linecap="round" stroke-linejoin="round" stroke-width="1.72864503"/><path d="M35.548 62.86h48.157c14.246-9.27 9.61-30.127.856-40.335-8.482-9.889-27.77-14.064-38.746-5.133-7.61.952-17.318 2.496-23.834 16.5 4.278-.373 8.434-1.96 12.712-4.277-5.215 3.752-17.54 16.347.855 33.245z" fill="#ad8c7a" fill-rule="evenodd"/><path d="M78.205 27.292c3.73 2.144 6.244.688 7.7-2.689 1.223 1.467 2.119 2.934 2.69 4.4-4.165 1.814-7.849 1.995-10.39-1.71zM22.47 33.77l3.545-.855c3.618-9.336 9.32-10.813 13.2-13.934-4.074 1.349-11.448 3.778-16.745 14.79zm11 21.39l-2.688 2.2c-10.638-12.566-1.24-24.824 6.11-27.501-11.25 11.038-8.47 19.748-3.421 25.3z" fill="#fff" fill-opacity=".948" fill-rule="evenodd"/><path d="M87.97 59.147c8.834-10.313 4.317-27.614-3.41-36.622-8.48-9.889-27.768-14.064-38.745-5.133-7.61.952-17.318 2.496-23.834 16.5 4.278-.373 8.434-1.96 12.712-4.277-4.852 3.49-15.858 14.636-2.552 29.78" fill="none" stroke="#481d32" stroke-linecap="round" stroke-linejoin="round" stroke-width="1.72864503"/><g transform="matrix(1.3066 0 0 1.3066 47.085 -462.265)"><ellipse transform="rotate(-14.855)" cx="-114.531" cy="384.119" rx="3.213" ry="3.828" fill="#f4cbaf" stroke="#481d32" stroke-width="1.323"/><ellipse transform="scale(-1 1) rotate(-14.855)" cx="-133.466" cy="379.097" rx="3.213" ry="3.828" fill="#f4cbaf" stroke="#481d32" stroke-width="1.323"/><ellipse cx="9.795" cy="397.193" rx="21.299" ry="23.813" fill="#f4cbaf"/><path d="M9.559 399.235l.472.803" fill="none" stroke="#481d32" stroke-linecap="round" stroke-width="1.323"/><ellipse cx="9.795" cy="397.193" rx="21.299" ry="23.813" fill="none" stroke="#481d32" stroke-linecap="round" stroke-linejoin="round" stroke-width="1.323"/></g><g><path d="M53.117 24.177c1.819 8.106 5.117 15.415 16.076 21.693-.74-2.711-.902-5.037-.26-6.827 3.649 5.41 8.08 7.701 12.014 8.988-.508-2.215-.386-4.555.259-7 1.72 3.29 5.083 6.527 8.297 7.087-2.772-6.217-3.654-11.1-10.608-17.968-9.275-9.16-17.108-6.96-25.778-5.973z" fill="#ad8c7a" fill-rule="evenodd"/><path d="M53.117 24.177c1.819 8.106 5.117 15.415 16.076 21.693-.74-2.711-.902-5.037-.26-6.827 3.649 5.41 8.08 7.701 12.014 8.988-.508-2.215-.386-4.555.259-7 1.72 3.29 5.083 6.527 8.297 7.087" fill="none" stroke="#481d32" stroke-linecap="round" stroke-linejoin="round" stroke-width="1.72864503"/></g><g fill-rule="evenodd" stroke="#481d32" stroke-linecap="round" stroke-linejoin="round" stroke-width="1.323"><path d="M70.433 85.375c2.604 4.413 5.478 10.91 7.075 15.694l2.908-5.805 6.593 5.803c-3.517 6.394-5.607 12.374-11.05 11.347-4.636-1.33-5.671-11.817-5.671-11.817" fill="#36619e" stroke-width="1.72864503"/><path d="M93.427 91.727c4.74-4.058.265-6.257-2.418-1.829 4.33-4.986.077-8.68-2.468-1.352 2.776-7.027-4.233-4.324-4.951 3.597-.247-3.392-4.411-8.308-4.697.47-.084 2.583.316 5.055 2.961 7.651 2.542 2.495 5.204 1.484 7.532.528 3.005-1.235 4.83-4.073 6.435-7.32 1.604-3.246.169-4.26-2.394-1.745z" fill="#f4cbaf" stroke-width="1.72864503"/><path d="M49.333 85.375c-2.604 4.413-5.477 10.91-7.075 15.694l-2.908-5.805-6.593 5.803c3.518 6.394 5.607 12.374 11.05 11.347 4.637-1.33 5.672-11.817 5.672-11.817" fill="#36619e" stroke-width="1.72864503"/><path d="M26.339 91.727c-4.74-4.058-.265-6.257 2.419-1.829-4.331-4.986-.077-8.68 2.468-1.352-2.777-7.027 4.232-4.324 4.95 3.597.247-3.392 4.412-8.308 4.697.47.084 2.583-.316 5.055-2.96 7.651-2.543 2.495-5.205 1.484-7.533.528-3.005-1.235-4.83-4.073-6.435-7.32-1.604-3.246-.168-4.26 2.394-1.745z" fill="#f4cbaf" stroke-width="1.72864503"/></g><path d="M66.208 70.984c-.767 3.354-3.361 6.502-6.325 6.502s-5.558-3.148-6.325-6.502z" fill="#fff" stroke="#481d32" stroke-linecap="round" stroke-linejoin="round" stroke-width="1.729"/><g fill="none" stroke="#481d32" stroke-linecap="round" stroke-linejoin="round" stroke-width="1.323"><path d="M46.251 56.59c1.498-4.1 5.405-2.567 5.832-.086M73.515 56.59c-1.498-4.1-5.404-2.567-5.832-.086" stroke-width="1.72864503"/></g><path d="M47.41 39.388c1.188.61 3.18-.06 3.877-1.363" fill="none" stroke="#481d32" stroke-linecap="round" stroke-width="1.729"/><path d="M80.28 53.545c-3.667 9.107 8.79 7.373 1.895-2.384" fill="#fff" fill-rule="evenodd" stroke="#481d32" stroke-linecap="round" stroke-linejoin="round" stroke-width="1.729"/><g fill="none" stroke="#a0c3d5" stroke-linecap="round" stroke-width="1.058"><path d="M97.716 34.274c9.244-3.596 1.7-9.51-2.45-2.396M100.949 40.374c6.992.542 5.691-7.266-.197-2.734" stroke-width="1.3823933800000001"/></g></svg>