<svg width="120" height="120" xmlns="http://www.w3.org/2000/svg"><g transform="translate(1378.423)"><ellipse transform="matrix(-.58548 .81069 .87668 .48108 0 0)" cx="748.459" cy="-1018.269" rx="6.269" ry="3.835" fill="#f4cbaf" stroke="#481d32" stroke-linecap="round" stroke-linejoin="round" stroke-width="1.789"/><path d="M-1322.367 92.646l-12.956 12.187 6.28 4.545-6.088 7.699s-7.21-4.24-9.322-8.856c-.868-1.897-1.565-4.477-.864-6.441 1.672-4.684 14.814-17.192 14.814-17.192M-1308.298 83.804l10.325 17.855 2.098-6.556 6.743 4.87s-1.93 9.405-4.555 11.806c-1.079.986-2.391 1.402-3.695.827-3.107-1.37-7.583-8.662-7.583-8.662" fill="#bebee6" fill-rule="evenodd" stroke="#481d32" stroke-linecap="round" stroke-linejoin="round" stroke-width="1.782"/><path d="M-1328.677 82.941c-3.586 10.375-5.639 20.245-2.138 36.752h23.97c3.5-16.507 1.447-26.377-2.14-36.752z" fill="#bebee6"/><path d="M-1325.966 91.102c1.745 5.166 3.73 10.297 7.135 15.225 3.431-5.075 5.358-10.15 7.135-15.225" fill="#fff" fill-rule="evenodd" stroke="#481d32" stroke-linecap="round" stroke-linejoin="round" stroke-width="1.78227945"/><path d="M-1323.374 82.423c-2.573 0-4.658 2.78-4.658 6.21 0 3.431 2.085 6.212 4.658 6.212 2.184-.003 4.073-2.027 4.545-4.87.471 2.842 2.36 4.866 4.542 4.87 2.573 0 4.658-2.781 4.658-6.211s-2.085-6.211-4.658-6.211z" fill="#fff" stroke="#481d32" stroke-linecap="round" stroke-linejoin="round" stroke-width="1.78227945"/><path d="M-1323.267 84.69c1.282 2.432 1.768 4.978 4.582 7.192 2.88-2.478 3.178-4.956 4.292-7.434" fill="#f4cbaf" fill-rule="evenodd" stroke="#481d32" stroke-linecap="round" stroke-linejoin="round" stroke-width="1.78227945"/><path d="M-1328.278 85.514l-2.45 10.788 3.433.323-.442 4.482 4.92 5.092m13.433-20.685l2.451 10.788-3.433.323.441 4.483-4.92 5.091M-1306.832 119.603c1.711-8.07 1.18-14.517 1.23-20.227m-26.431 0c.01 5.805-.518 11.975 1.232 20.227" fill="none" stroke="#481d32" stroke-linecap="round" stroke-linejoin="round" stroke-width="1.78227945"/><path d="M-1348.19 103.144c9.746-5.975 14.18-16.949 8.02-39.844l-15.276-9.929c-12.268 13.007-4.818 23.507-.763 28.005 7.432 8.246 8.8 12.993 8.02 21.768z" fill="#704241" fill-rule="evenodd"/><path d="M-1354.193 57.504l-1.35-3.6c-.215-.359-6.964 5.725-6.751 14.582s8.159 14.367 12.241 20.522c-.915-4.574-7.835-11.672-8.46-19.892-.627-8.22 4.266-11.72 4.32-11.612z" fill="#fff" fill-rule="evenodd"/><path d="M-1355.446 53.371c-12.268 13.007-4.818 23.507-.763 28.005 7.432 8.246 8.8 12.993 8.02 21.768m3.627-2.737c6.182-6.61 10.17-15.103 4.392-37.107" fill="none" stroke="#481d32" stroke-linecap="round" stroke-width="1.78227945"/><path d="M-1343.908 64.7c-31.987-14.868.085-65.925 35.007-51.682 29.598 4.626 39.786 44.3 16.04 54.992" fill="#704241" fill-rule="evenodd"/><path d="M-1312.302 12.691c-8.608-.776-24.01 2.491-33.383 13.671.865 1.761 4.034 4.102 8.138 3.549-2.346 1.479-4.57 2.839-11.733.42-5.062 6.856-6.905 14.949-6.424 21.686-3.848-7.689.584-21.851 8.178-29.818 9.771-10.253 26.263-14.668 35.224-9.508z" fill="#fff" fill-rule="evenodd"/><path d="M-1343.908 64.7c-31.987-14.868.085-65.925 35.007-51.682m16.04 54.992c23.746-10.692 13.566-50.421-16.04-54.992-1.906-.294-4.91.593-6.075 1.627" fill="none" stroke="#481d32" stroke-linecap="round" stroke-width="1.78227945"/><g transform="matrix(1.34715 0 0 1.34715 -1332.026 -479.416)"><ellipse transform="rotate(-14.855)" cx="-114.531" cy="384.119" rx="3.213" ry="3.828" fill="#f4cbaf" stroke="#481d32" stroke-width="1.323"/><ellipse transform="scale(-1 1) rotate(-14.855)" cx="-133.466" cy="379.097" rx="3.213" ry="3.828" fill="#f4cbaf" stroke="#481d32" stroke-width="1.323"/><ellipse cx="9.795" cy="397.193" rx="21.299" ry="23.813" fill="#f4cbaf"/><path d="M9.559 399.235l.472.803" fill="none" stroke="#481d32" stroke-linecap="round" stroke-width="1.323"/><ellipse cx="-6.042" cy="404.394" rx="4.679" ry="4.915" fill="#ff69b4" fill-opacity=".392"/><ellipse cx="25.632" cy="404.394" rx="4.679" ry="4.915" fill="#ff69b4" fill-opacity=".392"/><ellipse cx="9.795" cy="397.193" rx="21.299" ry="23.813" fill="none" stroke="#481d32" stroke-linecap="round" stroke-linejoin="round" stroke-width="1.323"/></g><g><path d="M-1326.776 22.978c-6.52 6.492-1.543 17.154 4.487 21.355 4.455 1.031 8.55 1.173 13.006 0 5.374.826 10.182.984 14.564-.127-4.724-4.758-3.603-10.516-2.897-16.738-12.79-7.527-20.69-8.194-29.16-4.49z" fill="#704241" fill-rule="evenodd"/><path d="M-1326.776 22.978c-6.52 6.492-1.543 17.154 4.487 21.355m13.388.064c-2.864-2.27-6.927-11.958-4.123-17.822m18.305 17.63c-4.724-4.757-3.603-10.515-2.897-16.737" fill="none" stroke="#481d32" stroke-linecap="round" stroke-linejoin="round" stroke-width="1.78227945"/></g><g fill="#481d32" fill-rule="evenodd" color="#000" white-space="normal"><path d="M-1334.505 51.044a.713.713 0 0 0-.715.713c-.014.811.328 1.583.815 2.234.018.023.038.045.055.068a2.262 3.361 0 0 0-1 2.787 2.262 3.361 0 0 0 2.262 3.361 2.262 3.361 0 0 0 2.262-3.361 2.262 3.361 0 0 0-2.111-3.35 2.774 2.774 0 0 1-.326-.358c-.337-.45-.537-1.01-.531-1.358a.713.713 0 0 0-.71-.736zM-1303.156 51.044a.713.713 0 0 1 .715.713c.014.811-.328 1.583-.815 2.234l-.055.068a2.262 3.361 0 0 1 1 2.787 2.262 3.361 0 0 1-2.262 3.361 2.262 3.361 0 0 1-2.262-3.361 2.262 3.361 0 0 1 2.111-3.35c.114-.107.226-.225.326-.358.337-.45.537-1.01.531-1.358a.713.713 0 0 1 .71-.736z" solid-color="#000000" style="font-feature-settings:normal;font-variant-alternates:normal;font-variant-caps:normal;font-variant-ligatures:normal;font-variant-numeric:normal;font-variant-position:normal;isolation:auto;mix-blend-mode:normal;shape-padding:0;text-decoration-color:#000;text-decoration-line:none;text-decoration-style:solid;text-indent:0;text-orientation:mixed;text-transform:none"/></g><path d="M-1312.31 71.38a6.751 6.7 0 0 1-6.52 4.965 6.751 6.7 0 0 1-6.522-4.966" fill="none" stroke="#481d32" stroke-linecap="round" stroke-linejoin="round" stroke-width="1.782"/><path d="M-1336.016 39.394c.81-1.112 2.954-1.423 4.201-.547" fill="none" stroke="#481d32" stroke-linecap="round" stroke-width="1.782"/><g transform="matrix(-1.34715 0 0 1.34715 -1133.304 -891.692)" stroke="#481d32" stroke-linecap="round" stroke-linejoin="round" stroke-width="1.323"><path fill="#fff" d="M118.751 715.916h2.848v5.697h-2.848z"/><path d="M120.176 686.228a15.556 15.556 0 0 0-15.556 15.556 15.556 15.556 0 0 0 15.556 15.556 15.556 15.556 0 0 0 15.555-15.556 15.556 15.556 0 0 0-15.555-15.556zm0 3.834a11.722 11.722 0 0 1 11.721 11.722 11.722 11.722 0 0 1-11.721 11.722 11.722 11.722 0 0 1-11.722-11.722 11.722 11.722 0 0 1 11.722-11.722z" fill="#fff"/><rect x="117.656" y="720.188" width="5.039" height="19.5" rx=".794" ry=".794" fill="#57a2ff"/><ellipse cx="120.106" cy="731.025" rx="5.848" ry="6.662" fill="#f4cbaf"/><ellipse transform="rotate(-14.833)" cx="-65.431" cy="735.291" rx="2.13" ry="2.634" fill="#f4cbaf"/><path d="M118.303 732.497l2.499-.208m-2.503-2.514l2.507-.055m-2.501-2.737l2.496.237" fill="none"/></g><path d="M-1277.907 80.124s.329-4.99 2.139-4.99c1.81 0 2.138 4.99 2.138 4.99s4.277.544 4.277 2.138c0 1.594-4.277 2.139-4.277 2.139s-.329 4.99-2.138 4.99c-1.81 0-2.139-4.99-2.139-4.99s-4.277-.545-4.277-2.139c0-1.594 4.277-2.138 4.277-2.138zM-1363.217 19.39s.329-4.99 2.139-4.99 2.138 4.99 2.138 4.99 4.277.544 4.277 2.138c0 1.594-4.277 2.139-4.277 2.139s-.329 4.99-2.138 4.99-2.139-4.99-2.139-4.99-4.277-.545-4.277-2.139c0-1.594 4.277-2.138 4.277-2.138z" fill="#ffc800"/></g></svg>