<svg width="120" height="120" xmlns="http://www.w3.org/2000/svg"><path d="M48.613 82.55c-8.879 15.56-6.955 26.388-6.098 37.082h6.933c0-12.205 1.069-18.799 1.956-27.73" fill="#bebee6" fill-rule="evenodd"/><path d="M48.613 82.55c-8.879 15.56-6.955 26.306-6.098 37" fill="none" stroke="#481d32" stroke-linecap="round" stroke-linejoin="round" stroke-width="1.78227945"/><path d="M71.236 84.412L84.22 96.569l4.137-6.556 9.293 5.092s-4.502 9.183-8.975 11.584c-1.838.987-3.977 1.403-5.983.827-4.78-1.37-11.906-8.44-11.906-8.44" fill="#bebee6" fill-rule="evenodd" stroke="#481d32" stroke-linecap="round" stroke-linejoin="round" stroke-width="1.782"/><g stroke="#481d32" stroke-linecap="round" stroke-linejoin="round" stroke-width="1.323"><path d="M99.725 71.917c1.6.004 2.738 1.26 2.287 3.993-.404 2.45-2.049 5.21-3.253 6.972a8.707 7.625 18.97 0 1 3.486 8.91 8.707 7.625 18.97 0 1-10.714 4.381 8.707 7.625 18.97 0 1-5.755-10.041 8.707 7.625 18.97 0 1 6.372-4.84c1.034-2.484 3.289-7.456 5.217-8.628.811-.493 1.633-.75 2.36-.747z" fill="#f4cbaf" stroke-width="1.78227945"/><path d="M88.455 84.713c4.94-1.375 6.073 5.4.286 4.2m8.352-5.006c-4.616.072-6.093 7.086-.02 4.062-3.64 1.947-1.697 4.862 1.195 3.4-1.77 2.54 1.094 4.007 3.1 2.008" fill="none" stroke-width="1.78227945"/></g><path d="M31.165 103.144c9.746-5.975 14.18-16.949 8.02-39.844l-15.276-9.929c-12.268 13.007-4.818 23.507-.763 28.005 7.431 8.246 8.8 12.993 8.02 21.768z" fill="#704241" fill-rule="evenodd"/><path d="M25.162 57.504l-1.35-3.6c-.216-.359-6.964 5.725-6.752 14.582s8.16 14.367 12.242 20.522c-.915-4.574-7.835-11.672-8.461-19.892-.626-8.22 4.267-11.72 4.32-11.612z" fill="#fff" fill-rule="evenodd"/><path d="M23.91 53.371c-12.269 13.007-4.819 23.507-.764 28.005 7.431 8.246 8.8 12.993 8.02 21.768m3.627-2.737c6.182-6.61 10.17-15.103 4.392-37.107" fill="none" stroke="#481d32" stroke-linecap="round" stroke-width="1.78227945"/><path d="M35.447 64.7C3.46 49.832 35.532-1.225 70.454 13.018c29.598 4.626 39.786 44.3 16.04 54.992" fill="#704241" fill-rule="evenodd"/><path d="M67.053 12.691c-8.608-.776-24.01 2.491-33.383 13.671.865 1.761 4.034 4.102 8.138 3.549-2.347 1.479-4.57 2.839-11.733.42-5.062 6.856-6.906 14.949-6.424 21.686-3.848-7.689.584-21.851 8.178-29.818C41.6 11.946 58.092 7.53 67.053 12.69z" fill="#fff" fill-rule="evenodd"/><path d="M35.447 64.7C3.46 49.832 35.532-1.225 70.454 13.018m16.04 54.992c23.746-10.692 13.566-50.421-16.04-54.992-1.906-.294-4.911.593-6.075 1.627" fill="none" stroke="#481d32" stroke-linecap="round" stroke-width="1.78227945"/><path d="M50.678 82.941c-3.586 10.375-5.639 20.245-2.138 36.752h23.97c3.5-16.507 1.447-26.377-2.14-36.752z" fill="#bebee6"/><path d="M53.39 91.102c1.744 5.166 3.73 10.297 7.134 15.225 3.43-5.075 5.358-10.15 7.135-15.225" fill="#fff" fill-rule="evenodd" stroke="#481d32" stroke-linecap="round" stroke-linejoin="round" stroke-width="1.78227945"/><path d="M55.98 82.423c-2.572 0-4.658 2.78-4.657 6.21 0 3.431 2.085 6.212 4.658 6.212 2.184-.003 4.073-2.027 4.545-4.87.471 2.842 2.36 4.866 4.542 4.87 2.573 0 4.658-2.781 4.658-6.211s-2.085-6.211-4.658-6.211z" fill="#fff" stroke="#481d32" stroke-linecap="round" stroke-linejoin="round" stroke-width="1.78227945"/><path d="M56.087 84.69c1.283 2.432 1.769 4.978 4.583 7.192 2.88-2.478 3.178-4.956 4.292-7.434" fill="#f4cbaf" fill-rule="evenodd" stroke="#481d32" stroke-linecap="round" stroke-linejoin="round" stroke-width="1.78227945"/><path d="M51.077 85.514l-2.45 10.788 3.432.323-.44 4.482 4.92 5.092M69.97 85.514l2.45 10.788-3.432.323.441 4.483-4.92 5.091M72.523 119.603c1.711-8.07 1.18-14.517 1.23-20.227m-26.431 0c.01 5.805-.519 11.975 1.231 20.227" fill="none" stroke="#481d32" stroke-linecap="round" stroke-linejoin="round" stroke-width="1.78227945"/><g transform="matrix(1.34715 0 0 1.34715 47.33 -479.416)"><ellipse transform="rotate(-14.855)" cx="-114.531" cy="384.119" rx="3.213" ry="3.828" fill="#f4cbaf" stroke="#481d32" stroke-width="1.323"/><ellipse transform="scale(-1 1) rotate(-14.855)" cx="-133.466" cy="379.097" rx="3.213" ry="3.828" fill="#f4cbaf" stroke="#481d32" stroke-width="1.323"/><ellipse cx="9.795" cy="397.193" rx="21.299" ry="23.813" fill="#f4cbaf"/><path d="M9.559 399.235l.472.803" fill="none" stroke="#481d32" stroke-linecap="round" stroke-width="1.323"/><ellipse cx="-6.042" cy="404.394" rx="4.679" ry="4.915" fill="#ff69b4" fill-opacity=".392"/><ellipse cx="25.632" cy="404.394" rx="4.679" ry="4.915" fill="#ff69b4" fill-opacity=".392"/><ellipse cx="9.795" cy="397.193" rx="21.299" ry="23.813" fill="none" stroke="#481d32" stroke-linecap="round" stroke-linejoin="round" stroke-width="1.323"/></g><g><path d="M52.58 22.978c-6.522 6.492-1.544 17.154 4.486 21.355 4.455 1.031 8.55 1.173 13.006 0 5.374.826 10.182.984 14.564-.127-4.724-4.758-3.603-10.516-2.897-16.738-12.79-7.527-20.69-8.194-29.16-4.49z" fill="#704241" fill-rule="evenodd"/><path d="M52.58 22.978c-6.522 6.492-1.544 17.154 4.486 21.355m13.388.064c-2.864-2.27-6.927-11.958-4.123-17.822m18.305 17.63c-4.724-4.757-3.603-10.515-2.897-16.737" fill="none" stroke="#481d32" stroke-linecap="round" stroke-linejoin="round" stroke-width="1.78227945"/></g><g fill="#481d32" fill-rule="evenodd" color="#000" white-space="normal"><path d="M44.85 51.044a.713.713 0 0 0-.716.713c-.014.811.33 1.583.816 2.234l.055.068a2.262 3.361 0 0 0-1 2.786 2.262 3.361 0 0 0 2.262 3.362 2.262 3.361 0 0 0 2.262-3.362 2.262 3.361 0 0 0-2.111-3.35 2.774 2.774 0 0 1-.326-.357c-.337-.45-.537-1.01-.531-1.358a.713.713 0 0 0-.711-.736zM76.199 51.044a.713.713 0 0 1 .715.713c.014.811-.329 1.583-.816 2.234-.017.023-.037.045-.055.068a2.262 3.361 0 0 1 1 2.786 2.262 3.361 0 0 1-2.261 3.362 2.262 3.361 0 0 1-2.263-3.362 2.262 3.361 0 0 1 2.112-3.35c.114-.107.226-.224.326-.357.336-.45.537-1.01.53-1.358a.713.713 0 0 1 .712-.736z" solid-color="#000000" style="font-feature-settings:normal;font-variant-alternates:normal;font-variant-caps:normal;font-variant-ligatures:normal;font-variant-numeric:normal;font-variant-position:normal;isolation:auto;mix-blend-mode:normal;shape-padding:0;text-decoration-color:#000;text-decoration-line:none;text-decoration-style:solid;text-indent:0;text-orientation:mixed;text-transform:none"/></g><path d="M43.34 39.394c.809-1.112 2.953-1.423 4.2-.547" fill="none" stroke="#481d32" stroke-linecap="round" stroke-width="1.782"/><path d="M55.797 69.628l9.468.172c0 2.66-1.177 6.39-4.097 6.367-2.617-.02-4.27-2.715-4.27-6.139" fill="#fff" fill-rule="evenodd" stroke="#481d32" stroke-linecap="round" stroke-linejoin="round" stroke-width="1.782"/><path d="M114.813 71.783l-4.222 1.765m.82-10.523l-4.222 4.096m-3.78-9.326l-1.89 4.789" fill="none" stroke="#ff5851" stroke-linecap="round" stroke-linejoin="round" stroke-width="1.782"/></svg>