<svg width="120" height="120" xmlns="http://www.w3.org/2000/svg"><path d="M49.915 84.808c-1.684 2.13-13.934-2.572-6.668 3.81l-7.753-1.176c-1.57 3.421-1.836 5.397-2.723 8.383-5.248 17.684 6.013 14.325 16.708.594" fill="#36619e" fill-rule="evenodd"/><path d="M40.399 100.086l3.598-9.8-9.093-3.17s-2.5 6.405-3.18 9.757c-3.355 16.513 6.378 13.336 15.378 2.679" fill="none" stroke="#481d32" stroke-linecap="round" stroke-width="1.72864503"/><g fill-rule="evenodd" stroke="#481d32" stroke-linecap="round" stroke-linejoin="round" stroke-width="1.323"><path d="M69.797 84.345c9 3.864 16.596 8.16 20.951 16.67l-5.762 5.412c-4.163-7.265-11.645-6.71-20.45-7.938z" fill="#36619e" stroke-width="1.72864503"/><path d="M85.13 110.38c1.867.473 1.855-4.342 2.413-2.605.626 1.946.875 4.429 2.44 5.879.573.53 1.585.556 2.088-.14.6-.83-.058-2.754-.685-4.287-.603-1.472 2.178 2.645 3.696 2.814 1.156.129 1.81-.626 1.465-1.84-.364-1.288-1.489-2.402-2.56-3.075-2.035-1.277 1.896.404 2.454.4.912.312 2.063-.202 1.97-1.283.068-1.036-3.004-1.81-3.903-2.003-1.16-.248 3.07.449 2.887-1.39-.119-1.194-1.459-1.296-2.322-1.55-2.298-.675-5.634-.175-7.808 1.237-3.289 2.136-3.792 7.423-2.135 7.843z" fill="#f4cbaf" stroke-width="1.72864503"/></g><path d="M92.84 21.276c3.795 3.457 6.75 2.993 9.507 1.605-2.299 5.202-2.446 9.668 3.704 11.976-3.142 2.927-2.55 4.61-2.716 6.544" fill="none" stroke="#481d32" stroke-linecap="round" stroke-linejoin="round" stroke-width="1.729"/><path d="M49.131 84.762c-1.33 2.992-2.074 11.685-2.074 17.588s.953 14.425 2.074 17.588H70.57c1.121-3.163 2.074-11.684 2.074-17.588S71.9 87.754 70.57 84.762z" fill="#36619e" fill-rule="evenodd"/><path d="M47.057 99.54c0 6.846.953 16.728 2.074 20.397m21.439 0c1.121-3.669 2.074-13.551 2.074-20.398" fill="none" stroke="#481d32" stroke-linecap="round" stroke-linejoin="round" stroke-width="1.72864503"/><path d="M51.208 84.244l8.643 33.188 8.642-33.188" fill="#fff" fill-rule="evenodd"/><path d="M56.473 91.324l2.2 4.598-1.65 7.578 2.828 10.39 2.827-10.39-1.65-7.578 2.2-4.598z" fill="#ff5952" fill-rule="evenodd"/><path d="M63.247 104.07l-2.22-8.148 2.201-4.598h-6.755l2.2 4.598-2.219 8.147" fill="#ff5952" fill-rule="evenodd" stroke="#481d32" stroke-linecap="round" stroke-linejoin="round" stroke-width="1.72864503"/><path d="M51.208 84.244l4.888 18.772 3.755 14.416 8.642-33.188" fill="none" stroke="#481d32" stroke-linecap="round" stroke-linejoin="round" stroke-width="1.72864503"/><path fill="#f4cbaf" stroke="#481d32" stroke-linecap="round" stroke-linejoin="round" stroke-width="1.72864503" d="M54.06 84.07h11.582v7.434H54.06z"/><path d="M51.122 84.935l2.42 10.976 6.309-4.442 6.309 4.442 2.42-10.976-8.73 6.419z" fill="#fff" fill-rule="evenodd" stroke="#481d32" stroke-linecap="round" stroke-linejoin="round" stroke-width="1.72864503"/><g><path d="M35.516 62.86h48.157c14.245-9.27 9.61-30.127.855-40.335-8.481-9.889-27.769-14.064-38.745-5.133-7.611.952-17.318 2.496-23.834 16.5 4.278-.373 8.433-1.96 12.711-4.277-5.215 3.752-17.54 16.347.856 33.245z" fill="#ad8c7a" fill-rule="evenodd"/><path d="M78.173 27.292c3.73 2.144 6.243.688 7.7-2.689 1.222 1.467 2.118 2.934 2.689 4.4-4.164 1.814-7.848 1.995-10.39-1.71zM22.438 33.77l3.544-.855c3.619-9.336 9.32-10.813 13.2-13.934-4.074 1.349-11.448 3.778-16.744 14.79zm11 21.39l-2.689 2.2C20.112 44.794 29.51 32.536 36.86 29.859c-11.25 11.038-8.47 19.748-3.422 25.3z" fill="#fff" fill-opacity=".948" fill-rule="evenodd"/><path d="M87.938 59.147c8.834-10.313 4.316-27.614-3.41-36.622-8.481-9.889-27.769-14.064-38.745-5.133-7.611.952-17.318 2.496-23.834 16.5 4.278-.373 8.433-1.96 12.711-4.277-4.852 3.49-15.858 14.636-2.552 29.78" fill="none" stroke="#481d32" stroke-linecap="round" stroke-linejoin="round" stroke-width="1.72864503"/></g><g transform="matrix(1.3066 0 0 1.3066 47.052 -462.265)"><ellipse transform="rotate(-14.855)" cx="-114.531" cy="384.119" rx="3.213" ry="3.828" fill="#f4cbaf" stroke="#481d32" stroke-width="1.323"/><ellipse transform="scale(-1 1) rotate(-14.855)" cx="-133.466" cy="379.097" rx="3.213" ry="3.828" fill="#f4cbaf" stroke="#481d32" stroke-width="1.323"/><ellipse cx="9.795" cy="397.193" rx="21.299" ry="23.813" fill="#f4cbaf"/><path d="M9.559 399.235l.472.803" fill="none" stroke="#481d32" stroke-linecap="round" stroke-width="1.323"/><path d="M9.795 373.381a21.299 23.812 0 0 0-21.3 23.813 21.299 23.812 0 0 0 .007.205h42.582a21.299 23.812 0 0 0 .01-.205 21.299 23.812 0 0 0-21.3-23.813z" fill="#00f" fill-opacity=".235"/><path d="M-7.007 391.051v-7.465M-.657 391.051v-14.344M2.518 391.051v-16.46M-3.832 391.051v-11.698M5.693 391.051v-16.46" fill="none" stroke="#819da5" stroke-linecap="round" stroke-linejoin="round" stroke-width="1.3229"/><ellipse cx="9.795" cy="397.193" rx="21.299" ry="23.813" fill="none" stroke="#481d32" stroke-linecap="round" stroke-linejoin="round" stroke-width="1.323"/></g><g><path d="M53.085 24.177C54.903 32.283 58.2 39.592 69.16 45.87c-.74-2.711-.901-5.037-.26-6.827 3.65 5.41 8.08 7.701 12.014 8.988-.508-2.215-.385-4.555.26-7 1.719 3.29 5.082 6.527 8.296 7.087-2.771-6.217-3.654-11.1-10.608-17.968-9.275-9.16-17.108-6.96-25.777-5.973z" fill="#ad8c7a" fill-rule="evenodd"/><path d="M53.085 24.177C54.903 32.283 58.2 39.592 69.16 45.87c-.74-2.711-.901-5.037-.26-6.827 3.65 5.41 8.08 7.701 12.014 8.988-.508-2.215-.385-4.555.26-7 1.719 3.29 5.082 6.527 8.296 7.087" fill="none" stroke="#481d32" stroke-linecap="round" stroke-linejoin="round" stroke-width="1.72864503"/></g><path d="M47.231 39.616l4.162 2.538" fill="none" stroke="#481d32" stroke-linecap="round" stroke-width="1.729"/><path d="M53.453 70.511l-2.107 8.219 17.009-.287-2.224-7.932z" fill="#fff" fill-rule="evenodd" stroke="#481d32" stroke-linecap="round" stroke-linejoin="round" stroke-width="1.729"/><g transform="matrix(1.3066 0 0 1.3066 -1108.144 -295.176)" fill="#fff" stroke="#481d32" stroke-linecap="round" stroke-linejoin="round" stroke-width="1.323"><ellipse cx="885.99" cy="269.612" rx="1.795" ry="2.504"/><ellipse transform="scale(-1 1)" cx="-901.838" cy="269.612" rx="1.795" ry="2.504"/></g><path d="M34.103 81.023c1.81-1.112 3.38 3.968 3.397 1.954.02-2.256-.533-4.955.64-6.997.428-.747 1.486-1.106 2.243-.539.906.68.844 2.924.687 4.745-.152 1.75 1.426-3.502 2.97-4.179 1.174-.515 2.11.067 2.146 1.46.04 1.477-.78 3.02-1.688 4.08-1.723 2.014 1.865-1.048 2.455-1.225.858-.63 2.238-.464 2.495.705.413 1.07-2.569 2.894-3.453 3.392-1.14.642 3.087-1.48 3.498.519.266 1.296-1.112 1.843-1.938 2.394-2.199 1.466-5.875 2.033-8.63 1.257-4.164-1.172-6.43-6.58-4.822-7.566z" fill="#f4cbaf" fill-rule="evenodd" stroke="#481d32" stroke-linecap="round" stroke-linejoin="round" stroke-width="1.729"/></svg>