<svg width="120" height="120" xmlns="http://www.w3.org/2000/svg"><path d="M51.936 82.735c-9.386 14.624-11.983 30.543-1.24 34.653l2.719.66c.617-11.82-.559-17.507.751-26.113" fill="#36619e" fill-rule="evenodd"/><path d="M51.936 82.735c-9.386 14.624-13.322 32.99.481 34.836" fill="none" stroke="#481d32" stroke-linecap="round" stroke-linejoin="round" stroke-width="1.72864503"/><path d="M74.843 83.456c6.514 7.3 9.327 6.493 16.146 7.62 0 0 .523 15.508-3.815 17.836-6.736 3.128-13.636-10.386-15.151-12.517" fill="#36619e" fill-rule="evenodd" stroke="#481d32" stroke-linecap="round" stroke-linejoin="round" stroke-width="1.729"/><path d="M52.491 82.654c-1.33 3.17-2.074 12.385-2.074 18.642s.953 15.289 2.074 18.642H73.93c1.121-3.353 2.074-12.385 2.074-18.642s.427-18.4-3.597-19.111z" fill="#36619e" fill-rule="evenodd"/><path d="M50.417 99.54c0 6.846.953 16.728 2.074 20.397m21.439 0c1.121-3.669 2.074-13.551 2.074-20.398" fill="none" stroke="#481d32" stroke-linecap="round" stroke-linejoin="round" stroke-width="1.72864503"/><path d="M54.568 84.244l8.642 33.188 8.643-33.188" fill="#fff" fill-rule="evenodd"/><path d="M59.833 91.324l2.2 4.598-1.65 7.578 2.827 10.39 2.828-10.39-1.65-7.578 2.2-4.598z" fill="#ff5952" fill-rule="evenodd"/><path d="M66.607 104.07l-2.22-8.148 2.2-4.598h-6.754l2.2 4.598-2.22 8.147" fill="#ff5952" fill-rule="evenodd" stroke="#481d32" stroke-linecap="round" stroke-linejoin="round" stroke-width="1.72864503"/><path d="M54.568 84.244l4.888 18.772 3.754 14.416 8.643-33.188" fill="none" stroke="#481d32" stroke-linecap="round" stroke-linejoin="round" stroke-width="1.72864503"/><path fill="#f4cbaf" stroke="#481d32" stroke-linecap="round" stroke-linejoin="round" stroke-width="1.72864503" d="M57.42 84.07h11.582v7.434H57.42z"/><path d="M54.481 84.935l2.42 10.976 6.31-4.442 6.309 4.442 2.42-10.976-8.73 6.419z" fill="#fff" fill-rule="evenodd" stroke="#481d32" stroke-linecap="round" stroke-linejoin="round" stroke-width="1.72864503"/><path d="M81.93 90.468l.673 9.411" fill="none" stroke="#481d32" stroke-linecap="round" stroke-linejoin="round" stroke-width="1.383"/><g fill="#f44c8a" aria-label="?"><path d="M98.25 37.902q.68-1.657 2.44-2.913 1.766-1.272 4.266-1.55 2.5-.279 5.222.839 2.53 1.039 4.08 2.776 1.556 1.72 1.944 3.756.405 2.042-.37 3.926-.608 1.483-1.677 2.35-1.052.872-2.226 1.348-1.15.466-4.084 1.504-.816.297-1.354.565-.514.258-.832.536-.31.26-.558.566-.224.295-.767 1.071-1.076 1.679-2.821.962-.907-.372-1.292-1.224-.367-.844.113-2.013.602-1.465 1.493-2.343.898-.896 1.978-1.39 1.087-.512 2.819-1.106 1.518-.518 2.207-.806.714-.298 1.296-.773.6-.467.894-1.182.573-1.396-.08-2.786-.635-1.382-2.275-2.056-1.92-.788-3.228-.183-1.301.587-2.703 2.213-1.403 1.728-3.06 1.047-.978-.401-1.379-1.361-.376-.97-.047-1.773zm.66 22.62q-1.064-.438-1.587-1.448-.499-1.02.01-2.259.451-1.099 1.527-1.534 1.076-.435 2.193.024 1.099.451 1.541 1.51.442 1.058-.01 2.157-.5 1.221-1.573 1.597-1.071.375-2.1-.048z"/></g><g><path d="M37.125 68.227l46.516-12.464c11.361-12.641 1.486-31.588-9.612-39.182-10.752-7.357-30.464-6.398-38.754 5.07-7.106 2.89-16.083 6.893-18.752 22.107 4.036-1.468 7.64-4.077 11.171-7.422-4.066 4.974-12.71 20.33 9.431 31.89z" fill="#ad8c7a" fill-rule="evenodd"/><path d="M69.123 22.83c4.158 1.106 6.209-.951 6.742-4.59 1.56 1.1 2.806 2.285 3.736 3.554-3.553 2.83-7.064 3.958-10.478 1.037zM16.964 43.514l3.202-1.744c1.08-9.954 6.204-12.857 9.145-16.875-3.587 2.357-10.081 6.612-12.347 18.62zm16.161 17.814l-2.027 2.82c-13.528-9.384-7.622-23.657-1.215-28.145-8.01 13.574-3.071 21.267 3.242 25.325z" fill="#fff" fill-opacity=".948" fill-rule="evenodd"/><path d="M86.8 51.072c5.864-12.247-2.978-27.79-12.771-34.49-10.752-7.358-30.464-6.399-38.754 5.069-7.106 2.89-16.083 6.893-18.752 22.107 4.036-1.468 7.64-4.077 11.171-7.422-3.782 4.628-11.53 18.242 5.243 29.426" fill="none" stroke="#481d32" stroke-linecap="round" stroke-linejoin="round" stroke-width="1.72864503"/><g transform="scale(1.3066) rotate(-15 -1318.261 85.614)"><ellipse transform="rotate(-14.855)" cx="-114.531" cy="384.119" rx="3.213" ry="3.828" fill="#f4cbaf" stroke="#481d32" stroke-width="1.323"/><ellipse transform="scale(-1 1) rotate(-14.855)" cx="-133.466" cy="379.097" rx="3.213" ry="3.828" fill="#f4cbaf" stroke="#481d32" stroke-width="1.323"/><ellipse cx="9.795" cy="397.193" rx="21.299" ry="23.813" fill="#f4cbaf"/><path d="M9.559 399.235l.472.803" fill="none" stroke="#481d32" stroke-linecap="round" stroke-width="1.323"/><ellipse cx="9.795" cy="397.193" rx="21.299" ry="23.813" fill="none" stroke="#481d32" stroke-linecap="round" stroke-linejoin="round" stroke-width="1.323"/></g><path d="M44.084 26.315c3.855 7.36 8.932 13.565 21.142 16.793-1.417-2.427-2.175-4.632-2.018-6.528 4.925 4.282 9.797 5.348 13.93 5.573-1.063-2.008-1.55-4.3-1.56-6.829 2.512 2.734 6.598 4.99 9.848 4.698-4.286-5.287-6.403-9.776-14.897-14.61-11.33-6.447-18.327-2.295-26.445.903z" fill="#ad8c7a" fill-rule="evenodd"/><path d="M44.084 26.315c3.855 7.36 8.932 13.565 21.142 16.793-1.417-2.427-2.175-4.632-2.018-6.528 4.925 4.282 9.797 5.348 13.93 5.573-1.063-2.008-1.55-4.3-1.56-6.829 2.512 2.734 6.598 4.99 9.848 4.698" fill="none" stroke="#481d32" stroke-linecap="round" stroke-linejoin="round" stroke-width="1.72864503"/><path d="M42.185 42.369c.48-1.245 2.41-2.074 3.798-1.567" fill="none" stroke="#481d32" stroke-linecap="round" stroke-width="1.72864503"/><path d="M61.268 75.925a1.26 3.113 75 0 1 2.663-1.681 1.26 3.113 75 0 1 3.146.124" fill="none" stroke="#481d32" stroke-linecap="round" stroke-linejoin="round" stroke-width="1.72864503"/><g fill="#481d32" transform="scale(1.3066) rotate(-15 -1600.696 1334.002)"><ellipse cx="315.076" cy="511.671" rx="1.676" ry="2.485"/><ellipse cx="331.48" cy="511.671" rx="1.676" ry="2.485"/></g></g><path d="M80.581 76.19c.435 1.545 1.254 2.914 2.667 4.012-4.226-1.313-7.8 2.197-6.743 5.281 1.328 3.863 3.713 5.337 8.375 5.165 2.343-.086 5.762.008 5.972-1.363.21-1.37-.407-3.96-.635-5.015-.57-2.643-1.826-9.209-5.129-11.23-3.335-2.04-5.15.866-4.507 3.15z" fill="#f4cbaf" stroke="#481d32" stroke-linecap="round" stroke-linejoin="round" stroke-width="1.729"/></svg>