<svg width="120" height="120" xmlns="http://www.w3.org/2000/svg"><path d="M49.29 84.762c-1.33 2.992-2.073 11.685-2.073 17.588s.953 14.425 2.074 17.588H70.73c1.121-3.163 2.074-11.684 2.074-17.588s-.744-14.596-2.074-17.588z" fill="#36619e" fill-rule="evenodd"/><path d="M47.217 99.54c0 6.846.953 16.728 2.074 20.397m21.439 0c1.121-3.669 2.074-13.551 2.074-20.398" fill="none" stroke="#481d32" stroke-linecap="round" stroke-linejoin="round" stroke-width="1.72864503"/><path d="M51.368 84.244l8.642 33.188 8.643-33.188" fill="#fff" fill-rule="evenodd"/><path d="M56.633 91.324l2.2 4.598-1.65 7.578 2.827 10.39 2.828-10.39-1.65-7.578 2.2-4.598z" fill="#ff5952" fill-rule="evenodd"/><path d="M63.407 104.07l-2.22-8.148 2.2-4.598h-6.754l2.2 4.598-2.22 8.147" fill="#ff5952" fill-rule="evenodd" stroke="#481d32" stroke-linecap="round" stroke-linejoin="round" stroke-width="1.72864503"/><path d="M51.368 84.244l4.888 18.772 3.754 14.416 8.643-33.188" fill="none" stroke="#481d32" stroke-linecap="round" stroke-linejoin="round" stroke-width="1.72864503"/><path fill="#f4cbaf" stroke="#481d32" stroke-linecap="round" stroke-linejoin="round" stroke-width="1.72864503" d="M54.22 84.07h11.582v7.434H54.22z"/><path d="M51.281 84.935l2.42 10.976 6.31-4.442 6.308 4.442 2.42-10.976-8.729 6.419z" fill="#fff" fill-rule="evenodd" stroke="#481d32" stroke-linecap="round" stroke-linejoin="round" stroke-width="1.72864503"/><path d="M22.256 41.777l-11.489 6.356L47.19 99.346l2.351-15.837z" fill="#36619e" fill-rule="evenodd"/><path d="M49.541 83.51L22.256 41.776l-11.489 6.356 36.424 51.213" fill="none" stroke="#481d32" stroke-linecap="round" stroke-linejoin="round" stroke-width="1.72864503"/><path d="M15.079 28.06c-2.54.865 1.315 12.824-.426 7.13-.908-2.968-3.69-6.84-5.319-6.054-1.356.655-1.824 2.996.777 7.573 2.24 5.478-2.491-6.543-5.82-4.374s6.388 11.433 1.711 6.894c-1.012-.982-2.81-2.425-3.692-1.693-1.721 1.427 1.455 6.69 4.738 9.732 6.058 5.615 10.372 1.444 15.3-1.613 4.157-2.579 5.938-6.916 4.463-8.478-1.038-1.1-4.06.539-5.894 2.358-.509-3.997-2.63-12.57-5.838-11.476z" fill="#f4cbaf" fill-rule="evenodd" stroke="#481d32" stroke-linecap="round" stroke-linejoin="round" stroke-width="1.72864503"/><g><path d="M97.744 41.777l11.489 6.356-36.424 51.213-2.35-15.837z" fill="#36619e" fill-rule="evenodd"/><path d="M70.459 83.51l27.285-41.733 11.489 6.356-36.424 51.213" fill="none" stroke="#481d32" stroke-linecap="round" stroke-linejoin="round" stroke-width="1.72864503"/><path d="M104.921 28.06c2.54.865-1.315 12.824.426 7.13.908-2.968 3.69-6.84 5.319-6.054 1.356.655 1.824 2.996-.777 7.573-2.24 5.478 2.491-6.543 5.82-4.374s-6.388 11.433-1.711 6.894c1.012-.982 2.81-2.425 3.692-1.693 1.721 1.427-1.455 6.69-4.738 9.732-6.058 5.615-10.372 1.444-15.3-1.613-4.157-2.579-5.938-6.916-4.463-8.478 1.038-1.1 4.06.539 5.894 2.358.509-3.997 2.63-12.57 5.838-11.476z" fill="#f4cbaf" fill-rule="evenodd" stroke="#481d32" stroke-linecap="round" stroke-linejoin="round" stroke-width="1.72864503"/></g><g><path d="M35.676 62.86h48.157c14.245-9.27 9.61-30.127.855-40.335-8.481-9.889-27.77-14.064-38.745-5.133-7.612.952-17.319 2.496-23.834 16.5 4.277-.373 8.433-1.96 12.711-4.277-5.215 3.752-17.54 16.347.856 33.245z" fill="#ad8c7a" fill-rule="evenodd"/><path d="M78.332 27.292c3.73 2.144 6.244.688 7.7-2.689 1.223 1.467 2.12 2.934 2.69 4.4-4.165 1.814-7.849 1.995-10.39-1.71zM22.597 33.77l3.545-.855c3.618-9.336 9.32-10.813 13.2-13.934-4.074 1.349-11.448 3.778-16.745 14.79zm11 21.39l-2.688 2.2C20.27 44.794 29.67 32.536 37.02 29.859c-11.25 11.038-8.47 19.748-3.422 25.3z" fill="#fff" fill-opacity=".948" fill-rule="evenodd"/><path d="M88.097 59.147c8.834-10.313 4.317-27.614-3.409-36.622-8.481-9.889-27.77-14.064-38.745-5.133-7.612.952-17.319 2.496-23.834 16.5 4.277-.373 8.433-1.96 12.711-4.277-4.852 3.49-15.858 14.636-2.552 29.78" fill="none" stroke="#481d32" stroke-linecap="round" stroke-linejoin="round" stroke-width="1.72864503"/></g><g transform="matrix(1.3066 0 0 1.3066 47.212 -462.265)"><ellipse transform="rotate(-14.855)" cx="-114.531" cy="384.119" rx="3.213" ry="3.828" fill="#f4cbaf" stroke="#481d32" stroke-width="1.323"/><ellipse transform="scale(-1 1) rotate(-14.855)" cx="-133.466" cy="379.097" rx="3.213" ry="3.828" fill="#f4cbaf" stroke="#481d32" stroke-width="1.323"/><ellipse cx="9.795" cy="397.193" rx="21.299" ry="23.813" fill="#f4cbaf"/><path d="M9.559 399.235l.472.803" fill="none" stroke="#481d32" stroke-linecap="round" stroke-width="1.323"/><ellipse cx="9.795" cy="397.193" rx="21.299" ry="23.813" fill="none" stroke="#481d32" stroke-linecap="round" stroke-linejoin="round" stroke-width="1.323"/></g><g><path d="M53.244 24.177c1.82 8.106 5.117 15.415 16.076 21.693-.74-2.711-.902-5.037-.26-6.827 3.65 5.41 8.08 7.701 12.014 8.988-.508-2.215-.385-4.555.259-7 1.72 3.29 5.083 6.527 8.297 7.087-2.771-6.217-3.654-11.1-10.608-17.968-9.275-9.16-17.108-6.96-25.778-5.973z" fill="#ad8c7a" fill-rule="evenodd"/><path d="M53.244 24.177c1.82 8.106 5.117 15.415 16.076 21.693-.74-2.711-.902-5.037-.26-6.827 3.65 5.41 8.08 7.701 12.014 8.988-.508-2.215-.385-4.555.259-7 1.72 3.29 5.083 6.527 8.297 7.087" fill="none" stroke="#481d32" stroke-linecap="round" stroke-linejoin="round" stroke-width="1.72864503"/></g><path d="M47.435 40.016c1.384-1.976 3.167-1.832 4.074-.53" fill="none" stroke="#481d32" stroke-linecap="round" stroke-width="1.729"/><path d="M52.982 71.336c5.078.989 9.899 1.38 14.07.264 0 4.072-1.75 9.783-6.09 9.748-3.887-.032-6.345-4.157-6.345-9.399" fill="#fff" fill-rule="evenodd" stroke="#481d32" stroke-linecap="round" stroke-linejoin="round" stroke-width="1.729"/><g fill="#481d32" fill-rule="evenodd" color="#000" white-space="normal"><path d="M72.64 53.156a.864.864 0 0 0-.538.181l-4.58 3.458a.864.864 0 0 0 .548 1.555l5.357-.174a.864.864 0 1 0-.054-1.728l-2.636.084 2.406-1.814a.864.864 0 0 0-.502-1.562zM47.38 53.156a.864.864 0 0 1 .538.181l4.581 3.458a.864.864 0 0 1-.549 1.555l-5.356-.174a.864.864 0 1 1 .053-1.728l2.637.084-2.407-1.814a.864.864 0 0 1 .503-1.562z" solid-color="#000000" style="font-feature-settings:normal;font-variant-alternates:normal;font-variant-caps:normal;font-variant-ligatures:normal;font-variant-numeric:normal;font-variant-position:normal;isolation:auto;mix-blend-mode:normal;shape-padding:0;text-decoration-color:#000;text-decoration-line:none;text-decoration-style:solid;text-indent:0;text-orientation:mixed;text-transform:none"/></g><path d="M5.813 64.906l8.734 7.682m-9.252-17.88l10.51 11.785m98.382-1.587l-8.734 7.682m9.252-17.88l-10.51 11.785" fill="none" stroke="#ff5851" stroke-linecap="round" stroke-linejoin="round" stroke-width="1.729"/></svg>