<svg width="120" height="120" xmlns="http://www.w3.org/2000/svg"><g fill="#36619e" fill-rule="evenodd"><path d="M50.348 83.307c-8.611 15.093-7.821 27.428-3.149 35.966h3.96c0-11.837 1.036-18.233 1.896-26.895"/><path d="M50.348 83.307C41.737 98.4 42.003 112.75 47.2 119.194" stroke="#481d32" stroke-linecap="round" stroke-linejoin="round" stroke-width="1.72864503"/></g><path d="M50.679 84.762c-1.33 2.992-2.075 11.685-2.075 17.588s.953 14.425 2.075 17.588h21.438c1.122-3.163 2.075-11.684 2.075-17.588s-.745-14.596-2.075-17.588z" fill="#36619e" fill-rule="evenodd"/><path d="M48.604 99.54c0 6.846.953 16.728 2.075 20.397m21.438 0c1.122-3.669 2.075-13.551 2.075-20.398" fill="none" stroke="#481d32" stroke-linecap="round" stroke-linejoin="round" stroke-width="1.72864503"/><path d="M52.755 84.244l8.643 33.188 8.643-33.188" fill="#fff" fill-rule="evenodd"/><path d="M58.02 91.324l2.2 4.598-1.65 7.578 2.828 10.39 2.827-10.39-1.65-7.578 2.2-4.598z" fill="#ff5952" fill-rule="evenodd"/><path d="M64.795 104.07l-2.22-8.148 2.2-4.598h-6.754l2.2 4.598-2.22 8.147" fill="#ff5952" fill-rule="evenodd" stroke="#481d32" stroke-linecap="round" stroke-linejoin="round" stroke-width="1.72864503"/><path d="M52.755 84.244l4.889 18.772 3.754 14.416 8.643-33.188" fill="none" stroke="#481d32" stroke-linecap="round" stroke-linejoin="round" stroke-width="1.72864503"/><path fill="#f4cbaf" stroke="#481d32" stroke-linecap="round" stroke-linejoin="round" stroke-width="1.72864503" d="M55.608 84.07h11.581v7.434H55.608z"/><path d="M52.669 84.935l2.42 10.976 6.309-4.442 6.31 4.442 2.42-10.976-8.73 6.419z" fill="#fff" fill-rule="evenodd" stroke="#481d32" stroke-linecap="round" stroke-linejoin="round" stroke-width="1.72864503"/><path d="M37.063 62.86H85.22c14.246-9.27 9.61-30.127.856-40.335-8.482-9.889-27.77-14.064-38.746-5.133-7.611.952-17.318 2.496-23.834 16.5 4.278-.373 8.434-1.96 12.712-4.277-5.215 3.752-17.54 16.347.855 33.245z" fill="#ad8c7a" fill-rule="evenodd"/><path d="M79.72 27.292c3.73 2.144 6.243.688 7.7-2.689 1.223 1.467 2.119 2.934 2.69 4.4-4.165 1.814-7.849 1.995-10.39-1.71zM23.985 33.77l3.545-.855c3.618-9.336 9.32-10.813 13.2-13.934-4.074 1.349-11.448 3.778-16.745 14.79zm11 21.39l-2.689 2.2c-10.637-12.566-1.238-24.824 6.112-27.501-11.25 11.038-8.47 19.748-3.423 25.3z" fill="#fff" fill-opacity=".948" fill-rule="evenodd"/><path d="M89.485 59.147c8.834-10.313 4.317-27.614-3.41-36.622-8.48-9.889-27.769-14.064-38.745-5.133-7.611.952-17.318 2.496-23.834 16.5 4.278-.373 8.434-1.96 12.712-4.277-4.852 3.49-15.858 14.636-2.552 29.78" fill="none" stroke="#481d32" stroke-linecap="round" stroke-linejoin="round" stroke-width="1.72864503"/><g transform="matrix(1.3066 0 0 1.3066 48.6 -462.265)"><ellipse transform="rotate(-14.855)" cx="-114.531" cy="384.119" rx="3.213" ry="3.828" fill="#f4cbaf" stroke="#481d32" stroke-width="1.323"/><ellipse transform="scale(-1 1) rotate(-14.855)" cx="-133.466" cy="379.097" rx="3.213" ry="3.828" fill="#f4cbaf" stroke="#481d32" stroke-width="1.323"/><ellipse cx="9.795" cy="397.193" rx="21.299" ry="23.813" fill="#f4cbaf"/><path d="M9.559 399.235l.472.803" fill="none" stroke="#481d32" stroke-linecap="round" stroke-width="1.323"/><ellipse cx="9.795" cy="397.193" rx="21.299" ry="23.813" fill="none" stroke="#481d32" stroke-linecap="round" stroke-linejoin="round" stroke-width="1.323"/></g><g><path d="M54.632 24.177c1.819 8.106 5.117 15.415 16.075 21.693-.74-2.711-.901-5.037-.259-6.827 3.649 5.41 8.08 7.701 12.013 8.988-.507-2.215-.385-4.555.26-7 1.72 3.29 5.083 6.527 8.297 7.087-2.772-6.217-3.654-11.1-10.608-17.968-9.275-9.16-17.108-6.96-25.778-5.973z" fill="#ad8c7a" fill-rule="evenodd"/><path d="M54.632 24.177c1.819 8.106 5.117 15.415 16.075 21.693-.74-2.711-.901-5.037-.259-6.827 3.649 5.41 8.08 7.701 12.013 8.988-.507-2.215-.385-4.555.26-7 1.72 3.29 5.083 6.527 8.297 7.087" fill="none" stroke="#481d32" stroke-linecap="round" stroke-linejoin="round" stroke-width="1.72864503"/></g><g transform="matrix(1.3066 0 0 1.3066 47.718 -611.843)" fill="#481d32"><ellipse cx="2.268" cy="510.613" rx="1.676" ry="2.485"/><ellipse cx="18.672" cy="510.613" rx="1.676" ry="2.485"/></g><path d="M48.813 39.285c1.187.609 3.18-.06 3.876-1.363" fill="none" stroke="#481d32" stroke-linecap="round" stroke-width="1.729"/><path d="M64.502 75.422a3.213 3.218 0 0 0-3.104-2.386 3.213 3.218 0 0 0-3.103 2.386" fill="none" stroke="#481d32" stroke-linecap="round" stroke-linejoin="round" stroke-width="1.729"/><g stroke="#481d32" stroke-linecap="round" stroke-width="1.323"><path d="M72.616 92.88c-.469-1.64-.571-2.95-.19-5.782s3.37-4.335 5.771-2.245c-2.823-4.443.871-4.858 3.187-2.177-3.626-6.112 1.357-3.851 2.926-1.448-2.146-2.602 1.233-12.022 4.04-1.034.506 1.985-.543 4.255-1.422 4.902 0 0-3.219 2.218-5.054 3.276-2.897 1.672-9.258 4.509-9.258 4.509z" fill="#f4cbaf" fill-rule="evenodd" stroke-linejoin="round" stroke-width="1.72864503"/><path d="M81.774 88.376c1.687 3.944 2.178 6.165 2.927 9.664 1.974 9.215-5.911 16.404-10.462 4.61-1.282-3.322-2.428-5.494-3.306-9.386z" fill="#36619e" fill-rule="evenodd" stroke-width="1.72864503"/><path d="M78.09 90.273l2.733 9.31" fill="none" stroke-width="1.72864503"/></g><g fill="none" stroke="#a0c3d5" stroke-linecap="round" stroke-width="1.058"><path d="M91.902 89.421c4.138 6.446-1.682 9.293-1.87 3.584M95.173 77.013c4.138 6.445-1.681 9.292-1.87 3.584" stroke-width="1.3823933800000001"/></g></svg>