<svg width="120" height="120" xmlns="http://www.w3.org/2000/svg"><g fill-rule="evenodd" stroke="#481d32" stroke-linecap="round" stroke-linejoin="round" stroke-width="5"><path d="M70.29 84.778c9.28 3.983 16.934 7.79 21.424 16.562l-5.941 5.58c-4.292-7.49-12.006-8.343-21.085-9.61z" fill="#bebee6" stroke-width="1.7821500000000001"/><path d="M85.921 110.996c1.926.488 1.913-4.476 2.489-2.685.644 2.006.901 4.565 2.515 6.06.59.547 1.634.574 2.152-.143.62-.857-.059-2.84-.706-4.42-.621-1.518 2.246 2.726 3.812 2.9 1.191.133 1.864-.645 1.51-1.897-.376-1.328-1.535-2.475-2.64-3.17-2.098-1.316 1.955.417 2.531.412.94.322 2.126-.208 2.03-1.322.071-1.068-3.097-1.867-4.024-2.065-1.196-.256 3.166.462 2.977-1.434-.123-1.23-1.504-1.335-2.394-1.597-2.37-.696-5.808-.18-8.05 1.275-3.391 2.202-3.91 7.653-2.202 8.086z" fill="#f4cbaf" stroke-width="1.7821500000000001"/></g><path d="M30.499 103.144c9.745-5.975 14.178-16.949 8.02-39.844l-15.276-9.929c-12.268 13.007-4.819 23.507-.764 28.005 7.432 8.246 8.8 12.993 8.02 21.768z" fill="#704241" fill-rule="evenodd"/><path d="M24.495 57.504l-1.35-3.6c-.215-.359-6.964 5.725-6.751 14.582s8.159 14.367 12.241 20.522c-.914-4.574-7.835-11.672-8.46-19.892s4.266-11.72 4.32-11.612z" fill="#fff" fill-rule="evenodd"/><path d="M23.243 53.371c-12.268 13.007-4.819 23.507-.764 28.005 7.432 8.246 8.8 12.993 8.02 21.768m3.628-2.737c6.181-6.61 10.169-15.103 4.391-37.107" fill="none" stroke="#481d32" stroke-linecap="round" stroke-width="1.78227945"/><path d="M34.78 64.7c-31.986-14.868.086-65.925 35.007-51.682 29.598 4.626 39.786 44.3 16.04 54.992" fill="#704241" fill-rule="evenodd"/><path d="M66.386 12.691c-8.608-.776-24.01 2.491-33.383 13.671.865 1.761 4.034 4.102 8.138 3.549-2.346 1.479-4.57 2.839-11.733.42-5.062 6.856-6.905 14.949-6.424 21.686-3.847-7.689.584-21.851 8.178-29.818C40.933 11.946 57.425 7.53 66.386 12.69z" fill="#fff" fill-rule="evenodd"/><path d="M34.78 64.7c-31.986-14.868.086-65.925 35.007-51.682m16.04 54.992c23.746-10.692 13.566-50.421-16.04-54.992-1.906-.294-4.91.593-6.074 1.627" fill="none" stroke="#481d32" stroke-linecap="round" stroke-width="1.78227945"/><path d="M51.292 84.126c-1.737 2.197-12.602.058-5.111 6.638l-9.045-3.922c-1.618 3.528-1.894 5.565-2.807 8.644-5.412 18.232 5.486 14.769 16.512.612" fill="#bebee6" fill-rule="evenodd"/><path d="M41.48 99.879l3.71-10.105-8.662-3.267s-2.577 6.603-3.28 10.059c-3.72 18.32 7.233 13.347 17.593-.468" fill="none" stroke="#481d32" stroke-linecap="round" stroke-width="1.7821500000000001"/><path d="M50.011 82.941c-3.586 10.375-5.639 20.245-2.138 36.752h23.97c3.5-16.507 1.447-26.377-2.14-36.752z" fill="#bebee6"/><path d="M52.723 91.102c1.744 5.166 3.73 10.297 7.135 15.225 3.43-5.075 5.357-10.15 7.135-15.225" fill="#fff" fill-rule="evenodd" stroke="#481d32" stroke-linecap="round" stroke-linejoin="round" stroke-width="1.78227945"/><path d="M55.314 82.423c-2.573 0-4.658 2.78-4.658 6.21 0 3.431 2.085 6.212 4.658 6.212 2.184-.003 4.074-2.027 4.545-4.87.471 2.842 2.36 4.866 4.542 4.87 2.573 0 4.659-2.781 4.658-6.211 0-3.43-2.085-6.211-4.658-6.211z" fill="#fff" stroke="#481d32" stroke-linecap="round" stroke-linejoin="round" stroke-width="1.78227945"/><path d="M55.42 84.69c1.284 2.432 1.769 4.978 4.583 7.192 2.88-2.478 3.178-4.956 4.292-7.434" fill="#f4cbaf" fill-rule="evenodd" stroke="#481d32" stroke-linecap="round" stroke-linejoin="round" stroke-width="1.78227945"/><path d="M50.41 85.514l-2.45 10.788 3.433.323-.441 4.482 4.92 5.092m13.433-20.685l2.45 10.788-3.432.323.44 4.483-4.92 5.091M71.856 119.603c1.711-8.07 1.18-15.304 1.23-21.013m-26.431 0c.01 5.804-.518 12.761 1.232 21.013" fill="none" stroke="#481d32" stroke-linecap="round" stroke-linejoin="round" stroke-width="1.78227945"/><g transform="matrix(1.34715 0 0 1.34715 46.662 -479.416)"><ellipse transform="rotate(-14.855)" cx="-114.531" cy="384.119" rx="3.213" ry="3.828" fill="#f4cbaf" stroke="#481d32" stroke-width="1.323"/><ellipse transform="scale(-1 1) rotate(-14.855)" cx="-133.466" cy="379.097" rx="3.213" ry="3.828" fill="#f4cbaf" stroke="#481d32" stroke-width="1.323"/><ellipse cx="9.795" cy="397.193" rx="21.299" ry="23.813" fill="#f4cbaf"/><path d="M9.559 399.235l.472.803" fill="none" stroke="#481d32" stroke-linecap="round" stroke-width="1.323"/><ellipse cx="-6.042" cy="404.394" rx="4.679" ry="4.915" fill="#ff69b4" fill-opacity=".392"/><ellipse cx="25.632" cy="404.394" rx="4.679" ry="4.915" fill="#ff69b4" fill-opacity=".392"/><path d="M9.795 373.38a21.299 23.812 0 0 0-21.3 23.813 21.299 23.812 0 0 0 .007.205h42.582a21.299 23.812 0 0 0 .01-.205 21.299 23.812 0 0 0-21.3-23.812z" fill="#00f" fill-opacity=".235"/><path d="M-7.007 391.051v-7.465M-.657 391.051v-14.344M2.518 391.051v-16.46M-3.832 391.051v-11.698M5.693 391.051v-16.46" fill="none" stroke="#819da5" stroke-linecap="round" stroke-linejoin="round" stroke-width="1.3229"/><ellipse cx="9.795" cy="397.193" rx="21.299" ry="23.813" fill="none" stroke="#481d32" stroke-linecap="round" stroke-linejoin="round" stroke-width="1.323"/></g><g><path d="M51.912 22.978c-6.52 6.492-1.543 17.154 4.487 21.355 4.455 1.031 8.55 1.173 13.006 0 5.374.826 10.182.984 14.565-.127-4.725-4.758-3.604-10.516-2.897-16.738-12.79-7.527-20.691-8.194-29.16-4.49z" fill="#704241" fill-rule="evenodd"/><path d="M51.912 22.978c-6.52 6.492-1.543 17.154 4.487 21.355m13.388.064c-2.864-2.27-6.927-11.958-4.123-17.822m18.306 17.63c-4.725-4.757-3.604-10.515-2.897-16.737" fill="none" stroke="#481d32" stroke-linecap="round" stroke-linejoin="round" stroke-width="1.78227945"/></g><path d="M42.582 38.037l4.291 2.617" fill="none" stroke="#481d32" stroke-linecap="round" stroke-width="1.782"/><path d="M35.367 80.098c1.867-1.146 3.484 4.091 3.502 2.015.02-2.326-.55-5.109.66-7.214.441-.77 1.532-1.141 2.313-.555.934.7.87 3.013.708 4.892-.156 1.803 1.47-3.612 3.062-4.31 1.21-.53 2.175.07 2.213 1.506.04 1.523-.804 3.113-1.74 4.207-1.777 2.076 1.923-1.08 2.53-1.264.885-.648 2.308-.478 2.574.728.425 1.103-2.65 2.983-3.56 3.496-1.177.663 3.182-1.526 3.605.535.275 1.337-1.146 1.901-1.998 2.47-2.266 1.51-6.057 2.095-8.896 1.296-4.294-1.21-6.63-6.785-4.973-7.802z" fill="#f4cbaf" fill-rule="evenodd" stroke="#481d32" stroke-linecap="round" stroke-linejoin="round" stroke-width="1.782"/><path d="M53.262 69.89l-2.173 8.474 17.537-.295-2.293-8.178z" fill="#fff" fill-rule="evenodd" stroke="#481d32" stroke-linecap="round" stroke-linejoin="round" stroke-width="1.782"/><g><g transform="matrix(.35643 0 0 .35643 265.159 -273.894)"><ellipse cx="-614.936" cy="925.726" rx="6.786" ry="9.464" fill="#fff"/><path d="M-624.324 911.295a2 2 0 0 0-2.002 1.994c-.04 2.277.914 4.447 2.281 6.274.236.314.488.62.75.914a14.932 14.932 0 0 0-.928 5.248c0 3.097.879 5.948 2.457 8.15 1.58 2.202 4.014 3.814 6.83 3.814s5.252-1.612 6.83-3.814 2.456-5.053 2.456-8.15-.877-5.947-2.455-8.149-4.015-3.814-6.83-3.814c-2.45 0-4.612 1.22-6.172 2.988-.772-1.178-1.24-2.513-1.225-3.387a2 2 0 0 0-1.992-2.068zm9.388 7.467c.932 0 1.889.505 2.766 1.728.877 1.224 1.52 3.105 1.52 5.235s-.643 4.013-1.52 5.236c-.877 1.223-1.834 1.728-2.766 1.728s-1.89-.505-2.767-1.728c-.877-1.223-1.52-3.107-1.52-5.236s.643-4.011 1.52-5.235c.877-1.223 1.836-1.728 2.767-1.728z" color="#000" fill="#481d32" solid-color="#000000" style="font-feature-settings:normal;font-variant-alternates:normal;font-variant-caps:normal;font-variant-ligatures:normal;font-variant-numeric:normal;font-variant-position:normal;isolation:auto;mix-blend-mode:normal;shape-padding:0;text-decoration-color:#000;text-decoration-line:none;text-decoration-style:solid;text-indent:0;text-orientation:mixed;text-transform:none" white-space="normal"/></g><g transform="matrix(-.35643 0 0 .35643 -145.444 -273.894)"><ellipse cx="-614.936" cy="925.726" rx="6.786" ry="9.464" fill="#fff"/><path d="M-624.324 911.295a2 2 0 0 0-2.002 1.994c-.04 2.277.914 4.447 2.281 6.274.236.314.488.62.75.914a14.932 14.932 0 0 0-.928 5.248c0 3.097.879 5.948 2.457 8.15 1.58 2.202 4.014 3.814 6.83 3.814s5.252-1.612 6.83-3.814 2.456-5.053 2.456-8.15-.877-5.947-2.455-8.149-4.015-3.814-6.83-3.814c-2.45 0-4.612 1.22-6.172 2.988-.772-1.178-1.24-2.513-1.225-3.387a2 2 0 0 0-1.992-2.068zm9.388 7.467c.932 0 1.889.505 2.766 1.728.877 1.224 1.52 3.105 1.52 5.235s-.643 4.013-1.52 5.236c-.877 1.223-1.834 1.728-2.766 1.728s-1.89-.505-2.767-1.728c-.877-1.223-1.52-3.107-1.52-5.236s.643-4.011 1.52-5.235c.877-1.223 1.836-1.728 2.767-1.728z" color="#000" fill="#481d32" solid-color="#000000" style="font-feature-settings:normal;font-variant-alternates:normal;font-variant-caps:normal;font-variant-ligatures:normal;font-variant-numeric:normal;font-variant-position:normal;isolation:auto;mix-blend-mode:normal;shape-padding:0;text-decoration-color:#000;text-decoration-line:none;text-decoration-style:solid;text-indent:0;text-orientation:mixed;text-transform:none" white-space="normal"/></g></g><path d="M93.87 19.128c3.914 3.564 6.96 3.085 9.803 1.654-2.37 5.364-2.522 9.968 3.819 12.348-3.24 3.018-2.63 4.753-2.8 6.747" fill="none" stroke="#481d32" stroke-linecap="round" stroke-linejoin="round" stroke-width="1.782"/></svg>