<svg width="120" height="120" xmlns="http://www.w3.org/2000/svg"><g transform="translate(1244.483)"><ellipse transform="matrix(-.58548 .81069 .87668 .48108 0 0)" cx="683.449" cy="-908.326" rx="6.081" ry="3.72" fill="#f4cbaf" stroke="#481d32" stroke-linecap="round" stroke-linejoin="round" stroke-width="1.735"/><path d="M-1188.177 93.564l-12.566 11.82 6.091 4.408-5.905 7.468s-6.993-4.113-9.041-8.59c-.843-1.84-1.518-4.342-.838-6.247 1.62-4.543 14.368-16.674 14.368-16.674M-1174.532 84.988l10.015 17.317 2.034-6.358 6.54 4.724s-1.87 9.121-4.417 11.45c-1.047.957-2.32 1.36-3.584.802-3.014-1.33-7.355-8.401-7.355-8.401" fill="#36619e" fill-rule="evenodd" stroke="#481d32" stroke-linecap="round" stroke-linejoin="round" stroke-width="1.729"/><path d="M-1194.796 84.762c-1.33 2.992-2.075 11.685-2.075 17.588s.953 14.425 2.075 17.588h21.438c1.122-3.163 2.075-11.684 2.075-17.588s-.745-14.596-2.075-17.588z" fill="#36619e" fill-rule="evenodd"/><path d="M-1196.87 99.54c0 6.846.952 16.728 2.074 20.397m21.438 0c1.122-3.669 2.075-13.551 2.075-20.398" fill="none" stroke="#481d32" stroke-linecap="round" stroke-linejoin="round" stroke-width="1.72864503"/><path d="M-1192.72 84.244l8.643 33.188 8.643-33.188" fill="#fff" fill-rule="evenodd"/><path d="M-1187.454 91.324l2.2 4.598-1.65 7.578 2.827 10.39 2.827-10.39-1.65-7.578 2.2-4.598z" fill="#ff5952" fill-rule="evenodd"/><path d="M-1180.68 104.07l-2.22-8.148 2.2-4.598h-6.754l2.2 4.598-2.22 8.147" fill="#ff5952" fill-rule="evenodd" stroke="#481d32" stroke-linecap="round" stroke-linejoin="round" stroke-width="1.72864503"/><path d="M-1192.72 84.244l4.889 18.772 3.754 14.416 8.643-33.188" fill="none" stroke="#481d32" stroke-linecap="round" stroke-linejoin="round" stroke-width="1.72864503"/><path fill="#f4cbaf" stroke="#481d32" stroke-linecap="round" stroke-linejoin="round" stroke-width="1.72864503" d="M-1189.867 84.07h11.581v7.434h-11.581z"/><path d="M-1192.806 84.935l2.42 10.976 6.309-4.442 6.31 4.442 2.42-10.976-8.73 6.419z" fill="#fff" fill-rule="evenodd" stroke="#481d32" stroke-linecap="round" stroke-linejoin="round" stroke-width="1.72864503"/><path d="M-1208.412 62.86h48.157c14.246-9.27 9.61-30.127.856-40.335-8.482-9.889-27.77-14.064-38.746-5.133-7.611.952-17.318 2.496-23.834 16.5 4.278-.373 8.434-1.96 12.712-4.277-5.215 3.752-17.54 16.347.855 33.245z" fill="#ad8c7a" fill-rule="evenodd"/><path d="M-1165.755 27.292c3.73 2.144 6.243.688 7.7-2.689 1.223 1.467 2.119 2.934 2.69 4.4-4.165 1.814-7.849 1.995-10.39-1.71zm-55.735 6.478l3.545-.855c3.618-9.336 9.32-10.813 13.2-13.934-4.074 1.349-11.448 3.778-16.745 14.79zm11 21.39l-2.689 2.2c-10.637-12.566-1.238-24.824 6.112-27.501-11.25 11.038-8.47 19.748-3.423 25.3z" fill="#fff" fill-opacity=".948" fill-rule="evenodd"/><path d="M-1155.99 59.147c8.834-10.313 4.317-27.614-3.41-36.622-8.48-9.889-27.769-14.064-38.745-5.133-7.611.952-17.318 2.496-23.834 16.5 4.278-.373 8.434-1.96 12.712-4.277-4.852 3.49-15.858 14.636-2.552 29.78" fill="none" stroke="#481d32" stroke-linecap="round" stroke-linejoin="round" stroke-width="1.72864503"/><g transform="matrix(1.3066 0 0 1.3066 -1196.875 -462.265)"><ellipse transform="rotate(-14.855)" cx="-114.531" cy="384.119" rx="3.213" ry="3.828" fill="#f4cbaf" stroke="#481d32" stroke-width="1.323"/><ellipse transform="scale(-1 1) rotate(-14.855)" cx="-133.466" cy="379.097" rx="3.213" ry="3.828" fill="#f4cbaf" stroke="#481d32" stroke-width="1.323"/><ellipse cx="9.795" cy="397.193" rx="21.299" ry="23.813" fill="#f4cbaf"/><path d="M9.559 399.235l.472.803" fill="none" stroke="#481d32" stroke-linecap="round" stroke-width="1.323"/><ellipse cx="9.795" cy="397.193" rx="21.299" ry="23.813" fill="none" stroke="#481d32" stroke-linecap="round" stroke-linejoin="round" stroke-width="1.323"/></g><g><path d="M-1190.843 24.177c1.819 8.106 5.117 15.415 16.075 21.693-.74-2.711-.901-5.037-.259-6.827 3.649 5.41 8.08 7.701 12.013 8.988-.507-2.215-.385-4.555.26-7 1.72 3.29 5.083 6.527 8.297 7.087-2.772-6.217-3.654-11.1-10.608-17.968-9.275-9.16-17.108-6.96-25.778-5.973z" fill="#ad8c7a" fill-rule="evenodd"/><path d="M-1190.843 24.177c1.819 8.106 5.117 15.415 16.075 21.693-.74-2.711-.901-5.037-.259-6.827 3.649 5.41 8.08 7.701 12.013 8.988-.507-2.215-.385-4.555.26-7 1.72 3.29 5.083 6.527 8.297 7.087" fill="none" stroke="#481d32" stroke-linecap="round" stroke-linejoin="round" stroke-width="1.72864503"/></g><path d="M-1177.753 72.43a6.548 6.499 0 0 1-6.324 4.816 6.548 6.499 0 0 1-6.325-4.817" fill="none" stroke="#481d32" stroke-linecap="round" stroke-linejoin="round" stroke-width="1.729"/><g transform="matrix(-1.3066 0 0 1.3066 -1004.804 -861.152)" stroke="#481d32" stroke-linecap="round" stroke-linejoin="round" stroke-width="1.323"><path fill="#fff" d="M118.751 715.916h2.848v5.697h-2.848z"/><path d="M120.176 686.228a15.556 15.556 0 0 0-15.556 15.556 15.556 15.556 0 0 0 15.556 15.556 15.556 15.556 0 0 0 15.555-15.556 15.556 15.556 0 0 0-15.555-15.556zm0 3.834a11.722 11.722 0 0 1 11.721 11.722 11.722 11.722 0 0 1-11.721 11.722 11.722 11.722 0 0 1-11.722-11.722 11.722 11.722 0 0 1 11.722-11.722z" fill="#fff"/><rect x="117.656" y="720.188" width="5.039" height="19.5" rx=".794" ry=".794" fill="#57a2ff"/><ellipse cx="120.106" cy="731.025" rx="5.848" ry="6.662" fill="#f4cbaf"/><ellipse transform="rotate(-14.833)" cx="-65.431" cy="735.291" rx="2.13" ry="2.634" fill="#f4cbaf"/><path d="M118.303 732.497l2.499-.208m-2.503-2.514l2.507-.055m-2.501-2.737l2.496.237" fill="none"/></g><g transform="matrix(1.3066 0 0 1.3066 -1197.757 -611.843)" fill="#481d32"><ellipse cx="2.268" cy="510.613" rx="1.676" ry="2.485"/><ellipse cx="18.672" cy="510.613" rx="1.676" ry="2.485"/></g><path d="M-1196.652 39.325c.785-1.079 2.864-1.38 4.074-.53" fill="none" stroke="#481d32" stroke-linecap="round" stroke-width="1.729"/><path d="M-1143.186 75.28s.32-4.84 2.074-4.84 2.075 4.84 2.075 4.84 4.148.529 4.148 2.075c0 1.546-4.148 2.074-4.148 2.074s-.32 4.84-2.074 4.84-2.075-4.84-2.075-4.84-4.148-.528-4.148-2.074c0-1.546 4.148-2.075 4.148-2.075zM-1225.928 16.374s.319-4.84 2.074-4.84 2.074 4.84 2.074 4.84 4.149.528 4.149 2.074c0 1.546-4.149 2.075-4.149 2.075s-.319 4.84-2.074 4.84-2.074-4.84-2.074-4.84-4.149-.529-4.149-2.075c0-1.546 4.149-2.074 4.149-2.074z" fill="#ffc800"/></g></svg>