<svg width="120" height="120" xmlns="http://www.w3.org/2000/svg"><g transform="translate(414.42)"><path d="M-366.716 81.274c-8.612 15.093-8.23 13.6-5.915 22.138h6.725c0-11.837 1.036-4.405 1.896-13.067" fill="#36619e" fill-rule="evenodd"/><path d="M-366.716 81.274c-7.128 8.37-8.143 13.607-5.915 22.058" fill="none" stroke="#481d32" stroke-linecap="round" stroke-linejoin="round" stroke-width="1.72864503"/><path d="M-343.093 86.005l12.594 11.791 4.013-6.358 9.013 4.938s-4.367 8.907-8.705 11.236c-1.782.957-3.858 1.36-5.803.802-4.636-1.33-11.548-8.186-11.548-8.186" fill="#36619e" fill-rule="evenodd" stroke="#481d32" stroke-linecap="round" stroke-linejoin="round" stroke-width="1.729"/><path d="M-365.1 84.762c-1.33 2.992-2.075 11.685-2.075 17.588s.953 14.425 2.075 17.588h21.438c1.122-3.163 2.075-11.684 2.075-17.588s-.745-14.596-2.075-17.588z" fill="#36619e" fill-rule="evenodd"/><path d="M-367.175 99.54c0 6.846.953 16.728 2.075 20.397m21.438 0c1.122-3.669 2.075-13.551 2.075-20.398" fill="none" stroke="#481d32" stroke-linecap="round" stroke-linejoin="round" stroke-width="1.72864503"/><path d="M-363.024 84.244l8.643 33.188 8.643-33.188" fill="#fff" fill-rule="evenodd"/><path d="M-357.758 91.324l2.2 4.598-1.65 7.578 2.827 10.39 2.827-10.39-1.65-7.578 2.2-4.598z" fill="#ff5952" fill-rule="evenodd"/><path d="M-350.984 104.07l-2.22-8.148 2.2-4.598h-6.754l2.2 4.598-2.22 8.147" fill="#ff5952" fill-rule="evenodd" stroke="#481d32" stroke-linecap="round" stroke-linejoin="round" stroke-width="1.72864503"/><path d="M-363.024 84.244l4.889 18.772 3.754 14.416 8.643-33.188" fill="none" stroke="#481d32" stroke-linecap="round" stroke-linejoin="round" stroke-width="1.72864503"/><path fill="#f4cbaf" stroke="#481d32" stroke-linecap="round" stroke-linejoin="round" stroke-width="1.72864503" d="M-360.171 84.07h11.581v7.434h-11.581z"/><path d="M-363.11 84.935l2.42 10.976 6.309-4.442 6.31 4.442 2.42-10.976-8.73 6.419z" fill="#fff" fill-rule="evenodd" stroke="#481d32" stroke-linecap="round" stroke-linejoin="round" stroke-width="1.72864503"/><g><path d="M-378.716 62.86h48.157c14.246-9.27 9.61-30.127.856-40.335-8.482-9.889-27.77-14.064-38.746-5.133-7.611.952-17.318 2.496-23.834 16.5 4.278-.373 8.434-1.96 12.712-4.277-5.215 3.752-17.54 16.347.855 33.245z" fill="#ad8c7a" fill-rule="evenodd"/><path d="M-336.059 27.292c3.73 2.144 6.243.688 7.7-2.689 1.223 1.467 2.119 2.934 2.69 4.4-4.165 1.814-7.849 1.995-10.39-1.71zm-55.735 6.478l3.545-.855c3.618-9.336 9.32-10.813 13.2-13.934-4.074 1.349-11.448 3.778-16.745 14.79zm11 21.39l-2.689 2.2c-10.637-12.566-1.238-24.824 6.112-27.501-11.25 11.038-8.47 19.748-3.423 25.3z" fill="#fff" fill-opacity=".948" fill-rule="evenodd"/><path d="M-326.294 59.147c8.834-10.313 4.317-27.614-3.41-36.622-8.48-9.889-27.769-14.064-38.745-5.133-7.611.952-17.318 2.496-23.834 16.5 4.278-.373 8.434-1.96 12.712-4.277-4.852 3.49-15.858 14.636-2.552 29.78" fill="none" stroke="#481d32" stroke-linecap="round" stroke-linejoin="round" stroke-width="1.72864503"/></g><g transform="matrix(1.3066 0 0 1.3066 -367.18 -462.265)"><ellipse transform="rotate(-14.855)" cx="-114.531" cy="384.119" rx="3.213" ry="3.828" fill="#f4cbaf" stroke="#481d32" stroke-width="1.323"/><ellipse transform="scale(-1 1) rotate(-14.855)" cx="-133.466" cy="379.097" rx="3.213" ry="3.828" fill="#f4cbaf" stroke="#481d32" stroke-width="1.323"/><ellipse cx="9.795" cy="397.193" rx="21.299" ry="23.813" fill="#f4cbaf"/><path d="M9.559 399.235l.472.803" fill="none" stroke="#481d32" stroke-linecap="round" stroke-width="1.323"/><ellipse cx="9.795" cy="397.193" rx="21.299" ry="23.813" fill="none" stroke="#481d32" stroke-linecap="round" stroke-linejoin="round" stroke-width="1.323"/></g><g><path d="M-361.147 24.177c1.819 8.106 5.117 15.415 16.075 21.693-.74-2.711-.901-5.037-.259-6.827 3.649 5.41 8.079 7.701 12.013 8.988-.507-2.215-.385-4.555.26-7 1.72 3.29 5.082 6.527 8.297 7.087-2.772-6.217-3.654-11.1-10.608-17.968-9.275-9.16-17.108-6.96-25.778-5.973z" fill="#ad8c7a" fill-rule="evenodd"/><path d="M-361.147 24.177c1.819 8.106 5.117 15.415 16.075 21.693-.74-2.711-.901-5.037-.259-6.827 3.649 5.41 8.079 7.701 12.013 8.988-.507-2.215-.385-4.555.26-7 1.72 3.29 5.082 6.527 8.297 7.087" fill="none" stroke="#481d32" stroke-linecap="round" stroke-linejoin="round" stroke-width="1.72864503"/></g><g stroke="#481d32" stroke-linecap="round" stroke-linejoin="round" stroke-width="1.323"><path d="M-323.18 72.954c1.399-.67 2.923-.053 3.68 2.525.68 2.311.406 5.414.096 7.461a8.445 7.396-6.78 0 1 6.8 6.316 8.445 7.396-6.78 0 1-7.513 8.34 8.445 7.396-6.78 0 1-9.259-6.346 8.445 7.396-6.78 0 1 3.526-6.914c-.142-2.605-.268-7.898.923-9.735.501-.773 1.111-1.343 1.747-1.647z" fill="#f4cbaf" stroke-width="1.72864503"/><path d="M-327.634 88.881c3.736-3.282 7.581 2.159 2.02 3.55m5.187-7.894c-4.002 2.009-2.338 8.758 1.694 3.558-2.359 3.234.566 4.962 2.476 2.465-.475 2.965 2.645 3.04 3.555.45" fill="none" stroke-width="1.72864503"/></g><g transform="matrix(1.3066 0 0 1.3066 -368.061 -611.843)" fill="#481d32"><ellipse cx="2.268" cy="510.613" rx="1.676" ry="2.485"/><ellipse cx="18.672" cy="510.613" rx="1.676" ry="2.485"/></g><path d="M-366.957 39.325c.786-1.079 2.865-1.38 4.075-.53" fill="none" stroke="#481d32" stroke-linecap="round" stroke-width="1.729"/><g stroke="#481d32" stroke-linecap="round" stroke-linejoin="round" stroke-width="1.323"><path fill="#f6dbda" d="M-367.225 86.67l-23.232 3.597 4.55 29.38 23.231-3.597z" stroke-width="1.72864503"/><path d="M-371.437 92.919l-13.115 2.03M-370.59 98.385l-13.115 2.03" fill="none" stroke-width="1.72864503"/><path d="M-386 111.511c2.671.158 5.104-3.636-.153-3.055 2.692-1.224 5.076-5.122-1.559-3.178 1.948-.66 3.255-8.085-2.261-3.208-1.735 1.533-1.508 3.263-1.772 4.95-.266 1.697.227 4.067.58 5.928.574 3.023 4.702 4.925 6.29 4.505 5.055-1.49.468-2.57-.755-3.144 4.262-.767 3.144-2.708-.37-2.798z" fill="#f4cbaf" fill-rule="evenodd" stroke-width="1.72864503"/></g><ellipse cx="-354.381" cy="74.235" rx="2.837" ry="3.71" fill="#fff" stroke="#481d32" stroke-linecap="round" stroke-linejoin="round" stroke-width="1.729"/></g></svg>