<svg width="120" height="120" xmlns="http://www.w3.org/2000/svg"><path d="M98.865 40.265l11.846 6.553L73.158 99.62c-.832-5.435-3.776-10.166-2.424-16.328z" fill="#bebee6" fill-rule="evenodd"/><path d="M70.734 83.292l28.131-43.027 11.846 6.553L73.158 99.62" fill="none" stroke="#481d32" stroke-linecap="round" stroke-linejoin="round" stroke-width="1.782"/><path d="M21.135 40.265L9.289 46.818 46.842 99.62c1.237-5.198 3.71-9.69 2.424-16.328z" fill="#bebee6" fill-rule="evenodd"/><path d="M49.266 83.292L21.135 40.265 9.289 46.818 46.842 99.62" fill="none" stroke="#481d32" stroke-linecap="round" stroke-linejoin="round" stroke-width="1.782"/><path d="M30.577 103.144c9.746-5.975 14.179-16.949 8.02-39.844L23.32 53.371c-12.268 13.007-4.818 23.507-.764 28.005 7.432 8.246 8.8 12.993 8.02 21.768z" fill="#704241" fill-rule="evenodd"/><path d="M24.573 57.504l-1.35-3.6c-.215-.359-6.963 5.725-6.75 14.582s8.158 14.367 12.241 20.522c-.915-4.574-7.835-11.672-8.461-19.892s4.267-11.72 4.32-11.612z" fill="#fff" fill-rule="evenodd"/><path d="M23.321 53.371c-12.268 13.007-4.818 23.507-.764 28.005 7.432 8.246 8.8 12.993 8.02 21.768m3.628-2.737c6.182-6.61 10.17-15.103 4.392-37.107" fill="none" stroke="#481d32" stroke-linecap="round" stroke-width="1.78227945"/><path d="M34.859 64.7c-31.987-14.868.085-65.925 35.006-51.682 29.599 4.626 39.787 44.3 16.04 54.992" fill="#704241" fill-rule="evenodd"/><path d="M66.465 12.691c-8.608-.776-24.01 2.491-33.383 13.671.865 1.761 4.033 4.102 8.138 3.549-2.347 1.479-4.571 2.839-11.733.42-5.063 6.856-6.906 14.949-6.424 21.686-3.848-7.689.584-21.851 8.178-29.818C41.012 11.946 57.504 7.53 66.465 12.69z" fill="#fff" fill-rule="evenodd"/><path d="M34.859 64.7c-31.987-14.868.085-65.925 35.006-51.682m16.04 54.992c23.747-10.692 13.567-50.421-16.04-54.992-1.905-.294-4.91.593-6.074 1.627" fill="none" stroke="#481d32" stroke-linecap="round" stroke-width="1.78227945"/><g fill="#f4cbaf" fill-rule="evenodd" stroke="#481d32" stroke-linecap="round" stroke-linejoin="round" stroke-width="1.782"><path d="M106.266 26.122c2.619.892-1.357 13.222.439 7.352.936-3.06 3.805-7.053 5.483-6.243 1.399.676 1.881 3.09-.8 7.808-2.31 5.648 2.568-6.746 6-4.51s-6.586 11.789-1.764 7.109c1.043-1.012 2.897-2.5 3.806-1.746 1.775 1.472-1.5 6.898-4.884 10.034-6.246 5.79-10.694 1.49-15.776-1.663-4.285-2.659-6.121-7.13-4.6-8.74 1.07-1.135 4.185.555 6.076 2.43.525-4.121 2.711-12.959 6.02-11.831zM13.734 26.122c-2.619.892 1.357 13.222-.439 7.352-.936-3.06-3.805-7.053-5.483-6.243-1.399.676-1.881 3.09.8 7.808 2.31 5.648-2.568-6.746-6-4.51s6.586 11.789 1.764 7.109c-1.043-1.012-2.897-2.5-3.806-1.746-1.775 1.472 1.5 6.898 4.884 10.034 6.246 5.79 10.694 1.49 15.776-1.663 4.285-2.659 6.121-7.13 4.6-8.74-1.07-1.135-4.185.555-6.076 2.43-.525-4.121-2.711-12.959-6.02-11.831z"/></g><path d="M50.09 82.941c-3.586 10.375-5.64 20.245-2.139 36.752h23.97c3.5-16.507 1.448-26.377-2.139-36.752z" fill="#bebee6"/><path d="M52.801 91.102c1.745 5.166 3.73 10.297 7.135 15.225 3.43-5.075 5.358-10.15 7.135-15.225" fill="#fff" fill-rule="evenodd" stroke="#481d32" stroke-linecap="round" stroke-linejoin="round" stroke-width="1.78227945"/><path d="M55.392 82.423c-2.572 0-4.658 2.78-4.658 6.21 0 3.431 2.086 6.212 4.658 6.212 2.184-.003 4.074-2.027 4.546-4.87.47 2.842 2.359 4.866 4.542 4.87 2.573 0 4.658-2.781 4.658-6.211s-2.085-6.211-4.658-6.211z" fill="#fff" stroke="#481d32" stroke-linecap="round" stroke-linejoin="round" stroke-width="1.78227945"/><path d="M55.5 84.69c1.282 2.432 1.768 4.978 4.582 7.192 2.88-2.478 3.178-4.956 4.292-7.434" fill="#f4cbaf" fill-rule="evenodd" stroke="#481d32" stroke-linecap="round" stroke-linejoin="round" stroke-width="1.78227945"/><path d="M50.49 85.514l-2.451 10.788 3.432.323-.44 4.482 4.92 5.092m13.432-20.685l2.45 10.788-3.432.323.441 4.483-4.92 5.091M71.935 119.603c1.71-8.07 1.18-15.304 1.23-21.013m-26.432 0c.011 5.804-.518 12.761 1.232 21.013" fill="none" stroke="#481d32" stroke-linecap="round" stroke-linejoin="round" stroke-width="1.78227945"/><g transform="matrix(1.34715 0 0 1.34715 46.74 -479.416)"><ellipse transform="rotate(-14.855)" cx="-114.531" cy="384.119" rx="3.213" ry="3.828" fill="#f4cbaf" stroke="#481d32" stroke-width="1.323"/><ellipse transform="scale(-1 1) rotate(-14.855)" cx="-133.466" cy="379.097" rx="3.213" ry="3.828" fill="#f4cbaf" stroke="#481d32" stroke-width="1.323"/><ellipse cx="9.795" cy="397.193" rx="21.299" ry="23.813" fill="#f4cbaf"/><path d="M9.559 399.235l.472.803" fill="none" stroke="#481d32" stroke-linecap="round" stroke-width="1.323"/><ellipse cx="-6.042" cy="404.394" rx="4.679" ry="4.915" fill="#ff69b4" fill-opacity=".392"/><ellipse cx="25.632" cy="404.394" rx="4.679" ry="4.915" fill="#ff69b4" fill-opacity=".392"/><ellipse cx="9.795" cy="397.193" rx="21.299" ry="23.813" fill="none" stroke="#481d32" stroke-linecap="round" stroke-linejoin="round" stroke-width="1.323"/></g><g><path d="M51.991 22.978c-6.52 6.492-1.543 17.154 4.486 21.355 4.456 1.031 8.551 1.173 13.006 0 5.375.826 10.183.984 14.565-.127-4.725-4.758-3.603-10.516-2.897-16.738-12.79-7.527-20.69-8.194-29.16-4.49z" fill="#704241" fill-rule="evenodd"/><path d="M51.991 22.978c-6.52 6.492-1.543 17.154 4.486 21.355m13.388.064c-2.864-2.27-6.926-11.958-4.122-17.822m18.305 17.63c-4.725-4.757-3.603-10.515-2.897-16.737" fill="none" stroke="#481d32" stroke-linecap="round" stroke-linejoin="round" stroke-width="1.78227945"/></g><path d="M42.751 39.394c.81-1.112 2.954-1.423 4.2-.547" fill="none" stroke="#481d32" stroke-linecap="round" stroke-width="1.782"/><g fill="#481d32" fill-rule="evenodd" color="#000" white-space="normal"><path d="M76.166 52.948a.891.891 0 0 0-.555.187L70.888 56.7a.891.891 0 0 0 .566 1.602l5.523-.178a.891.891 0 1 0-.056-1.782l-2.718.087 2.482-1.87a.891.891 0 0 0-.519-1.611zM43.706 52.948a.891.891 0 0 1 .555.187l4.723 3.565a.891.891 0 0 1-.566 1.602l-5.522-.178a.891.891 0 1 1 .055-1.782l2.718.087-2.481-1.87a.891.891 0 0 1 .518-1.611z" solid-color="#000000" style="font-feature-settings:normal;font-variant-alternates:normal;font-variant-caps:normal;font-variant-ligatures:normal;font-variant-numeric:normal;font-variant-position:normal;isolation:auto;mix-blend-mode:normal;shape-padding:0;text-decoration-color:#000;text-decoration-line:none;text-decoration-style:solid;text-indent:0;text-orientation:mixed;text-transform:none"/></g><path d="M52.69 69.77c5.236 1.02 10.206 1.424 14.505.273 0 4.198-1.803 10.087-6.277 10.05-4.009-.032-6.542-4.286-6.542-9.69" fill="#fff" fill-rule="evenodd" stroke="#481d32" stroke-linecap="round" stroke-linejoin="round" stroke-width="1.782"/><path d="M4.068 64.635l9.005 7.92m-9.54-18.434L14.37 66.27m101.434-1.636l-9.004 7.92m9.539-18.434l-10.836 12.15" fill="none" stroke="#ff5851" stroke-linecap="round" stroke-linejoin="round" stroke-width="1.782"/></svg>