<svg width="120" height="120" xmlns="http://www.w3.org/2000/svg"><path d="M48.026 82.55c-8.88 15.56-6.955 26.388-6.099 37.082h6.934c0-12.205 1.068-18.799 1.955-27.73" fill="#bebee6" fill-rule="evenodd"/><path d="M48.026 82.55c-8.88 15.56-6.955 26.306-6.099 37" fill="none" stroke="#481d32" stroke-linecap="round" stroke-linejoin="round" stroke-width="1.78227945"/><path d="M70.648 84.412l12.985 12.157 4.137-6.556 9.292 5.092s-4.501 9.183-8.974 11.584c-1.838.987-3.978 1.403-5.983.827-4.78-1.37-11.907-8.44-11.907-8.44" fill="#bebee6" fill-rule="evenodd" stroke="#481d32" stroke-linecap="round" stroke-linejoin="round" stroke-width="1.782"/><path d="M30.578 103.144c9.746-5.975 14.179-16.949 8.02-39.844l-15.276-9.929c-12.268 13.007-4.818 23.507-.764 28.005 7.432 8.246 8.8 12.993 8.02 21.768z" fill="#704241" fill-rule="evenodd"/><path d="M24.574 57.504l-1.35-3.6c-.215-.359-6.963 5.725-6.751 14.582s8.159 14.367 12.242 20.522c-.915-4.574-7.836-11.672-8.462-19.892-.626-8.22 4.267-11.72 4.321-11.612z" fill="#fff" fill-rule="evenodd"/><path d="M23.322 53.371c-12.268 13.007-4.818 23.507-.764 28.005 7.432 8.246 8.8 12.993 8.02 21.768m3.628-2.737c6.181-6.61 10.169-15.103 4.392-37.107" fill="none" stroke="#481d32" stroke-linecap="round" stroke-width="1.78227945"/><path d="M34.86 64.7c-31.987-14.868.085-65.925 35.006-51.682 29.598 4.626 39.787 44.3 16.04 54.992" fill="#704241" fill-rule="evenodd"/><path d="M66.465 12.691c-8.608-.776-24.009 2.491-33.382 13.671.864 1.761 4.033 4.102 8.138 3.549-2.347 1.479-4.571 2.839-11.734.42-5.062 6.856-6.905 14.949-6.424 21.686-3.847-7.689.584-21.851 8.178-29.818C41.013 11.946 57.504 7.53 66.465 12.69z" fill="#fff" fill-rule="evenodd"/><path d="M34.86 64.7c-31.987-14.868.085-65.925 35.006-51.682m16.04 54.992c23.747-10.692 13.567-50.421-16.04-54.992-1.905-.294-4.91.593-6.074 1.627" fill="none" stroke="#481d32" stroke-linecap="round" stroke-width="1.78227945"/><path d="M50.09 82.941c-3.586 10.375-5.639 20.245-2.138 36.752h23.97c3.5-16.507 1.447-26.377-2.139-36.752z" fill="#bebee6"/><path d="M52.802 91.102c1.744 5.166 3.73 10.297 7.135 15.225 3.43-5.075 5.357-10.15 7.135-15.225" fill="#fff" fill-rule="evenodd" stroke="#481d32" stroke-linecap="round" stroke-linejoin="round" stroke-width="1.78227945"/><path d="M55.393 82.423c-2.573 0-4.658 2.78-4.658 6.21 0 3.431 2.085 6.212 4.658 6.212 2.184-.003 4.074-2.027 4.545-4.87.471 2.842 2.36 4.866 4.543 4.87 2.572 0 4.658-2.781 4.658-6.211s-2.086-6.211-4.658-6.211z" fill="#fff" stroke="#481d32" stroke-linecap="round" stroke-linejoin="round" stroke-width="1.78227945"/><path d="M55.5 84.69c1.283 2.432 1.768 4.978 4.583 7.192 2.879-2.478 3.178-4.956 4.292-7.434" fill="#f4cbaf" fill-rule="evenodd" stroke="#481d32" stroke-linecap="round" stroke-linejoin="round" stroke-width="1.78227945"/><path d="M50.49 85.514l-2.45 10.788 3.432.323-.441 4.482 4.92 5.092m13.433-20.685l2.45 10.788-3.432.323.44 4.483-4.92 5.091M71.935 119.603c1.712-8.07 1.181-14.517 1.23-20.227m-26.43 0c.01 5.805-.52 11.975 1.231 20.227" fill="none" stroke="#481d32" stroke-linecap="round" stroke-linejoin="round" stroke-width="1.78227945"/><g transform="matrix(1.34715 0 0 1.34715 46.742 -479.416)"><ellipse transform="rotate(-14.855)" cx="-114.531" cy="384.119" rx="3.213" ry="3.828" fill="#f4cbaf" stroke="#481d32" stroke-width="1.323"/><ellipse transform="scale(-1 1) rotate(-14.855)" cx="-133.466" cy="379.097" rx="3.213" ry="3.828" fill="#f4cbaf" stroke="#481d32" stroke-width="1.323"/><ellipse cx="9.795" cy="397.193" rx="21.299" ry="23.813" fill="#f4cbaf"/><path d="M9.559 399.235l.472.803" fill="none" stroke="#481d32" stroke-linecap="round" stroke-width="1.323"/><ellipse cx="-6.042" cy="404.394" rx="4.679" ry="4.915" fill="#ff69b4" fill-opacity=".392"/><ellipse cx="25.632" cy="404.394" rx="4.679" ry="4.915" fill="#ff69b4" fill-opacity=".392"/><ellipse cx="9.795" cy="397.193" rx="21.299" ry="23.813" fill="none" stroke="#481d32" stroke-linecap="round" stroke-linejoin="round" stroke-width="1.323"/></g><g><path d="M51.992 22.978c-6.521 6.492-1.543 17.154 4.486 21.355 4.455 1.031 8.55 1.173 13.006 0 5.374.826 10.183.984 14.565-.127-4.725-4.758-3.603-10.516-2.897-16.738-12.79-7.527-20.69-8.194-29.16-4.49z" fill="#704241" fill-rule="evenodd"/><path d="M51.992 22.978c-6.521 6.492-1.543 17.154 4.486 21.355m13.388.064c-2.864-2.27-6.927-11.958-4.123-17.822m18.306 17.63c-4.725-4.757-3.603-10.515-2.897-16.737" fill="none" stroke="#481d32" stroke-linecap="round" stroke-linejoin="round" stroke-width="1.78227945"/></g><g fill="#481d32" fill-rule="evenodd" color="#000" white-space="normal"><path d="M44.263 51.044a.713.713 0 0 0-.716.713c-.014.811.329 1.583.816 2.234.017.023.037.045.055.068a2.262 3.361 0 0 0-1 2.786 2.262 3.361 0 0 0 2.261 3.362 2.262 3.361 0 0 0 2.263-3.362 2.262 3.361 0 0 0-2.112-3.35 2.774 2.774 0 0 1-.325-.357c-.337-.45-.538-1.01-.532-1.358a.713.713 0 0 0-.71-.736zM75.611 51.044a.713.713 0 0 1 .716.713c.014.811-.329 1.583-.816 2.234l-.055.068a2.262 3.361 0 0 1 1 2.786 2.262 3.361 0 0 1-2.261 3.362 2.262 3.361 0 0 1-2.263-3.362 2.262 3.361 0 0 1 2.111-3.35c.114-.107.226-.224.326-.357.337-.45.537-1.01.531-1.358a.713.713 0 0 1 .711-.736z" solid-color="#000000" style="font-feature-settings:normal;font-variant-alternates:normal;font-variant-caps:normal;font-variant-ligatures:normal;font-variant-numeric:normal;font-variant-position:normal;isolation:auto;mix-blend-mode:normal;shape-padding:0;text-decoration-color:#000;text-decoration-line:none;text-decoration-style:solid;text-indent:0;text-orientation:mixed;text-transform:none"/></g><path d="M42.752 39.394c.81-1.112 2.954-1.423 4.2-.547" fill="none" stroke="#481d32" stroke-linecap="round" stroke-width="1.782"/><path d="M101.353 96.807c3.985-1.591 3.59-3.328-.044-3.167 6.318.15 4.434-4.536-.585-3.015 6.638-.826 5.932-6.49-.946-2.69 6.85-3.416-.263-6.124-6.166-.64 2.11-2.724 2.3-9.248-3.857-2.826-1.812 1.89-2.5 4.3-2.263 8.046.227 3.6 2.467 4.374 4.635 5.22 2.88 1.125 6.397.201 9.226-.928z" fill="#f4cbaf" fill-rule="evenodd" stroke="#481d32" stroke-linecap="round" stroke-linejoin="round" stroke-width="1.782"/><path d="M116.839 86.237l-4.222 1.765m.82-10.523l-4.222 4.096m-3.78-9.326l-1.891 4.79" fill="none" stroke="#ff5851" stroke-linecap="round" stroke-linejoin="round" stroke-width="1.782"/><path d="M63.137 73.708a3.313 3.318 0 0 1-3.2 2.459 3.313 3.318 0 0 1-3.2-2.46" fill="none" stroke="#481d32" stroke-linecap="round" stroke-linejoin="round" stroke-width="1.782"/></svg>