<svg width="120" height="120" xmlns="http://www.w3.org/2000/svg"><path d="M71.276 86.005L83.87 97.796l4.013-6.358 9.013 4.938s-4.367 8.907-8.705 11.236c-1.782.957-3.858 1.36-5.803.802-4.636-1.33-11.548-8.186-11.548-8.186" fill="#36619e" fill-rule="evenodd" stroke="#481d32" stroke-linecap="round" stroke-linejoin="round" stroke-width="1.729"/><g fill="#36619e" fill-rule="evenodd"><path d="M48.409 84.082c-8.612 15.093-6.746 25.594-5.915 35.966h6.725c0-11.837 1.036-18.233 1.896-26.895"/><path d="M48.409 84.082c-8.612 15.093-6.746 25.515-5.915 35.886" stroke="#481d32" stroke-linecap="round" stroke-linejoin="round" stroke-width="1.72864503"/></g><path d="M49.269 84.762c-1.33 2.992-2.075 11.685-2.075 17.588s.953 14.425 2.075 17.588h21.438c1.122-3.163 2.075-11.684 2.075-17.588s-.745-14.596-2.075-17.588z" fill="#36619e" fill-rule="evenodd"/><path d="M47.194 99.54c0 6.846.953 16.728 2.075 20.397m21.438 0c1.122-3.669 2.075-13.551 2.075-20.398" fill="none" stroke="#481d32" stroke-linecap="round" stroke-linejoin="round" stroke-width="1.72864503"/><path d="M51.345 84.244l8.643 33.188 8.643-33.188" fill="#fff" fill-rule="evenodd"/><path d="M56.61 91.324l2.2 4.598-1.65 7.578 2.828 10.39 2.827-10.39-1.65-7.578 2.2-4.598z" fill="#ff5952" fill-rule="evenodd"/><path d="M63.385 104.07l-2.22-8.148 2.2-4.598h-6.754l2.2 4.598-2.22 8.147" fill="#ff5952" fill-rule="evenodd" stroke="#481d32" stroke-linecap="round" stroke-linejoin="round" stroke-width="1.72864503"/><path d="M51.345 84.244l4.889 18.772 3.754 14.416 8.643-33.188" fill="none" stroke="#481d32" stroke-linecap="round" stroke-linejoin="round" stroke-width="1.72864503"/><path fill="#f4cbaf" stroke="#481d32" stroke-linecap="round" stroke-linejoin="round" stroke-width="1.72864503" d="M54.198 84.07h11.581v7.434H54.198z"/><path d="M51.259 84.935l2.42 10.976 6.309-4.442 6.31 4.442 2.42-10.976-8.73 6.419z" fill="#fff" fill-rule="evenodd" stroke="#481d32" stroke-linecap="round" stroke-linejoin="round" stroke-width="1.72864503"/><path d="M35.653 62.86H83.81c14.246-9.27 9.61-30.127.856-40.335-8.482-9.889-27.77-14.064-38.746-5.133-7.611.952-17.318 2.496-23.834 16.5 4.278-.373 8.434-1.96 12.712-4.277-5.215 3.752-17.54 16.347.855 33.245z" fill="#ad8c7a" fill-rule="evenodd"/><path d="M78.31 27.292c3.73 2.144 6.243.688 7.7-2.689 1.223 1.467 2.119 2.934 2.69 4.4-4.165 1.814-7.849 1.995-10.39-1.71zM22.575 33.77l3.545-.855c3.618-9.336 9.32-10.813 13.2-13.934-4.074 1.349-11.448 3.778-16.745 14.79zm11 21.39l-2.689 2.2c-10.637-12.566-1.238-24.824 6.112-27.501-11.25 11.038-8.47 19.748-3.423 25.3z" fill="#fff" fill-opacity=".948" fill-rule="evenodd"/><path d="M88.075 59.147c8.834-10.313 4.317-27.614-3.41-36.622-8.48-9.889-27.769-14.064-38.745-5.133-7.611.952-17.318 2.496-23.834 16.5 4.278-.373 8.434-1.96 12.712-4.277-4.852 3.49-15.858 14.636-2.552 29.78" fill="none" stroke="#481d32" stroke-linecap="round" stroke-linejoin="round" stroke-width="1.72864503"/><g transform="matrix(1.3066 0 0 1.3066 47.19 -462.265)"><ellipse transform="rotate(-14.855)" cx="-114.531" cy="384.119" rx="3.213" ry="3.828" fill="#f4cbaf" stroke="#481d32" stroke-width="1.323"/><ellipse transform="scale(-1 1) rotate(-14.855)" cx="-133.466" cy="379.097" rx="3.213" ry="3.828" fill="#f4cbaf" stroke="#481d32" stroke-width="1.323"/><ellipse cx="9.795" cy="397.193" rx="21.299" ry="23.813" fill="#f4cbaf"/><path d="M9.559 399.235l.472.803" fill="none" stroke="#481d32" stroke-linecap="round" stroke-width="1.323"/><ellipse cx="9.795" cy="397.193" rx="21.299" ry="23.813" fill="none" stroke="#481d32" stroke-linecap="round" stroke-linejoin="round" stroke-width="1.323"/></g><g><path d="M53.222 24.177c1.819 8.106 5.117 15.415 16.075 21.693-.74-2.711-.901-5.037-.259-6.827 3.649 5.41 8.08 7.701 12.013 8.988-.507-2.215-.385-4.555.26-7 1.72 3.29 5.083 6.527 8.297 7.087C86.836 41.9 85.954 37.018 79 30.15c-9.275-9.16-17.108-6.96-25.778-5.973z" fill="#ad8c7a" fill-rule="evenodd"/><path d="M53.222 24.177c1.819 8.106 5.117 15.415 16.075 21.693-.74-2.711-.901-5.037-.259-6.827 3.649 5.41 8.08 7.701 12.013 8.988-.507-2.215-.385-4.555.26-7 1.72 3.29 5.083 6.527 8.297 7.087" fill="none" stroke="#481d32" stroke-linecap="round" stroke-linejoin="round" stroke-width="1.72864503"/></g><g stroke="#481d32" stroke-linecap="round" stroke-linejoin="round" stroke-width="1.323"><path d="M99.729 74.169c1.55.004 2.655 1.222 2.218 3.873-.392 2.377-1.988 5.053-3.155 6.762a8.445 7.396 18.97 0 1 3.381 8.643 8.445 7.396 18.97 0 1-10.391 4.248 8.445 7.396 18.97 0 1-5.582-9.739 8.445 7.396 18.97 0 1 6.18-4.695c1.002-2.408 3.19-7.23 5.06-8.367.787-.479 1.584-.727 2.289-.725z" fill="#f4cbaf" stroke-width="1.72864503"/><path d="M88.797 86.58c4.791-1.333 5.891 5.237.278 4.074m8.1-4.856c-4.476.07-5.91 6.873-.019 3.94-3.53 1.889-1.646 4.716 1.16 3.297-1.717 2.464 1.06 3.887 3.006 1.948" fill="none" stroke-width="1.72864503"/></g><g transform="matrix(1.3066 0 0 1.3066 46.308 -611.843)" fill="#481d32"><ellipse cx="2.268" cy="510.613" rx="1.676" ry="2.485"/><ellipse cx="18.672" cy="510.613" rx="1.676" ry="2.485"/></g><path d="M47.413 39.325c.785-1.079 2.864-1.38 4.074-.53" fill="none" stroke="#481d32" stroke-linecap="round" stroke-width="1.729"/><path d="M53.084 71.224l13.82.159c0 2.449-1.718 5.884-5.98 5.863-3.82-.02-6.233-2.5-6.233-5.653" fill="#fff" fill-rule="evenodd" stroke="#481d32" stroke-linecap="round" stroke-linejoin="round" stroke-width="1.729"/><path d="M113.103 74.612l-4.094 1.711m.794-10.205l-4.094 3.972m-3.667-9.045l-1.834 4.645" fill="none" stroke="#ff5851" stroke-linecap="round" stroke-linejoin="round" stroke-width="1.729"/></svg>