<svg width="75" height="100" xmlns="http://www.w3.org/2000/svg"><rect x="30.999" y="48.001" width="13.003" height="49.997" rx="3" ry="3" fill="#cdcdcd" stroke="#481d32" stroke-linecap="round" stroke-linejoin="round" stroke-width="2"/><ellipse cx="37.5" cy="37.5" rx="35.501" ry="35.497" fill="#fff" stroke="#481d32" stroke-linecap="round" stroke-linejoin="round" stroke-width="2"/><path d="M62.785 27.521l-4.62-4.62c-.676-.676-1.352-.901-2.253-.901-.902 0-1.69.338-2.254.901L31.461 45.1l-9.915-9.916c-.677-.676-1.353-.901-2.254-.901s-1.69.338-2.253.901l-4.733 4.62c-.676.676-.901 1.352-.901 2.253 0 .902.338 1.69.901 2.254l12.17 12.169 4.619 4.62c.676.676 1.352.901 2.253.901.902 0 1.69-.338 2.254-.901l4.62-4.62 24.45-24.45c.676-.677.902-1.353.902-2.254.112-.79-.226-1.578-.789-2.254z" fill-opacity=".2"/><path d="M62.785 25.521l-4.62-4.62c-.676-.676-1.352-.901-2.253-.901-.902 0-1.69.338-2.254.901L31.461 43.1l-9.915-9.916c-.677-.676-1.353-.901-2.254-.901s-1.69.338-2.253.901l-4.733 4.62c-.676.676-.901 1.352-.901 2.253 0 .902.338 1.69.901 2.254l12.17 12.169 4.619 4.62c.676.676 1.352.901 2.253.901.902 0 1.69-.338 2.254-.901l4.62-4.62 24.45-24.45c.676-.677.902-1.353.902-2.254.112-.79-.226-1.578-.789-2.254z" fill="#2ecd71"/></svg>