<svg width="46" height="46" xmlns="http://www.w3.org/2000/svg"><defs><filter id="a" x="0" width="1" height="1.5" color-interpolation-filters="sRGB"><feFlood flood-opacity=".2"/><feComposite in2="SourceGraphic" operator="in"/><feOffset dy="2" result="result1"/><feComposite in="SourceGraphic" in2="result1"/></filter></defs><path d="M25.029 6.001c-1.293.016-2.6.194-3.892.545-5.237 1.423-9.265 5.436-10.9 10.455H5.846c-.74 0-1.076.409-.672 1.092l5.386 9.421c.337.683 1.01.615 1.347 0l5.386-9.421C17.63 17.41 17.36 17 16.62 17h-2.158c1.435-3.174 4.2-5.642 7.696-6.592 5.185-1.408 10.632.881 13.316 5.594 2.683 4.712 1.913 10.638-1.883 14.486-3.795 3.848-9.64 4.629-14.288 1.908a1.973 2 0 1 0-1.972 3.463c6.178 3.616 14.006 2.571 19.05-2.543 5.044-5.114 6.075-13.05 2.508-19.314-2.675-4.698-7.447-7.597-12.574-7.963-.427-.03-.855-.044-1.286-.039z" fill="#fff" filter="url(#a)"/></svg>