<svg enable-background="new 0 0 56 56" viewBox="0 0 56 56" xmlns="http://www.w3.org/2000/svg"><defs><filter id="a" x="0" width="1" height="1.5" color-interpolation-filters="sRGB"><feFlood flood-opacity=".2"/><feComposite in2="SourceGraphic" operator="in"/><feOffset dy="2" result="result1"/><feComposite in="SourceGraphic" in2="result1"/></filter></defs><path d="M50.286 14.15l-4.072-4.1c-.596-.6-1.192-.8-1.986-.8-.795 0-1.49.3-1.986.8l-19.565 19.7-8.739-8.8c-.596-.6-1.192-.8-1.986-.8-.795 0-1.49.3-1.986.8l-4.172 4.1c-.595.6-.794 1.2-.794 2s.298 1.5.794 2l10.726 10.8 4.072 4.1c.596.6 1.192.8 1.986.8.795 0 1.49-.3 1.986-.8l4.072-4.1 21.55-21.7c.596-.6.795-1.2.795-2 .1-.7-.199-1.4-.695-2z" fill="#2ecd71" filter="url(#a)"/></svg>