<svg width="46" height="46" xmlns="http://www.w3.org/2000/svg"><defs><filter id="a" x="0" width="1" height="1.5" color-interpolation-filters="sRGB"><feFlood flood-opacity=".2"/><feComposite in2="SourceGraphic" operator="in"/><feOffset dy="2" result="result1"/><feComposite in="SourceGraphic" in2="result1"/></filter></defs><path d="M45 19.6c.6-.6 1-1.4 1-2.3s-.3-1.7-1-2.3l-4.3-4.2c-.6-.6-1.4-.9-2.3-.9-.8 0-1.7.4-2.2 1l-8.1 8.3-8-8.4c-.6-.7-1.5-1-2.4-1.1-.9 0-1.8.3-2.5 1l-4.2 4c-.6.6-1 1.4-1 2.3s.4 1.7 1 2.3l8.8 8.3-7.8 8c-1.2 1.2-1.2 3.1-.1 4.4l3 3.3c.6.6 1.4 1 2.2 1s1.7-.3 2.3-.9l8.5-8 8.3 7.9c.6.6 1.4.9 2.3.9s1.7-.4 2.2-1l3-3.3c1.2-1.2 1.1-3.2 0-4.4l-7.6-7.9z" fill="#e84c3d" filter="url(#a)"/></svg>