<svg width="46" height="46" xmlns="http://www.w3.org/2000/svg"><defs><filter id="a" x="0" width="1" height="1.5" color-interpolation-filters="sRGB"><feFlood flood-opacity=".2"/><feComposite in2="SourceGraphic" operator="in"/><feOffset dy="2" result="result1"/><feComposite in="SourceGraphic" in2="result1"/></filter></defs><path d="M23 4c-1.662 0-3 1.342-3 3.01v12.927h-9c-1.662 0-3 1.342-3 3.01V36.99A2.998 2.998 0 0 0 11 40h24c1.662 0 3-1.342 3-3.01V7.01A2.998 2.998 0 0 0 35 4zm5.924 5.884a2 2.007 0 0 1 2.03 2.035v18.185a2 2.007 0 0 1-2 2.006h-6.915v2.616c0 .622-.343.847-.914.564l-7.889-4.522c-.514-.283-.571-.85 0-1.133l7.889-4.522c.571-.339.914-.057.914.565v2.42h4.914V11.918a2 2.007 0 0 1 1.97-2.035z" fill="#fff" filter="url(#a)"/></svg>