<svg width="75" height="100" xmlns="http://www.w3.org/2000/svg"><defs><filter id="a" x="0" width="1" height="1.5" color-interpolation-filters="sRGB"><feFlood flood-opacity=".2"/><feComposite in2="SourceGraphic" operator="in"/><feOffset dy="2" result="result1"/><feComposite in="SourceGraphic" in2="result1"/></filter></defs><rect x="31" y="48" width="13" height="50" rx="3" ry="3" fill="#cdcdcd" stroke="#481d32" stroke-linecap="round" stroke-linejoin="round" stroke-width="2"/><ellipse cx="37.5" cy="37.5" rx="35.5" ry="35.5" fill="#fff" stroke="#481d32" stroke-linecap="round" stroke-linejoin="round" stroke-width="2"/><path d="M61.111 26.194C61.944 25.361 62.5 24.25 62.5 23s-.417-2.361-1.389-3.194l-5.972-5.834c-.833-.833-1.945-1.25-3.195-1.25-1.11 0-2.36.556-3.055 1.39l-11.25 11.527-11.111-11.667c-.834-.972-2.084-1.389-3.334-1.528-1.25 0-2.5.417-3.472 1.39l-5.833 5.555c-.833.833-1.389 1.944-1.389 3.194s.556 2.361 1.389 3.195L26.11 37.306l-10.833 11.11c-1.667 1.667-1.667 4.306-.14 6.112l4.168 4.583c.833.833 1.944 1.389 3.055 1.389 1.111 0 2.361-.417 3.195-1.25L37.36 48.139 48.89 59.11c.833.833 1.944 1.25 3.194 1.25s2.361-.555 3.056-1.389l4.167-4.583c1.666-1.667 1.527-4.445 0-6.111L48.75 37.306z" fill="#e84c3d" filter="url(#a)"/></svg>