<svg xmlns="http://www.w3.org/2000/svg" width="17" height="46"><path fill-opacity=".2" d="M0 0h17v46H0z"/><g fill="#fff"><path d="M3.787 30.714q0-.447.298-.718.284-.284.745-.284h7.597q.474 0 .772.284.285.271.285.718 0 .487-.352.785l-5.81 4.537h5.105q.474 0 .772.271.285.257.285.704 0 .447-.285.718-.298.271-.772.271H4.83q-.46 0-.745-.27-.298-.285-.298-.732 0-.501.352-.772l5.77-4.537h-5.08q-.46 0-.744-.27-.298-.272-.298-.705zM13.484 26.95q0 .446-.244.744-.244.285-.718.285H7.58q-.474 0-.718-.298-.243-.298-.243-.731 0-.434.243-.718.244-.298.718-.298h4.943q.474 0 .718.298.244.284.244.718zm-7.95 0q0 .541-.27.853-.285.311-.76.311-.473 0-.744-.311-.27-.312-.27-.853 0-.529.284-.84.27-.325.73-.325.475 0 .76.311.27.312.27.854zM7.2 19.818q-.285-.135-.42-.352-.149-.23-.149-.488 0-.379.257-.677.244-.298.596-.298.203 0 .393.095l4.997 2.438q.298.135.46.406.15.271.15.583 0 .311-.15.582-.162.27-.46.42l-4.997 2.437q-.19.082-.366.082-.365 0-.623-.312-.257-.325-.257-.718 0-.284.149-.514.135-.23.42-.366l3.643-1.666zM11.425 11.93q0-.27.217-.433.217-.176.555-.176.23 0 .434.135.19.136.325.38.243.46.406 1.07.149.609.149 1.123 0 1.084-.42 1.896-.42.8-1.192 1.233-.785.433-1.842.433-1.015 0-1.8-.42-.786-.42-1.22-1.164-.447-.745-.447-1.693 0-.908.407-1.585.392-.69 1.137-1.07.732-.379 1.72-.379.298 0 .46.15.15.135.15.392v3.792q.799-.095 1.164-.488.353-.392.353-1.124 0-.392-.095-.704-.095-.311-.258-.69-.08-.19-.135-.366-.068-.176-.068-.312zM8 14.26q0 .582.38.934.365.352 1.069.42V13q-.718.04-1.083.366-.366.311-.366.894zM13.484 9.016q0 .447-.244.745-.244.284-.718.284H4.75q-.474 0-.718-.284-.244-.298-.244-.745 0-.434.244-.718Q4.275 8 4.749 8h7.773q.474 0 .718.298.244.284.244.718z"/></g></svg>