<svg width="46" height="46" xmlns="http://www.w3.org/2000/svg"><defs><filter id="a" x="0" width="1" height="1.5" color-interpolation-filters="sRGB"><feFlood flood-opacity=".2"/><feComposite in2="SourceGraphic" operator="in"/><feOffset dy="2" result="result1"/><feComposite in="SourceGraphic" in2="result1"/></filter></defs><path d="M29 20h-4v-4c0-1.1-.9-2-2-2s-2 .9-2 2v4h-4c-1.1 0-2 .9-2 2s.9 2 2 2h4v4c0 1.1.9 2 2 2s2-.9 2-2v-4h4c1.1 0 2-.9 2-2s-.9-2-2-2zM23 4C13.1 4 5 12.1 5 22s8.1 18 18 18 18-8.1 18-18S32.9 4 23 4zm0 32c-7.7 0-14-6.3-14-14S15.3 8 23 8s14 6.3 14 14-6.3 14-14 14z" fill="#2980b9" filter="url(#a)"/></svg>